#N canvas 230 211 335 331 10;
#X obj 43 110 until;
#X obj 43 77 f \$1;
#X obj 43 163 f;
#X msg 58 138 0;
#X obj 43 22 inlet;
#X obj 43 221 outlet;
#X obj 72 163 + 1;
#X obj 43 48 t b b;
#X text 79 76 \$1 is argument: number of iterations;
#X obj 124 222 sel \$1;
#X obj 43 185 t f f;
#X obj 157 158 loadbang;
#X obj 157 201 - 1;
#X obj 157 179 \$1;
#X obj 124 254 outlet;
#X text 176 252 bang when done;
#X floatatom 198 222 5 0 0 0 - - -;
#X connect 0 0 2 0;
#X connect 1 0 0 0;
#X connect 2 0 6 0;
#X connect 2 0 10 0;
#X connect 3 0 2 1;
#X connect 4 0 7 0;
#X connect 6 0 2 1;
#X connect 7 0 1 0;
#X connect 7 1 3 0;
#X connect 9 0 14 0;
#X connect 10 0 9 0;
#X connect 10 1 5 0;
#X connect 11 0 13 0;
#X connect 12 0 9 1;
#X connect 12 0 16 0;
#X connect 13 0 12 0;
