#N canvas 65 82 450 300 10;
#X obj 15 212 tb_peakcomp~ -10 8 10 100 0;
#X obj 16 169 inlet~;
#X obj 15 263 outlet~;
#X obj 175 176 inlet~;
#X obj 123 263 outlet~;
#X obj 14 241 *~;
#X obj 124 241 *~;
#X obj 57 242 *~;
#X obj 167 242 *~;
#X obj 287 168 == 0;
#X obj 233 165 sig~;
#X obj 287 190 sig~;
#X obj 233 83 inlet;
#X connect 0 0 5 0;
#X connect 0 1 6 0;
#X connect 1 0 0 0;
#X connect 1 0 7 0;
#X connect 3 0 0 1;
#X connect 3 0 8 0;
#X connect 5 0 2 0;
#X connect 6 0 4 0;
#X connect 7 0 2 0;
#X connect 8 0 4 0;
#X connect 9 0 11 0;
#X connect 10 0 5 1;
#X connect 10 0 6 1;
#X connect 11 0 8 1;
#X connect 11 0 7 1;
#X connect 12 0 10 0;
#X connect 12 0 9 0;
