#N canvas 518 177 722 520 10;
#X obj 105 365 dac~ 1 2;
#N canvas 0 0 450 300 (subpatch) 0;
#X array volbp 24 float 3;
#A 0 0 0 0 0 0 0.0472441 0 0.165354 0.181102 0 0 0 0.23622 0 0 0.23622
0 0 0 0 0 0 0 0;
#X coords 0 1 24 0 200 140 1 0 0;
#X restore 255 315 graph;
#X obj 104 326 catch~ \$0-main;
#N canvas 65 54 1301 714 voices 0;
#X obj 10 62 harmonicVoice 1;
#X obj 53 21 r \$0-pitch;
#X obj 97 41 r \$0-resonance;
#X obj 11 93 throw~ \$0-main;
#X obj 54 134 r \$0-pitch;
#X obj 98 154 r \$0-resonance;
#X obj 12 206 throw~ \$0-main;
#X obj 55 248 r \$0-pitch;
#X obj 99 268 r \$0-resonance;
#X obj 13 320 throw~ \$0-main;
#X obj 55 359 r \$0-pitch;
#X obj 99 379 r \$0-resonance;
#X obj 13 431 throw~ \$0-main;
#X obj 263 21 r \$0-pitch;
#X obj 307 41 r \$0-resonance;
#X obj 221 93 throw~ \$0-main;
#X obj 264 134 r \$0-pitch;
#X obj 308 154 r \$0-resonance;
#X obj 222 206 throw~ \$0-main;
#X obj 265 248 r \$0-pitch;
#X obj 309 268 r \$0-resonance;
#X obj 223 320 throw~ \$0-main;
#X obj 265 359 r \$0-pitch;
#X obj 309 379 r \$0-resonance;
#X obj 223 431 throw~ \$0-main;
#X obj 453 22 r \$0-pitch;
#X obj 497 42 r \$0-resonance;
#X obj 411 94 throw~ \$0-main;
#X obj 454 135 r \$0-pitch;
#X obj 498 155 r \$0-resonance;
#X obj 412 207 throw~ \$0-main;
#X obj 455 249 r \$0-pitch;
#X obj 499 269 r \$0-resonance;
#X obj 413 321 throw~ \$0-main;
#X obj 455 360 r \$0-pitch;
#X obj 499 380 r \$0-resonance;
#X obj 413 432 throw~ \$0-main;
#X obj 663 22 r \$0-pitch;
#X obj 707 42 r \$0-resonance;
#X obj 621 94 throw~ \$0-main;
#X obj 664 135 r \$0-pitch;
#X obj 708 155 r \$0-resonance;
#X obj 622 207 throw~ \$0-main;
#X obj 665 249 r \$0-pitch;
#X obj 709 269 r \$0-resonance;
#X obj 623 321 throw~ \$0-main;
#X obj 665 360 r \$0-pitch;
#X obj 709 380 r \$0-resonance;
#X obj 623 432 throw~ \$0-main;
#X obj 10 2 receive~ \$0-noise;
#X obj 11 115 receive~ \$0-noise;
#X obj 12 229 receive~ \$0-noise;
#X obj 12 340 receive~ \$0-noise;
#X obj 220 2 receive~ \$0-noise;
#X obj 221 115 receive~ \$0-noise;
#X obj 222 229 receive~ \$0-noise;
#X obj 222 340 receive~ \$0-noise;
#X obj 410 3 receive~ \$0-noise;
#X obj 411 116 receive~ \$0-noise;
#X obj 412 230 receive~ \$0-noise;
#X obj 412 341 receive~ \$0-noise;
#X obj 620 3 receive~ \$0-noise;
#X obj 621 116 receive~ \$0-noise;
#X obj 622 230 receive~ \$0-noise;
#X obj 622 341 receive~ \$0-noise;
#X obj 863 22 r \$0-pitch;
#X obj 907 42 r \$0-resonance;
#X obj 821 94 throw~ \$0-main;
#X obj 864 135 r \$0-pitch;
#X obj 908 155 r \$0-resonance;
#X obj 822 207 throw~ \$0-main;
#X obj 865 249 r \$0-pitch;
#X obj 909 269 r \$0-resonance;
#X obj 823 321 throw~ \$0-main;
#X obj 865 360 r \$0-pitch;
#X obj 909 380 r \$0-resonance;
#X obj 823 432 throw~ \$0-main;
#X obj 1073 22 r \$0-pitch;
#X obj 1117 42 r \$0-resonance;
#X obj 1031 94 throw~ \$0-main;
#X obj 1074 135 r \$0-pitch;
#X obj 1118 155 r \$0-resonance;
#X obj 1032 207 throw~ \$0-main;
#X obj 1075 249 r \$0-pitch;
#X obj 1119 269 r \$0-resonance;
#X obj 1033 321 throw~ \$0-main;
#X obj 1075 360 r \$0-pitch;
#X obj 1119 380 r \$0-resonance;
#X obj 1033 432 throw~ \$0-main;
#X obj 820 3 receive~ \$0-noise;
#X obj 821 116 receive~ \$0-noise;
#X obj 822 230 receive~ \$0-noise;
#X obj 822 341 receive~ \$0-noise;
#X obj 1030 3 receive~ \$0-noise;
#X obj 1031 116 receive~ \$0-noise;
#X obj 1032 230 receive~ \$0-noise;
#X obj 1032 341 receive~ \$0-noise;
#X obj 11 175 harmonicVoice 2;
#X obj 12 289 harmonicVoice 3;
#X obj 12 400 harmonicVoice 4;
#X obj 220 62 harmonicVoice 5;
#X obj 221 175 harmonicVoice 6;
#X obj 222 289 harmonicVoice 7;
#X obj 222 400 harmonicVoice 8;
#X obj 410 63 harmonicVoice 9;
#X obj 411 176 harmonicVoice 10;
#X obj 412 290 harmonicVoice 11;
#X obj 412 401 harmonicVoice 12;
#X obj 620 63 harmonicVoice 13;
#X obj 621 176 harmonicVoice 14;
#X obj 622 290 harmonicVoice 15;
#X obj 622 401 harmonicVoice 16;
#X obj 820 63 harmonicVoice 17;
#X obj 821 176 harmonicVoice 18;
#X obj 822 290 harmonicVoice 19;
#X obj 822 401 harmonicVoice 20;
#X obj 1030 63 harmonicVoice 21;
#X obj 1031 176 harmonicVoice 22;
#X obj 1032 290 harmonicVoice 23;
#X obj 1032 401 harmonicVoice 24;
#X connect 0 0 3 0;
#X connect 1 0 0 1;
#X connect 2 0 0 2;
#X connect 4 0 97 1;
#X connect 5 0 97 2;
#X connect 7 0 98 1;
#X connect 8 0 98 2;
#X connect 10 0 99 1;
#X connect 11 0 99 2;
#X connect 13 0 100 1;
#X connect 14 0 100 2;
#X connect 16 0 101 1;
#X connect 17 0 101 2;
#X connect 19 0 102 1;
#X connect 20 0 102 2;
#X connect 22 0 103 1;
#X connect 23 0 103 2;
#X connect 25 0 104 1;
#X connect 26 0 104 2;
#X connect 28 0 105 1;
#X connect 29 0 105 2;
#X connect 31 0 106 1;
#X connect 32 0 106 2;
#X connect 34 0 107 1;
#X connect 35 0 107 2;
#X connect 37 0 108 1;
#X connect 38 0 108 2;
#X connect 40 0 109 1;
#X connect 41 0 109 2;
#X connect 43 0 110 1;
#X connect 44 0 110 2;
#X connect 46 0 111 1;
#X connect 47 0 111 2;
#X connect 49 0 0 0;
#X connect 50 0 97 0;
#X connect 51 0 98 0;
#X connect 52 0 99 0;
#X connect 53 0 100 0;
#X connect 54 0 101 0;
#X connect 55 0 102 0;
#X connect 56 0 103 0;
#X connect 57 0 104 0;
#X connect 58 0 105 0;
#X connect 59 0 106 0;
#X connect 60 0 107 0;
#X connect 61 0 108 0;
#X connect 62 0 109 0;
#X connect 63 0 110 0;
#X connect 64 0 111 0;
#X connect 65 0 112 1;
#X connect 66 0 112 2;
#X connect 68 0 113 1;
#X connect 69 0 113 2;
#X connect 71 0 114 1;
#X connect 72 0 114 2;
#X connect 74 0 115 1;
#X connect 75 0 115 2;
#X connect 77 0 116 1;
#X connect 78 0 116 2;
#X connect 80 0 117 1;
#X connect 81 0 117 2;
#X connect 83 0 118 1;
#X connect 84 0 118 2;
#X connect 86 0 119 1;
#X connect 87 0 119 2;
#X connect 89 0 112 0;
#X connect 90 0 113 0;
#X connect 91 0 114 0;
#X connect 92 0 115 0;
#X connect 93 0 116 0;
#X connect 94 0 117 0;
#X connect 95 0 118 0;
#X connect 96 0 119 0;
#X connect 97 0 6 0;
#X connect 98 0 9 0;
#X connect 99 0 12 0;
#X connect 100 0 15 0;
#X connect 101 0 18 0;
#X connect 102 0 21 0;
#X connect 103 0 24 0;
#X connect 104 0 27 0;
#X connect 105 0 30 0;
#X connect 106 0 33 0;
#X connect 107 0 36 0;
#X connect 108 0 39 0;
#X connect 109 0 42 0;
#X connect 110 0 45 0;
#X connect 111 0 48 0;
#X connect 112 0 67 0;
#X connect 113 0 70 0;
#X connect 114 0 73 0;
#X connect 115 0 76 0;
#X connect 116 0 79 0;
#X connect 117 0 82 0;
#X connect 118 0 85 0;
#X connect 119 0 88 0;
#X restore 108 176 pd voices;
#X obj 367 101 s \$0-resonance;
#X floatatom 367 72 5 0 0 0 - - -;
#X obj 119 98 send~ \$0-noise;
#X obj 117 60 *~;
#X obj 222 101 s \$0-pitch;
#X floatatom 222 59 5 0 0 0 - - -;
#X floatatom 149 48 5 0 0 0 - - -;
#X obj 251 28 sigmund~;
#X floatatom 270 57 5 0 0 0 - - -;
#X floatatom 313 57 5 0 0 0 - - -;
#X obj 323 89 > 60;
#X obj 306 118 spigot;
#X obj 400 243 print;
#X obj 412 165 moses 0;
#X obj -49 51 s_simpler;
#X msg 1 16 buffer;
#X obj -52 25 bng 15 250 50 0 empty empty empty 17 7 0 10 -262144 -1
-1;
#X msg -120 27 60;
#X floatatom 15 81 5 0 0 0 - - -;
#X obj 106 7 noise~;
#X obj -134 263 tabwrite~ volbp;
#X msg -57 210 bang;
#X obj -155 119 adc~ 1;
#X obj -148 161 +~ 1;
#X obj -146 191 /~ 2;
#X msg -142 397 \; volbp const 0;
#X obj 260 4 adc~ 1;
#X floatatom 406 191 5 0 0 0 - - -;
#X obj 176 106 vsl 15 128 0 1 0 0 empty empty empty 0 -9 0 10 -262144
-1 -1 2100 1;
#X obj 169 259 tabwrite volbp;
#X msg 220 213 7;
#X connect 2 0 0 0;
#X connect 2 0 0 1;
#X connect 5 0 4 0;
#X connect 7 0 6 0;
#X connect 9 0 8 0;
#X connect 10 0 7 1;
#X connect 11 0 12 0;
#X connect 11 0 15 0;
#X connect 11 1 13 0;
#X connect 13 0 14 0;
#X connect 14 0 15 1;
#X connect 15 0 17 0;
#X connect 17 1 16 0;
#X connect 17 1 31 0;
#X connect 18 0 0 0;
#X connect 18 1 22 0;
#X connect 19 0 18 1;
#X connect 20 0 18 0;
#X connect 21 0 18 0;
#X connect 23 0 7 0;
#X connect 25 0 24 0;
#X connect 26 0 27 0;
#X connect 27 0 28 0;
#X connect 28 0 24 0;
#X connect 30 0 11 0;
#X connect 32 0 33 0;
#X connect 34 0 33 1;
