#N canvas 65 92 450 300 10;
#X obj 73 256 *~;
#N canvas 174 337 450 300 vol 0;
#X obj 50 81 metro 1;
#X obj 50 56 tgl 15 0 empty empty empty 17 7 0 10 -262144 -1 -1 1 1
;
#X obj 50 26 loadbang;
#X obj 50 183 sig~;
#X obj 50 204 lop~ 1;
#X obj 49 226 outlet~;
#X obj 50 157 tabread volbp;
#X obj 50 107 \$1;
#X obj 50 131 - 1;
#X connect 0 0 7 0;
#X connect 1 0 0 0;
#X connect 2 0 1 0;
#X connect 3 0 4 0;
#X connect 4 0 5 0;
#X connect 6 0 3 0;
#X connect 7 0 8 0;
#X connect 8 0 6 0;
#X restore 99 233 pd vol;
#X obj 74 68 inlet~;
#X obj 73 281 outlet~;
#X obj 92 110 * \$1;
#X obj 149 62 inlet;
#X obj 166 106 inlet;
#X obj 73 163 osc~;
#X connect 0 0 3 0;
#X connect 1 0 0 1;
#X connect 4 0 7 0;
#X connect 5 0 4 0;
#X connect 7 0 0 0;
