#N canvas 427 99 939 606 10;
#X declare -lib zexy;
#X declare -lib bsaylor;
#X obj 386 -82 declare -lib zexy;
#X obj 386 -62 declare -lib bsaylor;
#X obj 1 -75 inlet~;
#X obj 123 -74 inlet~;
#X obj 1 -34 outlet~;
#X obj 123 -32 outlet~;
#X obj 1 -54 partconv~ \$1-L 2048;
#X obj 123 -54 partconv~ \$1-R 2048;
#X obj 265 -52 switch~;
#X obj 265 -82 inlet;
#X connect 2 0 6 0;
#X connect 3 0 7 0;
#X connect 6 0 4 0;
#X connect 7 0 5 0;
#X connect 9 0 8 0;
