#N canvas 421 109 939 606 10;
#X declare -lib zexy;
#X declare -lib bsaylor;
#X obj 386 -82 declare -lib zexy;
#X obj 386 -62 declare -lib bsaylor;
#X obj 1 -75 inlet~;
#X obj 1 -34 outlet~;
#X obj 265 -52 switch~;
#X obj 265 -82 inlet;
#X obj 1 -54 partconv~ \$1-L 256;
#X connect 2 0 6 0;
#X connect 5 0 4 0;
#X connect 6 0 3 0;
