#N canvas 615 144 709 511 10;
#X obj 287 106 msgfile;
#X msg 217 80 bang;
#X msg 139 29 read /home/morast/Documents/umoi/follower/samples/scene1/choreo
cr;
#X msg 164 83 rewind;
#X floatatom 146 215 5 0 0 0 - - -;
#X floatatom 227 196 7 0 0 0 - - -;
#X floatatom 249 259 5 0 0 0 - - -;
#X obj 149 268 +;
#X obj 246 227 / 1e+06;
#X floatatom 159 316 7 0 0 0 - - -;
#X obj -65 273 timer;
#X obj 26 254 bng 15 250 50 0 empty empty empty 17 7 0 10 -262144 -1
-1;
#X obj 10 9 bng 15 250 50 0 empty empty empty 17 7 0 10 -262144 -1
-1;
#X obj 15 141 metro 1;
#X msg 22 107 1;
#X floatatom -65 324 5 0 0 0 - - -;
#X obj -65 297 / 1000;
#X text 47 3 restart;
#X obj 20 367 change;
#X obj 20 391 sel 1 0;
#X obj 20 345 >=;
#X obj -28 389 tgl 15 0 empty empty empty 17 7 0 10 -262144 -1 -1 1
1;
#X obj 33 33 t b b b;
#X floatatom 354 149 5 0 0 0 - - -;
#X obj 3 417 counter;
#X floatatom 1 441 5 0 0 0 - - -;
#X obj 151 165 unpack f s f s;
#X obj 327 194 print;
#X obj 306 149;
#X connect 0 0 26 0;
#X connect 0 0 27 0;
#X connect 0 1 23 0;
#X connect 1 0 0 0;
#X connect 2 0 0 0;
#X connect 3 0 0 0;
#X connect 4 0 7 0;
#X connect 5 0 8 0;
#X connect 6 0 7 1;
#X connect 7 0 9 0;
#X connect 8 0 6 0;
#X connect 9 0 20 1;
#X connect 10 0 16 0;
#X connect 11 0 10 1;
#X connect 12 0 22 0;
#X connect 12 0 24 3;
#X connect 13 0 10 1;
#X connect 14 0 13 0;
#X connect 15 0 20 0;
#X connect 16 0 15 0;
#X connect 18 0 19 0;
#X connect 18 0 21 0;
#X connect 19 0 1 0;
#X connect 19 0 24 0;
#X connect 20 0 18 0;
#X connect 22 0 10 0;
#X connect 22 1 1 0;
#X connect 22 2 3 0;
#X connect 24 0 25 0;
#X connect 26 0 4 0;
#X connect 26 2 5 0;
#X connect 26 3 27 0;
