#N canvas 417 82 949 531 10;
#X obj 107 202 s follow1del;
#X obj 143 183 s \$0-follow1Repeat;
#X obj 146 154 hsl 50 15 0 1 0 0 empty empty Repeat -2 -8 0 10 -262144
-1 -1 0 1;
#X floatatom 107 151 5 0 0 2 Delay - -;
#X floatatom 203 117 5 0 0 2 Pitch - -;
#X obj 280 133 s \$0-follow1pitch;
#X floatatom 588 262 5 0 0 0 - - -;
#X obj 588 289 sig~;
#X msg 628 290 dry 1;
#N canvas 5 111 818 476 section1 0;
#X obj 117 335 *~ 1;
#X obj 120 47 - 60;
#X floatatom 141 137 5 0 0 0 - - -;
#X obj 120 164 pack;
#X msg 120 186 \$2 \$1;
#X obj 120 208 route 0 1 2 3;
#X obj 120 75 t f b;
#X obj 141 107 counter 0 3;
#X obj 120 4 inlet;
#X obj 116 392 outlet~;
#X obj 118 309 s_simpler sample2-L;
#X obj 395 137 inlet;
#X msg 395 176 buffer sample\$1-L;
#X obj 79 249 print;
#X obj 274 239 s_simpler sample2-L;
#X obj 171 286 s_simpler sample2-L;
#X obj 224 263 s_simpler sample2-L;
#X connect 0 0 9 0;
#X connect 1 0 6 0;
#X connect 2 0 3 1;
#X connect 3 0 4 0;
#X connect 4 0 5 0;
#X connect 4 0 13 0;
#X connect 5 0 10 0;
#X connect 5 1 15 0;
#X connect 5 2 16 0;
#X connect 5 3 14 0;
#X connect 6 0 3 0;
#X connect 6 1 7 0;
#X connect 7 0 2 0;
#X connect 8 0 1 0;
#X connect 10 0 0 0;
#X connect 11 0 12 0;
#X connect 12 0 10 1;
#X connect 12 0 15 1;
#X connect 12 0 16 1;
#X connect 12 0 14 1;
#X connect 14 0 0 0;
#X connect 15 0 0 0;
#X connect 16 0 0 0;
#X restore 546 237 pd section1;
#X obj 616 129 r \$0-crossNote1;
#X msg 672 290 feedback \$1;
#X obj 672 244 r \$0-follow1Repeat;
#X msg 742 369 deltime \$1;
#X obj 742 343 r follow1del;
#X obj 546 207 +;
#X obj 561 170 r \$0-follow1pitch;
#X obj 547 386 e_del \$0-followdelay1 glob;
#X obj 546 111 inlet;
#X obj 548 417 outlet~;
#X obj 787 244 r groove/BPM;
#X obj 787 264 unpack;
#X msg 820 285 bpm \$1;
#X obj 71 222 s \$0-follow1Sample;
#X obj 609 192 r \$0-follow1Sample;
#N canvas 689 279 450 300 sampleselect 0;
#X obj 101 100 bng 15 250 50 0 empty empty empty 17 7 0 10 -262144
-1 -1;
#X obj 117 100 bng 15 250 50 0 empty empty empty 17 7 0 10 -262144
-1 -1;
#X obj 133 100 bng 15 250 50 0 empty empty empty 17 7 0 10 -262144
-1 -1;
#X obj 148 100 bng 15 250 50 0 empty empty empty 17 7 0 10 -262144
-1 -1;
#X symbolatom 101 100 10 0 0 0 - - -;
#X obj 101 144 tof/pmenu;
#X obj 195 28 sample-list ../samples;
#X obj 195 53 prepend add;
#X obj 195 0 t b b;
#X msg 274 54 clear;
#X obj 101 187 outlet;
#X obj 195 -22 loadbang;
#X obj 101 165 + 1;
#X connect 0 0 5 0;
#X connect 1 0 5 0;
#X connect 2 0 5 0;
#X connect 3 0 5 0;
#X connect 5 0 12 0;
#X connect 5 1 4 0;
#X connect 6 0 7 0;
#X connect 7 0 5 0;
#X connect 8 0 6 0;
#X connect 8 1 9 0;
#X connect 9 0 5 0;
#X connect 11 0 8 0;
#X connect 12 0 10 0;
#X coords 0 -1 1 1 65 17 2 100 100;
#X restore 106 114 pd sampleselect;
#X obj 546 146 moses 1000;
#X floatatom 502 235 5 0 0 0 - - -;
#X obj 628 225 loadbang;
#X connect 2 0 1 0;
#X connect 3 0 0 0;
#X connect 4 0 5 0;
#X connect 6 0 7 0;
#X connect 7 0 17 1;
#X connect 8 0 17 2;
#X connect 9 0 17 0;
#X connect 10 0 26 1;
#X connect 11 0 17 2;
#X connect 12 0 11 0;
#X connect 13 0 17 2;
#X connect 14 0 13 0;
#X connect 15 0 9 0;
#X connect 15 0 27 0;
#X connect 16 0 15 1;
#X connect 17 0 19 0;
#X connect 18 0 26 0;
#X connect 20 0 21 0;
#X connect 21 1 22 0;
#X connect 22 0 17 2;
#X connect 24 0 9 1;
#X connect 25 0 23 0;
#X connect 26 0 15 0;
#X connect 28 0 8 0;
#X coords 0 -1 1 1 150 80 1 100 100;
