#N canvas 65 87 450 383 10;
#X msg 112 88 stabletime \$1;
#X floatatom 112 67 5 0 0 0 - - -;
#X msg 76 111 minpower \$1;
#X floatatom 76 86 5 0 0 0 - - -;
#X floatatom 169 199 5 0 0 0 - - -;
#X obj 143 246 spigot;
#X obj 64 174 sigmund~ env notes;
#X obj 64 214 > 30;
#X floatatom 165 116 5 0 0 0 - - -;
#X obj 63 35 inlet~;
#X obj 64 265 outlet;
#X obj 143 266 outlet;
#X connect 0 0 6 0;
#X connect 1 0 0 0;
#X connect 2 0 6 0;
#X connect 3 0 2 0;
#X connect 4 0 5 0;
#X connect 5 0 11 0;
#X connect 6 0 7 0;
#X connect 6 1 4 0;
#X connect 7 0 5 1;
#X connect 7 0 10 0;
#X connect 8 0 7 1;
#X connect 9 0 6 0;
