#N canvas 420 298 450 300 10;
#X obj 74 -1 inlet;
#X obj 75 227 outlet~;
#X obj 214 159 spigot;
#X obj 247 137 tgl 15 0 empty empty empty 17 7 0 10 -262144 -1 -1 0
1;
#X msg 74 67 open \$1;
#X obj 247 4 inlet;
#X obj 74 42 symbol;
#X msg 74 117 start;
#X obj 141 -2 inlet;
#X obj 141 25 route start stop;
#X msg 187 70 stop;
#X obj 74 142 readsf~;
#X obj 74 96 t b a;
#X connect 0 0 6 0;
#X connect 2 0 6 0;
#X connect 3 0 2 1;
#X connect 4 0 12 0;
#X connect 5 0 3 0;
#X connect 6 0 4 0;
#X connect 7 0 11 0;
#X connect 8 0 9 0;
#X connect 9 0 6 0;
#X connect 9 1 10 0;
#X connect 10 0 11 0;
#X connect 11 0 1 0;
#X connect 11 1 2 0;
#X connect 12 0 7 0;
#X connect 12 1 11 0;
