#N canvas 65 97 743 533 10;
#X obj 134 215 textfile;
#X msg 340 176 bang;
#X msg 375 177 rewind;
#X obj 101 311 list length;
#X obj 101 292 gate 2;
#X msg 374 275 1;
#X obj 66 157 until;
#X msg 66 177 bang;
#X msg 145 65 2;
#X obj 340 50 loadbang;
#X obj 340 78 symbol \$1;
#X msg 340 102 read \$1/samples.txt;
#X obj 445 63 bng 15 250 50 0 empty empty empty 17 7 0 10 -262144 -1
-1;
#X obj 340 132 t b b b a;
#X msg 161 41 0;
#X obj 129 89 symbol \$1;
#X msg 129 110 read \$1/samples.txt cr;
#X msg 105 130 rewind;
#X obj 98 14 t f b b b b;
#X obj 179 309 t a b;
#X text 416 132 Check how many elemts are in the textfile;
#X text 152 146 Read all lines of txt.;
#X text 170 156 sequentially;
#X obj 341 19 inlet;
#X obj 179 344 outlet;
#X connect 0 0 4 1;
#X connect 1 0 0 0;
#X connect 2 0 0 0;
#X connect 3 0 18 0;
#X connect 4 0 3 0;
#X connect 4 1 19 0;
#X connect 5 0 4 0;
#X connect 6 0 7 0;
#X connect 7 0 0 0;
#X connect 8 0 4 0;
#X connect 9 0 10 0;
#X connect 10 0 11 0;
#X connect 11 0 13 0;
#X connect 12 0 10 0;
#X connect 13 0 1 0;
#X connect 13 1 2 0;
#X connect 13 2 5 0;
#X connect 13 3 0 0;
#X connect 15 0 16 0;
#X connect 16 0 0 0;
#X connect 17 0 0 0;
#X connect 18 0 6 0;
#X connect 18 1 17 0;
#X connect 18 2 15 0;
#X connect 18 3 8 0;
#X connect 18 4 14 0;
#X connect 19 0 24 0;
#X connect 23 0 10 0;
