#N canvas 260 351 450 300 10;
#N canvas 65 102 353 284 read-cuepoints 0;
#X obj 12 27 inlet;
#X obj 12 245 outlet;
#X text 49 27 slice index number;
#X obj 156 218 pack;
#X obj 183 133 + 1;
#X obj 156 133 f;
#X obj 156 103 t b f;
#X obj 12 57 * 4;
#X text 205 249 cuepoints pair;
#X obj 156 246 outlet;
#X obj 12 86 t f f;
#X obj 12 137 + 2;
#X text 56 246 pitch;
#X obj 177 164 tabread 1-cuepoints;
#X obj 156 192 tabread 1-cuepoints;
#X obj 12 163 tabread 1-cuepoints;
#X connect 0 0 7 0;
#X connect 3 0 9 0;
#X connect 4 0 13 0;
#X connect 5 0 14 0;
#X connect 6 0 5 0;
#X connect 6 1 4 0;
#X connect 6 1 5 1;
#X connect 7 0 10 0;
#X connect 10 0 6 0;
#X connect 10 1 11 0;
#X connect 11 0 15 0;
#X connect 13 0 3 1;
#X connect 14 0 3 0;
#X connect 15 0 1 0;
#X restore 177 22 pd read-cuepoints;
#X obj 103 131 sliceplay~ 1-slices;
#X msg 82 55 1;
#X obj 109 -22 hradio 15 1 0 8 empty empty empty 0 -8 0 10 -262144
-1 -1 0;
#X obj 123 6 t b f;
#X obj 118 185 dac~;
#X connect 0 1 1 1;
#X connect 1 0 5 0;
#X connect 2 0 1 0;
#X connect 3 0 4 0;
#X connect 4 0 2 0;
#X connect 4 1 0 0;
