#N struct 1464-template float x float y float q array poswave 1464-array-element
array negwave 1464-array-element;
#N struct 1464-array-element float y;
#N canvas 65 54 1301 714 10;
#X declare -lib zexy;
#X declare -lib bsaylor;
#X declare -path abstractions/;
#X declare -lib iemmatrix;
#X declare -path SliceJockey/abstractions/;
#X declare -lib hexloader;
#X declare -path bin/;
#X declare -lib zexy;
#X declare -lib bsaylor;
#X declare -lib zexy;
#X declare -lib bsaylor;
#X declare -lib zexy;
#X declare -lib bsaylor;
#X declare -lib zexy;
#X declare -lib bsaylor;
#X declare -lib zexy;
#X declare -lib bsaylor;
#X declare -lib zexy;
#X declare -lib bsaylor;
#X declare -lib zexy;
#X declare -lib bsaylor;
#X declare -lib zexy;
#X declare -lib bsaylor;
#X declare -lib zexy;
#X declare -lib bsaylor;
#X declare -lib iem_tab;
#N canvas 320 252 545 300 libs 0;
#X obj -14 -12 declare -lib zexy;
#X obj -14 8 declare -lib bsaylor;
#X obj 198 -11 declare -path abstractions/;
#X obj -14 27 declare -lib iemmatrix;
#X text -12 -39 Libaries;
#X text 199 -36 Paths;
#X obj 198 8 declare -path SliceJockey/abstractions/;
#X obj -14 46 import hexloader;
#X obj 198 29 declare -path bin/;
#X restore 7 -129 pd libs;
#N canvas 65 142 450 300 tables 0;
#N canvas 145 279 450 300 irTables 0;
#X obj 14 14 table ir1-L;
#X obj 88 14 table ir1-R;
#X obj 14 33 table ir2-L;
#X obj 88 33 table ir2-R;
#X obj 14 53 table ir3-L;
#X obj 88 53 table ir3-R;
#X obj 15 72 table ir4-L;
#X obj 89 72 table ir4-R;
#X obj 15 91 table ir5-L;
#X obj 15 110 table ir6-L;
#X obj 15 130 table ir7-L;
#X obj 16 149 table ir8-L;
#X obj 89 91 table ir5-R;
#X obj 89 110 table ir6-R;
#X obj 89 130 table ir7-R;
#X obj 90 149 table ir8-R;
#X obj 165 14 load ../irResponses ir;
#X restore 9 5 pd irTables;
#X text 88 2 <- all Impulse Response Tables here;
#N canvas 169 208 494 334 globalsamples 0;
#X obj 193 -50 load ../samples sample;
#X obj -13 -51 table sample1-L;
#X obj 84 -51 table sample1-R;
#X obj -13 -30 table sample2-L;
#X obj 84 -10 table sample3-R;
#X obj -13 -10 table sample3-L;
#X obj 84 -30 table sample2-R;
#X obj 193 -14 print;
#X obj 330 20 s sample-list;
#X obj 330 -3 prepend add;
#X connect 0 0 7 0;
#X connect 0 0 9 0;
#X connect 9 0 8 0;
#X restore 9 24 pd globalsamples;
#X text 116 23 <-all other samples here;
#X restore 7 -109 pd tables;
#N canvas 688 97 650 686 scene2 0;
#X obj 43 333 outlet~ L;
#X obj 120 333 outlet~ R;
#X obj 165 181 throw~ scene2-Main-L;
#X obj 209 162 throw~ scene2-Main-R;
#X obj 44 239 catch~ scene2-Main-L;
#X obj 120 259 catch~ scene2-Main-R;
#X obj 40 199 catch~ scene2-Main-mono;
#N canvas 67 157 567 417 textfiler 0;
#X obj 25 24 t b b;
#X msg 25 83 rewind;
#X obj 25 197 sprintf %s%s;
#X obj 25 146 t b s;
#X obj 25 121 msgfile;
#X msg 52 64 read samples/scene2/scene2.txt cr;
#X obj 122 -78 inlet;
#X msg 122 28 goto \$1;
#X obj 25 232 outlet;
#X msg 102 122 water.wav;
#X obj 25 -32 loadbang;
#X obj 25 -65 bng 15 250 50 0 empty empty empty 17 7 0 10 -262144 -1
-1;
#X msg 73 -10 this;
#X obj 122 -41 t b f;
#X obj 224 213 folder_list;
#X obj 310 163 readsf~;
#X msg 234 177 bang;
#X msg 347 25 samples/cello.wav;
#X obj 379 105 prepend open;
#X msg 290 110 start;
#X obj 319 211 throw~ scene2-Main-mono;
#X obj 404 162 print;
#X msg 25 173 ../samples/scene2/;
#X connect 0 0 1 0;
#X connect 0 1 5 0;
#X connect 1 0 4 0;
#X connect 2 0 8 0;
#X connect 3 0 22 0;
#X connect 3 1 2 1;
#X connect 4 0 3 0;
#X connect 5 0 4 0;
#X connect 6 0 13 0;
#X connect 7 0 4 0;
#X connect 9 0 3 0;
#X connect 10 0 0 0;
#X connect 11 0 10 0;
#X connect 12 0 4 0;
#X connect 13 0 12 0;
#X connect 13 1 7 0;
#X connect 15 0 20 0;
#X connect 16 0 14 0;
#X connect 17 0 18 0;
#X connect 17 0 8 0;
#X connect 18 0 15 0;
#X connect 18 0 21 0;
#X connect 19 0 15 0;
#X connect 22 0 2 0;
#X restore 165 91 pd textfiler;
#X obj 165 116 player2~;
#X obj 384 71 catch~ scene2-irVerb;
#X obj 385 100 tb_peakcomp~ -10 8 10 100 0;
#X obj 384 125 throw~ scene2-Main-mono;
#N canvas 970 67 1301 714 irVerb 0;
#X obj 83 232 *~ 0.5;
#X obj 82 195 irVerb~ ir1;
#X obj 156 231 *~ 0.5;
#X obj 253 232 *~ 0.5;
#N canvas 249 257 579 421 onset 0;
#X obj 97 188 outlet;
#X obj 97 58 f;
#X obj 97 19 until;
#X obj 123 58 + 1;
#X obj 97 119 == 0;
#X obj 97 144 pack f f;
#X obj 97 85 t f f;
#X msg 97 165 \$2 \$1;
#X obj 97 -36 t b b f;
#X msg 126 -7 0;
#X obj 97 -69 inlet;
#X msg 97 -7 9;
#X text 211 61 Switch on one thing out of 9 at a time;
#X connect 1 0 3 0;
#X connect 1 0 6 0;
#X connect 2 0 1 0;
#X connect 3 0 1 1;
#X connect 4 0 5 0;
#X connect 5 0 7 0;
#X connect 6 0 4 0;
#X connect 6 1 5 1;
#X connect 7 0 0 0;
#X connect 8 0 11 0;
#X connect 8 1 9 0;
#X connect 8 2 4 1;
#X connect 9 0 1 1;
#X connect 10 0 8 0;
#X connect 11 0 2 0;
#X restore 559 128 pd onset;
#X obj 326 231 *~ 0.2;
#X obj 422 231 *~ 0.27;
#X obj 495 231 *~ 0.2;
#X obj 590 231 *~ 1;
#X obj 156 194 irVerb~ ir2;
#X obj 252 195 irVerb~ ir3;
#X obj 326 194 irVerb~ ir4;
#X obj 421 195 irVerb~ ir5;
#X obj 495 194 irVerb~ ir6;
#X obj 591 195 irVerb~ ir7;
#N canvas 498 417 450 300 before 0;
#X obj 99 114 f;
#X floatatom 99 137 5 0 0 0 - - -;
#X floatatom 58 112 5 0 0 0 - - -;
#X obj 95 82 t f f b;
#X obj 95 56 inlet;
#X msg 99 202 element 1 \$1 0;
#X msg 58 171 element 1 \$1 1;
#X obj 58 229 outlet;
#X connect 0 0 1 0;
#X connect 1 0 5 0;
#X connect 2 0 6 0;
#X connect 3 0 2 0;
#X connect 3 1 0 1;
#X connect 3 2 0 0;
#X connect 4 0 3 0;
#X connect 5 0 7 0;
#X connect 6 0 7 0;
#X restore 256 131 pd before;
#X obj 559 91 inlet;
#X obj 81 26 inlet~;
#X obj 257 428 outlet~;
#X obj 256 108 + 1;
#X msg 901 111 arrayviewlistnew;
#X obj 901 137 s scene2-score;
#X msg 766 62 \; scene2-score 0 1 6 1 4 1 2 1 7 2 3 9 4 3 6 7 8 1 2
3 5 7 4;
#X obj 766 137 table scene2-score 22;
#X obj 766 30 loadbang;
#X obj 256 334 mtx_*~ 1 9 .....................;
#X obj 739 193 irVerb~ ir2;
#X obj 663 194 irVerb~ ir5;
#X obj 559 147 route 0 1 2 3 4 5 6 7 8;
#X obj 663 222 *~ 0.27;
#X obj 740 220 *~ 0.5;
#X connect 0 0 25 1;
#X connect 1 0 0 0;
#X connect 2 0 25 2;
#X connect 3 0 25 3;
#X connect 4 0 28 0;
#X connect 5 0 25 4;
#X connect 6 0 25 5;
#X connect 7 0 25 6;
#X connect 8 0 25 7;
#X connect 9 0 2 0;
#X connect 10 0 3 0;
#X connect 11 0 5 0;
#X connect 12 0 6 0;
#X connect 13 0 7 0;
#X connect 14 0 8 0;
#X connect 15 0 25 0;
#X connect 16 0 4 0;
#X connect 16 0 19 0;
#X connect 17 0 1 0;
#X connect 17 0 9 0;
#X connect 17 0 10 0;
#X connect 17 0 11 0;
#X connect 17 0 12 0;
#X connect 17 0 13 0;
#X connect 17 0 14 0;
#X connect 17 0 27 0;
#X connect 17 0 26 0;
#X connect 19 0 15 0;
#X connect 20 0 21 0;
#X connect 24 0 22 0;
#X connect 25 0 18 0;
#X connect 26 0 30 0;
#X connect 27 0 29 0;
#X connect 28 0 1 1;
#X connect 28 1 9 1;
#X connect 28 2 10 1;
#X connect 28 3 11 1;
#X connect 28 4 12 1;
#X connect 28 5 13 1;
#X connect 28 6 14 1;
#X connect 28 7 27 1;
#X connect 28 8 26 1;
#X connect 29 0 25 8;
#X connect 30 0 25 9;
#X restore 35 114 pd irVerb;
#X obj 35 162 throw~ scene2-irVerb;
#X obj 14 46 s scene2-set;
#X obj 165 67 r scene2-set;
#X text 264 87 Soundfileplayback;
#X text 561 75 Limiting of Reverb;
#X obj 86 92 r scene2-set;
#X text 197 207 Output;
#X obj 13 66 receive~ input1;
#X obj 556 22 osc~ 333;
#X obj 165 147 *~;
#X obj 210 140 *~;
#X floatatom 225 117 5 0 0 0 - - -;
#X text 248 99 Sample sart randomize;
#X obj 14 -39 r fcb;
#N canvas 65 229 655 431 score 0;
#X obj 83 -140 f;
#X obj 138 -139 + 1;
#X obj 169 -139 % 8;
#X obj 83 -194 bng 15 250 50 0 empty empty empty 17 7 0 10 -262144
-1 -1;
#X obj 83 -111 + 0;
#X msg 221 -193 0;
#X msg 256 -192 8;
#X msg 309 -192 8;
#X msg 342 -192 4;
#X msg 420 -192 10;
#X obj 127 -175 unpack f f;
#X obj 223 -165 pack;
#X obj 311 -165 pack;
#X obj 392 -163 pack;
#X obj 223 -131 s scene2-reader;
#X obj 107 -250 r scene2-reader;
#X obj 221 -238 bng 15 250 50 0 empty empty empty 17 7 0 10 -262144
-1 -1;
#X obj 317 -243 bng 15 250 50 0 empty empty empty 17 7 0 10 -262144
-1 -1;
#X obj 400 -241 bng 15 250 50 0 empty empty empty 17 7 0 10 -262144
-1 -1;
#X obj 107 -224 t l b;
#X msg 98 -175 0;
#X obj 83 -62 tabread scene2-score;
#X msg 389 -192 12;
#X obj 197 -400 inlet;
#X obj 83 -342 sel 0 1 2;
#X obj 224 -349 change;
#X obj 224 -324 sel 0 1 2;
#X obj 83 -6 outlet;
#X obj 197 -378 t f f;
#X text 284 -353 comment;
#X obj 83 -88 + 0;
#X obj 88 -33 - 1;
#X connect 0 0 1 0;
#X connect 0 0 4 0;
#X connect 1 0 2 0;
#X connect 2 0 0 1;
#X connect 3 0 0 0;
#X connect 4 0 30 0;
#X connect 5 0 11 0;
#X connect 6 0 11 1;
#X connect 7 0 12 0;
#X connect 8 0 12 1;
#X connect 9 0 13 1;
#X connect 10 0 4 1;
#X connect 10 1 2 1;
#X connect 11 0 14 0;
#X connect 12 0 14 0;
#X connect 13 0 14 0;
#X connect 15 0 19 0;
#X connect 16 0 5 0;
#X connect 16 0 6 0;
#X connect 17 0 7 0;
#X connect 17 0 8 0;
#X connect 18 0 22 0;
#X connect 18 0 9 0;
#X connect 19 0 10 0;
#X connect 19 1 20 0;
#X connect 20 0 0 1;
#X connect 21 0 31 0;
#X connect 22 0 13 0;
#X connect 23 0 28 0;
#X connect 24 0 3 0;
#X connect 24 1 3 0;
#X connect 24 2 3 0;
#X connect 25 0 26 0;
#X connect 26 0 16 0;
#X connect 26 1 17 0;
#X connect 26 2 18 0;
#X connect 28 0 24 0;
#X connect 28 1 25 0;
#X connect 30 0 21 0;
#X connect 31 0 27 0;
#X restore 14 5 pd score;
#X obj 248 -38 vsl 15 128 0 1 0 0 empty empty empty 0 -9 0 10 -262144
-1 -1 0 1;
#X obj 315 252 / 127;
#X obj 316 223 r nano6-8;
#X obj 137 296 *~;
#X obj 44 296 *~;
#X obj 297 24 / 127;
#X obj 297 -4 r nano6-7;
#X obj 207 18 tgl 15 0 empty empty empty 17 7 0 10 -262144 -1 -1 0
1;
#X obj 321 288 vsl 15 128 0 1 0 0 empty empty empty 0 -9 0 10 -262144
-1 -1 0 1;
#X floatatom 109 -22 5 0 0 0 - - -;
#X obj 366 268 r nano6-6;
#X obj 56 136 *~;
#X obj 367 291 / 127;
#X obj 121 -83 hradio 15 1 0 8 empty empty empty 0 -8 0 10 -262144
-1 -1 0;
#X floatatom 111 24 5 0 0 0 - - -;
#X obj 175 -27 sel 3;
#X msg 175 -1 stop;
#X connect 4 0 32 0;
#X connect 5 0 31 0;
#X connect 6 0 32 0;
#X connect 6 0 31 0;
#X connect 7 0 8 0;
#X connect 8 0 22 0;
#X connect 8 1 23 0;
#X connect 9 0 10 0;
#X connect 10 0 11 0;
#X connect 12 0 39 0;
#X connect 15 0 7 0;
#X connect 18 0 12 1;
#X connect 20 0 12 0;
#X connect 22 0 2 0;
#X connect 23 0 3 0;
#X connect 24 0 22 1;
#X connect 24 0 23 1;
#X connect 26 0 27 0;
#X connect 26 0 37 0;
#X connect 27 0 14 0;
#X connect 27 0 42 0;
#X connect 28 0 24 0;
#X connect 29 0 32 1;
#X connect 29 0 31 1;
#X connect 29 0 36 0;
#X connect 30 0 29 0;
#X connect 31 0 1 0;
#X connect 32 0 0 0;
#X connect 33 0 28 0;
#X connect 34 0 33 0;
#X connect 35 0 8 2;
#X connect 37 0 43 0;
#X connect 38 0 40 0;
#X connect 39 0 13 0;
#X connect 40 0 39 1;
#X connect 41 0 27 0;
#X connect 43 0 44 0;
#X connect 44 0 8 1;
#X restore 222 80 pd scene2;
#X obj 148 242 dac~ 1 2;
#X obj 221 111 throw~ main-L;
#X obj 306 111 throw~ main-R;
#N canvas 360 322 450 300 input 0;
#X obj -21 -13 inlet~;
#X obj 101 -11 inlet~;
#X obj -21 97 send~ input1;
#X obj 102 17 send~ input2;
#X msg 201 181 /home/morast/Documents/samples/cello.wav;
#X obj 201 204 player~;
#X obj 201 133 r set;
#X obj 201 157 t b;
#X obj -20 35 hip~ 60;
#X floatatom 28 6 5 0 0 0 - - -;
#X connect 0 0 8 0;
#X connect 1 0 3 0;
#X connect 4 0 5 0;
#X connect 5 0 2 0;
#X connect 6 0 7 0;
#X connect 7 0 4 0;
#X connect 8 0 2 0;
#X connect 9 0 8 1;
#X restore 118 15 pd input;
#X obj 119 -9 adc~ 1 2;
#X obj 147 161 catch~ main-L;
#X obj 240 161 catch~ main-R;
#X obj 54 35 receive~ input1;
#X obj 152 35 receive~ input2;
#N canvas 180 172 450 300 inputAnalyzer 0;
#X obj 19 79 inlet~;
#X obj 379 65 inlet~;
#X obj 134 117 pitchTracker;
#X obj 19 139 s celloNote;
#X obj 118 158 s cellodB;
#X obj 88 -33 r offThresh1;
#X obj 61 -74 r AttackThresh1;
#X obj 121 9 r Wait1;
#X obj 130 52 r Smooth1;
#X floatatom 33 173 5 0 0 0 - - -;
#X obj 19 117 envelope_follower;
#X msg 61 -53 attackThresh \$1;
#X msg 88 -10 offThresh \$1;
#X msg 130 74 smooth \$1;
#X msg 120 32 wait \$1;
#X connect 0 0 2 0;
#X connect 0 0 10 0;
#X connect 5 0 12 0;
#X connect 6 0 11 0;
#X connect 7 0 14 0;
#X connect 8 0 13 0;
#X connect 10 0 3 0;
#X connect 10 0 9 0;
#X connect 10 1 4 0;
#X connect 11 0 10 1;
#X connect 12 0 10 1;
#X connect 13 0 10 1;
#X connect 14 0 10 1;
#X restore 55 57 pd inputAnalyzer -;
#X obj 148 202 tb_peakcomp~ -10 8 10 100 0;
#N canvas 706 97 650 686 record 0;
#X obj 15 335 writesf~ 2;
#X msg 210 95 bang;
#X obj 207 143 date GTM;
#X msg 137 -33 umoi;
#X obj 262 144 time GTM;
#X obj 65 61 t a b;
#X obj 65 189 sprintf %s_%i-%i-%i_%i:%i;
#X obj 65 26 sprintf %s%s;
#X msg 65 -34 session/;
#X obj 112 -85 t b b;
#X obj 65 254 sprintf %s%s;
#X msg 135 220 .wav;
#X obj 65 212 t a b;
#X obj 65 282 prepend open;
#X msg 47 -94 start;
#X obj 95 -127 t b b;
#X obj 161 -144 sel 1 0;
#X msg 185 -97 stop;
#X obj 274 -161 inlet;
#X obj 15 -156 inlet~;
#X obj 71 -156 inlet~;
#X connect 1 0 2 0;
#X connect 1 0 4 0;
#X connect 2 0 6 1;
#X connect 2 1 6 2;
#X connect 2 2 6 3;
#X connect 3 0 7 1;
#X connect 4 0 6 4;
#X connect 4 1 6 5;
#X connect 5 0 6 0;
#X connect 5 1 1 0;
#X connect 6 0 12 0;
#X connect 7 0 5 0;
#X connect 8 0 7 0;
#X connect 9 0 8 0;
#X connect 9 1 3 0;
#X connect 10 0 13 0;
#X connect 11 0 10 1;
#X connect 12 0 10 0;
#X connect 12 1 11 0;
#X connect 13 0 0 0;
#X connect 14 0 0 0;
#X connect 15 0 14 0;
#X connect 15 1 9 0;
#X connect 16 0 15 0;
#X connect 16 1 17 0;
#X connect 17 0 0 0;
#X connect 18 0 16 0;
#X connect 19 0 0 0;
#X connect 20 0 0 1;
#X restore 208 242 pd record;
#X obj 259 223 tgl 15 0 empty empty empty 17 7 0 10 -258113 -1 -1 0
1;
#N canvas 546 276 450 300 mididev 0;
#X floatatom 38 90 5 0 0 0 - - -;
#X floatatom 60 120 5 0 0 0 - - -;
#X obj 38 52 notein 0;
#X obj 39 214 s fcb;
#X obj 60 146 / 100;
#X obj 38 182 spigot;
#X obj 248 167 s;
#X obj 248 51 ctlin;
#X obj 261 112 pack;
#X msg 261 144 symbol nano\$2-\$1;
#X text 221 33 Korg Nano Page;
#X obj 275 80 moses 5;
#X floatatom 117 89 5 0 0 0 - - -;
#X obj 117 231 s;
#X obj 129 164 spigot;
#X obj 143 127 == 17;
#X msg 147 208 symbol fcbCC-\$1;
#X obj 116 52 ctlin;
#X text 109 34 FCB Pedals;
#X text 34 32 FCB Buttons;
#N canvas 907 295 450 300 midi-monitor 0;
#X obj 18 11 notein;
#X obj 144 19 ctlin;
#X floatatom 224 70 5 0 0 0 - - -;
#X floatatom 191 69 5 0 0 0 - - -;
#X floatatom 148 70 5 0 0 0 - - -;
#X floatatom 17 75 5 0 0 0 - - -;
#X floatatom 64 74 5 0 0 0 - - -;
#X floatatom 105 75 5 0 0 0 - - -;
#X connect 0 0 5 0;
#X connect 0 1 6 0;
#X connect 0 2 7 0;
#X connect 1 0 4 0;
#X connect 1 1 3 0;
#X connect 1 2 2 0;
#X restore 297 222 pd midi-monitor;
#X connect 0 0 5 0;
#X connect 1 0 4 0;
#X connect 2 0 0 0;
#X connect 2 1 1 0;
#X connect 4 0 5 1;
#X connect 5 0 3 0;
#X connect 7 0 6 0;
#X connect 7 1 8 0;
#X connect 7 2 11 0;
#X connect 8 0 9 0;
#X connect 9 0 6 1;
#X connect 11 1 8 1;
#X connect 12 0 13 0;
#X connect 14 0 16 0;
#X connect 15 0 14 1;
#X connect 16 0 13 1;
#X connect 17 0 12 0;
#X connect 17 1 14 0;
#X connect 17 2 15 0;
#X restore 7 -88 pd mididev;
#N canvas 713 361 375 310 globalticks 0;
#X obj 78 221 s globalticks;
#N canvas 178 184 345 423 generate-ticks 0;
#X obj 32 98 tgl 15 1 empty empty empty 17 7 0 10 -262144 -1 -1 1 1
;
#X obj 32 146 metro;
#N canvas 982 160 208 259 milliseconds 0;
#X obj 19 18 inlet;
#X obj 19 199 outlet;
#X obj 19 46 t b f;
#X obj 19 170 /;
#X msg 69 77 15000;
#X msg 113 77 20000;
#X obj 19 147 f 15000;
#X obj 69 103 t b f;
#X obj 69 43 sel 0 1;
#X text 19 225 1/16 or 1/12 note;
#X obj 69 17 r \$0-timesignature;
#X floatatom 96 135 5 0 0 0 - - -;
#X connect 0 0 2 0;
#X connect 2 0 6 0;
#X connect 2 1 3 1;
#X connect 3 0 1 0;
#X connect 4 0 7 0;
#X connect 5 0 7 0;
#X connect 6 0 3 0;
#X connect 7 0 6 0;
#X connect 7 1 11 0;
#X connect 7 1 6 1;
#X connect 8 0 4 0;
#X connect 8 1 5 0;
#X connect 10 0 8 0;
#X restore 59 97 pd milliseconds;
#X floatatom 76 121 8 0 0 0 - - -;
#X obj 32 193 +;
#X obj 73 146 s ticklength;
#X obj 32 376 outlet;
#X obj 32 170 f 1;
#N canvas 298 510 316 238 ticksort 0;
#X obj 27 60 t f f;
#X obj 27 27 inlet;
#X obj 27 117 pack;
#X text 25 6 ticks;
#X obj 27 88 & 3;
#X obj 27 143 route 0 1 2 3;
#X obj 27 175 outlet;
#X obj 73 175 outlet;
#X obj 122 175 outlet;
#X obj 170 175 outlet;
#X obj 242 175 outlet;
#X text 28 199 first;
#X text 72 199 second;
#X text 121 199 third;
#X text 168 199 fourth;
#X text 240 198 index;
#X connect 0 0 4 0;
#X connect 0 1 2 1;
#X connect 1 0 0 0;
#X connect 2 0 5 0;
#X connect 4 0 2 0;
#X connect 4 0 10 0;
#X connect 5 0 6 0;
#X connect 5 1 7 0;
#X connect 5 2 8 0;
#X connect 5 3 9 0;
#X restore 32 319 pd ticksort;
#N canvas 573 498 515 163 tickdelays 0;
#X obj 21 15 inlet;
#X obj 21 88 pipe;
#X obj 202 125 outlet;
#X obj 106 14 inlet;
#X obj 106 87 pipe;
#X obj 202 15 inlet;
#X obj 202 88 pipe;
#X obj 287 15 inlet;
#X obj 287 88 pipe;
#N canvas 698 484 303 226 sambagroove 0;
#X obj 32 7 r ticklength;
#X obj 181 28 sel 1;
#X msg 181 56 0;
#X obj 32 30 t b f;
#X obj 19 69 *;
#X obj 19 98 spigot;
#X obj 141 28 t b f;
#X obj 19 -17 r \$0-groove;
#X obj 141 -18 r \$0-groovetype;
#X obj 19 164 s \$0-tickdelay0;
#X obj 35 131 s \$0-tickdelay1;
#X obj 181 125 s \$0-tickdelay2;
#X obj 195 94 s \$0-tickdelay3;
#X connect 0 0 3 0;
#X connect 1 0 2 0;
#X connect 2 0 11 0;
#X connect 2 0 12 0;
#X connect 3 0 4 0;
#X connect 3 1 4 1;
#X connect 4 0 5 0;
#X connect 5 0 9 0;
#X connect 5 0 10 0;
#X connect 6 0 4 0;
#X connect 6 1 5 1;
#X connect 7 0 4 0;
#X connect 8 0 1 0;
#X connect 8 0 6 0;
#X restore 385 93 pd sambagroove;
#N canvas 823 242 346 186 tripletgroove 0;
#X obj 37 15 r ticklength;
#X msg 213 65 0;
#X obj 37 38 t b f;
#X obj 24 77 *;
#X obj 24 106 spigot;
#X obj 146 36 t b f;
#X obj 213 36 sel 0;
#X obj 173 65 == 0;
#X obj 24 -10 r \$0-groove;
#X obj 146 -10 r \$0-groovetype;
#X obj 24 153 s \$0-tickdelay1;
#X obj 44 131 s \$0-tickdelay3;
#X obj 213 134 s \$0-tickdelay0;
#X obj 225 101 s \$0-tickdelay2;
#X connect 0 0 2 0;
#X connect 1 0 12 0;
#X connect 1 0 13 0;
#X connect 2 0 3 0;
#X connect 2 1 3 1;
#X connect 3 0 4 0;
#X connect 4 0 10 0;
#X connect 4 0 11 0;
#X connect 5 0 3 0;
#X connect 5 1 7 0;
#X connect 6 0 1 0;
#X connect 7 0 4 1;
#X connect 8 0 3 0;
#X connect 9 0 5 0;
#X connect 9 0 6 0;
#X restore 386 21 pd tripletgroove;
#X floatatom 56 89 5 0 0 0 - - -;
#X floatatom 141 89 5 0 0 0 - - -;
#X floatatom 234 88 5 0 0 0 - - -;
#X floatatom 320 89 5 0 0 0 - - -;
#X obj 42 39 r \$0-tickdelay0;
#X obj 127 61 r \$0-tickdelay1;
#X obj 223 38 r \$0-tickdelay2;
#X obj 308 61 r \$0-tickdelay3;
#X connect 0 0 1 0;
#X connect 1 0 2 0;
#X connect 3 0 4 0;
#X connect 4 0 2 0;
#X connect 5 0 6 0;
#X connect 6 0 2 0;
#X connect 7 0 8 0;
#X connect 8 0 2 0;
#X connect 15 0 1 1;
#X connect 15 0 11 0;
#X connect 16 0 4 1;
#X connect 16 0 12 0;
#X connect 17 0 6 1;
#X connect 17 0 13 0;
#X connect 18 0 8 1;
#X connect 18 0 14 0;
#X restore 32 350 pd tickdelays;
#X obj 64 193 r \$0-set-one;
#X text 119 349 << groove;
#X obj 32 290 tabread \$0-commontime;
#X obj 185 225 symbol \$0-sixquavers;
#X msg 166 250 set \$1;
#X obj 166 202 symbol \$0-commontime;
#X obj 166 146 r \$0-timesignature;
#X obj 32 248 mod 192;
#X obj 59 15 inlet;
#X obj 166 175 sel 0 1;
#X text 68 41 if zero \, set metro off;
#X text 99 16 BPM;
#X obj 32 67 change;
#X obj 32 42 != 0;
#X msg 64 218 0;
#X floatatom 50 219 5 0 0 0 - - -;
#X floatatom 88 220 5 0 0 0 - - -;
#X connect 0 0 1 0;
#X connect 1 0 7 0;
#X connect 2 0 1 1;
#X connect 2 0 3 0;
#X connect 2 0 5 0;
#X connect 4 0 17 0;
#X connect 4 0 25 0;
#X connect 7 0 4 0;
#X connect 8 0 9 0;
#X connect 8 1 9 1;
#X connect 8 2 9 2;
#X connect 8 3 9 3;
#X connect 9 0 6 0;
#X connect 10 0 24 0;
#X connect 12 0 8 0;
#X connect 12 0 26 0;
#X connect 13 0 14 0;
#X connect 14 0 12 0;
#X connect 15 0 14 0;
#X connect 16 0 19 0;
#X connect 17 0 4 1;
#X connect 17 0 12 0;
#X connect 18 0 2 0;
#X connect 18 0 23 0;
#X connect 19 0 15 0;
#X connect 19 1 13 0;
#X connect 19 2 15 0;
#X connect 22 0 0 0;
#X connect 23 0 22 0;
#X connect 24 0 17 0;
#X restore 78 152 pd generate-ticks;
#N canvas 539 155 297 177 tick-tables 0;
#X obj 31 18 loadbang;
#N canvas 65 110 246 266 commontime 0;
#X obj 30 209 table \$0-commontime 256;
#X obj 31 175 tabwrite \$0-commontime;
#X obj 31 142 t f f;
#X obj 31 86 bng 15 250 50 0 empty empty empty 17 7 0 10 -262144 -1
-1;
#X obj 31 53 inlet;
#X obj 31 114 iterate 256;
#X connect 2 0 1 0;
#X connect 2 1 1 1;
#X connect 3 0 5 0;
#X connect 4 0 3 0;
#X connect 5 0 2 0;
#X restore 31 100 pd commontime;
#N canvas 748 33 413 471 sixquavers 0;
#X obj 27 38 inlet;
#X obj 27 66 bng 15 250 50 0 empty empty empty 17 7 0 10 -262144 -1
-1;
#X obj 27 272 tabwrite \$0-sixquavers;
#X obj 27 122 t b f;
#X obj 156 246 +;
#X obj 27 191 unpack;
#X obj 224 243 s \$0-sixquavers;
#X msg 224 215 arrayviewlistnew;
#X obj 171 221 * 12;
#X obj 27 245 +;
#X obj 42 220 * 16;
#X obj 224 272 table \$0-sixquavers 192;
#X msg 27 151 0 0 \, 1 1 \, 2 2 \, 4 3 \, 5 4 \, 6 5 \, 8 6 \, 9 7
\, 10 8 \, 12 9 \, 13 10 \, 14 11;
#X obj 27 364 hradio 15 1 0 3 empty empty empty 0 -8 0 10 -262144 -262144
-1 0;
#X obj 77 364 hradio 15 1 0 3 empty empty empty 0 -8 0 10 -262144 -262144
-1 0;
#X obj 126 364 hradio 15 1 0 3 empty empty empty 0 -8 0 10 -262144
-262144 -1 0;
#X obj 176 364 hradio 15 1 0 3 empty empty empty 0 -8 0 10 -262144
-262144 -1 0;
#X obj 28 391 hradio 15 1 0 1 empty empty empty 0 -8 0 10 -262144 -262144
-1 0;
#X obj 58 391 hradio 15 1 0 1 empty empty empty 0 -8 0 10 -262144 -262144
-1 0;
#X obj 77 391 hradio 15 1 0 1 empty empty empty 0 -8 0 10 -262144 -262144
-1 0;
#X obj 107 391 hradio 15 1 0 1 empty empty empty 0 -8 0 10 -262144
-262144 -1 0;
#X obj 127 391 hradio 15 1 0 1 empty empty empty 0 -8 0 10 -262144
-262144 -1 0;
#X obj 157 391 hradio 15 1 0 1 empty empty empty 0 -8 0 10 -262144
-262144 -1 0;
#X obj 176 391 hradio 15 1 0 1 empty empty empty 0 -8 0 10 -262144
-262144 -1 0;
#X obj 206 391 hradio 15 1 0 1 empty empty empty 0 -8 0 10 -262144
-262144 -1 0;
#X obj 28 417 hradio 15 1 0 1 empty empty empty 0 -8 0 10 -262144 -262144
-1 0;
#X obj 78 417 hradio 15 1 0 1 empty empty empty 0 -8 0 10 -262144 -262144
-1 0;
#X obj 127 416 hradio 15 1 0 1 empty empty empty 0 -8 0 10 -262144
-262144 -1 0;
#X obj 177 416 hradio 15 1 0 1 empty empty empty 0 -8 0 10 -262144
-262144 -1 0;
#X text 26 334 it is 12/16 really:;
#X text 245 361 semiquavers;
#X text 246 388 quavers;
#X text 247 415 beats;
#X obj 27 91 iterate 16;
#X connect 0 0 1 0;
#X connect 1 0 33 0;
#X connect 3 0 12 0;
#X connect 3 1 8 0;
#X connect 3 1 10 0;
#X connect 4 0 2 1;
#X connect 5 0 9 0;
#X connect 5 1 4 0;
#X connect 7 0 6 0;
#X connect 8 0 4 1;
#X connect 9 0 2 0;
#X connect 10 0 9 1;
#X connect 12 0 5 0;
#X connect 33 0 3 0;
#X restore 122 100 pd sixquavers;
#X connect 0 0 1 0;
#X connect 0 0 2 0;
#X restore 263 24 pd tick-tables;
#X obj 45 57 unpack;
#N canvas 0 22 302 213 label 0;
#X obj 37 34 inlet;
#X obj 37 140 s BPM/grooveguireceive;
#X obj 37 65 makefilename %d;
#X msg 37 105 label \$1;
#X text 35 164 xy-object label;
#X connect 0 0 2 0;
#X connect 2 0 3 0;
#X connect 3 0 1 0;
#X restore 89 121 pd label;
#N canvas 65 97 320 210 BPM 0;
#X obj 36 27 inlet;
#X obj 36 152 outlet;
#X obj 36 88 moses 10;
#X msg 36 115 0;
#X text 77 56 max BPM: 235;
#X text 99 88 if lower than 10 \, set to zero;
#X obj 81 119 s beatsperminute;
#X connect 0 0 2 0;
#X connect 2 0 3 0;
#X connect 2 1 1 0;
#X connect 2 1 6 0;
#X connect 3 0 1 0;
#X restore 78 90 pd BPM;
#X obj 45 271 s \$0-groove;
#X text 126 25 from xy field;
#X obj 45 246 * 0.25;
#X floatatom 222 224 5 0 0 0 - - -;
#X obj 45 25 r groove/BPM;
#X connect 1 0 0 0;
#X connect 1 0 9 0;
#X connect 3 0 8 0;
#X connect 3 1 5 0;
#X connect 5 0 1 0;
#X connect 5 0 4 0;
#X connect 8 0 6 0;
#X connect 10 0 3 0;
#X restore 7 -68 pd globalticks;
#X obj 149 138 catch~ main-mono;
#N canvas 667 126 450 300 midimonitor 0;
#X obj 204 166;
#X floatatom 103 102 5 0 0 0 - - -;
#X floatatom 141 102 5 0 0 0 - - -;
#X floatatom 180 102 5 0 0 0 - - -;
#X obj 123 61 ctlin;
#X connect 4 0 1 0;
#X connect 4 1 2 0;
#X connect 4 2 3 0;
#X coords 0 -1 1 1 115 20 2 100 100;
#X restore 7 -280 pd midimonitor;
#N canvas 258 254 769 300 scene1 0;
#N canvas 65 97 650 686 windgenerator 0;
#X msg 126 -126 dry 1;
#X msg 262 -121 feedback 0;
#X obj 80 216 sig~;
#X floatatom 80 162 5 0 0 0 - - -;
#X obj 82 242 lop~ 0.5;
#X obj 126 -85 s toDel;
#X obj 304 246 r toDel;
#X obj 80 187 * 1000;
#X obj 241 223 sig~;
#X floatatom 241 169 5 0 0 0 - - -;
#X obj 243 249 lop~ 0.5;
#X obj 241 194 * 1000;
#X obj 137 257 r toDel;
#X obj 513 243 r toDel;
#X obj 450 220 sig~;
#X floatatom 450 166 5 0 0 0 - - -;
#X obj 452 246 lop~ 0.5;
#X obj 450 191 * 1000;
#X obj 711 237 r toDel;
#X obj 648 214 sig~;
#X floatatom 648 160 5 0 0 0 - - -;
#X obj 650 240 lop~ 0.5;
#X obj 648 185 * 1000;
#N canvas 515 268 450 300 asyntimer 0;
#X obj 38 114 random 200;
#X obj 9 69 t b b;
#X obj 9 177 del;
#X obj 38 156 + 1000;
#X obj 59 198 spigot;
#X obj 38 135 * 50;
#X obj 8 9 inlet;
#X obj 10 222 outlet;
#X obj 87 12 inlet;
#X obj 124 13 inlet;
#X connect 0 0 5 0;
#X connect 1 0 2 0;
#X connect 1 1 0 0;
#X connect 2 0 7 0;
#X connect 2 0 4 0;
#X connect 3 0 2 1;
#X connect 4 0 1 0;
#X connect 5 0 3 0;
#X connect 6 0 1 0;
#X connect 8 0 5 1;
#X connect 9 0 4 1;
#X restore 136 19 pd asyntimer;
#X floatatom 170 -9 5 0 0 0 - - -;
#X obj 210 -9 tgl 15 0 empty empty empty 17 7 0 10 -262144 -1 -1 1
1;
#X obj 136 -9 bng 15 250 50 0 empty empty empty 17 7 0 10 -262144 -1
-1;
#X obj 136 50 bng 15 250 50 0 empty empty empty 17 7 0 10 -262144 -1
-1;
#N canvas 812 196 480 487 conductor 0;
#X obj 162 40 random 4;
#X obj 162 13 inlet;
#X obj -66 130 inlet~;
#X obj -8 427 outlet~;
#X obj -66 427 outlet~;
#X obj 46 428 outlet~;
#X obj 103 428 outlet~;
#X obj -66 335 mtx_*~ 4 1 .....................;
#N canvas 492 427 450 300 before 0;
#X obj 99 114 f;
#X floatatom 99 137 5 0 0 0 - - -;
#X floatatom 58 112 5 0 0 0 - - -;
#X obj 95 82 t f f b;
#X obj 95 56 inlet;
#X obj 58 229 outlet;
#X msg 58 171 element \$1 1 1;
#X msg 99 202 element \$1 1 0;
#X connect 0 0 1 0;
#X connect 1 0 7 0;
#X connect 2 0 6 0;
#X connect 3 0 2 0;
#X connect 3 1 0 1;
#X connect 3 2 0 0;
#X connect 4 0 3 0;
#X connect 6 0 5 0;
#X connect 7 0 5 0;
#X restore 162 83 pd before;
#X obj 162 60 + 1;
#X connect 0 0 9 0;
#X connect 1 0 0 0;
#X connect 2 0 7 1;
#X connect 7 0 4 0;
#X connect 7 1 3 0;
#X connect 7 2 5 0;
#X connect 7 3 6 0;
#X connect 8 0 7 0;
#X connect 9 0 8 0;
#X restore 67 89 pd conductor;
#X obj 51 346 *~;
#X obj 190 343 *~;
#X obj 410 328 *~;
#X obj 572 332 *~;
#X obj 76 313 receive~ wind1;
#X obj 212 313 receive~ wind2;
#X obj 456 307 receive~ wind3;
#X obj 607 309 receive~ wind4;
#N canvas 718 296 522 421 randomwalks 0;
#N canvas 515 268 450 300 asyntimer 0;
#X obj 38 114 random 200;
#X obj 9 69 t b b;
#X obj 9 177 del;
#X obj 38 156 + 1000;
#X obj 59 198 spigot;
#X obj 38 135 * 50;
#X obj 8 9 inlet;
#X obj 10 222 outlet;
#X obj 87 12 inlet;
#X obj 124 13 inlet;
#X connect 0 0 5 0;
#X connect 1 0 2 0;
#X connect 1 1 0 0;
#X connect 2 0 7 0;
#X connect 2 0 4 0;
#X connect 3 0 2 1;
#X connect 4 0 1 0;
#X connect 5 0 3 0;
#X connect 6 0 1 0;
#X connect 8 0 5 1;
#X connect 9 0 4 1;
#X restore 58 132 pd asyntimer;
#X obj 61 104 bng 15 250 50 0 empty empty empty 17 7 0 10 -262144 -1
-1;
#X msg 126 109 1;
#X floatatom 75 186 5 0 0 0 - - -;
#X floatatom 85 90 5 0 0 0 - - -;
#X obj 61 161 random 127;
#X obj 75 235 vline~;
#X obj 78 259 /~ 127;
#X obj 81 308 send~ wind1;
#X obj 157 306 send~ wind2;
#X obj 336 298 send~ wind4;
#X msg 75 208 \$1 1000;
#N canvas 515 268 450 300 asyntimer 0;
#X obj 38 114 random 200;
#X obj 9 69 t b b;
#X obj 9 177 del;
#X obj 38 156 + 1000;
#X obj 59 198 spigot;
#X obj 38 135 * 50;
#X obj 8 9 inlet;
#X obj 10 222 outlet;
#X obj 87 12 inlet;
#X obj 124 13 inlet;
#X connect 0 0 5 0;
#X connect 1 0 2 0;
#X connect 1 1 0 0;
#X connect 2 0 7 0;
#X connect 2 0 4 0;
#X connect 3 0 2 1;
#X connect 4 0 1 0;
#X connect 5 0 3 0;
#X connect 6 0 1 0;
#X connect 8 0 5 1;
#X connect 9 0 4 1;
#X restore 155 128 pd asyntimer;
#X obj 158 100 bng 15 250 50 0 empty empty empty 17 7 0 10 -262144
-1 -1;
#X msg 223 105 1;
#X floatatom 172 182 5 0 0 0 - - -;
#X floatatom 182 86 5 0 0 0 - - -;
#X obj 158 157 random 127;
#X obj 172 231 vline~;
#X obj 175 255 /~ 127;
#X msg 172 204 \$1 1000;
#N canvas 518 263 450 300 asyntimer 0;
#X obj 38 114 random 200;
#X obj 9 69 t b b;
#X obj 9 177 del;
#X obj 38 156 + 1000;
#X obj 59 198 spigot;
#X obj 38 135 * 50;
#X obj 8 9 inlet;
#X obj 10 222 outlet;
#X obj 87 12 inlet;
#X obj 124 13 inlet;
#X connect 0 0 5 0;
#X connect 1 0 2 0;
#X connect 1 1 0 0;
#X connect 2 0 7 0;
#X connect 2 0 4 0;
#X connect 3 0 2 1;
#X connect 4 0 1 0;
#X connect 5 0 3 0;
#X connect 6 0 1 0;
#X connect 8 0 5 1;
#X connect 9 0 4 1;
#X restore 262 123 pd asyntimer;
#X obj 265 95 bng 15 250 50 0 empty empty empty 17 7 0 10 -262144 -1
-1;
#X msg 330 100 1;
#X floatatom 279 177 5 0 0 0 - - -;
#X floatatom 289 81 5 0 0 0 - - -;
#X obj 265 152 random 127;
#X obj 279 226 vline~;
#X obj 269 252 /~ 127;
#X msg 279 199 \$1 1000;
#X obj 251 299 send~ wind3;
#N canvas 518 263 450 300 asyntimer 0;
#X obj 38 114 random 200;
#X obj 9 69 t b b;
#X obj 9 177 del;
#X obj 38 156 + 1000;
#X obj 59 198 spigot;
#X obj 38 135 * 50;
#X obj 8 9 inlet;
#X obj 10 222 outlet;
#X obj 87 12 inlet;
#X obj 124 13 inlet;
#X connect 0 0 5 0;
#X connect 1 0 2 0;
#X connect 1 1 0 0;
#X connect 2 0 7 0;
#X connect 2 0 4 0;
#X connect 3 0 2 1;
#X connect 4 0 1 0;
#X connect 5 0 3 0;
#X connect 6 0 1 0;
#X connect 8 0 5 1;
#X connect 9 0 4 1;
#X restore 359 121 pd asyntimer;
#X obj 362 93 bng 15 250 50 0 empty empty empty 17 7 0 10 -262144 -1
-1;
#X msg 427 98 1;
#X floatatom 376 175 5 0 0 0 - - -;
#X floatatom 386 79 5 0 0 0 - - -;
#X obj 362 150 random 127;
#X obj 376 224 vline~;
#X obj 379 248 /~ 127;
#X msg 376 197 \$1 1000;
#X obj 144 -42 loadbang;
#X obj 150 -9 t b b b;
#X obj 166 -73 bng 15 250 50 0 empty empty empty 17 7 0 10 -262144
-1 -1;
#X obj 80 284 *~;
#X obj 163 273 *~;
#X obj 253 275 *~;
#X obj 361 274 *~;
#X msg 171 25 15;
#X connect 0 0 5 0;
#X connect 1 0 0 0;
#X connect 2 0 0 2;
#X connect 3 0 11 0;
#X connect 4 0 0 1;
#X connect 5 0 3 0;
#X connect 6 0 7 0;
#X connect 7 0 43 0;
#X connect 7 0 43 1;
#X connect 11 0 6 0;
#X connect 12 0 17 0;
#X connect 13 0 12 0;
#X connect 14 0 12 2;
#X connect 15 0 20 0;
#X connect 16 0 12 1;
#X connect 17 0 15 0;
#X connect 18 0 19 0;
#X connect 19 0 44 0;
#X connect 19 0 44 1;
#X connect 20 0 18 0;
#X connect 21 0 26 0;
#X connect 22 0 21 0;
#X connect 23 0 21 2;
#X connect 24 0 29 0;
#X connect 25 0 21 1;
#X connect 26 0 24 0;
#X connect 27 0 28 0;
#X connect 28 0 45 0;
#X connect 28 0 45 1;
#X connect 29 0 27 0;
#X connect 31 0 36 0;
#X connect 32 0 31 0;
#X connect 33 0 31 2;
#X connect 34 0 39 0;
#X connect 35 0 31 1;
#X connect 36 0 34 0;
#X connect 37 0 38 0;
#X connect 38 0 46 0;
#X connect 38 0 46 1;
#X connect 39 0 37 0;
#X connect 40 0 41 0;
#X connect 41 0 1 0;
#X connect 41 0 13 0;
#X connect 41 0 22 0;
#X connect 41 0 32 0;
#X connect 41 1 47 0;
#X connect 41 2 33 0;
#X connect 41 2 23 0;
#X connect 41 2 14 0;
#X connect 41 2 2 0;
#X connect 42 0 40 0;
#X connect 43 0 8 0;
#X connect 44 0 9 0;
#X connect 45 0 30 0;
#X connect 46 0 10 0;
#X connect 47 0 35 0;
#X connect 47 0 25 0;
#X connect 47 0 16 0;
#X connect 47 0 4 0;
#X restore 709 269 pd randomwalks;
#X obj 39 -110 *~;
#X obj 54 -127 tgl 15 0 empty empty empty 17 7 0 10 -262144 -1 -1 0
127;
#X obj 126 -183 loadbang;
#X obj 286 -78 loadbang;
#X obj 282 -40 t b b b;
#X msg 296 -15 50;
#X msg 257 100 10;
#X msg 362 103 30;
#X msg 316 92 17;
#X msg 403 111 22;
#X obj 39 -84 send~ inlet;
#X obj 68 -33 receive~ inlet;
#X obj 39 -152 inlet~;
#X obj 51 442 outlet~;
#X obj 264 449 outlet~;
#X obj 459 454 outlet~;
#X obj 524 453 outlet~;
#X obj 602 443 outlet~;
#X msg 176 -121 feedback \$1;
#X obj 176 -146 1;
#X floatatom 333 -158 5 0 0 0 - - -;
#X obj 49 -203 r nano6-20;
#X obj 53 -182 sel 127;
#X obj 277 -179 sel 127;
#X obj 273 -200 r nano6-29;
#X obj 217 -174 bng 15 250 50 0 empty empty empty 17 7 0 10 -262144
-1 -1;
#X obj 190 -198 r nano6-30;
#X obj 52 271 e_del whino;
#X obj 213 278 e_del whino;
#X obj 422 275 e_del whino;
#X obj 620 269 e_del whino;
#X connect 0 0 5 0;
#X connect 1 0 5 0;
#X connect 2 0 4 0;
#X connect 3 0 7 0;
#X connect 4 0 65 1;
#X connect 6 0 66 2;
#X connect 7 0 2 0;
#X connect 8 0 10 0;
#X connect 9 0 11 0;
#X connect 10 0 66 1;
#X connect 11 0 8 0;
#X connect 12 0 65 2;
#X connect 13 0 67 2;
#X connect 14 0 16 0;
#X connect 15 0 17 0;
#X connect 16 0 67 1;
#X connect 17 0 14 0;
#X connect 18 0 68 2;
#X connect 19 0 21 0;
#X connect 20 0 22 0;
#X connect 21 0 68 1;
#X connect 22 0 19 0;
#X connect 23 0 27 0;
#X connect 24 0 23 1;
#X connect 25 0 23 2;
#X connect 26 0 23 0;
#X connect 27 0 28 1;
#X connect 28 0 65 0;
#X connect 28 1 66 0;
#X connect 28 2 67 0;
#X connect 28 3 68 0;
#X connect 29 0 51 0;
#X connect 29 0 52 0;
#X connect 30 0 51 0;
#X connect 30 0 53 0;
#X connect 31 0 51 0;
#X connect 31 0 54 0;
#X connect 32 0 51 0;
#X connect 32 0 55 0;
#X connect 33 0 29 1;
#X connect 34 0 30 1;
#X connect 35 0 31 1;
#X connect 36 0 32 1;
#X connect 38 0 48 0;
#X connect 39 0 38 1;
#X connect 40 0 0 0;
#X connect 40 0 57 0;
#X connect 41 0 42 0;
#X connect 42 0 26 0;
#X connect 42 1 43 0;
#X connect 42 2 25 0;
#X connect 42 2 44 0;
#X connect 42 2 46 0;
#X connect 42 2 45 0;
#X connect 42 2 47 0;
#X connect 43 0 24 0;
#X connect 44 0 3 0;
#X connect 45 0 15 0;
#X connect 46 0 9 0;
#X connect 47 0 20 0;
#X connect 49 0 28 0;
#X connect 50 0 38 0;
#X connect 56 0 5 0;
#X connect 57 0 56 0;
#X connect 59 0 60 0;
#X connect 60 0 39 0;
#X connect 61 0 1 0;
#X connect 62 0 61 0;
#X connect 63 0 57 0;
#X connect 64 0 63 0;
#X connect 65 0 29 0;
#X connect 66 0 30 0;
#X connect 67 0 31 0;
#X connect 68 0 32 0;
#X restore -144 8 pd windgenerator;
#N canvas 438 102 916 686 filter~ 0;
#X obj -239 -376 inlet~;
#X obj 62 250 outlet~;
#X obj -242 4 bp~ 600 7;
#X floatatom 273 -196 5 0 0 0 - - -;
#X obj -10 121 bp~ 1000 7;
#X obj 58 121 bp~ 1200 7;
#X obj 137 120 bp~ 4000 7;
#X floatatom 338 -197 5 0 0 0 - - -;
#X floatatom 187 -195 5 0 0 0 - - -;
#X floatatom 115 -183 5 0 0 0 - - -;
#X obj -241 34 bp~ 600 7;
#X obj -240 66 bp~ 600 7;
#X obj -9 149 bp~ 600 7;
#X obj -8 181 bp~ 600 7;
#X obj 58 150 bp~ 600 7;
#X obj 59 182 bp~ 600 7;
#X obj 138 152 bp~ 600 7;
#X obj 139 184 bp~ 600 7;
#X obj 137 -240 mtof;
#X obj 186 -243 mtof;
#X obj 271 -242 mtof;
#X obj 348 -243 mtof;
#X floatatom 134 -262 5 0 0 0 - - -;
#X floatatom 188 -266 5 0 0 0 - - -;
#X floatatom 272 -268 5 0 0 0 - - -;
#X floatatom 347 -269 5 0 0 0 - - -;
#X floatatom 592 104 5 0 0 0 - - -;
#X floatatom 519 79 5 0 0 0 - - -;
#X floatatom 424 60 5 0 0 0 - - -;
#X floatatom 474 69 5 0 0 0 - - -;
#X obj -181 -379 inlet~;
#X obj -131 -379 inlet~;
#X obj -67 -377 inlet~;
#X obj -238 -36 *~;
#X obj -83 -27 *~;
#X obj -15 -33 *~;
#X obj 51 -35 *~;
#X text 179 -366 g d b blat c;
#X obj 416 -243 r nano6-10;
#X obj 124 -212 +;
#X obj 187 -220 +;
#X obj 257 -219 +;
#X obj 327 -221 +;
#X floatatom 398 -326 5 0 0 0 - - -;
#X obj 401 -273 t b f;
#X obj 430 -344 r nano6-9;
#X obj 587 58 line;
#X msg 597 23 \$1 100;
#X obj 605 -11 r nano6-11;
#X obj -199 -144 r nano6-1;
#X obj -104 -138 r nano6-2;
#X obj -27 -144 r nano6-3;
#X obj 63 -130 r nano6-4;
#X connect 0 0 33 0;
#X connect 2 0 10 0;
#X connect 3 0 5 1;
#X connect 3 0 14 1;
#X connect 3 0 15 1;
#X connect 4 0 12 0;
#X connect 5 0 14 0;
#X connect 6 0 16 0;
#X connect 7 0 6 1;
#X connect 7 0 16 1;
#X connect 7 0 17 1;
#X connect 8 0 4 1;
#X connect 8 0 12 1;
#X connect 8 0 13 1;
#X connect 9 0 2 1;
#X connect 9 0 10 1;
#X connect 9 0 11 1;
#X connect 10 0 11 0;
#X connect 11 0 1 0;
#X connect 12 0 13 0;
#X connect 13 0 1 0;
#X connect 14 0 15 0;
#X connect 15 0 1 0;
#X connect 16 0 17 0;
#X connect 17 0 1 0;
#X connect 18 0 39 0;
#X connect 19 0 40 0;
#X connect 20 0 41 0;
#X connect 21 0 42 0;
#X connect 22 0 18 0;
#X connect 23 0 19 0;
#X connect 24 0 20 0;
#X connect 25 0 21 0;
#X connect 26 0 6 2;
#X connect 26 0 16 2;
#X connect 26 0 17 2;
#X connect 27 0 5 2;
#X connect 27 0 14 2;
#X connect 27 0 15 2;
#X connect 28 0 4 2;
#X connect 28 0 12 2;
#X connect 28 0 13 2;
#X connect 29 0 2 2;
#X connect 29 0 10 2;
#X connect 29 0 11 2;
#X connect 30 0 34 0;
#X connect 31 0 35 0;
#X connect 32 0 36 0;
#X connect 33 0 2 0;
#X connect 34 0 4 0;
#X connect 35 0 5 0;
#X connect 36 0 6 0;
#X connect 39 0 9 0;
#X connect 40 0 8 0;
#X connect 41 0 3 0;
#X connect 42 0 7 0;
#X connect 43 0 44 0;
#X connect 44 0 39 0;
#X connect 44 0 40 0;
#X connect 44 0 41 0;
#X connect 44 0 42 0;
#X connect 44 1 39 1;
#X connect 44 1 40 1;
#X connect 44 1 41 1;
#X connect 44 1 42 1;
#X connect 45 0 43 0;
#X connect 46 0 28 0;
#X connect 46 0 29 0;
#X connect 46 0 27 0;
#X connect 46 0 26 0;
#X connect 47 0 46 0;
#X connect 48 0 47 0;
#X connect 49 0 33 1;
#X connect 50 0 34 1;
#X connect 51 0 35 1;
#X connect 52 0 36 1;
#X restore -163 44 pd filter~;
#X obj -196 268 outlet~ L;
#X obj -85 268 outlet~ R;
#X obj -196 173 catch~ scene1-mainL;
#X obj -85 193 catch~ scene1-mainR;
#X obj -196 152 catch~ scene1-mono;
#X obj -195 132 throw~ scene1-mono;
#X obj -197 -22 receive~ input2;
#X obj 92 83 throw~ scene1-mainL;
#X obj 161 107 throw~ scene1-mainR;
#X obj -197 44 *~;
#X obj -275 -26 r nano6-0;
#X obj -275 -3 / 127;
#X obj -275 27 *;
#X obj -196 110 hip~;
#X obj -20 -17 r nano6-2;
#X obj 23 24 mtof;
#X obj -81 222 *~;
#X obj -193 235 *~;
#X obj 47 180 r nano5-8;
#X obj 46 209 / 127;
#N canvas 498 200 775 357 trigger 0;
#X obj 48 115 player~;
#X obj 279 237 outlet~;
#X obj 48 69 openpanel;
#X msg 73 90 start;
#X obj 121 116 player~;
#X obj 121 70 openpanel;
#X msg 146 91 start;
#X msg 705 97 stop;
#X obj 205 114 player~;
#X obj 205 68 openpanel;
#X msg 230 89 start;
#X obj 278 115 player~;
#X obj 278 69 openpanel;
#X msg 303 90 start;
#X obj 347 116 player~;
#X obj 347 70 openpanel;
#X msg 372 91 start;
#X obj 420 117 player~;
#X obj 420 71 openpanel;
#X msg 445 92 start;
#X obj 504 115 player~;
#X obj 504 69 openpanel;
#X msg 529 90 start;
#X obj 577 116 player~;
#X obj 577 70 openpanel;
#X msg 602 91 start;
#X obj 68 22 r nano5-32;
#X obj 138 22 r nano5-33;
#X obj 210 22 r nano5-34;
#X obj 280 22 r nano5-35;
#X connect 0 0 1 0;
#X connect 2 0 0 0;
#X connect 3 0 0 1;
#X connect 4 0 1 0;
#X connect 5 0 4 0;
#X connect 6 0 4 1;
#X connect 7 0 0 1;
#X connect 7 0 4 1;
#X connect 7 0 8 1;
#X connect 7 0 11 1;
#X connect 7 0 14 1;
#X connect 7 0 17 1;
#X connect 7 0 20 1;
#X connect 7 0 23 1;
#X connect 8 0 1 0;
#X connect 9 0 8 0;
#X connect 10 0 8 1;
#X connect 11 0 1 0;
#X connect 12 0 11 0;
#X connect 13 0 11 1;
#X connect 14 0 1 0;
#X connect 15 0 14 0;
#X connect 16 0 14 1;
#X connect 17 0 1 0;
#X connect 18 0 17 0;
#X connect 19 0 17 1;
#X connect 20 0 1 0;
#X connect 21 0 20 0;
#X connect 22 0 20 1;
#X connect 23 0 1 0;
#X connect 24 0 23 0;
#X connect 25 0 23 1;
#X restore 312 173 pd trigger;
#X obj -20 7 / 127;
#X obj 51 -19 r nano6-3;
#X obj -20 28 *;
#X connect 0 0 11 0;
#X connect 0 1 1 0;
#X connect 0 2 1 1;
#X connect 0 3 1 2;
#X connect 0 4 1 3;
#X connect 1 0 15 0;
#X connect 4 0 19 0;
#X connect 5 0 18 0;
#X connect 6 0 19 0;
#X connect 6 0 18 0;
#X connect 8 0 1 0;
#X connect 8 0 1 1;
#X connect 8 0 1 2;
#X connect 8 0 1 3;
#X connect 8 0 11 0;
#X connect 11 0 15 0;
#X connect 12 0 13 0;
#X connect 13 0 14 0;
#X connect 13 0 14 1;
#X connect 14 0 11 1;
#X connect 15 0 7 0;
#X connect 16 0 23 0;
#X connect 17 0 15 1;
#X connect 18 0 3 0;
#X connect 19 0 2 0;
#X connect 20 0 21 0;
#X connect 21 0 18 1;
#X connect 21 0 19 1;
#X connect 23 0 25 0;
#X connect 23 0 25 1;
#X connect 24 0 17 0;
#X restore 54 84 pd scene1;
#X obj 53 111 throw~ main-L;
#X obj 138 111 throw~ main-R;
#N canvas 65 54 1301 714 SliceJockey 0;
#X obj 12 -18 receive~ input2;
#X obj 13 286 *~;
#X obj 113 277 *~;
#X obj 215 283 *~;
#X obj 176 191 vsl 15 40 0 1 0 0 empty empty empty 0 -9 0 10 -262144
-1 -1 3800 1;
#X obj 128 194 vsl 15 40 0 1 0 0 empty empty empty 0 -9 0 10 -262144
-1 -1 3600 1;
#X obj 28 194 vsl 15 40 0 1 0 0 empty empty empty 0 -9 0 10 -262144
-1 -1 2500 1;
#X obj 247 253 *~;
#X obj 343 245 *~;
#X obj 446 253 *~;
#X obj 352 194 vsl 15 40 0 1 0 0 empty empty empty 0 -9 0 10 -262144
-1 -1 0 1;
#X obj 257 192 vsl 15 40 0 1 0 0 empty empty empty 0 -9 0 10 -262144
-1 -1 0 1;
#X obj 425 194 vsl 15 40 0 1 0 0 empty empty empty 0 -9 0 10 -262144
-1 -1 0 1;
#X obj 248 -25 receive~ input2;
#X obj 39 271 / 127;
#X obj 142 265 / 127;
#X obj 197 222 / 127;
#X obj 277 217 / 127;
#X obj 351 333 / 127;
#X obj 474 347 / 127;
#X obj 39 249 r nano5-0;
#X obj 277 195 r nano5-3;
#X obj 197 199 r nano5-2;
#X obj 142 243 r nano5-1;
#X obj 351 311 r nano5-4;
#X obj 474 324 r nano5-5;
#N canvas 589 107 619 300 control 0;
#X obj 23 231 outlet;
#X obj 23 37 sel 127;
#X obj 23 63 tgl 15 0 empty empty empty 17 7 0 10 -262144 -1 -1 0 1
;
#X obj 92 36 sel 127;
#X obj 92 60 tgl 15 0 empty empty empty 17 7 0 10 -262144 -1 -1 0 1
;
#X msg 23 88 input \$1;
#X msg 92 82 output \$1;
#X msg 160 59 1;
#X obj 160 36 sel 127;
#X msg 160 85 clear \$1;
#X obj 22 9 r nano5-20;
#X obj 92 9 r nano5-21;
#X obj 160 9 r nano5-22;
#X obj 291 224 outlet;
#X obj 233 40 sel 127;
#X obj 233 83 tgl 15 0 empty empty empty 17 7 0 10 -262144 -1 -1 0
1;
#X obj 303 55 sel 127;
#X obj 303 83 tgl 15 0 empty empty empty 17 7 0 10 -262144 -1 -1 0
1;
#X msg 234 106 input \$1;
#X msg 307 119 output \$1;
#X msg 372 57 1;
#X obj 372 34 sel 127;
#X msg 371 89 clear \$1;
#X obj 233 8 r nano5-23;
#X obj 303 6 r nano5-24;
#X obj 372 6 r nano5-25;
#X obj 144 125 r groove/BPM;
#X obj 144 148 unpack;
#X msg 177 172 bpm \$1;
#X obj 489 228 outlet;
#X connect 1 0 2 0;
#X connect 2 0 5 0;
#X connect 3 0 4 0;
#X connect 4 0 6 0;
#X connect 5 0 0 0;
#X connect 6 0 0 0;
#X connect 7 0 9 0;
#X connect 8 0 7 0;
#X connect 9 0 0 0;
#X connect 10 0 1 0;
#X connect 11 0 3 0;
#X connect 12 0 8 0;
#X connect 14 0 15 0;
#X connect 15 0 18 0;
#X connect 16 0 17 0;
#X connect 17 0 19 0;
#X connect 18 0 13 0;
#X connect 19 0 13 0;
#X connect 20 0 22 0;
#X connect 21 0 20 0;
#X connect 22 0 13 0;
#X connect 23 0 14 0;
#X connect 24 0 16 0;
#X connect 25 0 21 0;
#X connect 26 0 27 0;
#X connect 27 1 28 0;
#X connect 28 0 0 0;
#X connect 28 0 13 0;
#X connect 28 0 29 0;
#X restore 382 -23 pd control;
#N canvas 261 157 990 489 nanoKontrol 0;
#X obj 239 -48 pack f f;
#X obj 272 -74 t b f;
#X floatatom 239 -89 5 0 0 0 - - -;
#X floatatom 273 -102 5 0 0 0 - - -;
#X obj 239 -11 s squaver1;
#X obj 20 -47 pack f f;
#X obj 38 -71 t b f;
#X floatatom 20 -164 5 0 0 0 - - -;
#X floatatom 38 -90 5 0 0 0 - - -;
#X obj 20 -13 s beat1;
#X obj 125 -49 pack f f;
#X obj 143 -72 t b f;
#X floatatom 125 -157 5 0 0 0 - - -;
#X floatatom 143 -91 5 0 0 0 - - -;
#X obj 125 -11 s quaver1;
#X obj 596 -47 pack f f;
#X obj 614 -66 t b f;
#X floatatom 596 -88 5 0 0 0 - - -;
#X floatatom 639 -88 5 0 0 0 - - -;
#X obj 378 -31 pack f f;
#X obj 416 -53 t b f;
#X floatatom 378 -75 5 0 0 0 - - -;
#X floatatom 417 -81 5 0 0 0 - - -;
#X obj 458 -46 pack f f;
#X obj 476 -72 t b f;
#X floatatom 458 -113 5 0 0 0 - - -;
#X floatatom 476 -92 5 0 0 0 - - -;
#X obj 378 -10 s beat2;
#X obj 458 -10 s quaver2;
#X obj 596 -15 s squaver2;
#X msg 667 -146 0.7;
#X msg 698 -145 0.9;
#X msg 634 -146 0.8;
#X obj 239 -134 / 127;
#X obj 143 -113 / 127;
#X obj 38 -120 / 127;
#X obj 378 -100 / 127;
#X obj 458 -135 / 127;
#X obj 596 -145 / 127;
#X obj 596 -170 r nano5-14;
#X obj 458 -161 r nano5-13;
#X obj 378 -126 r nano5-12;
#X obj 239 -159 r nano5-11;
#X obj 143 -135 r nano5-10;
#X obj 38 -146 r nano5-9;
#X obj 346 -251 loadbang;
#X msg 346 -217 0.5;
#X connect 0 0 4 0;
#X connect 1 0 0 0;
#X connect 1 1 0 1;
#X connect 2 0 0 0;
#X connect 3 0 1 0;
#X connect 5 0 9 0;
#X connect 6 0 5 0;
#X connect 6 1 5 1;
#X connect 7 0 5 0;
#X connect 8 0 6 0;
#X connect 10 0 14 0;
#X connect 11 0 10 0;
#X connect 11 1 10 1;
#X connect 12 0 10 0;
#X connect 13 0 11 0;
#X connect 15 0 29 0;
#X connect 16 0 15 0;
#X connect 16 1 15 1;
#X connect 17 0 15 0;
#X connect 18 0 16 0;
#X connect 19 0 27 0;
#X connect 20 0 19 0;
#X connect 20 1 19 1;
#X connect 21 0 19 0;
#X connect 22 0 20 0;
#X connect 23 0 28 0;
#X connect 24 0 23 0;
#X connect 24 1 23 1;
#X connect 25 0 23 0;
#X connect 26 0 24 0;
#X connect 30 0 17 0;
#X connect 31 0 17 0;
#X connect 32 0 17 0;
#X connect 33 0 2 0;
#X connect 34 0 13 0;
#X connect 35 0 8 0;
#X connect 36 0 21 0;
#X connect 37 0 25 0;
#X connect 38 0 17 0;
#X connect 39 0 38 0;
#X connect 40 0 37 0;
#X connect 41 0 36 0;
#X connect 42 0 33 0;
#X connect 43 0 34 0;
#X connect 44 0 35 0;
#X connect 45 0 46 0;
#X connect 46 0 7 0;
#X connect 46 0 12 0;
#X connect 46 0 2 0;
#X connect 46 0 21 0;
#X connect 46 0 25 0;
#X connect 46 0 17 0;
#X restore 714 10 pd nanoKontrol;
#X obj 482 -20 receive~ input2;
#X obj 482 253 *~;
#X obj 578 245 *~;
#X obj 675 252 *~;
#X obj 587 194 vsl 15 40 0 1 0 0 empty empty empty 0 -9 0 10 -262144
-1 -1 0 1;
#X obj 492 192 vsl 15 40 0 1 0 0 empty empty empty 0 -9 0 10 -262144
-1 -1 0 1;
#X obj 654 193 vsl 15 40 0 1 0 0 empty empty empty 0 -9 0 10 -262144
-1 -1 0 1;
#X obj 512 217 / 127;
#X obj 512 195 r nano5-3;
#X obj 11 11 slicer 1 0;
#X obj 250 11 slicer 2 0;
#X obj 481 13 slicer 3 4;
#X obj 199 452 send~ \$0-sliceJockey;
#X connect 0 0 37 0;
#X connect 1 0 40 0;
#X connect 2 0 40 0;
#X connect 3 0 40 0;
#X connect 4 0 3 1;
#X connect 5 0 2 1;
#X connect 6 0 1 1;
#X connect 7 0 40 0;
#X connect 8 0 40 0;
#X connect 9 0 40 0;
#X connect 10 0 8 1;
#X connect 11 0 7 1;
#X connect 12 0 9 1;
#X connect 13 0 38 0;
#X connect 14 0 6 0;
#X connect 15 0 5 0;
#X connect 16 0 4 0;
#X connect 17 0 11 0;
#X connect 18 0 10 0;
#X connect 19 0 12 0;
#X connect 20 0 14 0;
#X connect 21 0 17 0;
#X connect 22 0 16 0;
#X connect 23 0 15 0;
#X connect 24 0 18 0;
#X connect 25 0 19 0;
#X connect 26 0 37 1;
#X connect 26 1 38 1;
#X connect 26 2 39 1;
#X connect 28 0 39 0;
#X connect 29 0 40 0;
#X connect 30 0 40 0;
#X connect 31 0 40 0;
#X connect 32 0 30 1;
#X connect 33 0 29 1;
#X connect 34 0 31 1;
#X connect 35 0 33 0;
#X connect 36 0 35 0;
#X connect 37 0 1 0;
#X connect 37 1 2 0;
#X connect 37 2 3 0;
#X connect 38 0 7 0;
#X connect 38 1 8 0;
#X connect 38 2 9 0;
#X connect 39 0 29 0;
#X connect 39 1 30 0;
#X connect 39 2 31 0;
#X coords 0 -1 1 1 700 230 2 10 10;
#X restore 815 -368 pd SliceJockey;
#X floatatom 428 -77 5 0 0 0 - - -;
#X obj 428 36 pack;
#X obj 456 5 t b f;
#X floatatom 457 -17 5 0 0 0 - - -;
#X obj 428 59 s groove/BPM;
#N canvas 65 54 1301 714 mixer 0;
#X obj 112 11 c_stchannel Grain;
#X obj 194 11 c_stchannel Slice;
#X obj 150 11 c_stchannel samples;
#X obj 321 11 c_stchannel Reverb;
#X obj 11 11 c_stchannel IN1;
#X obj 49 11 c_stchannel IN2;
#X obj 50 -227 receive~ input2;
#X obj 12 537 throw~ main-L;
#X obj 20 516 throw~ main-R;
#X obj 50 496 throw~ main-L;
#X obj 58 475 throw~ main-R;
#X obj 113 457 throw~ main-L;
#X obj 121 436 throw~ main-R;
#X obj 151 416 throw~ main-L;
#X obj 159 395 throw~ main-R;
#X obj 322 306 throw~ main-L;
#X obj 330 285 throw~ main-R;
#X obj 12 -247 receive~ input1;
#X obj 111 -206 receive~ cello-grainL;
#X obj 127 -185 receive~ cello-grainR;
#X obj 284 11 c_stchannel delay;
#X obj 192 282 c_tobus reverb;
#X obj 321 -97 catch~ L-reverb;
#X obj 337 -78 catch~ R-reverb;
#X obj 284 348 throw~ main-L;
#X obj 293 327 throw~ main-R;
#X obj 192 347 throw~ main-L;
#X obj 203 326 throw~ main-R;
#X obj 195 -161 receive~ \$0-sliceJockey;
#X obj 442 17 u_snapshot~;
#X obj 321 -43 rev3~ 100 70;
#X obj 283 -39 e_del mus;
#N canvas 685 82 491 338 init 0;
#X obj 116 99 r groove/BPM;
#X obj 116 126 unpack;
#X msg 149 165 bpm \$1;
#X obj 149 200 outlet;
#X msg 201 166 deltime \$1;
#X msg 171 138 120;
#X msg 318 105 dry 1;
#X obj 318 81 loadbang;
#X msg 292 170 feedback 0.5;
#X obj 245 103 r delaintime;
#X connect 0 0 1 0;
#X connect 1 1 2 0;
#X connect 2 0 3 0;
#X connect 4 0 3 0;
#X connect 5 0 2 0;
#X connect 6 0 3 0;
#X connect 7 0 6 0;
#X connect 7 0 8 0;
#X connect 8 0 3 0;
#X connect 9 0 4 0;
#X restore 239 -90 pd init;
#X obj 193 236 c_tobus delain;
#X obj 284 -136 catch~ L-delain;
#X obj 299 -117 catch~ R-delain;
#X obj 300 -17 e_del mus;
#X obj 297 237 c_tobus reverb;
#X connect 0 0 11 0;
#X connect 0 1 12 0;
#X connect 1 0 21 0;
#X connect 1 0 26 0;
#X connect 1 0 33 0;
#X connect 1 1 21 1;
#X connect 1 1 27 0;
#X connect 1 1 33 1;
#X connect 2 0 13 0;
#X connect 2 1 14 0;
#X connect 3 0 15 0;
#X connect 3 1 16 0;
#X connect 4 0 7 0;
#X connect 4 1 8 0;
#X connect 5 0 9 0;
#X connect 5 1 10 0;
#X connect 6 0 5 0;
#X connect 6 0 5 1;
#X connect 17 0 4 0;
#X connect 17 0 4 1;
#X connect 18 0 0 0;
#X connect 19 0 0 1;
#X connect 20 0 37 0;
#X connect 20 0 24 0;
#X connect 20 1 37 1;
#X connect 20 1 25 0;
#X connect 22 0 30 0;
#X connect 23 0 30 1;
#X connect 28 0 1 0;
#X connect 28 0 1 1;
#X connect 30 0 3 0;
#X connect 30 1 3 1;
#X connect 31 0 20 0;
#X connect 32 0 31 2;
#X connect 32 0 36 2;
#X connect 34 0 31 0;
#X connect 35 0 36 0;
#X connect 36 0 20 1;
#X coords 0 -1 1 1 350 213 2 10 10;
#X restore 456 -368 pd mixer;
#N canvas 614 152 450 300 control 0;
#X obj 7 8 bng 40 250 50 0 empty empty empty 17 7 0 10 -260097 -1 -1
;
#N canvas 780 179 323 310 omoi-settings 0;
#X obj 8 -79 hsl 128 25 0 100 0 0 offThresh1 offThresh1 offThresh 4
8 0 10 -262130 -191407 -1 0 1;
#X floatatom 104 -100 5 0 0 0 - AttackThresh1 -;
#X obj 8 -107 hsl 128 25 0 100 0 0 AttackThresh1 AttackThresh1 AttackThresh
4 8 0 10 -262130 -191407 -1 0 1;
#X floatatom 104 -72 5 0 0 0 - offThresh1 -;
#X obj 9 -51 hsl 128 25 0 200 0 0 Wait1 Wait1 Wait 4 8 0 10 -262130
-191407 -1 0 1;
#X floatatom 105 -44 5 0 0 0 - Wait1 -;
#X obj 9 -24 hsl 128 25 0 200 0 0 Smooth1 Smooth1 Smooth 4 8 0 10 -262130
-191407 -1 0 1;
#X floatatom 105 -17 5 0 0 0 - Smooth1 -;
#X floatatom 6 3 5 0 0 0 - celloNote -;
#X floatatom 43 3 5 0 0 0 - cellodB -;
#X obj 9 25 hradio 15 1 0 8 empty beat-o-meter empty 0 -8 0 10 -262144
-1 -1 4;
#X obj 176 -60 r celloNote;
#X obj 176 -39 sel 1;
#X obj 176 -17 f;
#X obj 204 -17 + 1;
#X obj 231 -17 % 8;
#X obj 176 10 s beat-o-meter;
#X connect 11 0 12 0;
#X connect 12 0 13 0;
#X connect 13 0 14 0;
#X connect 13 0 16 0;
#X connect 14 0 15 0;
#X connect 15 0 13 1;
#X restore 137 5 pd omoi-settings;
#X msg 7 63 \; pd-omoi-settings vis 1;
#X connect 0 0 2 0;
#X coords 0 -1 1 1 85 45 2 5 5;
#X restore 107 -337 pd control;
#N canvas 65 54 1301 714 granular 0;
#X obj 341 231 sig~;
#X obj 306 346 *~;
#X obj 411 346 *~;
#X msg 48 -77 pitch \$1;
#X obj 1001 152 prepend buffer;
#X obj 340 252 lop~ 7;
#X obj 939 296 soundfiler;
#X floatatom 342 137 5 0 0 0 - - -;
#X obj 544 63 dbtorms;
#X obj 544 244 vline~;
#X obj 544 181 spigot;
#X msg 544 204 \$1 5;
#X obj 341 204 / 50;
#X obj 342 181 abs;
#X obj 614 244 vline~;
#X obj 545 267 *~;
#X obj 545 330 *~ 1;
#X obj 586 126 sel 0 1;
#X obj 939 97 loadbang;
#X obj 307 389 tb_peakcomp~ -10 8 10 100 0;
#X msg 586 181 0 1000;
#X msg 632 181 1 1000;
#X obj 305 280 s_graincloud cello;
#X obj 342 160 - 80;
#X obj 48 -151 r fcbCC-27;
#X obj 131 -141 r fcbCC-12;
#X obj 820 209 openpanel;
#X obj 48 -124 / 127;
#X obj 48 -102 * 24;
#X obj 1009 296 table cello-grain;
#X msg 820 230 read -resize \$1 cello-grain;
#X msg 939 261 read -resize samples/scene1/newwind.wav cello-grain
;
#X msg 1001 132 cello-grain;
#X obj 2 48 waveform.mmb cello-grain 200 50;
#X obj 1001 172 s cello-graincloud;
#X obj 48 -55 s cello-graincloud;
#X obj 577 102 r celloNote;
#X obj 342 46 r cellodB;
#X obj 5 4 bng 30 250 50 0 cello-grain-open empty Open 4 15 0 10 -4034
-1 -1;
#X obj 820 188 r cello-grain-open;
#X obj 232 252 s cello-grain-pos;
#X obj 214 17 *;
#X obj 939 318 s cello-grain-samp;
#X obj 202 -52 r cello-grain-samp;
#X obj 214 -30 r cello-grain-pos;
#X obj 202 -5 t b f;
#X obj 386 414 send~ cello-grainR;
#X obj 307 434 send~ cello-grainL;
#X floatatom 48 4 5 0 0 1 Pitch - -;
#X floatatom 124 4 5 0 0 1 Size - cello-grainsize;
#X obj 363 -45 * 44.1;
#X obj 363 -70 r cello-grainsize;
#X obj 335 10 +;
#X obj 363 -24 t b f;
#X obj 210 385 u_snapshot~;
#N canvas 275 246 450 300 controls 0;
#X obj -203 -148 r cello-graincloud;
#X obj -174 -122 r cello-grainsize;
#X msg -174 -88 grainsize \$1;
#X obj -203 38 outlet;
#X msg -163 -23 posrnd \$1;
#X obj -163 -57 r cello-grain-posrnd;
#X msg 16 3 grainvoices 1;
#X obj 7 -175 r cello-grain-gap;
#X msg 7 -41 gap \$1;
#X msg -75 3 grainvoices 4;
#X obj 69 -114 bpmtoms;
#X obj 69 -156 r groove/BPM;
#X obj 69 -136 unpack;
#X obj 7 -113 moses;
#X text 123 -131 Maximum is one beat;
#X obj -75 -24 loadbang;
#X obj -64 -105 / 4;
#X obj 7 -88 -;
#X floatatom 80 -80 5 0 0 0 - - -;
#X floatatom 83 -55 5 0 0 0 - - -;
#X floatatom 100 -22 5 0 0 0 - - -;
#X obj 7 -63 clip 0;
#X connect 0 0 3 0;
#X connect 1 0 2 0;
#X connect 1 0 16 0;
#X connect 2 0 3 0;
#X connect 4 0 3 0;
#X connect 5 0 4 0;
#X connect 6 0 3 0;
#X connect 7 0 13 0;
#X connect 8 0 3 0;
#X connect 9 0 3 0;
#X connect 10 0 13 1;
#X connect 10 0 18 0;
#X connect 10 0 21 2;
#X connect 11 0 12 0;
#X connect 12 1 10 0;
#X connect 13 0 17 0;
#X connect 13 0 19 0;
#X connect 15 0 9 0;
#X connect 16 0 17 1;
#X connect 17 0 21 0;
#X connect 21 0 8 0;
#X connect 21 0 20 0;
#X restore 410 256 pd controls;
#X floatatom 47 27 5 0 0 1 Async - cello-grain-posrnd;
#X obj 258 -139 r nano7-0;
#X obj 328 -140 r nano7-1;
#X obj 319 -105 / 127;
#X obj 262 -102 * 6;
#X obj 613 281 sig~ 3;
#X floatatom 124 27 5 0 0 1 Gap - cello-grain-gap;
#X obj 390 -142 r nano7-2;
#X obj 390 -109 * 6;
#X floatatom 706 260 5 0 0 0 - - -;
#X floatatom 232 180 5 0 0 0 - - -;
#X obj 5 99 hsl 195 15 0 1 0 0 empty empty empty -2 -8 0 10 -262144
-1 -1 0 1;
#X obj 342 105 spigot;
#X obj 186 4 tgl 15 0 empty empty empty 17 7 0 10 -262144 -1 -1 0 1
;
#X obj 545 303 *~;
#X obj 609 327 *~;
#X obj 624 304 == 0;
#X connect 0 0 5 0;
#X connect 1 0 19 0;
#X connect 2 0 19 1;
#X connect 3 0 35 0;
#X connect 4 0 34 0;
#X connect 5 0 22 1;
#X connect 6 0 42 0;
#X connect 7 0 23 0;
#X connect 8 0 10 0;
#X connect 9 0 15 0;
#X connect 10 0 11 0;
#X connect 11 0 9 0;
#X connect 12 0 0 0;
#X connect 12 0 67 0;
#X connect 13 0 12 0;
#X connect 14 0 15 1;
#X connect 15 0 70 0;
#X connect 16 0 2 1;
#X connect 16 0 1 1;
#X connect 17 0 20 0;
#X connect 17 1 21 0;
#X connect 18 0 32 0;
#X connect 18 0 31 0;
#X connect 19 0 47 0;
#X connect 19 1 46 0;
#X connect 20 0 9 0;
#X connect 21 0 14 0;
#X connect 22 0 1 0;
#X connect 22 0 54 0;
#X connect 22 1 2 0;
#X connect 23 0 13 0;
#X connect 24 0 27 0;
#X connect 25 0 27 0;
#X connect 26 0 30 0;
#X connect 27 0 28 0;
#X connect 28 0 48 0;
#X connect 30 0 6 0;
#X connect 31 0 6 0;
#X connect 32 0 4 0;
#X connect 36 0 17 0;
#X connect 36 0 10 1;
#X connect 37 0 8 0;
#X connect 37 0 68 0;
#X connect 39 0 26 0;
#X connect 41 0 33 2;
#X connect 41 0 52 0;
#X connect 43 0 45 0;
#X connect 44 0 41 0;
#X connect 45 0 33 0;
#X connect 45 1 41 1;
#X connect 48 0 3 0;
#X connect 50 0 53 0;
#X connect 51 0 50 0;
#X connect 52 0 33 3;
#X connect 53 0 52 0;
#X connect 53 1 52 1;
#X connect 55 0 22 3;
#X connect 57 0 60 0;
#X connect 58 0 59 0;
#X connect 59 0 56 0;
#X connect 60 0 49 0;
#X connect 61 0 71 0;
#X connect 63 0 64 0;
#X connect 64 0 62 0;
#X connect 65 0 61 0;
#X connect 66 0 40 0;
#X connect 66 0 0 0;
#X connect 67 0 66 0;
#X connect 68 0 7 0;
#X connect 69 0 68 1;
#X connect 69 0 72 0;
#X connect 69 0 70 1;
#X connect 70 0 16 0;
#X connect 71 0 16 0;
#X connect 72 0 71 1;
#X coords 0 -1 1 1 205 120 2 0 0;
#X restore 7 -257 pd granular;
#X msg 476 -50 120;
#X obj 475 -79 loadbang;
#X text 52 -338 Settings;
#N canvas 716 314 632 433 follower 0;
#X obj -695 -329 mimikri;
#X obj -741 -391 r celloNote;
#X obj -696 -227 throw~ main-mono;
#X msg -695 -360 60;
#X floatatom -640 -368 5 0 0 0 - - -;
#X msg -602 -357 80;
#X msg -552 -357 90;
#X obj -571 -232 throw~ wave;
#X connect 0 0 7 0;
#X connect 3 0 0 0;
#X connect 4 0 0 0;
#X connect 5 0 0 0;
#X connect 6 0 0 0;
#X restore 265 -207 pd follower;
#N canvas 797 338 450 300 slice_sel 0;
#N canvas 65 112 353 284 read-cuepoints 0;
#X obj 12 27 inlet;
#X obj 12 245 outlet;
#X text 49 27 slice index number;
#X obj 156 218 pack;
#X obj 183 133 + 1;
#X obj 156 133 f;
#X obj 156 103 t b f;
#X obj 12 57 * 4;
#X text 205 249 cuepoints pair;
#X obj 156 246 outlet;
#X obj 12 86 t f f;
#X obj 12 137 + 2;
#X text 56 246 pitch;
#X obj 177 164 tabread 1-cuepoints;
#X obj 156 192 tabread 1-cuepoints;
#X obj 12 163 tabread 1-cuepoints;
#X connect 0 0 7 0;
#X connect 3 0 9 0;
#X connect 4 0 13 0;
#X connect 5 0 14 0;
#X connect 6 0 5 0;
#X connect 6 1 4 0;
#X connect 6 1 5 1;
#X connect 7 0 10 0;
#X connect 10 0 6 0;
#X connect 10 1 11 0;
#X connect 11 0 15 0;
#X connect 13 0 3 1;
#X connect 14 0 3 0;
#X connect 15 0 1 0;
#X restore 177 22 pd read-cuepoints;
#X obj 103 131 sliceplay~ 1-slices;
#X msg 82 55 1;
#X obj 109 -22 hradio 15 1 0 8 empty empty empty 0 -8 0 10 -262144
-1 -1 0;
#X obj 123 6 t b f;
#X obj 103 159 throw~ main-mono;
#X obj 301 64 print;
#X msg 133 78 interrupt 1;
#X connect 0 1 1 1;
#X connect 0 1 6 0;
#X connect 1 0 5 0;
#X connect 2 0 1 0;
#X connect 3 0 4 0;
#X connect 4 0 2 0;
#X connect 4 1 0 0;
#X connect 7 0 1 0;
#X restore 680 -31 pd slice_sel;
#X msg 271 -122 \; pd-midi-monitor vis 1;
#X obj 271 -141 bng 15 250 50 0 empty empty empty 17 7 0 10 -262144
-1 -1;
#X obj 638 -92 s delaintime;
#X floatatom 638 -115 5 0 0 0 - - -;
#X connect 2 0 4 0;
#X connect 2 1 5 0;
#X connect 7 0 6 0;
#X connect 7 1 6 1;
#X connect 8 0 13 0;
#X connect 9 0 13 1;
#X connect 10 0 12 0;
#X connect 11 0 12 1;
#X connect 13 0 3 0;
#X connect 13 0 14 0;
#X connect 13 1 3 1;
#X connect 13 1 14 1;
#X connect 15 0 14 2;
#X connect 18 0 13 0;
#X connect 18 0 13 1;
#X connect 20 0 21 0;
#X connect 20 1 22 0;
#X connect 24 0 25 0;
#X connect 25 0 28 0;
#X connect 26 0 25 0;
#X connect 26 1 25 1;
#X connect 27 0 26 0;
#X connect 32 0 27 0;
#X connect 33 0 32 0;
#X connect 38 0 37 0;
#X connect 40 0 39 0;
