#N canvas 91 151 450 300 10;
#X declare -lib zexy;
#X declare -lib bsaylor;
#X declare -path abstractions/;
#X declare -lib iemmatrix;
#X declare -lib zexy;
#X declare -lib bsaylor;
#X declare -lib zexy;
#X declare -lib bsaylor;
#X declare -lib zexy;
#X declare -lib bsaylor;
#X declare -lib zexy;
#X declare -lib bsaylor;
#X declare -lib zexy;
#X declare -lib bsaylor;
#X declare -lib zexy;
#X declare -lib bsaylor;
#X declare -lib zexy;
#X declare -lib bsaylor;
#N canvas 149 163 450 300 libs 0;
#X obj -14 -42 declare -lib zexy;
#X obj -14 -22 declare -lib bsaylor;
#X obj -14 -3 declare -path abstractions/;
#X obj -14 17 declare -lib iemmatrix;
#X restore -6 -5 pd libs;
#N canvas 65 173 450 300 tables 0;
#N canvas 163 249 450 300 irTables 0;
#X obj 14 14 table ir1-L;
#X obj 88 14 table ir1-R;
#X obj 14 33 table ir2-L;
#X obj 88 33 table ir2-R;
#X obj 14 53 table ir3-L;
#X obj 88 53 table ir3-R;
#X obj 15 72 table ir4-L;
#X obj 89 72 table ir4-R;
#X obj 165 14 load ../irResponses ir;
#X obj 15 91 table ir5-L;
#X obj 15 110 table ir6-L;
#X obj 15 130 table ir7-L;
#X obj 16 149 table ir8-L;
#X obj 89 91 table ir5-R;
#X obj 89 110 table ir6-R;
#X obj 89 130 table ir7-R;
#X obj 90 149 table ir8-R;
#X restore 9 5 pd irTables;
#X text 88 2 <- all Impulse Response Tables here;
#X restore -6 15 pd tables;
#N canvas 368 151 995 518 scene2 1;
#X obj 43 236 outlet~ L;
#X obj 120 236 outlet~ R;
#X obj 165 111 throw~ scene2-Main-L;
#X obj 209 92 throw~ scene2-Main-R;
#X obj 44 189 catch~ scene2-Main-L;
#X obj 120 209 catch~ scene2-Main-R;
#X obj 43 157 catch~ scene2-Main-mono;
#X obj 38 -43 hradio 15 1 0 8 empty empty empty 0 -8 0 10 -262144 -1
-1 3;
#N canvas 787 208 567 417 textfiler 1;
#X obj 25 24 t b b;
#X msg 25 83 rewind;
#X obj 25 203 sprintf %s%s;
#X obj 25 146 t b s;
#X obj 25 121 msgfile;
#X msg 52 64 read samples/scene2/scene2.txt cr;
#X obj 122 -78 inlet;
#X msg 122 28 goto \$1;
#X obj 25 232 outlet;
#X msg 102 122 water.wav;
#X obj 25 -32 loadbang;
#X obj 25 -65 bng 15 250 50 0 empty empty empty 17 7 0 10 -262144 -1
-1;
#X msg 25 173 /home/morast/Documents/umoi/follower/samples/scene2/
;
#X msg 73 -10 this;
#X obj 122 -41 t b f;
#X connect 0 0 1 0;
#X connect 0 1 5 0;
#X connect 1 0 4 0;
#X connect 2 0 8 0;
#X connect 3 0 12 0;
#X connect 3 1 2 1;
#X connect 4 0 3 0;
#X connect 5 0 4 0;
#X connect 6 0 14 0;
#X connect 7 0 4 0;
#X connect 9 0 3 0;
#X connect 10 0 0 0;
#X connect 11 0 10 0;
#X connect 12 0 2 0;
#X connect 13 0 4 0;
#X connect 14 0 13 0;
#X connect 14 1 7 0;
#X restore 165 41 pd textfiler;
#X obj 165 66 player2~;
#X obj 384 21 catch~ scene2-irVerb;
#X obj 385 50 tb_peakcomp~ -10 8 10 100 0;
#X obj 384 75 throw~ scene2-Main-mono;
#N canvas 65 54 1301 714 irVerb 0;
#X obj 83 232 *~ 0.5;
#X obj 82 195 irVerb~ ir1;
#X obj 156 231 *~ 0.5;
#X obj 253 232 *~ 0.5;
#X obj 559 147 route 0 1 2 3 4 5 6;
#N canvas 258 242 579 421 onset 0;
#X obj 97 188 outlet;
#X obj 97 58 f;
#X obj 97 19 until;
#X obj 123 58 + 1;
#X obj 97 119 == 0;
#X obj 97 144 pack f f;
#X obj 97 85 t f f;
#X msg 97 165 \$2 \$1;
#X obj 97 -36 t b b f;
#X msg 126 -7 0;
#X text 211 61 Switch on one thing out of 7 at a time;
#X msg 97 -7 7;
#X obj 97 -69 inlet;
#X connect 1 0 3 0;
#X connect 1 0 6 0;
#X connect 2 0 1 0;
#X connect 3 0 1 1;
#X connect 4 0 5 0;
#X connect 5 0 7 0;
#X connect 6 0 4 0;
#X connect 6 1 5 1;
#X connect 7 0 0 0;
#X connect 8 0 11 0;
#X connect 8 1 9 0;
#X connect 8 2 4 1;
#X connect 9 0 1 1;
#X connect 11 0 2 0;
#X connect 12 0 8 0;
#X restore 559 128 pd onset;
#X obj 326 231 *~ 0.2;
#X obj 422 231 *~ 0.27;
#X obj 495 231 *~ 0.2;
#X obj 590 231 *~ 1;
#X obj 156 194 irVerb~ ir2;
#X obj 252 195 irVerb~ ir3;
#X obj 326 194 irVerb~ ir4;
#X obj 421 195 irVerb~ ir5;
#X obj 495 194 irVerb~ ir6;
#X obj 591 195 irVerb~ ir7;
#N canvas 501 412 450 300 before 0;
#X obj 99 114 f;
#X floatatom 99 137 5 0 0 0 - - -;
#X floatatom 58 112 5 0 0 0 - - -;
#X obj 95 82 t f f b;
#X obj 95 56 inlet;
#X msg 99 202 element 1 \$1 0;
#X msg 58 171 element 1 \$1 1;
#X obj 58 229 outlet;
#X connect 0 0 1 0;
#X connect 1 0 5 0;
#X connect 2 0 6 0;
#X connect 3 0 2 0;
#X connect 3 1 0 1;
#X connect 3 2 0 0;
#X connect 4 0 3 0;
#X connect 5 0 7 0;
#X connect 6 0 7 0;
#X restore 671 266 pd before;
#X obj 668 86 inlet;
#X obj 81 26 inlet~;
#X obj 257 428 outlet~;
#X obj 256 333 mtx_*~ 1 7 .....................;
#X obj 711 217 + 1;
#X connect 0 0 20 1;
#X connect 1 0 0 0;
#X connect 2 0 20 2;
#X connect 3 0 20 3;
#X connect 4 0 1 1;
#X connect 4 1 10 1;
#X connect 4 2 11 1;
#X connect 4 3 12 1;
#X connect 4 4 13 1;
#X connect 4 5 14 1;
#X connect 4 6 15 1;
#X connect 5 0 4 0;
#X connect 6 0 20 4;
#X connect 7 0 20 5;
#X connect 8 0 20 6;
#X connect 9 0 20 7;
#X connect 10 0 2 0;
#X connect 11 0 3 0;
#X connect 12 0 6 0;
#X connect 13 0 7 0;
#X connect 14 0 8 0;
#X connect 15 0 9 0;
#X connect 16 0 20 0;
#X connect 17 0 5 0;
#X connect 17 0 21 0;
#X connect 18 0 1 0;
#X connect 18 0 10 0;
#X connect 18 0 11 0;
#X connect 18 0 12 0;
#X connect 18 0 13 0;
#X connect 18 0 14 0;
#X connect 18 0 15 0;
#X connect 20 0 19 0;
#X connect 21 0 16 0;
#X restore 35 64 pd irVerb;
#X obj 35 93 throw~ scene2-irVerb;
#X obj 38 -19 s scene2-set;
#X obj 165 17 r scene2-set;
#X text 264 37 Soundfileplayback;
#X text 561 25 Limiting of Reverb;
#X obj 86 42 r scene2-set;
#X text 197 157 Output;
#X obj 13 16 receive~ input1;
#X obj 556 -28 osc~ 333;
#X obj -8 23;
#X connect 4 0 0 0;
#X connect 5 0 1 0;
#X connect 6 0 0 0;
#X connect 6 0 1 0;
#X connect 7 0 15 0;
#X connect 8 0 9 0;
#X connect 10 0 11 0;
#X connect 11 0 12 0;
#X connect 13 0 14 0;
#X connect 16 0 8 0;
#X connect 19 0 13 1;
#X connect 21 0 13 0;
#X restore 205 144 pd scene2;
#X obj 12 282 dac~ 1 2;
#X obj 204 175 throw~ main-L;
#X obj 289 175 throw~ main-R;
#N canvas 378 292 450 300 input 1;
#X obj -21 -13 inlet~;
#X obj 101 -11 inlet~;
#X obj -21 97 send~ input1;
#X obj 102 17 send~ input2;
#X msg 147 119 /home/morast/Documents/samples/cello.wav;
#X obj 201 204 player~;
#X obj 190 71 r set;
#X obj 195 93 t b;
#X obj -20 35 hip~ 60;
#X floatatom 28 6 5 0 0 0 - - -;
#X obj 106 58 osc~ 222;
#X connect 0 0 8 0;
#X connect 1 0 3 0;
#X connect 4 0 5 0;
#X connect 5 0 2 0;
#X connect 6 0 7 0;
#X connect 7 0 4 0;
#X connect 8 0 2 0;
#X connect 9 0 8 1;
#X restore 58 15 pd input;
#X obj 59 -9 adc~ 1 2;
#X obj 11 201 catch~ main-L;
#X obj 104 201 catch~ main-R;
#X obj -6 35 receive~ input1;
#X obj 92 35 receive~ input2;
#N canvas 815 195 450 300 inputAnalyzer 0;
#X obj 18 18 inlet~;
#X obj 231 16 inlet~;
#X obj 18 56 envelope_follower;
#X obj 133 56 pitchTracker;
#X connect 0 0 2 0;
#X connect 0 0 3 0;
#X restore -5 57 pd inputAnalyzer -;
#X obj 12 242 tb_peakcomp~ -10 8 10 100 0;
#X connect 2 0 4 0;
#X connect 2 1 5 0;
#X connect 7 0 6 0;
#X connect 7 1 6 1;
#X connect 8 0 13 0;
#X connect 9 0 13 1;
#X connect 10 0 12 0;
#X connect 11 0 12 1;
#X connect 13 0 3 0;
#X connect 13 1 3 1;
