#N canvas 715 82 650 686 10;
#X declare -lib zexy;
#X declare -lib bsaylor;
#X declare -lib zexy;
#X declare -lib bsaylor;
#X declare -lib zexy;
#X declare -lib bsaylor;
#X declare -lib zexy;
#X declare -lib bsaylor;
#X declare -lib zexy;
#X declare -lib bsaylor;
#X declare -lib zexy;
#X declare -lib bsaylor;
#X declare -lib zexy;
#X declare -lib bsaylor;
#X declare -lib zexy;
#X declare -lib bsaylor;
#X declare -lib zexy;
#X declare -lib bsaylor;
#X declare -path bin/;
#X declare -path bin/;
#X declare -path bin/;
#X declare -path bin/;
#X declare -lib zexy;
#X declare -lib bsaylor;
#X declare -path abstractions/;
#X declare -lib iemmatrix;
#X declare -lib hexloader;
#X declare -path bin/;
#X declare -path slicer/abstractions/;
#X declare -path slicer/;
#N canvas 65 54 1301 714 mixer 0;
#X obj 363 100 c_stchannel slicer1;
#X obj 452 100 c_stchannel slicer2;
#X obj 540 100 c_stchannel slicer3;
#X obj 627 100 c_stchannel slicer4;
#X obj 194 -227 catch~ slicer1-L;
#X obj 277 -195 catch~ slicer1-R;
#X obj 341 -164 catch~ slicer2-L;
#X obj 422 -143 catch~ slicer2-R;
#X obj 458 -123 catch~ slicer3-L;
#X obj 518 -101 catch~ slicer3-R;
#X obj 578 -57 catch~ slicer4-L;
#X obj 596 -37 catch~ slicer4-R;
#X obj 939 100 c_stchannel delay;
#X obj 364 348 c_tobus reverb;
#X obj 453 348 c_tobus reverb;
#X obj 541 348 c_tobus reverb;
#X obj 633 348 c_tobus reverb;
#X obj 987 100 c_stchannel reverb;
#X obj 986 -76 rev3~ 90 90;
#X obj 938 -137 e_del;
#X obj 978 -136 e_del;
#N canvas 911 102 449 300 controls 0;
#X obj 45 143 outlet;
#X msg 45 73 dry 1;
#X msg 94 73 feedback \$1;
#X msg 273 75 bpm \$1;
#X msg 198 74 deltime \$1;
#X obj 45 9 loadbang;
#X obj 101 8 r fb;
#X obj 201 21 r del-time;
#X obj 333 38 unpack;
#X obj 333 15 r groove/BPM;
#X connect 1 0 0 0;
#X connect 2 0 0 0;
#X connect 3 0 0 0;
#X connect 4 0 0 0;
#X connect 5 0 1 0;
#X connect 6 0 2 0;
#X connect 7 0 4 0;
#X connect 8 1 3 0;
#X connect 9 0 8 0;
#X restore 1005 -164 pd controls;
#X obj 937 -215 catch~ L-delay;
#X obj 953 -185 catch~ R-delay;
#X obj 985 -115 catch~ L-reverb;
#X obj 998 -96 catch~ R-reverb;
#X obj 1026 100 c_stchannel Krunch;
#X obj 364 385 c_tobus krunch;
#X obj 453 385 c_tobus krunch;
#X obj 541 385 c_tobus krunch;
#X obj 633 385 c_tobus krunch;
#X obj 1097 -96 catch~ L-krunch;
#N canvas 244 110 243 421 stereokrunch 0;
#X obj 32 32 inlet~;
#X obj 32 373 outlet~;
#X obj 83 373 outlet~;
#X obj 79 33 inlet~;
#X obj 66 100 t f f;
#X obj 66 74 * 3.5;
#X obj 66 128 *;
#X obj 130 59 t b f;
#X obj 130 107 -;
#X msg 130 83 1;
#X obj 130 132 + 1;
#X floatatom 177 177 5 0 0 0 - - -;
#X obj 130 160 * 0.5;
#X obj 32 274 *~ 1;
#X obj 79 274 *~ 1;
#X obj 32 342 *~ 1;
#X obj 83 343 *~ 1;
#X obj 130 195 t b f;
#X obj 130 244 /;
#X msg 130 219 1;
#X floatatom 130 276 5 0 0 0 - - -;
#X obj 66 153 + 0.15;
#X obj 32 311 krunch~ 2;
#X obj 130 33 inlet;
#X floatatom 87 180 5 0 0 0 - - -;
#X connect 0 0 13 0;
#X connect 3 0 14 0;
#X connect 4 0 6 0;
#X connect 4 1 6 1;
#X connect 5 0 4 0;
#X connect 6 0 21 0;
#X connect 7 0 9 0;
#X connect 7 1 8 1;
#X connect 8 0 10 0;
#X connect 9 0 8 0;
#X connect 10 0 12 0;
#X connect 12 0 11 0;
#X connect 12 0 15 1;
#X connect 12 0 16 1;
#X connect 12 0 17 0;
#X connect 13 0 22 0;
#X connect 14 0 22 1;
#X connect 15 0 1 0;
#X connect 16 0 2 0;
#X connect 17 0 19 0;
#X connect 17 1 18 1;
#X connect 18 0 20 0;
#X connect 18 0 13 1;
#X connect 18 0 14 1;
#X connect 19 0 18 0;
#X connect 21 0 22 2;
#X connect 21 0 24 0;
#X connect 22 0 15 0;
#X connect 22 1 16 0;
#X connect 23 0 5 0;
#X connect 23 0 7 0;
#X restore 1026 -33 pd stereokrunch;
#X obj 1115 -74 catch~ R-krunch;
#X obj 1148 -51 r distortion;
#X obj 1064 100 c_stchannel IR-Verb;
#N canvas 695 87 650 686 scene3 0;
#X obj 439 27 tb_peakcomp~ -10 8 10 100 0;
#N canvas 65 54 1301 714 irVerb 0;
#X obj 83 232 *~ 0.5;
#X obj 82 195 irVerb~ ir1;
#X obj 156 231 *~ 0.5;
#X obj 253 232 *~ 0.5;
#N canvas 249 257 579 421 onset 0;
#X obj 97 188 outlet;
#X obj 97 58 f;
#X obj 97 19 until;
#X obj 123 58 + 1;
#X obj 97 119 == 0;
#X obj 97 144 pack f f;
#X obj 97 85 t f f;
#X msg 97 165 \$2 \$1;
#X obj 97 -36 t b b f;
#X msg 126 -7 0;
#X obj 97 -69 inlet;
#X msg 97 -7 9;
#X text 211 61 Switch on one thing out of 9 at a time;
#X connect 1 0 3 0;
#X connect 1 0 6 0;
#X connect 2 0 1 0;
#X connect 3 0 1 1;
#X connect 4 0 5 0;
#X connect 5 0 7 0;
#X connect 6 0 4 0;
#X connect 6 1 5 1;
#X connect 7 0 0 0;
#X connect 8 0 11 0;
#X connect 8 1 9 0;
#X connect 8 2 4 1;
#X connect 9 0 1 1;
#X connect 10 0 8 0;
#X connect 11 0 2 0;
#X restore 559 128 pd onset;
#X obj 326 231 *~ 0.2;
#X obj 422 231 *~ 0.27;
#X obj 495 231 *~ 0.2;
#X obj 590 231 *~ 1;
#X obj 156 194 irVerb~ ir2;
#X obj 252 195 irVerb~ ir3;
#X obj 326 194 irVerb~ ir4;
#X obj 421 195 irVerb~ ir5;
#X obj 495 194 irVerb~ ir6;
#X obj 591 195 irVerb~ ir7;
#N canvas 498 417 450 300 before 0;
#X obj 99 114 f;
#X floatatom 99 137 5 0 0 0 - - -;
#X floatatom 58 112 5 0 0 0 - - -;
#X obj 95 82 t f f b;
#X obj 95 56 inlet;
#X msg 99 202 element 1 \$1 0;
#X msg 58 171 element 1 \$1 1;
#X obj 58 229 outlet;
#X connect 0 0 1 0;
#X connect 1 0 5 0;
#X connect 2 0 6 0;
#X connect 3 0 2 0;
#X connect 3 1 0 1;
#X connect 3 2 0 0;
#X connect 4 0 3 0;
#X connect 5 0 7 0;
#X connect 6 0 7 0;
#X restore 256 131 pd before;
#X obj 559 91 inlet;
#X obj 81 26 inlet~;
#X obj 257 428 outlet~;
#X obj 256 108 + 1;
#X msg 901 111 arrayviewlistnew;
#X obj 901 137 s scene2-score;
#X msg 766 62 \; scene2-score 0 1 6 1 4 1 2 1 7 2 3 9 4 3 6 7 8 1 2
3 5 7 4;
#X obj 766 137 table scene2-score 22;
#X obj 766 30 loadbang;
#X obj 256 334 mtx_*~ 1 9 .....................;
#X obj 739 193 irVerb~ ir2;
#X obj 663 194 irVerb~ ir5;
#X obj 559 147 route 0 1 2 3 4 5 6 7 8;
#X obj 663 222 *~ 0.27;
#X obj 740 220 *~ 0.5;
#X connect 0 0 25 1;
#X connect 1 0 0 0;
#X connect 2 0 25 2;
#X connect 3 0 25 3;
#X connect 4 0 28 0;
#X connect 5 0 25 4;
#X connect 6 0 25 5;
#X connect 7 0 25 6;
#X connect 8 0 25 7;
#X connect 9 0 2 0;
#X connect 10 0 3 0;
#X connect 11 0 5 0;
#X connect 12 0 6 0;
#X connect 13 0 7 0;
#X connect 14 0 8 0;
#X connect 15 0 25 0;
#X connect 16 0 4 0;
#X connect 16 0 19 0;
#X connect 17 0 1 0;
#X connect 17 0 9 0;
#X connect 17 0 10 0;
#X connect 17 0 11 0;
#X connect 17 0 12 0;
#X connect 17 0 13 0;
#X connect 17 0 14 0;
#X connect 17 0 27 0;
#X connect 17 0 26 0;
#X connect 19 0 15 0;
#X connect 20 0 21 0;
#X connect 24 0 22 0;
#X connect 25 0 18 0;
#X connect 26 0 30 0;
#X connect 27 0 29 0;
#X connect 28 0 1 1;
#X connect 28 1 9 1;
#X connect 28 2 10 1;
#X connect 28 3 11 1;
#X connect 28 4 12 1;
#X connect 28 5 13 1;
#X connect 28 6 14 1;
#X connect 28 7 27 1;
#X connect 28 8 26 1;
#X connect 29 0 25 8;
#X connect 30 0 25 9;
#X restore 439 -15 pd irVerb;
#X obj 439 5 *~ 0.7;
#X obj 439 -117 inlet~;
#X obj 439 51 outlet~;
#X obj 490 -39 r IR-Verb;
#X connect 0 0 4 0;
#X connect 1 0 2 0;
#X connect 2 0 0 0;
#X connect 3 0 1 0;
#X connect 5 0 1 1;
#X restore 1099 46 pd scene3;
#X obj 722 101 c_stchannel sampler1;
#X obj 722 311 c_tobus delay;
#X obj 722 348 c_tobus reverb;
#X obj 722 385 c_tobus krunch;
#X obj 365 421 c_tobus IRverb;
#X obj 632 421 c_tobus IRverb;
#X obj 543 421 c_tobus IRverb;
#X obj 454 421 c_tobus IRverb;
#X obj 723 421 c_tobus IRverb;
#X obj 1099 20 catch~ L-IRverb;
#X obj 100 101 c_stchannel input1;
#X obj 189 100 c_stchannel input2;
#X obj 274 100 c_stchannel input3;
#X obj 100 311 c_tobus delay;
#X obj 100 348 c_tobus reverb;
#X obj 100 385 c_tobus krunch;
#X obj 101 421 c_tobus IRverb;
#X obj 189 311 c_tobus delay;
#X obj 189 348 c_tobus reverb;
#X obj 189 385 c_tobus krunch;
#X obj 190 421 c_tobus IRverb;
#X obj 277 311 c_tobus delay;
#X obj 277 348 c_tobus reverb;
#X obj 277 385 c_tobus krunch;
#X obj 278 421 c_tobus IRverb;
#X obj 42 -39 adc~ 1;
#X obj 116 -29 adc~ 2;
#X obj 167 -28 adc~ 3;
#X obj 703 -58 catch~ \$0-sampler2;
#X obj 728 -37 catch~ sampler2;
#X obj 813 311 c_tobus delay;
#X obj 813 348 c_tobus reverb;
#X obj 813 385 c_tobus krunch;
#X obj 814 421 c_tobus IRverb;
#X obj 812 101 c_stchannel wind;
#X obj 824 -60 catch~ wind-L;
#X obj 834 -38 catch~ wind-R;
#X obj 939 311 tb_peakcomp~ -10 8 10 100 0;
#X text 1123 310 -Compressor;
#X obj 940 383 dac~ 1 2;
#N canvas 703 102 650 686 record 0;
#X obj 15 335 writesf~ 2;
#X msg 210 95 bang;
#X obj 207 143 date GTM;
#X msg 137 -33 umoi;
#X obj 262 144 time GTM;
#X obj 65 61 t a b;
#X obj 65 189 sprintf %s_%i-%i-%i_%i:%i;
#X obj 65 26 sprintf %s%s;
#X msg 65 -34 session/;
#X obj 112 -85 t b b;
#X obj 65 254 sprintf %s%s;
#X msg 135 220 .wav;
#X obj 65 212 t a b;
#X obj 65 282 prepend open;
#X msg 47 -94 start;
#X obj 95 -127 t b b;
#X obj 161 -144 sel 1 0;
#X msg 185 -97 stop;
#X obj 274 -161 inlet;
#X obj 15 -156 inlet~;
#X obj 71 -156 inlet~;
#X connect 1 0 2 0;
#X connect 1 0 4 0;
#X connect 2 0 6 1;
#X connect 2 1 6 2;
#X connect 2 2 6 3;
#X connect 3 0 7 1;
#X connect 4 0 6 4;
#X connect 4 1 6 5;
#X connect 5 0 6 0;
#X connect 5 1 1 0;
#X connect 6 0 12 0;
#X connect 7 0 5 0;
#X connect 8 0 7 0;
#X connect 9 0 8 0;
#X connect 9 1 3 0;
#X connect 10 0 13 0;
#X connect 11 0 10 1;
#X connect 12 0 10 0;
#X connect 12 1 11 0;
#X connect 13 0 0 0;
#X connect 14 0 0 0;
#X connect 15 0 14 0;
#X connect 15 1 9 0;
#X connect 16 0 15 0;
#X connect 16 1 17 0;
#X connect 17 0 0 0;
#X connect 18 0 16 0;
#X connect 19 0 0 0;
#X connect 20 0 0 1;
#X restore 1009 385 pd record;
#X obj 1060 346 tgl 30 0 empty empty REC 3 15 0 15 -258113 -1 -1 0
1;
#X obj 364 311 c_tobus delay1;
#X obj 453 311 c_tobus delay2;
#X obj 542 312 c_tobus delay3;
#X obj 633 311 c_tobus delay4;
#N canvas 673 246 681 300 slicer-delay 0;
#X obj 14 19 catch~ L-delay1;
#X obj 69 40 catch~ R-delay1;
#X obj 166 20 catch~ L-delay2;
#X obj 221 41 catch~ R-delay2;
#X obj 324 19 catch~ L-delay3;
#X obj 379 40 catch~ R-delay3;
#X obj 476 20 catch~ L-delay4;
#X obj 531 41 catch~ R-delay4;
#X obj 15 105 e_del slicer1-L;
#X obj 69 143 e_del slicer1-R;
#X obj 16 206 *~ 1;
#X obj 69 206 *~ 1;
#X obj 167 267 outlet~;
#X obj 220 267 outlet~;
#X obj 165 125 e_del slicer2-L;
#X obj 221 103 e_del slicer2-R;
#X obj 325 105 e_del slicer3-L;
#X obj 379 143 e_del slicer3-R;
#X obj 475 105 e_del slicer4-L;
#X obj 529 143 e_del slicer4-R;
#X obj 166 206 *~ 1;
#X obj 219 206 *~ 1;
#X obj 326 206 *~ 1;
#X obj 379 205 *~ 1;
#X obj 476 206 *~ 1;
#X obj 529 206 *~ 1;
#N canvas 336 251 438 367 control 0;
#X obj 27 34 r midimix-21;
#X obj 105 34 r midimix-22;
#X obj 105 59 / 127;
#X msg 105 101 feedback \$1;
#X obj 27 59 / 127;
#X obj 27 80 * 32;
#X msg 27 101 deltime \$1;
#X obj 27 137 outlet;
#X msg 283 85 bpm \$1;
#X obj 343 48 unpack;
#X obj 343 25 r groove/BPM;
#X msg 228 43 dry 1;
#X obj 228 19 loadbang;
#X obj 283 40 r bpm-0;
#X connect 0 0 4 0;
#X connect 1 0 2 0;
#X connect 2 0 3 0;
#X connect 3 0 7 0;
#X connect 4 0 5 0;
#X connect 5 0 6 0;
#X connect 6 0 7 0;
#X connect 8 0 7 0;
#X connect 9 1 8 0;
#X connect 10 0 9 0;
#X connect 11 0 7 0;
#X connect 12 0 11 0;
#X connect 13 0 8 0;
#X restore 102 74 pd control;
#N canvas 828 384 450 300 control 0;
#X obj 105 59 / 127;
#X msg 105 101 feedback \$1;
#X obj 27 59 / 127;
#X obj 27 80 * 32;
#X msg 27 101 deltime \$1;
#X obj 27 137 outlet;
#X obj 27 34 r midimix-29;
#X obj 105 34 r midimix-30;
#X msg 293 95 bpm \$1;
#X obj 353 58 unpack;
#X obj 353 35 r groove/BPM;
#X msg 238 53 dry 1;
#X obj 238 29 loadbang;
#X obj 293 50 r bpm-1;
#X connect 0 0 1 0;
#X connect 1 0 5 0;
#X connect 2 0 3 0;
#X connect 3 0 4 0;
#X connect 4 0 5 0;
#X connect 6 0 2 0;
#X connect 7 0 0 0;
#X connect 8 0 5 0;
#X connect 9 1 8 0;
#X connect 10 0 9 0;
#X connect 11 0 5 0;
#X connect 12 0 11 0;
#X connect 13 0 8 0;
#X restore 252 69 pd control;
#N canvas 825 389 450 300 control 0;
#X obj 105 59 / 127;
#X msg 105 101 feedback \$1;
#X obj 27 59 / 127;
#X obj 27 80 * 32;
#X msg 27 101 deltime \$1;
#X obj 27 137 outlet;
#X obj 27 34 r midimix-51;
#X obj 105 34 r midimix-52;
#X msg 187 103 bpm \$1;
#X obj 247 66 unpack;
#X obj 247 43 r groove/BPM;
#X msg 187 56 dry 1;
#X obj 187 32 loadbang;
#X obj 187 77 r bpm-2;
#X connect 0 0 1 0;
#X connect 1 0 5 0;
#X connect 2 0 3 0;
#X connect 3 0 4 0;
#X connect 4 0 5 0;
#X connect 6 0 2 0;
#X connect 7 0 0 0;
#X connect 8 0 5 0;
#X connect 9 1 8 0;
#X connect 10 0 9 0;
#X connect 11 0 5 0;
#X connect 12 0 11 0;
#X connect 13 0 8 0;
#X restore 412 64 pd control;
#N canvas 828 384 450 300 control 0;
#X obj 105 59 / 127;
#X msg 105 101 feedback \$1;
#X obj 27 59 / 127;
#X obj 27 80 * 32;
#X msg 27 101 deltime \$1;
#X obj 27 137 outlet;
#X obj 27 34 r midimix-59;
#X obj 105 34 r midimix-60;
#X msg 197 105 bpm \$1;
#X obj 257 68 unpack;
#X obj 257 45 r groove/BPM;
#X msg 197 54 dry 1;
#X obj 197 30 loadbang;
#X obj 313 70 r bpm-3;
#X floatatom 317 104 5 0 0 0 - - -;
#X connect 0 0 1 0;
#X connect 1 0 5 0;
#X connect 2 0 3 0;
#X connect 3 0 4 0;
#X connect 4 0 5 0;
#X connect 6 0 2 0;
#X connect 7 0 0 0;
#X connect 8 0 5 0;
#X connect 9 1 8 0;
#X connect 10 0 9 0;
#X connect 11 0 5 0;
#X connect 12 0 11 0;
#X connect 13 0 8 0;
#X connect 13 0 14 0;
#X restore 562 65 pd control;
#X connect 0 0 8 0;
#X connect 1 0 9 0;
#X connect 2 0 14 0;
#X connect 3 0 15 0;
#X connect 4 0 16 0;
#X connect 5 0 17 0;
#X connect 6 0 18 0;
#X connect 7 0 19 0;
#X connect 8 0 10 0;
#X connect 9 0 11 0;
#X connect 10 0 12 0;
#X connect 11 0 13 0;
#X connect 14 0 20 0;
#X connect 15 0 21 0;
#X connect 16 0 22 0;
#X connect 17 0 23 0;
#X connect 18 0 24 0;
#X connect 19 0 25 0;
#X connect 20 0 12 0;
#X connect 21 0 13 0;
#X connect 22 0 12 0;
#X connect 23 0 13 0;
#X connect 24 0 12 0;
#X connect 25 0 13 0;
#X connect 26 0 8 2;
#X connect 26 0 9 2;
#X connect 27 0 15 2;
#X connect 27 0 14 2;
#X connect 28 0 16 2;
#X connect 28 0 17 2;
#X connect 29 0 18 2;
#X connect 29 0 19 2;
#X restore 1176 193 pd slicer-delay;
#N canvas 623 82 450 300 delcontrol 0;
#X obj -2 11 / 127;
#X obj -2 -13 r midimix-20;
#X msg -2 30 send \$1;
#X obj 78 11 / 127;
#X msg 78 30 send \$1;
#X obj 78 -13 r midimix-28;
#X obj 158 11 / 127;
#X msg 158 30 send \$1;
#X obj 238 11 / 127;
#X msg 238 30 send \$1;
#X obj 158 -13 r midimix-50;
#X obj 238 -13 r midimix-58;
#X obj -2 57 outlet;
#X obj 78 57 outlet;
#X obj 158 57 outlet;
#X obj 238 57 outlet;
#X connect 0 0 2 0;
#X connect 1 0 0 0;
#X connect 2 0 12 0;
#X connect 3 0 4 0;
#X connect 4 0 13 0;
#X connect 5 0 3 0;
#X connect 6 0 7 0;
#X connect 7 0 14 0;
#X connect 8 0 9 0;
#X connect 9 0 15 0;
#X connect 10 0 6 0;
#X connect 11 0 8 0;
#X restore 394 32 pd delcontrol;
#N canvas 746 101 450 300 reverbctl 0;
#X obj 46 75 r midimix-18;
#X obj 46 97 / 127;
#X msg 46 119 send \$1;
#X obj 126 97 / 127;
#X msg 126 119 send \$1;
#X obj 205 97 / 127;
#X msg 205 119 send \$1;
#X obj 285 97 / 127;
#X msg 285 119 send \$1;
#X obj 126 75 r midimix-26;
#X obj 205 75 r midimix-48;
#X obj 285 75 r midimix-56;
#X obj 46 157 outlet;
#X obj 126 157 outlet;
#X obj 205 159 outlet;
#X obj 285 157 outlet;
#X connect 0 0 1 0;
#X connect 1 0 2 0;
#X connect 2 0 12 0;
#X connect 3 0 4 0;
#X connect 4 0 13 0;
#X connect 5 0 6 0;
#X connect 6 0 14 0;
#X connect 7 0 8 0;
#X connect 8 0 15 0;
#X connect 9 0 3 0;
#X connect 10 0 5 0;
#X connect 11 0 7 0;
#X restore 556 34 pd reverbctl;
#N canvas 517 82 450 300 distctl 0;
#X obj 25 31 r midimix-17;
#X obj 109 31 r midimix-25;
#X obj 188 31 r midimix-46;
#X obj 272 31 r midimix-55;
#X obj 25 65 / 127;
#X msg 25 88 send \$1;
#X obj 25 112 outlet;
#X obj 109 65 / 127;
#X msg 109 88 send \$1;
#X obj 109 112 outlet;
#X obj 188 65 / 127;
#X msg 188 88 send \$1;
#X obj 188 112 outlet;
#X obj 272 65 / 127;
#X msg 272 88 send \$1;
#X obj 272 112 outlet;
#X connect 0 0 4 0;
#X connect 1 0 7 0;
#X connect 2 0 10 0;
#X connect 3 0 13 0;
#X connect 4 0 5 0;
#X connect 5 0 6 0;
#X connect 7 0 8 0;
#X connect 8 0 9 0;
#X connect 10 0 11 0;
#X connect 11 0 12 0;
#X connect 13 0 14 0;
#X connect 14 0 15 0;
#X restore 486 33 pd distctl;
#N canvas 65 54 1301 714 volctl 0;
#X obj 116 17 r midimix-27;
#X obj 206 17 r midimix-49;
#X obj 297 18 r midimix-57;
#X obj 34 42 / 127;
#X msg 34 86 vol \$1;
#X obj 34 107 outlet;
#X obj 116 42 / 127;
#X obj 116 65 * 100;
#X msg 116 86 vol \$1;
#X obj 116 107 outlet;
#X obj 206 42 / 127;
#X obj 206 65 * 100;
#X msg 206 86 vol \$1;
#X obj 206 107 outlet;
#X obj 297 42 / 127;
#X obj 297 65 * 100;
#X msg 297 86 vol \$1;
#X obj 297 107 outlet;
#X obj 34 17 r midimix-19;
#X obj 34 65 * 100;
#X connect 0 0 6 0;
#X connect 1 0 10 0;
#X connect 2 0 14 0;
#X connect 3 0 19 0;
#X connect 4 0 5 0;
#X connect 6 0 7 0;
#X connect 7 0 8 0;
#X connect 8 0 9 0;
#X connect 10 0 11 0;
#X connect 11 0 12 0;
#X connect 12 0 13 0;
#X connect 14 0 15 0;
#X connect 15 0 16 0;
#X connect 16 0 17 0;
#X connect 18 0 3 0;
#X connect 19 0 4 0;
#X restore 631 58 pd volctl;
#N canvas 587 100 450 300 smartfilter 0;
#X obj 52 14 inlet~;
#X obj 52 182 outlet~;
#X obj 235 58 inlet~;
#X obj 235 186 outlet~;
#X obj 235 130 hip~;
#X obj 235 154 lop~;
#X obj 53 131 hip~;
#X obj 52 153 lop~;
#N canvas 542 240 450 300 knobsplit 0;
#X obj 19 33 moses 64;
#X obj 19 133 -;
#X msg 19 103 63;
#X obj 19 81 t b f;
#X obj 19 160 / 63;
#X obj 64 185 / 63;
#X obj 19 2 inlet;
#X obj 19 181 outlet;
#X obj 64 210 outlet;
#X floatatom 105 98 5 0 0 0 - - -;
#X obj 64 81 - 64;
#X msg 99 60 t;
#X obj 64 163 -;
#X msg 64 133 63;
#X obj 64 111 t b f;
#X connect 0 0 3 0;
#X connect 0 1 10 0;
#X connect 1 0 4 0;
#X connect 2 0 1 0;
#X connect 3 0 2 0;
#X connect 3 1 1 1;
#X connect 4 0 7 0;
#X connect 5 0 8 0;
#X connect 6 0 0 0;
#X connect 10 0 9 0;
#X connect 10 0 14 0;
#X connect 12 0 5 0;
#X connect 13 0 12 0;
#X connect 14 0 13 0;
#X connect 14 1 12 1;
#X restore 113 -28 pd knobsplit;
#X obj 113 17 mtof;
#X obj 113 -6 * 127;
#X obj 182 18 mtof;
#X obj 182 -5 * 127;
#X obj 113 -73 r midimix-16;
#X obj 113 59 line;
#X obj 182 66 line;
#X msg 113 38 \$1 200;
#X msg 182 45 \$1 200;
#X msg 191 -50 64;
#X obj 191 -72 loadbang;
#X connect 0 0 6 0;
#X connect 2 0 4 0;
#X connect 4 0 5 0;
#X connect 5 0 3 0;
#X connect 6 0 7 0;
#X connect 7 0 1 0;
#X connect 8 0 10 0;
#X connect 8 1 12 0;
#X connect 9 0 16 0;
#X connect 10 0 9 0;
#X connect 11 0 17 0;
#X connect 12 0 11 0;
#X connect 13 0 8 0;
#X connect 14 0 6 1;
#X connect 14 0 4 1;
#X connect 15 0 7 1;
#X connect 15 0 5 1;
#X connect 16 0 14 0;
#X connect 17 0 15 0;
#X connect 18 0 8 0;
#X connect 19 0 18 0;
#X restore 195 -153 pd smartfilter;
#N canvas 587 100 450 300 smartfilter 0;
#X obj 52 14 inlet~;
#X obj 52 182 outlet~;
#X obj 235 58 inlet~;
#X obj 235 186 outlet~;
#X obj 235 130 hip~;
#X obj 235 154 lop~;
#X obj 53 131 hip~;
#X obj 52 153 lop~;
#N canvas 533 255 450 300 knobsplit 0;
#X obj 19 33 moses 64;
#X obj 19 133 -;
#X msg 19 103 63;
#X obj 19 81 t b f;
#X obj 19 160 / 63;
#X obj 64 185 / 63;
#X obj 19 2 inlet;
#X obj 19 181 outlet;
#X obj 64 210 outlet;
#X floatatom 105 98 5 0 0 0 - - -;
#X obj 64 81 - 64;
#X msg 99 60 t;
#X obj 64 163 -;
#X msg 64 133 63;
#X obj 64 111 t b f;
#X msg 65 3 64;
#X obj 65 -19 loadbang;
#X connect 0 0 3 0;
#X connect 0 1 10 0;
#X connect 1 0 4 0;
#X connect 2 0 1 0;
#X connect 3 0 2 0;
#X connect 3 1 1 1;
#X connect 4 0 7 0;
#X connect 5 0 8 0;
#X connect 6 0 0 0;
#X connect 10 0 9 0;
#X connect 10 0 14 0;
#X connect 12 0 5 0;
#X connect 13 0 12 0;
#X connect 14 0 13 0;
#X connect 14 1 12 1;
#X connect 15 0 0 0;
#X connect 16 0 15 0;
#X restore 113 -28 pd knobsplit;
#X obj 113 17 mtof;
#X obj 113 -6 * 127;
#X obj 182 18 mtof;
#X obj 182 -5 * 127;
#X obj 113 -73 r midimix-16;
#X obj 113 59 line;
#X obj 182 66 line;
#X msg 113 38 \$1 200;
#X msg 182 45 \$1 200;
#X connect 0 0 6 0;
#X connect 2 0 4 0;
#X connect 4 0 5 0;
#X connect 5 0 3 0;
#X connect 6 0 7 0;
#X connect 7 0 1 0;
#X connect 8 0 10 0;
#X connect 8 1 12 0;
#X connect 9 0 16 0;
#X connect 10 0 9 0;
#X connect 11 0 17 0;
#X connect 12 0 11 0;
#X connect 13 0 8 0;
#X connect 14 0 6 1;
#X connect 14 0 4 1;
#X connect 15 0 7 1;
#X connect 15 0 5 1;
#X connect 16 0 14 0;
#X connect 17 0 15 0;
#X restore 342 -101 pd smartfilter;
#N canvas 581 110 450 300 smartfilter 0;
#X obj 52 14 inlet~;
#X obj 52 182 outlet~;
#X obj 235 58 inlet~;
#X obj 235 186 outlet~;
#X obj 235 130 hip~;
#X obj 235 154 lop~;
#X obj 53 131 hip~;
#X obj 52 153 lop~;
#N canvas 542 240 450 300 knobsplit 0;
#X obj 19 33 moses 64;
#X obj 19 133 -;
#X msg 19 103 63;
#X obj 19 81 t b f;
#X obj 19 160 / 63;
#X obj 64 185 / 63;
#X obj 19 2 inlet;
#X obj 19 181 outlet;
#X obj 64 210 outlet;
#X floatatom 105 98 5 0 0 0 - - -;
#X obj 64 81 - 64;
#X msg 99 60 t;
#X obj 64 163 -;
#X msg 64 133 63;
#X obj 64 111 t b f;
#X connect 0 0 3 0;
#X connect 0 1 10 0;
#X connect 1 0 4 0;
#X connect 2 0 1 0;
#X connect 3 0 2 0;
#X connect 3 1 1 1;
#X connect 4 0 7 0;
#X connect 5 0 8 0;
#X connect 6 0 0 0;
#X connect 10 0 9 0;
#X connect 10 0 14 0;
#X connect 12 0 5 0;
#X connect 13 0 12 0;
#X connect 14 0 13 0;
#X connect 14 1 12 1;
#X restore 113 -28 pd knobsplit;
#X obj 113 17 mtof;
#X obj 113 -6 * 127;
#X obj 182 18 mtof;
#X obj 182 -5 * 127;
#X obj 113 59 line;
#X obj 182 66 line;
#X msg 113 38 \$1 200;
#X msg 182 45 \$1 200;
#X obj 113 -73 r midimix-46;
#X msg 212 -48 64;
#X obj 212 -70 loadbang;
#X connect 0 0 6 0;
#X connect 2 0 4 0;
#X connect 4 0 5 0;
#X connect 5 0 3 0;
#X connect 6 0 7 0;
#X connect 7 0 1 0;
#X connect 8 0 10 0;
#X connect 8 1 12 0;
#X connect 9 0 15 0;
#X connect 10 0 9 0;
#X connect 11 0 16 0;
#X connect 12 0 11 0;
#X connect 13 0 6 1;
#X connect 13 0 4 1;
#X connect 14 0 7 1;
#X connect 14 0 5 1;
#X connect 15 0 13 0;
#X connect 16 0 14 0;
#X connect 17 0 8 0;
#X connect 18 0 8 0;
#X connect 19 0 18 0;
#X restore 457 -64 pd smartfilter;
#N canvas 587 100 450 300 smartfilter 0;
#X obj 52 14 inlet~;
#X obj 52 182 outlet~;
#X obj 235 58 inlet~;
#X obj 235 186 outlet~;
#X obj 235 130 hip~;
#X obj 235 154 lop~;
#X obj 53 131 hip~;
#X obj 52 153 lop~;
#N canvas 542 240 450 300 knobsplit 0;
#X obj 19 33 moses 64;
#X obj 19 133 -;
#X msg 19 103 63;
#X obj 19 81 t b f;
#X obj 19 160 / 63;
#X obj 64 185 / 63;
#X obj 19 2 inlet;
#X obj 19 181 outlet;
#X obj 64 210 outlet;
#X floatatom 105 98 5 0 0 0 - - -;
#X obj 64 81 - 64;
#X msg 99 60 t;
#X obj 64 163 -;
#X msg 64 133 63;
#X obj 64 111 t b f;
#X connect 0 0 3 0;
#X connect 0 1 10 0;
#X connect 1 0 4 0;
#X connect 2 0 1 0;
#X connect 3 0 2 0;
#X connect 3 1 1 1;
#X connect 4 0 7 0;
#X connect 5 0 8 0;
#X connect 6 0 0 0;
#X connect 10 0 9 0;
#X connect 10 0 14 0;
#X connect 12 0 5 0;
#X connect 13 0 12 0;
#X connect 14 0 13 0;
#X connect 14 1 12 1;
#X restore 113 -28 pd knobsplit;
#X obj 113 17 mtof;
#X obj 113 -6 * 127;
#X obj 182 18 mtof;
#X obj 182 -5 * 127;
#X obj 113 59 line;
#X obj 182 66 line;
#X msg 113 38 \$1 200;
#X msg 182 45 \$1 200;
#X obj 113 -73 r midimix-54;
#X msg 196 -52 64;
#X obj 196 -74 loadbang;
#X connect 0 0 6 0;
#X connect 2 0 4 0;
#X connect 4 0 5 0;
#X connect 5 0 3 0;
#X connect 6 0 7 0;
#X connect 7 0 1 0;
#X connect 8 0 10 0;
#X connect 8 1 12 0;
#X connect 9 0 15 0;
#X connect 10 0 9 0;
#X connect 11 0 16 0;
#X connect 12 0 11 0;
#X connect 13 0 6 1;
#X connect 13 0 4 1;
#X connect 14 0 7 1;
#X connect 14 0 5 1;
#X connect 15 0 13 0;
#X connect 16 0 14 0;
#X connect 17 0 8 0;
#X connect 18 0 8 0;
#X connect 19 0 18 0;
#X restore 581 0 pd smartfilter;
#X connect 0 0 13 0;
#X connect 0 0 27 0;
#X connect 0 0 41 0;
#X connect 0 0 74 0;
#X connect 0 0 79 0;
#X connect 0 1 13 1;
#X connect 0 1 27 1;
#X connect 0 1 41 1;
#X connect 0 1 74 1;
#X connect 0 1 79 1;
#X connect 1 0 14 0;
#X connect 1 0 28 0;
#X connect 1 0 44 0;
#X connect 1 0 74 0;
#X connect 1 0 80 0;
#X connect 1 1 14 1;
#X connect 1 1 28 1;
#X connect 1 1 44 1;
#X connect 1 1 74 1;
#X connect 1 1 80 1;
#X connect 2 0 15 0;
#X connect 2 0 29 0;
#X connect 2 0 43 0;
#X connect 2 0 74 0;
#X connect 2 0 81 0;
#X connect 2 1 15 1;
#X connect 2 1 29 1;
#X connect 2 1 43 1;
#X connect 2 1 74 1;
#X connect 2 1 81 1;
#X connect 3 0 16 0;
#X connect 3 0 30 0;
#X connect 3 0 42 0;
#X connect 3 0 74 0;
#X connect 3 0 82 0;
#X connect 3 1 16 1;
#X connect 3 1 30 1;
#X connect 3 1 42 1;
#X connect 3 1 74 1;
#X connect 3 1 82 1;
#X connect 4 0 88 0;
#X connect 5 0 88 1;
#X connect 6 0 89 0;
#X connect 7 0 89 1;
#X connect 8 0 90 0;
#X connect 9 0 90 1;
#X connect 10 0 91 0;
#X connect 11 0 91 1;
#X connect 12 0 74 0;
#X connect 12 1 74 1;
#X connect 17 0 74 0;
#X connect 17 1 74 1;
#X connect 18 0 17 0;
#X connect 18 1 17 1;
#X connect 19 0 12 0;
#X connect 20 0 12 1;
#X connect 21 0 19 2;
#X connect 21 0 20 2;
#X connect 22 0 19 0;
#X connect 23 0 20 0;
#X connect 24 0 18 0;
#X connect 25 0 18 1;
#X connect 26 0 74 0;
#X connect 26 1 74 1;
#X connect 31 0 32 0;
#X connect 32 0 26 0;
#X connect 32 1 26 1;
#X connect 33 0 32 1;
#X connect 34 0 32 2;
#X connect 35 0 74 0;
#X connect 35 1 74 1;
#X connect 36 0 35 0;
#X connect 36 0 35 1;
#X connect 37 0 38 0;
#X connect 37 0 39 0;
#X connect 37 0 40 0;
#X connect 37 0 45 0;
#X connect 37 0 74 0;
#X connect 37 1 38 1;
#X connect 37 1 39 1;
#X connect 37 1 40 1;
#X connect 37 1 45 1;
#X connect 37 1 74 1;
#X connect 46 0 36 0;
#X connect 47 0 50 0;
#X connect 47 0 51 0;
#X connect 47 0 52 0;
#X connect 47 0 53 0;
#X connect 47 0 74 0;
#X connect 47 1 50 1;
#X connect 47 1 51 1;
#X connect 47 1 52 1;
#X connect 47 1 53 1;
#X connect 47 1 74 1;
#X connect 48 0 54 0;
#X connect 48 0 55 0;
#X connect 48 0 56 0;
#X connect 48 0 57 0;
#X connect 48 0 74 0;
#X connect 48 1 54 1;
#X connect 48 1 55 1;
#X connect 48 1 56 1;
#X connect 48 1 57 1;
#X connect 48 1 74 1;
#X connect 49 0 58 0;
#X connect 49 0 59 0;
#X connect 49 0 60 0;
#X connect 49 0 61 0;
#X connect 49 0 74 0;
#X connect 49 1 58 1;
#X connect 49 1 59 1;
#X connect 49 1 60 1;
#X connect 49 1 61 1;
#X connect 49 1 74 1;
#X connect 62 0 47 0;
#X connect 62 0 47 1;
#X connect 63 0 48 0;
#X connect 63 0 48 1;
#X connect 64 0 49 0;
#X connect 64 0 49 1;
#X connect 65 0 37 0;
#X connect 66 0 37 1;
#X connect 71 0 67 0;
#X connect 71 0 68 0;
#X connect 71 0 69 0;
#X connect 71 0 70 0;
#X connect 71 0 74 0;
#X connect 71 1 67 1;
#X connect 71 1 68 1;
#X connect 71 1 69 1;
#X connect 71 1 70 1;
#X connect 71 1 74 1;
#X connect 72 0 71 0;
#X connect 73 0 71 1;
#X connect 74 0 76 0;
#X connect 74 0 77 0;
#X connect 74 1 76 1;
#X connect 74 1 77 1;
#X connect 78 0 77 2;
#X connect 83 0 74 0;
#X connect 83 1 74 1;
#X connect 84 0 79 2;
#X connect 84 1 80 2;
#X connect 84 2 81 2;
#X connect 84 3 82 2;
#X connect 85 0 13 2;
#X connect 85 1 14 2;
#X connect 85 2 15 2;
#X connect 85 3 16 2;
#X connect 86 0 27 2;
#X connect 86 1 28 2;
#X connect 86 2 29 2;
#X connect 86 3 30 2;
#X connect 87 0 0 2;
#X connect 87 1 1 2;
#X connect 87 2 2 2;
#X connect 87 3 3 2;
#X connect 88 0 0 0;
#X connect 88 1 0 1;
#X connect 89 0 1 0;
#X connect 89 1 1 1;
#X connect 90 0 2 0;
#X connect 90 1 2 1;
#X connect 91 0 3 0;
#X connect 91 1 3 1;
#X coords 0 -1 1 1 1007 360 2 100 100;
#X restore -967 286 pd mixer;
#N canvas 65 54 1301 714 slicer 0;
#X obj 101 283 throw~ slicer1-L;
#X obj 228 295 throw~ slicer1-R;
#X obj 310 326 throw~ slicer2-L;
#X obj 437 338 throw~ slicer2-R;
#X obj 516 317 throw~ slicer3-L;
#X obj 625 343 throw~ slicer3-R;
#X obj 722 301 throw~ slicer4-L;
#X obj 913 299 throw~ slicer4-R;
#X obj 295 11 r slicer1;
#X obj 420 -4 r slicer2;
#X obj 862 9 r slicer4;
#X obj 653 1 r slicer3;
#X obj 103 66 r~ \$0-sliceJockey;
#X obj 309 67 r~ \$0-sliceJockey;
#X obj 516 64 r~ \$0-sliceJockey;
#X obj 722 64 r~ \$0-sliceJockey;
#N canvas 335 82 929 686 slicerCTL 0;
#X obj 6 9 r midimix-note3;
#X obj 256 9 r midimix-note9;
#X obj 476 9 r midimix-note15;
#X obj 724 10 r midimix-note21;
#X msg 80 242 input \$1;
#X msg 6 241 man-rec \$1;
#X obj 6 118 f;
#X obj 36 118 + 1;
#X msg 43 94 0;
#X obj 6 30 sel 127;
#X obj 43 71 del 300;
#X obj 6 202 tgl 15 0 empty empty empty 17 7 0 10 -262144 -1 -1 0 1
;
#X obj 6 270 outlet;
#X obj 80 194 tgl 15 0 empty empty empty 17 7 0 10 -262144 -1 -1 0
2;
#X obj 256 118 f;
#X obj 286 118 + 1;
#X msg 293 94 0;
#X obj 256 30 sel 127;
#X obj 293 71 del 300;
#X obj 257 304 outlet;
#X obj 476 118 f;
#X obj 506 118 + 1;
#X msg 513 94 0;
#X obj 476 30 sel 127;
#X obj 513 71 del 300;
#X obj 476 345 outlet;
#X obj 724 118 f;
#X obj 754 118 + 1;
#X msg 761 94 0;
#X obj 724 30 sel 127;
#X obj 761 71 del 300;
#X obj 730 355 outlet;
#X obj 104 10 r midimix-23;
#X obj 104 35 / 127;
#X obj 104 57 * 230;
#X obj 104 79 + 10;
#X msg 104 99 bpm \$1;
#X obj 379 114 / 127;
#X obj 379 136 * 230;
#X obj 379 158 + 10;
#X msg 379 178 bpm \$1;
#X obj 629 124 / 127;
#X obj 629 146 * 230;
#X obj 629 168 + 10;
#X msg 629 188 bpm \$1;
#X obj 869 124 / 127;
#X obj 869 146 * 230;
#X obj 869 168 + 10;
#X msg 869 188 bpm \$1;
#X obj 379 89 r midimix-31;
#X obj 629 99 r midimix-53;
#X obj 869 99 r midimix-61;
#X obj 149 157 r midimix-19;
#X obj 149 180 > 5;
#X msg 149 242 output \$1;
#X obj 386 30 > 5;
#X msg 386 52 output \$1;
#X obj 596 40 > 5;
#X msg 596 62 output \$1;
#X obj 836 36 > 5;
#X msg 836 58 output \$1;
#X obj 386 7 r midimix-27;
#X obj 596 17 r midimix-49;
#X obj 836 13 r midimix-57;
#X obj 169 110 s bpm-1;
#X obj 409 206 s bpm-2;
#X obj 651 216 s bpm-3;
#X obj 880 215 s bpm-4;
#X obj 190 -15 r midimix-note1;
#X obj 343 -71 r midimix-note7;
#X obj 544 -64 r midimix-note13;
#X obj 700 -78 r midimix-note19;
#X msg 190 30 clear;
#X obj 190 7 sel 127;
#X msg 354 -17 clear;
#X obj 354 -40 sel 127;
#X msg 540 -18 clear;
#X obj 540 -41 sel 127;
#X msg 689 -14 clear;
#X obj 689 -37 sel 127;
#X obj 37 213 sel 0;
#X msg 38 182 0;
#X msg 6 174 1;
#X msg 96 168 0;
#X obj 6 148 sel 1 0;
#X msg 331 239 input \$1;
#X msg 257 238 man-rec \$1;
#X obj 257 199 tgl 15 0 empty empty empty 17 7 0 10 -262144 -1 -1 0
1;
#X obj 331 191 tgl 15 0 empty empty empty 17 7 0 10 -262144 -1 -1 0
2;
#X obj 288 210 sel 0;
#X msg 289 179 0;
#X msg 257 171 1;
#X msg 347 165 0;
#X obj 257 145 sel 1 0;
#X msg 551 249 input \$1;
#X msg 477 248 man-rec \$1;
#X obj 477 209 tgl 15 0 empty empty empty 17 7 0 10 -262144 -1 -1 0
1;
#X obj 551 201 tgl 15 0 empty empty empty 17 7 0 10 -262144 -1 -1 0
2;
#X obj 508 220 sel 0;
#X msg 509 189 0;
#X msg 477 181 1;
#X msg 567 175 0;
#X obj 477 155 sel 1 0;
#X msg 799 256 input \$1;
#X msg 725 255 man-rec \$1;
#X obj 725 216 tgl 15 0 empty empty empty 17 7 0 10 -262144 -1 -1 0
1;
#X obj 799 208 tgl 15 0 empty empty empty 17 7 0 10 -262144 -1 -1 0
2;
#X obj 756 227 sel 0;
#X msg 757 196 0;
#X msg 725 188 1;
#X msg 815 182 0;
#X obj 725 162 sel 1 0;
#X connect 0 0 9 0;
#X connect 1 0 17 0;
#X connect 2 0 23 0;
#X connect 3 0 29 0;
#X connect 4 0 12 0;
#X connect 5 0 12 0;
#X connect 6 0 7 0;
#X connect 6 0 84 0;
#X connect 7 0 6 1;
#X connect 8 0 6 1;
#X connect 9 0 6 0;
#X connect 9 0 10 0;
#X connect 10 0 8 0;
#X connect 11 0 5 0;
#X connect 13 0 4 0;
#X connect 13 0 80 0;
#X connect 14 0 15 0;
#X connect 14 0 93 0;
#X connect 15 0 14 1;
#X connect 16 0 14 1;
#X connect 17 0 14 0;
#X connect 17 0 18 0;
#X connect 18 0 16 0;
#X connect 20 0 21 0;
#X connect 20 0 102 0;
#X connect 21 0 20 1;
#X connect 22 0 20 1;
#X connect 23 0 20 0;
#X connect 23 0 24 0;
#X connect 24 0 22 0;
#X connect 26 0 27 0;
#X connect 26 0 111 0;
#X connect 27 0 26 1;
#X connect 28 0 26 1;
#X connect 29 0 26 0;
#X connect 29 0 30 0;
#X connect 30 0 28 0;
#X connect 32 0 33 0;
#X connect 33 0 34 0;
#X connect 34 0 35 0;
#X connect 35 0 36 0;
#X connect 35 0 64 0;
#X connect 36 0 12 0;
#X connect 37 0 38 0;
#X connect 38 0 39 0;
#X connect 39 0 40 0;
#X connect 39 0 65 0;
#X connect 40 0 19 0;
#X connect 41 0 42 0;
#X connect 42 0 43 0;
#X connect 43 0 44 0;
#X connect 43 0 66 0;
#X connect 44 0 25 0;
#X connect 45 0 46 0;
#X connect 46 0 47 0;
#X connect 47 0 48 0;
#X connect 47 0 67 0;
#X connect 48 0 31 0;
#X connect 49 0 37 0;
#X connect 50 0 41 0;
#X connect 51 0 45 0;
#X connect 52 0 53 0;
#X connect 53 0 54 0;
#X connect 54 0 12 0;
#X connect 55 0 56 0;
#X connect 56 0 19 0;
#X connect 57 0 58 0;
#X connect 58 0 25 0;
#X connect 59 0 60 0;
#X connect 60 0 31 0;
#X connect 61 0 55 0;
#X connect 62 0 57 0;
#X connect 63 0 59 0;
#X connect 68 0 73 0;
#X connect 69 0 75 0;
#X connect 70 0 77 0;
#X connect 71 0 79 0;
#X connect 72 0 12 0;
#X connect 73 0 72 0;
#X connect 74 0 19 0;
#X connect 75 0 74 0;
#X connect 76 0 25 0;
#X connect 77 0 76 0;
#X connect 78 0 31 0;
#X connect 79 0 78 0;
#X connect 80 0 81 0;
#X connect 81 0 11 0;
#X connect 82 0 11 0;
#X connect 83 0 13 0;
#X connect 84 0 82 0;
#X connect 84 1 13 0;
#X connect 84 2 83 0;
#X connect 85 0 19 0;
#X connect 86 0 19 0;
#X connect 87 0 86 0;
#X connect 88 0 85 0;
#X connect 88 0 89 0;
#X connect 89 0 90 0;
#X connect 90 0 87 0;
#X connect 91 0 87 0;
#X connect 92 0 88 0;
#X connect 93 0 91 0;
#X connect 93 1 88 0;
#X connect 93 2 92 0;
#X connect 94 0 25 0;
#X connect 95 0 25 0;
#X connect 96 0 95 0;
#X connect 97 0 94 0;
#X connect 97 0 98 0;
#X connect 98 0 99 0;
#X connect 99 0 96 0;
#X connect 100 0 96 0;
#X connect 101 0 97 0;
#X connect 102 0 100 0;
#X connect 102 1 97 0;
#X connect 102 2 101 0;
#X connect 103 0 31 0;
#X connect 104 0 31 0;
#X connect 105 0 104 0;
#X connect 106 0 103 0;
#X connect 106 0 107 0;
#X connect 107 0 108 0;
#X connect 108 0 105 0;
#X connect 109 0 105 0;
#X connect 110 0 106 0;
#X connect 111 0 109 0;
#X connect 111 1 106 0;
#X connect 111 2 110 0;
#X restore 506 -6 pd slicerCTL;
#N canvas 665 225 450 300 lakker 0;
#X obj 8 7 inlet;
#X obj 8 209 outlet;
#X obj 8 40 route read;
#X obj 8 115 sprintf ../patterns/%s;
#X obj 8 156 prepend read;
#X connect 0 0 2 0;
#X connect 2 0 3 0;
#X connect 2 1 1 0;
#X connect 3 0 4 0;
#X connect 4 0 1 0;
#X restore 295 35 pd lakker;
#N canvas 668 220 450 300 lakker 0;
#X obj 8 7 inlet;
#X obj 8 209 outlet;
#X obj 8 40 route read;
#X obj 8 115 sprintf ../patterns/%s;
#X obj 8 156 prepend read;
#X connect 0 0 2 0;
#X connect 2 0 3 0;
#X connect 2 1 1 0;
#X connect 3 0 4 0;
#X connect 4 0 1 0;
#X restore 437 45 pd lakker;
#N canvas 668 220 450 300 lakker 0;
#X obj 8 7 inlet;
#X obj 8 209 outlet;
#X obj 8 40 route read;
#X obj 8 115 sprintf ../patterns/%s;
#X obj 8 156 prepend read;
#X connect 0 0 2 0;
#X connect 2 0 3 0;
#X connect 2 1 1 0;
#X connect 3 0 4 0;
#X connect 4 0 1 0;
#X restore 651 33 pd lakker;
#N canvas 668 220 450 300 lakker 0;
#X obj 8 7 inlet;
#X obj 8 209 outlet;
#X obj 8 40 route read;
#X obj 8 115 sprintf ../patterns/%s;
#X obj 8 156 prepend read;
#X connect 0 0 2 0;
#X connect 2 0 3 0;
#X connect 2 1 1 0;
#X connect 3 0 4 0;
#X connect 4 0 1 0;
#X restore 914 66 pd lakker;
#X text 980 65 Handle nested folders for reading from pattern list
;
#X obj 102 102 slicer 0;
#X obj 308 101 slicer 1 1;
#X obj 721 101 slicer 3 6;
#X obj 515 101 slicer 2 3;
#X connect 8 0 17 0;
#X connect 9 0 18 0;
#X connect 10 0 20 0;
#X connect 11 0 19 0;
#X connect 12 0 22 0;
#X connect 13 0 23 0;
#X connect 14 0 25 0;
#X connect 15 0 24 0;
#X connect 16 0 22 1;
#X connect 16 1 23 1;
#X connect 16 2 25 1;
#X connect 16 3 24 1;
#X connect 17 0 22 1;
#X connect 18 0 23 1;
#X connect 19 0 25 1;
#X connect 20 0 24 1;
#X connect 22 0 0 0;
#X connect 22 1 1 0;
#X connect 23 0 2 0;
#X connect 23 1 3 0;
#X connect 24 0 6 0;
#X connect 24 1 7 0;
#X connect 25 0 4 0;
#X connect 25 1 5 0;
#X coords 0 -1 1 1 830 180 1 100 100;
#X restore -961 105 pd slicer;
#N canvas 561 212 681 380 delset 0;
#X obj 141 118 nbx 5 14 0 100 0 0 empty empty Feedback 0 -8 0 10 -262144
-1 -1 0 256;
#X obj 208 118 nbx 5 14 -1e+37 1e+37 0 0 empty empty Delay-Time 0 -8
0 10 -262144 -1 -1 0 256;
#X obj 141 163 / 100;
#X obj 141 185 s fb;
#X obj 208 165 s del-time;
#N canvas 704 376 375 310 globalticks 0;
#X obj 78 221 s globalticks;
#N canvas 175 189 345 423 generate-ticks 0;
#X obj 32 98 tgl 15 1 empty empty empty 17 7 0 10 -262144 -1 -1 1 1
;
#X obj 32 146 metro;
#N canvas 982 160 208 259 milliseconds 0;
#X obj 19 18 inlet;
#X obj 19 199 outlet;
#X obj 19 46 t b f;
#X obj 19 170 /;
#X msg 69 77 15000;
#X msg 113 77 20000;
#X obj 19 147 f 15000;
#X obj 69 103 t b f;
#X obj 69 43 sel 0 1;
#X text 19 225 1/16 or 1/12 note;
#X obj 69 17 r \$0-timesignature;
#X floatatom 96 135 5 0 0 0 - - -;
#X connect 0 0 2 0;
#X connect 2 0 6 0;
#X connect 2 1 3 1;
#X connect 3 0 1 0;
#X connect 4 0 7 0;
#X connect 5 0 7 0;
#X connect 6 0 3 0;
#X connect 7 0 6 0;
#X connect 7 1 11 0;
#X connect 7 1 6 1;
#X connect 8 0 4 0;
#X connect 8 1 5 0;
#X connect 10 0 8 0;
#X restore 59 97 pd milliseconds;
#X floatatom 76 121 8 0 0 0 - - -;
#X obj 73 146 s ticklength;
#X obj 32 376 outlet;
#X obj 32 170 f 1;
#X text 119 349 << groove;
#X obj 59 15 inlet;
#X text 68 41 if zero \, set metro off;
#X text 99 16 BPM;
#X obj 32 67 change;
#X obj 32 42 != 0;
#N canvas 292 520 316 238 ticksort 0;
#X obj 27 60 t f f;
#X obj 27 27 inlet;
#X obj 27 117 pack;
#X text 25 6 ticks;
#X obj 27 88 & 3;
#X obj 27 143 route 0 1 2 3;
#X obj 27 175 outlet;
#X obj 73 175 outlet;
#X obj 122 175 outlet;
#X obj 170 175 outlet;
#X obj 242 175 outlet;
#X text 28 199 first;
#X text 72 199 second;
#X text 121 199 third;
#X text 168 199 fourth;
#X text 240 198 index;
#X connect 0 0 4 0;
#X connect 0 1 2 1;
#X connect 1 0 0 0;
#X connect 2 0 5 0;
#X connect 4 0 2 0;
#X connect 4 0 10 0;
#X connect 5 0 6 0;
#X connect 5 1 7 0;
#X connect 5 2 8 0;
#X connect 5 3 9 0;
#X restore 32 319 pd ticksort;
#N canvas 570 503 515 163 tickdelays 0;
#X obj 21 15 inlet;
#X obj 21 88 pipe;
#X obj 202 125 outlet;
#X obj 106 14 inlet;
#X obj 106 87 pipe;
#X obj 202 15 inlet;
#X obj 202 88 pipe;
#X obj 287 15 inlet;
#X obj 287 88 pipe;
#N canvas 698 484 303 226 sambagroove 0;
#X obj 32 7 r ticklength;
#X obj 181 28 sel 1;
#X msg 181 56 0;
#X obj 32 30 t b f;
#X obj 19 69 *;
#X obj 19 98 spigot;
#X obj 141 28 t b f;
#X obj 19 -17 r \$0-groove;
#X obj 141 -18 r \$0-groovetype;
#X obj 19 164 s \$0-tickdelay0;
#X obj 35 131 s \$0-tickdelay1;
#X obj 181 125 s \$0-tickdelay2;
#X obj 195 94 s \$0-tickdelay3;
#X connect 0 0 3 0;
#X connect 1 0 2 0;
#X connect 2 0 11 0;
#X connect 2 0 12 0;
#X connect 3 0 4 0;
#X connect 3 1 4 1;
#X connect 4 0 5 0;
#X connect 5 0 9 0;
#X connect 5 0 10 0;
#X connect 6 0 4 0;
#X connect 6 1 5 1;
#X connect 7 0 4 0;
#X connect 8 0 1 0;
#X connect 8 0 6 0;
#X restore 385 93 pd sambagroove;
#N canvas 823 242 346 186 tripletgroove 0;
#X obj 37 15 r ticklength;
#X msg 213 65 0;
#X obj 37 38 t b f;
#X obj 24 77 *;
#X obj 24 106 spigot;
#X obj 146 36 t b f;
#X obj 213 36 sel 0;
#X obj 173 65 == 0;
#X obj 24 -10 r \$0-groove;
#X obj 146 -10 r \$0-groovetype;
#X obj 24 153 s \$0-tickdelay1;
#X obj 44 131 s \$0-tickdelay3;
#X obj 213 134 s \$0-tickdelay0;
#X obj 225 101 s \$0-tickdelay2;
#X connect 0 0 2 0;
#X connect 1 0 12 0;
#X connect 1 0 13 0;
#X connect 2 0 3 0;
#X connect 2 1 3 1;
#X connect 3 0 4 0;
#X connect 4 0 10 0;
#X connect 4 0 11 0;
#X connect 5 0 3 0;
#X connect 5 1 7 0;
#X connect 6 0 1 0;
#X connect 7 0 4 1;
#X connect 8 0 3 0;
#X connect 9 0 5 0;
#X connect 9 0 6 0;
#X restore 386 21 pd tripletgroove;
#X floatatom 56 89 5 0 0 0 - - -;
#X floatatom 141 89 5 0 0 0 - - -;
#X floatatom 234 88 5 0 0 0 - - -;
#X floatatom 320 89 5 0 0 0 - - -;
#X obj 42 39 r \$0-tickdelay0;
#X obj 127 61 r \$0-tickdelay1;
#X obj 223 38 r \$0-tickdelay2;
#X obj 308 61 r \$0-tickdelay3;
#X connect 0 0 1 0;
#X connect 1 0 2 0;
#X connect 3 0 4 0;
#X connect 4 0 2 0;
#X connect 5 0 6 0;
#X connect 6 0 2 0;
#X connect 7 0 8 0;
#X connect 8 0 2 0;
#X connect 15 0 1 1;
#X connect 15 0 11 0;
#X connect 16 0 4 1;
#X connect 16 0 12 0;
#X connect 17 0 6 1;
#X connect 17 0 13 0;
#X connect 18 0 8 1;
#X connect 18 0 14 0;
#X restore 32 350 pd tickdelays;
#X obj 32 193 + 1;
#X connect 0 0 1 0;
#X connect 1 0 6 0;
#X connect 2 0 1 1;
#X connect 2 0 3 0;
#X connect 2 0 4 0;
#X connect 6 0 15 0;
#X connect 8 0 2 0;
#X connect 8 0 12 0;
#X connect 11 0 0 0;
#X connect 12 0 11 0;
#X connect 13 0 14 0;
#X connect 13 1 14 1;
#X connect 13 2 14 2;
#X connect 13 3 14 3;
#X connect 14 0 5 0;
#X connect 15 0 13 0;
#X connect 15 0 6 1;
#X restore 78 152 pd generate-ticks;
#N canvas 539 155 297 177 tick-tables 0;
#X obj 31 18 loadbang;
#N canvas 65 110 246 266 commontime 0;
#X obj 30 209 table \$0-commontime 256;
#X obj 31 175 tabwrite \$0-commontime;
#X obj 31 142 t f f;
#X obj 31 86 bng 15 250 50 0 empty empty empty 17 7 0 10 -262144 -1
-1;
#X obj 31 53 inlet;
#X obj 31 114 iterate 256;
#X connect 2 0 1 0;
#X connect 2 1 1 1;
#X connect 3 0 5 0;
#X connect 4 0 3 0;
#X connect 5 0 2 0;
#X restore 31 100 pd commontime;
#N canvas 748 33 413 471 sixquavers 0;
#X obj 27 38 inlet;
#X obj 27 66 bng 15 250 50 0 empty empty empty 17 7 0 10 -262144 -1
-1;
#X obj 27 272 tabwrite \$0-sixquavers;
#X obj 27 122 t b f;
#X obj 156 246 +;
#X obj 27 191 unpack;
#X obj 224 243 s \$0-sixquavers;
#X msg 224 215 arrayviewlistnew;
#X obj 171 221 * 12;
#X obj 27 245 +;
#X obj 42 220 * 16;
#X obj 224 272 table \$0-sixquavers 192;
#X msg 27 151 0 0 \, 1 1 \, 2 2 \, 4 3 \, 5 4 \, 6 5 \, 8 6 \, 9 7
\, 10 8 \, 12 9 \, 13 10 \, 14 11;
#X obj 27 364 hradio 15 1 0 3 empty empty empty 0 -8 0 10 -262144 -262144
-1 0;
#X obj 77 364 hradio 15 1 0 3 empty empty empty 0 -8 0 10 -262144 -262144
-1 0;
#X obj 126 364 hradio 15 1 0 3 empty empty empty 0 -8 0 10 -262144
-262144 -1 0;
#X obj 176 364 hradio 15 1 0 3 empty empty empty 0 -8 0 10 -262144
-262144 -1 0;
#X obj 28 391 hradio 15 1 0 1 empty empty empty 0 -8 0 10 -262144 -262144
-1 0;
#X obj 58 391 hradio 15 1 0 1 empty empty empty 0 -8 0 10 -262144 -262144
-1 0;
#X obj 77 391 hradio 15 1 0 1 empty empty empty 0 -8 0 10 -262144 -262144
-1 0;
#X obj 107 391 hradio 15 1 0 1 empty empty empty 0 -8 0 10 -262144
-262144 -1 0;
#X obj 127 391 hradio 15 1 0 1 empty empty empty 0 -8 0 10 -262144
-262144 -1 0;
#X obj 157 391 hradio 15 1 0 1 empty empty empty 0 -8 0 10 -262144
-262144 -1 0;
#X obj 176 391 hradio 15 1 0 1 empty empty empty 0 -8 0 10 -262144
-262144 -1 0;
#X obj 206 391 hradio 15 1 0 1 empty empty empty 0 -8 0 10 -262144
-262144 -1 0;
#X obj 28 417 hradio 15 1 0 1 empty empty empty 0 -8 0 10 -262144 -262144
-1 0;
#X obj 78 417 hradio 15 1 0 1 empty empty empty 0 -8 0 10 -262144 -262144
-1 0;
#X obj 127 416 hradio 15 1 0 1 empty empty empty 0 -8 0 10 -262144
-262144 -1 0;
#X obj 177 416 hradio 15 1 0 1 empty empty empty 0 -8 0 10 -262144
-262144 -1 0;
#X text 26 334 it is 12/16 really:;
#X text 245 361 semiquavers;
#X text 246 388 quavers;
#X text 247 415 beats;
#X obj 27 91 iterate 16;
#X connect 0 0 1 0;
#X connect 1 0 33 0;
#X connect 3 0 12 0;
#X connect 3 1 8 0;
#X connect 3 1 10 0;
#X connect 4 0 2 1;
#X connect 5 0 9 0;
#X connect 5 1 4 0;
#X connect 7 0 6 0;
#X connect 8 0 4 1;
#X connect 9 0 2 0;
#X connect 10 0 9 1;
#X connect 12 0 5 0;
#X connect 33 0 3 0;
#X restore 122 100 pd sixquavers;
#X connect 0 0 1 0;
#X connect 0 0 2 0;
#X restore 263 24 pd tick-tables;
#X obj 45 57 unpack;
#N canvas 0 22 302 213 label 0;
#X obj 37 34 inlet;
#X obj 37 140 s BPM/grooveguireceive;
#X obj 37 65 makefilename %d;
#X msg 37 105 label \$1;
#X text 35 164 xy-object label;
#X connect 0 0 2 0;
#X connect 2 0 3 0;
#X connect 3 0 1 0;
#X restore 89 121 pd label;
#N canvas 65 97 320 210 BPM 0;
#X obj 36 27 inlet;
#X obj 36 152 outlet;
#X obj 36 88 moses 10;
#X msg 36 115 0;
#X text 77 56 max BPM: 235;
#X text 99 88 if lower than 10 \, set to zero;
#X obj 81 119 s beatsperminute;
#X connect 0 0 2 0;
#X connect 2 0 3 0;
#X connect 2 1 1 0;
#X connect 2 1 6 0;
#X connect 3 0 1 0;
#X restore 78 90 pd BPM;
#X obj 45 271 s \$0-groove;
#X text 126 25 from xy field;
#X obj 45 246 * 0.25;
#X floatatom 222 224 5 0 0 0 - - -;
#X obj 45 25 r groove/BPM;
#X connect 1 0 0 0;
#X connect 1 0 9 0;
#X connect 3 0 8 0;
#X connect 3 1 5 0;
#X connect 5 0 1 0;
#X connect 5 0 4 0;
#X connect 8 0 6 0;
#X connect 10 0 3 0;
#X restore 95 230 pd globalticks;
#X floatatom 380 143 5 0 0 0 - - -;
#X obj 380 236 pack;
#X obj 417 205 t b f;
#X floatatom 276 117 5 0 0 2 BPM - -;
#X obj 380 259 s groove/BPM;
#X msg 417 162 120;
#X obj 417 141 loadbang;
#X obj -31 31 adc~ 1 2 3;
#X obj -30 214 s~ \$0-sliceJockey;
#X obj 26 73 *~;
#X obj 41 45 r cello-On;
#X floatatom 103 117 5 0 0 2 Krunch - -;
#X obj 95 170 / 100;
#X obj 95 211 s distortion;
#X obj 24 145 env~;
#X obj 24 171 s celloEnv;
#X connect 0 0 2 0;
#X connect 1 0 4 0;
#X connect 2 0 3 0;
#X connect 6 0 7 0;
#X connect 7 0 10 0;
#X connect 8 0 7 0;
#X connect 8 1 7 1;
#X connect 9 0 8 0;
#X connect 11 0 9 0;
#X connect 12 0 11 0;
#X connect 13 0 14 0;
#X connect 13 1 14 0;
#X connect 13 2 15 0;
#X connect 13 2 20 0;
#X connect 15 0 14 0;
#X connect 16 0 15 1;
#X connect 17 0 18 0;
#X connect 18 0 19 0;
#X connect 20 0 21 0;
#X coords 0 -1 1 1 210 35 2 100 100;
#X restore -341 -175 pd delset;
#X obj -959 -166 tgl 30 0 cello-On empty Cello-In 0 -7 0 10 -4034 -1
-1 0 1;
#N canvas 65 54 1301 714 pattern-seq 0;
#X obj 106 -161 ggee/getdir;
#X obj 106 -119 shell;
#X obj 106 -213 bng 15 250 50 0 empty empty empty 17 7 0 10 -262144
-1 -1;
#X msg 106 -140 ls \$1/patterns;
#X msg 206 -140 clear;
#X obj 106 -189 t b b;
#X obj 106 -98 prepend add;
#X obj 106 -41 s pattern-list;
#X obj 106 -235 loadbang;
#X obj 166 -234 r update-pattern-list;
#X obj 898 121 bng 30 250 50 0 update-pattern-list empty empty 17 7
0 10 -4034 -1 -1;
#X obj 303 -213 bng 15 250 50 0 empty empty empty 17 7 0 10 -262144
-1 -1;
#X msg 303 -60 11;
#X obj 303 48 s;
#X msg 303 -36 color \$1 0 0;
#X obj 303 -114 iterate 11;
#X obj 330 -62 + 1;
#X obj 303 -88 t b f;
#X obj 303 -234 loadbang;
#X text 330 -213 Initalize Buttons in grey background;
#N canvas 913 87 450 300 active-pattern 0;
#X msg -96 -22 15;
#X msg -66 24 color \$1;
#X obj -85 -225 r slicer1;
#X floatatom -85 -181 5 0 0 0 - - -;
#X obj -23 -94 f;
#X obj -66 50 s;
#X obj -85 -162 t f b b;
#X obj -23 -72 t f f;
#X obj 10 -51 > 0;
#X obj -23 -23 spigot;
#X msg -66 -22 11;
#X obj -66 -3 spigot;
#X obj -85 -128 t f b f;
#X text -11 -225 Make Button Yellow when clicked;
#X text -8 -204 Only one button can be yellow at a time;
#X obj -85 -202 route bam;
#X msg 53 33 symbol slicer1-\$1;
#X connect 0 0 1 0;
#X connect 1 0 5 0;
#X connect 2 0 15 0;
#X connect 3 0 6 0;
#X connect 4 0 7 0;
#X connect 6 0 12 0;
#X connect 6 1 10 0;
#X connect 6 2 4 0;
#X connect 7 0 9 0;
#X connect 7 1 8 0;
#X connect 8 0 9 1;
#X connect 8 0 11 1;
#X connect 9 0 16 0;
#X connect 10 0 11 0;
#X connect 11 0 1 0;
#X connect 12 0 4 1;
#X connect 12 1 0 0;
#X connect 12 2 16 0;
#X connect 15 0 3 0;
#X connect 16 0 5 1;
#X restore 840 -219 pd active-pattern;
#N canvas 913 87 450 300 active-pattern 0;
#X msg -96 -22 15;
#X msg -66 24 color \$1;
#X floatatom -85 -181 5 0 0 0 - - -;
#X obj -23 -94 f;
#X obj -66 50 s;
#X obj -85 -162 t f b b;
#X obj -23 -72 t f f;
#X obj 10 -51 > 0;
#X obj -23 -23 spigot;
#X msg -66 -22 11;
#X obj -66 -3 spigot;
#X obj -85 -128 t f b f;
#X text -11 -225 Make Button Yellow when clicked;
#X text -8 -204 Only one button can be yellow at a time;
#X obj -85 -202 route bam;
#X obj -85 -225 r slicer2;
#X msg 53 33 symbol slicer2-\$1;
#X connect 0 0 1 0;
#X connect 1 0 4 0;
#X connect 2 0 5 0;
#X connect 3 0 6 0;
#X connect 5 0 11 0;
#X connect 5 1 9 0;
#X connect 5 2 3 0;
#X connect 6 0 8 0;
#X connect 6 1 7 0;
#X connect 7 0 8 1;
#X connect 7 0 10 1;
#X connect 8 0 16 0;
#X connect 9 0 10 0;
#X connect 10 0 1 0;
#X connect 11 0 3 1;
#X connect 11 1 0 0;
#X connect 11 2 16 0;
#X connect 14 0 2 0;
#X connect 15 0 14 0;
#X connect 16 0 4 1;
#X restore 840 -200 pd active-pattern;
#N canvas 913 87 450 300 active-pattern 0;
#X msg -96 -22 15;
#X msg -66 24 color \$1;
#X floatatom -85 -181 5 0 0 0 - - -;
#X obj -23 -94 f;
#X obj -66 50 s;
#X obj -85 -162 t f b b;
#X obj -23 -72 t f f;
#X obj 10 -51 > 0;
#X obj -23 -23 spigot;
#X msg -66 -22 11;
#X obj -66 -3 spigot;
#X obj -85 -128 t f b f;
#X text -11 -225 Make Button Yellow when clicked;
#X text -8 -204 Only one button can be yellow at a time;
#X obj -85 -202 route bam;
#X obj -85 -225 r slicer3;
#X msg 53 33 symbol slicer3-\$1;
#X connect 0 0 1 0;
#X connect 1 0 4 0;
#X connect 2 0 5 0;
#X connect 3 0 6 0;
#X connect 5 0 11 0;
#X connect 5 1 9 0;
#X connect 5 2 3 0;
#X connect 6 0 8 0;
#X connect 6 1 7 0;
#X connect 7 0 8 1;
#X connect 7 0 10 1;
#X connect 8 0 16 0;
#X connect 9 0 10 0;
#X connect 10 0 1 0;
#X connect 11 0 3 1;
#X connect 11 1 0 0;
#X connect 11 2 16 0;
#X connect 14 0 2 0;
#X connect 15 0 14 0;
#X connect 16 0 4 1;
#X restore 840 -181 pd active-pattern;
#N canvas 910 92 450 300 active-pattern 0;
#X msg -96 -22 15;
#X msg -66 24 color \$1;
#X floatatom -85 -181 5 0 0 0 - - -;
#X obj -23 -94 f;
#X obj -66 50 s;
#X obj -85 -162 t f b b;
#X obj -23 -72 t f f;
#X obj 10 -51 > 0;
#X obj -23 -23 spigot;
#X msg -66 -22 11;
#X obj -66 -3 spigot;
#X obj -85 -128 t f b f;
#X text -11 -225 Make Button Yellow when clicked;
#X text -8 -204 Only one button can be yellow at a time;
#X obj -85 -202 route bam;
#X obj -85 -225 r slicer4;
#X msg 53 33 symbol slicer4-\$1;
#X connect 0 0 1 0;
#X connect 1 0 4 0;
#X connect 2 0 5 0;
#X connect 3 0 6 0;
#X connect 5 0 11 0;
#X connect 5 1 9 0;
#X connect 5 2 3 0;
#X connect 6 0 8 0;
#X connect 6 1 7 0;
#X connect 7 0 8 1;
#X connect 7 0 10 1;
#X connect 8 0 16 0;
#X connect 9 0 10 0;
#X connect 10 0 1 0;
#X connect 11 0 3 1;
#X connect 11 1 0 0;
#X connect 11 2 16 0;
#X connect 14 0 2 0;
#X connect 15 0 14 0;
#X connect 16 0 4 1;
#X restore 840 -161 pd active-pattern;
#X text 956 -220 For Slicer1;
#X text 956 -201 For Slicer2;
#X text 957 -163 For Slicer4;
#X text 956 -183 For Slicer3;
#X text 813 100 Update Pattern List;
#N canvas 806 289 450 300 pages 0;
#X obj -74 -93 r slicer1;
#X obj -74 -65 route set-pattern;
#N canvas 905 320 450 300 page1 0;
#X obj -74 31 route 1 2 3 4 5 6 7 8 9 10 11;
#X obj -74 5 inlet;
#N canvas 65 92 650 686 saved-pattern 0;
#X obj 14 127 t a b;
#X msg 41 153 set;
#X obj 14 72 prepend add2;
#X obj -76 161 t b b;
#X obj 14 39 inlet;
#X obj -19 290 outlet;
#X text 91 25 stores the last set pattern in a message box to recall
it when reopening the patch or changing the page;
#X obj -76 30 loadbang;
#X msg 14 178 steroid;
#X obj -54 77 sel 1;
#X obj -54 53 r page;
#X obj 14 98 spigot;
#X obj -19 228 symbol;
#X obj -19 256 unsymbol;
#X obj 14 205 prepend symbol;
#X obj -39 125 bng 15 250 50 0 empty empty empty 17 7 0 10 -262144
-1 -1;
#X connect 0 0 8 0;
#X connect 0 1 1 0;
#X connect 1 0 8 0;
#X connect 2 0 11 0;
#X connect 3 0 12 0;
#X connect 3 1 8 0;
#X connect 4 0 2 0;
#X connect 7 0 3 0;
#X connect 8 0 14 0;
#X connect 9 0 3 0;
#X connect 10 0 9 0;
#X connect 11 0 0 0;
#X connect 12 0 13 0;
#X connect 13 0 5 0;
#X connect 14 0 12 1;
#X connect 15 0 3 0;
#X restore -74 127 pd saved-pattern;
#X obj -74 153 s slicer1-1-pmenu;
#X connect 0 0 2 0;
#X connect 1 0 0 0;
#X connect 2 0 3 0;
#X restore -107 139 pd page1;
#X obj -129 -68 r page;
#X obj 88 -49 r page-up;
#X obj 150 -49 r page-down;
#X obj 88 62 f;
#X obj 114 62 + 1;
#X msg 114 7 1;
#X msg 154 4 -1;
#X obj 88 -19 t b b;
#X obj 129 -18 t b b;
#X obj 140 62 clip 1 9;
#X obj 140 89 s page;
#X obj -107 -33 gate 9 0 0 0 0 0 0 0 0 0 0;
#N canvas 879 293 450 300 page2 0;
#X obj -74 31 route 1 2 3 4 5 6 7 8 9 10 11;
#X obj -74 5 inlet;
#N canvas 781 253 582 300 saved-pattern 0;
#X obj 14 127 t a b;
#X msg 41 153 set;
#X obj 14 72 prepend add2;
#X obj -19 223 symbol;
#X obj -76 161 t b b;
#X obj 14 202 prepend symbol;
#X obj 14 39 inlet;
#X obj -19 280 outlet;
#X text 91 25 stores the last set pattern in a message box to recall
it when reopening the patch or changing the page;
#X obj -76 80 loadbang;
#X msg 14 178 muscle;
#X obj -54 103 r page;
#X obj -19 248 unsymbol;
#X obj -54 127 sel 2;
#X connect 0 0 10 0;
#X connect 0 1 1 0;
#X connect 1 0 10 0;
#X connect 2 0 0 0;
#X connect 3 0 12 0;
#X connect 4 0 3 0;
#X connect 4 1 10 0;
#X connect 5 0 3 1;
#X connect 6 0 2 0;
#X connect 9 0 4 0;
#X connect 10 0 5 0;
#X connect 11 0 13 0;
#X connect 12 0 7 0;
#X connect 13 0 4 0;
#X restore -74 127 pd saved-pattern;
#X obj -74 153 s slicer1-1-pmenu;
#X connect 0 0 2 0;
#X connect 1 0 0 0;
#X connect 2 0 3 0;
#X restore -88 117 pd page2;
#N canvas 882 288 450 300 page3 0;
#X obj -74 31 route 1 2 3 4 5 6 7 8 9 10 11;
#X obj -74 5 inlet;
#N canvas 784 248 582 300 saved-pattern 0;
#X obj 14 127 t a b;
#X msg 41 153 set;
#X obj 14 72 prepend add2;
#X obj -19 223 symbol;
#X obj -76 161 t b b;
#X obj 14 202 prepend symbol;
#X obj 14 39 inlet;
#X obj -19 270 outlet;
#X text 91 25 stores the last set pattern in a message box to recall
it when reopening the patch or changing the page;
#X obj -76 80 loadbang;
#X msg 14 178 herculas;
#X obj -54 103 r page;
#X obj -19 246 unsymbol;
#X obj -54 127 sel 3;
#X connect 0 0 10 0;
#X connect 0 1 1 0;
#X connect 1 0 10 0;
#X connect 2 0 0 0;
#X connect 3 0 12 0;
#X connect 4 0 3 0;
#X connect 4 1 10 0;
#X connect 5 0 3 1;
#X connect 6 0 2 0;
#X connect 9 0 4 0;
#X connect 10 0 5 0;
#X connect 11 0 13 0;
#X connect 12 0 7 0;
#X connect 13 0 4 0;
#X restore -74 127 pd saved-pattern;
#X obj -74 153 s slicer1-1-pmenu;
#X connect 0 0 2 0;
#X connect 1 0 0 0;
#X connect 2 0 3 0;
#X restore -69 95 pd page3;
#N canvas 882 288 450 300 page4 0;
#X obj -74 31 route 1 2 3 4 5 6 7 8 9 10 11;
#X obj -74 5 inlet;
#N canvas 784 248 582 300 saved-pattern 0;
#X obj 14 127 t a b;
#X msg 41 153 set;
#X obj 14 72 prepend add2;
#X obj -19 223 symbol;
#X obj -76 161 t b b;
#X obj 14 202 prepend symbol;
#X obj 14 39 inlet;
#X obj -19 270 outlet;
#X text 91 25 stores the last set pattern in a message box to recall
it when reopening the patch or changing the page;
#X obj -76 80 loadbang;
#X msg 14 178 test-pattern;
#X obj -54 103 r page;
#X obj -19 245 unsymbol;
#X obj -54 127 sel 4;
#X connect 0 0 10 0;
#X connect 0 1 1 0;
#X connect 1 0 10 0;
#X connect 2 0 0 0;
#X connect 3 0 12 0;
#X connect 4 0 3 0;
#X connect 4 1 10 0;
#X connect 5 0 3 1;
#X connect 6 0 2 0;
#X connect 9 0 4 0;
#X connect 10 0 5 0;
#X connect 11 0 13 0;
#X connect 12 0 7 0;
#X connect 13 0 4 0;
#X restore -74 127 pd saved-pattern;
#X obj -74 153 s slicer1-1-pmenu;
#X connect 0 0 2 0;
#X connect 1 0 0 0;
#X connect 2 0 3 0;
#X restore -50 75 pd page4;
#X connect 0 0 1 0;
#X connect 1 0 14 1;
#X connect 3 0 14 0;
#X connect 4 0 10 0;
#X connect 5 0 11 0;
#X connect 6 0 7 0;
#X connect 7 0 12 0;
#X connect 8 0 7 1;
#X connect 9 0 7 1;
#X connect 10 0 6 0;
#X connect 10 1 8 0;
#X connect 11 0 6 0;
#X connect 11 1 9 0;
#X connect 12 0 6 1;
#X connect 12 0 13 0;
#X connect 14 0 2 0;
#X connect 14 1 15 0;
#X connect 14 2 16 0;
#X connect 14 3 17 0;
#X restore 840 -140 pd pages;
#X obj 830 174 bng 30 250 50 0 page-down empty < 6 15 0 30 -257985
-1 -1;
#X obj 898 174 bng 30 250 50 0 page-up empty > 6 15 0 30 -257985 -1
-1;
#X obj 861 174 nbx 1 30 -1e+37 1e+37 0 0 empty page empty 0 -8 0 20
-262144 -1 -1 0 256;
#X obj 102 102 popmenu slicer1 1;
#X obj 102 122 popmenu slicer1 2;
#X obj 102 142 popmenu slicer1 3;
#X obj 102 162 popmenu slicer1 4;
#X obj 102 182 popmenu slicer1 5;
#X obj 102 202 popmenu slicer1 6;
#X obj 102 222 popmenu slicer1 7;
#X obj 102 242 popmenu slicer1 8;
#X obj 102 262 popmenu slicer1 9;
#X obj 102 282 popmenu slicer1 10;
#X obj 102 302 popmenu slicer1 11;
#X obj 301 102 popmenu slicer2 1;
#X obj 301 121 popmenu slicer2 2;
#X obj 301 140 popmenu slicer2 3;
#X obj 301 160 popmenu slicer2 4;
#X obj 302 181 popmenu slicer2 5;
#X obj 302 201 popmenu slicer2 6;
#X obj 303 221 popmenu slicer2 7;
#X obj 303 240 popmenu slicer2 8;
#X obj 303 259 popmenu slicer2 9;
#X obj 303 279 popmenu slicer2 10;
#X obj 303 298 popmenu slicer2 11;
#X obj 491 101 popmenu slicer3 1;
#X obj 491 120 popmenu slicer3 2;
#X obj 491 140 popmenu slicer3 3;
#X obj 491 159 popmenu slicer3 4;
#X obj 491 179 popmenu slicer3 5;
#X obj 491 199 popmenu slicer3 6;
#X obj 491 219 popmenu slicer3 7;
#X obj 491 238 popmenu slicer3 8;
#X obj 491 257 popmenu slicer3 9;
#X obj 491 275 popmenu slicer3 10;
#X obj 491 294 popmenu slicer3 11;
#X obj 692 101 popmenu slicer4 1;
#X obj 692 121 popmenu slicer4 2;
#X obj 692 141 popmenu slicer4 3;
#X obj 692 161 popmenu slicer4 4;
#X obj 692 181 popmenu slicer4 5;
#X obj 692 201 popmenu slicer4 6;
#X obj 692 221 popmenu slicer4 7;
#X obj 692 241 popmenu slicer4 8;
#X obj 692 261 popmenu slicer4 9;
#X obj 692 281 popmenu slicer4 10;
#X obj 692 299 popmenu slicer4 11;
#N canvas 141 443 1018 300 patternswitch 0;
#X obj 36 -37 + 1;
#X msg 32 -73 1;
#X msg 90 -71 -1;
#X obj 5 -109 t b b;
#X obj 5 -143 bng 15 250 50 0 empty empty empty 17 7 0 10 -262144 -1
-1;
#X obj 63 -112 t b b;
#X obj 63 -139 bng 15 250 50 0 empty empty empty 17 7 0 10 -262144
-1 -1;
#X obj 69 50 s;
#X msg 96 15 symbol slicer1-\$1 \;;
#X obj 69 -11 t b f;
#X obj 69 -37 clip 1 11;
#X obj 5 -37 1;
#X obj 5 -179 sel 127;
#X obj 106 -179 sel 127;
#X obj 256 -37 + 1;
#X msg 252 -73 1;
#X msg 310 -71 -1;
#X obj 225 -109 t b b;
#X obj 225 -143 bng 15 250 50 0 empty empty empty 17 7 0 10 -262144
-1 -1;
#X obj 283 -112 t b b;
#X obj 283 -139 bng 15 250 50 0 empty empty empty 17 7 0 10 -262144
-1 -1;
#X obj 289 50 s;
#X obj 289 -11 t b f;
#X obj 289 -37 clip 1 11;
#X obj 225 -37 1;
#X obj 225 -179 sel 127;
#X obj 326 -179 sel 127;
#X msg 316 15 symbol slicer2-\$1 \;;
#X obj 486 -37 + 1;
#X msg 482 -73 1;
#X msg 540 -71 -1;
#X obj 455 -109 t b b;
#X obj 455 -143 bng 15 250 50 0 empty empty empty 17 7 0 10 -262144
-1 -1;
#X obj 513 -112 t b b;
#X obj 513 -139 bng 15 250 50 0 empty empty empty 17 7 0 10 -262144
-1 -1;
#X obj 519 50 s;
#X obj 519 -11 t b f;
#X obj 519 -37 clip 1 11;
#X obj 455 -37 1;
#X obj 455 -179 sel 127;
#X obj 556 -179 sel 127;
#X obj 706 -37 + 1;
#X msg 702 -73 1;
#X msg 760 -71 -1;
#X obj 675 -109 t b b;
#X obj 675 -143 bng 15 250 50 0 empty empty empty 17 7 0 10 -262144
-1 -1;
#X obj 733 -112 t b b;
#X obj 733 -139 bng 15 250 50 0 empty empty empty 17 7 0 10 -262144
-1 -1;
#X obj 739 50 s;
#X obj 739 -11 t b f;
#X obj 739 -37 clip 1 11;
#X obj 675 -37 1;
#X obj 675 -179 sel 127;
#X obj 776 -179 sel 127;
#X floatatom 65 -168 5 0 0 0 - - -;
#X floatatom 147 -151 5 0 0 0 - - -;
#X msg 546 15 symbol slicer3-\$1 \;;
#X msg 766 15 symbol slicer4-\$1 \;;
#X obj 5 -198 r midimix-note6;
#X obj 106 -198 r midimix-note4;
#X obj 225 -198 r midimix-note12;
#X obj 326 -198 r midimix-note10;
#X obj 556 -199 r midimix-note16;
#X obj 455 -198 r midimix-note18;
#X obj 675 -198 r midimix-note24;
#X obj 776 -198 r midimix-note22;
#X connect 0 0 10 0;
#X connect 1 0 0 1;
#X connect 2 0 0 1;
#X connect 3 0 11 0;
#X connect 3 1 1 0;
#X connect 4 0 3 0;
#X connect 5 0 11 0;
#X connect 5 1 2 0;
#X connect 6 0 5 0;
#X connect 8 0 7 1;
#X connect 9 0 7 0;
#X connect 9 1 8 0;
#X connect 10 0 9 0;
#X connect 10 0 11 1;
#X connect 11 0 0 0;
#X connect 12 0 4 0;
#X connect 13 0 6 0;
#X connect 14 0 23 0;
#X connect 15 0 14 1;
#X connect 16 0 14 1;
#X connect 17 0 24 0;
#X connect 17 1 15 0;
#X connect 18 0 17 0;
#X connect 19 0 24 0;
#X connect 19 1 16 0;
#X connect 20 0 19 0;
#X connect 22 0 21 0;
#X connect 22 1 27 0;
#X connect 23 0 22 0;
#X connect 23 0 24 1;
#X connect 24 0 14 0;
#X connect 25 0 18 0;
#X connect 26 0 20 0;
#X connect 27 0 21 1;
#X connect 28 0 37 0;
#X connect 29 0 28 1;
#X connect 30 0 28 1;
#X connect 31 0 38 0;
#X connect 31 1 29 0;
#X connect 32 0 31 0;
#X connect 33 0 38 0;
#X connect 33 1 30 0;
#X connect 34 0 33 0;
#X connect 36 0 35 0;
#X connect 36 1 56 0;
#X connect 37 0 36 0;
#X connect 37 0 38 1;
#X connect 38 0 28 0;
#X connect 39 0 32 0;
#X connect 40 0 34 0;
#X connect 41 0 50 0;
#X connect 42 0 41 1;
#X connect 43 0 41 1;
#X connect 44 0 51 0;
#X connect 44 1 42 0;
#X connect 45 0 44 0;
#X connect 46 0 51 0;
#X connect 46 1 43 0;
#X connect 47 0 46 0;
#X connect 49 0 48 0;
#X connect 49 1 57 0;
#X connect 50 0 49 0;
#X connect 50 0 51 1;
#X connect 51 0 41 0;
#X connect 52 0 45 0;
#X connect 53 0 47 0;
#X connect 56 0 35 1;
#X connect 57 0 48 1;
#X connect 58 0 12 0;
#X connect 58 0 54 0;
#X connect 59 0 13 0;
#X connect 59 0 55 0;
#X connect 60 0 25 0;
#X connect 61 0 26 0;
#X connect 62 0 40 0;
#X connect 63 0 39 0;
#X connect 64 0 52 0;
#X connect 65 0 53 0;
#X restore 626 50 pd patternswitch;
#X obj 303 -194 iterate 4;
#X obj 303 -173 + 1;
#X obj 303 -152 t b f;
#X obj 318 -10 pack f f;
#X msg 318 19 symbol slicer\$2-\$1;
#X connect 0 0 3 0;
#X connect 1 0 6 0;
#X connect 2 0 5 0;
#X connect 3 0 1 0;
#X connect 4 0 7 0;
#X connect 5 0 0 0;
#X connect 5 1 4 0;
#X connect 6 0 7 0;
#X connect 8 0 2 0;
#X connect 9 0 2 0;
#X connect 11 0 78 0;
#X connect 12 0 14 0;
#X connect 14 0 13 0;
#X connect 15 0 17 0;
#X connect 16 0 81 0;
#X connect 17 0 12 0;
#X connect 17 1 16 0;
#X connect 18 0 11 0;
#X connect 78 0 79 0;
#X connect 79 0 80 0;
#X connect 80 0 15 0;
#X connect 80 1 81 1;
#X connect 81 0 82 0;
#X connect 82 0 13 1;
#X coords 0 -1 1 1 830 230 1 100 100;
#X restore -961 -126 pd pattern-seq;
#N canvas 65 112 450 300 init 0;
#X obj 27 14 loadbang;
#X obj 27 37 t b b b;
#X obj 66 70 s loadbang1;
#X obj 46 99 s loadbang2;
#X obj 26 130 s loadbang3;
#N canvas 281 172 566 300 paths 0;
#X obj 3 -2 declare -lib zexy;
#X obj 3 18 declare -lib bsaylor;
#X obj 215 -1 declare -path abstractions/;
#X obj 3 37 declare -lib iemmatrix;
#X obj 3 56 import hexloader;
#X obj 214 57 declare -path bin/;
#X obj 214 18 declare -path slicer/abstractions/;
#X obj 214 37 declare -path slicer/;
#X restore 181 19 pd paths;
#N canvas 65 152 450 300 tables 0;
#N canvas 139 289 450 300 irTables 0;
#X obj 14 14 table ir1-L;
#X obj 88 14 table ir1-R;
#X obj 14 33 table ir2-L;
#X obj 88 33 table ir2-R;
#X obj 14 53 table ir3-L;
#X obj 88 53 table ir3-R;
#X obj 15 72 table ir4-L;
#X obj 89 72 table ir4-R;
#X obj 15 91 table ir5-L;
#X obj 15 110 table ir6-L;
#X obj 15 130 table ir7-L;
#X obj 16 149 table ir8-L;
#X obj 89 91 table ir5-R;
#X obj 89 110 table ir6-R;
#X obj 89 130 table ir7-R;
#X obj 90 149 table ir8-R;
#X obj 165 14 load ../irResponses ir;
#X restore 9 5 pd irTables;
#X text 88 2 <- all Impulse Response Tables here;
#N canvas 169 208 494 334 globalsamples 0;
#X obj 193 -50 load ../samples sample;
#X obj -13 -51 table sample1-L;
#X obj 84 -51 table sample1-R;
#X obj -13 -30 table sample2-L;
#X obj 84 -10 table sample3-R;
#X obj -13 -10 table sample3-L;
#X obj 84 -30 table sample2-R;
#X obj 193 -14 print;
#X obj 330 20 s sample-list;
#X obj 330 -3 prepend add;
#X connect 0 0 7 0;
#X connect 0 0 9 0;
#X connect 9 0 8 0;
#X restore 9 24 pd globalsamples;
#X text 116 23 <-all other samples here;
#X restore 181 40 pd tables;
#X connect 0 0 1 0;
#X connect 1 0 4 0;
#X connect 1 1 3 0;
#X connect 1 2 2 0;
#X restore -101 -158 pd init;
#N canvas 500 262 481 392 sampler 0;
#N canvas 65 167 567 417 textfiler 0;
#X obj 25 24 t b b;
#X msg 25 83 rewind;
#X obj 25 197 sprintf %s%s;
#X obj 25 146 t b s;
#X obj 25 121 msgfile;
#X msg 52 64 read samples/scene2/scene2.txt cr;
#X obj 122 -78 inlet;
#X msg 122 28 goto \$1;
#X obj 25 232 outlet;
#X msg 102 122 water.wav;
#X obj 25 -32 loadbang;
#X obj 25 -65 bng 15 250 50 0 empty empty empty 17 7 0 10 -262144 -1
-1;
#X msg 73 -10 this;
#X obj 122 -41 t b f;
#X obj 224 213 folder_list;
#X obj 310 163 readsf~;
#X msg 234 177 bang;
#X msg 347 25 samples/cello.wav;
#X obj 379 105 prepend open;
#X msg 290 110 start;
#X obj 319 211 throw~ scene2-Main-mono;
#X obj 404 162 print;
#X msg 25 173 ../samples/scene2/;
#X connect 0 0 1 0;
#X connect 0 1 5 0;
#X connect 1 0 4 0;
#X connect 2 0 8 0;
#X connect 3 0 22 0;
#X connect 3 1 2 1;
#X connect 4 0 3 0;
#X connect 5 0 4 0;
#X connect 6 0 13 0;
#X connect 7 0 4 0;
#X connect 9 0 3 0;
#X connect 10 0 0 0;
#X connect 11 0 10 0;
#X connect 12 0 4 0;
#X connect 13 0 12 0;
#X connect 13 1 7 0;
#X connect 15 0 20 0;
#X connect 16 0 14 0;
#X connect 17 0 18 0;
#X connect 17 0 8 0;
#X connect 18 0 15 0;
#X connect 18 0 21 0;
#X connect 19 0 15 0;
#X connect 22 0 2 0;
#X restore 153 124 pd textfiler;
#X text 252 115 Soundfileplayback;
#X text 170 250 Output;
#X text 236 127 Sample sart randomize;
#X obj 45 -64 r fcb;
#N canvas 65 239 655 431 score 0;
#X obj 83 -140 f;
#X obj 138 -139 + 1;
#X obj 169 -139 % 8;
#X obj 83 -194 bng 15 250 50 0 empty empty empty 17 7 0 10 -262144
-1 -1;
#X obj 83 -111 + 0;
#X msg 221 -193 0;
#X msg 256 -192 8;
#X msg 309 -192 8;
#X msg 342 -192 4;
#X msg 420 -192 10;
#X obj 127 -175 unpack f f;
#X obj 223 -165 pack;
#X obj 311 -165 pack;
#X obj 392 -163 pack;
#X obj 223 -131 s scene2-reader;
#X obj 107 -250 r scene2-reader;
#X obj 221 -238 bng 15 250 50 0 empty empty empty 17 7 0 10 -262144
-1 -1;
#X obj 317 -243 bng 15 250 50 0 empty empty empty 17 7 0 10 -262144
-1 -1;
#X obj 400 -241 bng 15 250 50 0 empty empty empty 17 7 0 10 -262144
-1 -1;
#X obj 107 -224 t l b;
#X msg 98 -175 0;
#X obj 83 -62 tabread scene2-score;
#X msg 389 -192 12;
#X obj 197 -400 inlet;
#X obj 83 -342 sel 0 1 2;
#X obj 224 -349 change;
#X obj 224 -324 sel 0 1 2;
#X obj 83 -6 outlet;
#X obj 197 -378 t f f;
#X text 284 -353 comment;
#X obj 83 -88 + 0;
#X obj 88 -33 - 1;
#X connect 0 0 1 0;
#X connect 0 0 4 0;
#X connect 1 0 2 0;
#X connect 2 0 0 1;
#X connect 3 0 0 0;
#X connect 4 0 30 0;
#X connect 5 0 11 0;
#X connect 6 0 11 1;
#X connect 7 0 12 0;
#X connect 8 0 12 1;
#X connect 9 0 13 1;
#X connect 10 0 4 1;
#X connect 10 1 2 1;
#X connect 11 0 14 0;
#X connect 12 0 14 0;
#X connect 13 0 14 0;
#X connect 15 0 19 0;
#X connect 16 0 5 0;
#X connect 16 0 6 0;
#X connect 17 0 7 0;
#X connect 17 0 8 0;
#X connect 18 0 22 0;
#X connect 18 0 9 0;
#X connect 19 0 10 0;
#X connect 19 1 20 0;
#X connect 20 0 0 1;
#X connect 21 0 31 0;
#X connect 22 0 13 0;
#X connect 23 0 28 0;
#X connect 24 0 3 0;
#X connect 24 1 3 0;
#X connect 24 2 3 0;
#X connect 25 0 26 0;
#X connect 26 0 16 0;
#X connect 26 1 17 0;
#X connect 26 2 18 0;
#X connect 28 0 24 0;
#X connect 28 1 25 0;
#X connect 30 0 21 0;
#X connect 31 0 27 0;
#X restore 45 -20 pd score;
#X obj 234 101 tgl 15 0 empty empty empty 17 7 0 10 -262144 -1 -1 1
1;
#X floatatom 175 -47 5 0 0 0 - - -;
#X obj 175 -27 sel 3;
#X msg 175 -1 stop;
#X obj 303 160 print;
#X obj 153 149 player2~;
#X msg 89 101 cello.wav;
#X obj 176 230 throw~ \$0-sampler2;
#X obj 220 211 throw~ sampler2;
#X obj 45 21 s IR-Verb;
#X msg 143 45;
#X obj 297 40 loadbang;
#X msg 303 72 1;
#X connect 0 0 10 0;
#X connect 0 0 11 0;
#X connect 4 0 5 0;
#X connect 4 0 7 0;
#X connect 5 0 0 0;
#X connect 5 0 15 0;
#X connect 6 0 11 2;
#X connect 7 0 8 0;
#X connect 8 0 9 0;
#X connect 9 0 11 1;
#X connect 11 0 13 0;
#X connect 11 1 14 0;
#X connect 12 0 11 0;
#X connect 17 0 18 0;
#X connect 18 0 6 0;
#X restore -119 -139 pd sampler;
#N canvas 222 263 577 437 wind 0;
#N canvas 65 54 1301 714 wind 0;
#X obj 449 132 *~;
#X obj 785 83 +~ 1000;
#X obj 785 63 *~ 1000;
#X msg 824 107 60;
#X obj 297 -150 noise~;
#X obj 744 151 *~;
#N canvas 65 143 175 257 windspeed 0;
#X obj 13 41 +~ 1;
#X obj 12 151 +~;
#X obj 13 64 *~ 0.25;
#X obj 28 129 +~;
#X obj 13 173 clip~ 0 1;
#N canvas 65 110 184 221 squall 0;
#X obj 78 41 noise~;
#X obj 77 108 hip~ 0;
#X obj 78 64 lop~ 3;
#X obj 78 85 lop~ 3;
#X obj 17 112 *~;
#X obj 38 160 *~;
#X obj 16 42 max~ 0.4;
#X obj 16 64 -~ 0.4;
#X obj 16 87 *~ 8;
#X obj 78 129 *~ 20;
#X obj 16 14 inlet~;
#X obj 40 184 outlet~;
#X connect 0 0 2 0;
#X connect 1 0 9 0;
#X connect 2 0 3 0;
#X connect 3 0 1 0;
#X connect 4 0 5 0;
#X connect 5 0 11 0;
#X connect 6 0 7 0;
#X connect 7 0 8 0;
#X connect 8 0 4 0;
#X connect 8 0 4 1;
#X connect 9 0 5 1;
#X connect 10 0 6 0;
#X restore 83 98 pd squall;
#N canvas 65 143 190 244 gust 0;
#X obj 9 15 noise~;
#X obj 8 82 hip~ 0;
#X obj 8 157 *~;
#X obj 76 72 *~;
#X obj 75 49 +~ 0.5;
#X obj 76 96 -~ 0.125;
#X obj 9 59 lop~ 0.5;
#X obj 9 38 lop~ 0.5;
#X obj 9 103 *~ 50;
#X obj 75 9 inlet~;
#X obj 8 182 outlet~;
#X connect 0 0 7 0;
#X connect 1 0 8 0;
#X connect 2 0 10 0;
#X connect 3 0 5 0;
#X connect 4 0 3 0;
#X connect 4 0 3 1;
#X connect 5 0 2 1;
#X connect 6 0 1 0;
#X connect 7 0 6 0;
#X connect 8 0 2 0;
#X connect 9 0 4 0;
#X restore 27 98 pd gust;
#X obj 13 199 outlet~;
#X obj 13 19 osc~ 0.1;
#X connect 0 0 2 0;
#X connect 1 0 4 0;
#X connect 2 0 5 0;
#X connect 2 0 1 0;
#X connect 2 0 6 0;
#X connect 3 0 1 1;
#X connect 4 0 7 0;
#X connect 5 0 3 1;
#X connect 6 0 3 0;
#X connect 8 0 0 0;
#X restore 161 -158 pd windspeed;
#X obj 162 -85 delwrite~ a 3000;
#X obj 745 127 vcf~ 1000 60;
#X obj 760 83 *~;
#X obj 744 172 *~ 2;
#X obj 744 220 throw~ l;
#X obj 808 220 throw~ r;
#X obj 161 -63 catch~ l;
#X obj 225 -63 catch~ r;
#X msg 682 58 60;
#X obj 588 150 *~;
#X obj 589 80 vcf~ 1000 60;
#X obj 605 128 *~;
#X obj 682 38 loadbang;
#X obj 588 220 throw~ l;
#X obj 652 220 throw~ r;
#X obj 628 38 *~ 400;
#X obj 628 58 +~ 600;
#X obj 588 195 fcpan 0.28;
#X obj 744 195 fcpan 0.64;
#X obj 297 -128 s~ white;
#X obj 745 15 r~ white;
#X obj 588 -10 r~ white;
#X obj 588 172 *~ 1.2;
#X obj 604 102 +~ 0.12;
#X obj 873 220 throw~ l;
#X obj 937 220 throw~ r;
#X obj 872 16 r~ white;
#X obj 872 44 max~;
#X obj 872 65 -~;
#X obj 872 87 *~;
#X obj 938 -8 sig~ 1;
#X obj 938 16 -~;
#X obj 873 153 *~;
#X obj 956 -77 +~ 0.3;
#X obj 1003 -29 -~ 0.2;
#X obj 955 -29 *~ 0.4;
#X obj 872 109 hip~ 200;
#X obj 873 131 lop~ 4000;
#X obj 449 235 throw~ l;
#X obj 514 220 throw~ r;
#X obj 449 88 r~ white;
#X obj 527 23 cos~;
#X obj 527 -43 -~ 0.25;
#X obj 527 -65 clip~ 0.25 0.5;
#X obj 527 1 -~ 0.25;
#X obj 527 -21 *~ 2;
#X obj 449 110 bp~ 200 40;
#X obj 449 176 *~;
#X obj 527 111 osc~;
#X obj 527 67 *~ 100;
#X obj 527 89 +~ 20;
#X obj 527 45 lop~ 0.1;
#X obj 317 132 *~;
#X obj 317 238 throw~ l;
#X obj 382 229 throw~ r;
#X obj 317 88 r~ white;
#X obj 395 23 cos~;
#X obj 395 1 -~ 0.25;
#X obj 395 -21 *~ 2;
#X obj 317 176 *~;
#X obj 395 111 osc~;
#X obj 395 -65 clip~ 0.35 0.6;
#X obj 395 -43 -~ 0.35;
#X obj 395 45 lop~ 0.5;
#X obj 317 110 bp~ 400 40;
#X obj 395 67 *~ 200;
#X obj 395 89 +~ 30;
#X obj 317 154 *~ 2;
#X obj 449 154 *~ 2;
#X obj 395 -87 vd~ a 100;
#X obj 527 -106 vd~ a 300;
#X obj 604 11 vd~ a 500;
#X obj 761 36 vd~ a 900;
#X obj 317 198 fcpan 0.91;
#X obj 449 198 fcpan 0.03;
#X obj 160 18 vd~ a 0;
#X obj 177 61 r~ white;
#X obj 183 250 throw~ l;
#X obj 248 250 throw~ r;
#X obj 160 107 *~;
#X obj 183 198 fcpan 0.51;
#X obj 222 125 clip~ 0 0.99;
#X obj 184 153 rzero~;
#X obj 160 40 +~ 0.2;
#X obj 221 103 *~ 0.6;
#X obj 177 82 bp~ 800 1;
#X obj 873 174 *~ 0.8;
#X obj 956 -99 vd~ a 3000;
#X obj 956 -55 lop~ 0.07;
#X obj 184 175 *~ 0.2;
#X text 191 281 buildings;
#X text 402 251 doorways;
#X text 666 251 branches/wires;
#X text 888 250 tree leaves;
#X obj 162 -127 receive~ wind-speed;
#X obj 48 -105 send~ wind-speed;
#X obj 669 -190 hsl 128 15 0 1 0 0 empty empty empty -2 -8 0 10 -262144
-1 -1 0 1;
#X obj 672 -165 sig~;
#X obj 671 -142 lop~ 10;
#X obj 873 195 fcpan 0.4;
#X obj 230 -33 outlet~;
#X obj 161 -33 outlet~;
#X obj 666 -216 inlet;
#X connect 0 0 75 0;
#X connect 1 0 8 1;
#X connect 2 0 1 0;
#X connect 3 0 8 2;
#X connect 4 0 26 0;
#X connect 5 0 10 0;
#X connect 6 0 102 0;
#X connect 8 0 5 0;
#X connect 9 0 5 1;
#X connect 10 0 25 0;
#X connect 13 0 108 0;
#X connect 14 0 107 0;
#X connect 15 0 17 2;
#X connect 16 0 29 0;
#X connect 17 0 16 0;
#X connect 18 0 16 1;
#X connect 19 0 15 0;
#X connect 19 0 3 0;
#X connect 22 0 23 0;
#X connect 23 0 17 1;
#X connect 24 0 20 0;
#X connect 24 1 21 0;
#X connect 25 0 11 0;
#X connect 25 1 12 0;
#X connect 27 0 8 0;
#X connect 28 0 17 0;
#X connect 29 0 24 0;
#X connect 30 0 18 0;
#X connect 30 0 18 1;
#X connect 33 0 34 0;
#X connect 34 0 35 0;
#X connect 35 0 36 0;
#X connect 36 0 43 0;
#X connect 37 0 38 0;
#X connect 38 0 34 1;
#X connect 38 0 35 1;
#X connect 38 0 36 1;
#X connect 39 0 93 0;
#X connect 40 0 95 0;
#X connect 41 0 39 1;
#X connect 42 0 38 1;
#X connect 43 0 44 0;
#X connect 44 0 39 0;
#X connect 47 0 53 0;
#X connect 48 0 58 0;
#X connect 49 0 52 0;
#X connect 50 0 49 0;
#X connect 51 0 48 0;
#X connect 52 0 51 0;
#X connect 53 0 0 0;
#X connect 54 0 81 0;
#X connect 55 0 54 1;
#X connect 56 0 57 0;
#X connect 57 0 55 0;
#X connect 58 0 0 1;
#X connect 58 0 56 0;
#X connect 59 0 74 0;
#X connect 62 0 71 0;
#X connect 63 0 70 0;
#X connect 64 0 63 0;
#X connect 65 0 64 0;
#X connect 66 0 80 0;
#X connect 67 0 66 1;
#X connect 68 0 69 0;
#X connect 69 0 65 0;
#X connect 70 0 59 1;
#X connect 70 0 72 0;
#X connect 71 0 59 0;
#X connect 72 0 73 0;
#X connect 73 0 67 0;
#X connect 74 0 66 0;
#X connect 75 0 54 0;
#X connect 76 0 68 0;
#X connect 77 0 50 0;
#X connect 78 0 22 0;
#X connect 78 0 30 0;
#X connect 79 0 2 0;
#X connect 79 0 9 0;
#X connect 79 0 9 1;
#X connect 80 0 60 0;
#X connect 80 1 61 0;
#X connect 81 0 45 0;
#X connect 81 1 46 0;
#X connect 82 0 90 0;
#X connect 83 0 92 0;
#X connect 86 0 89 0;
#X connect 87 0 84 0;
#X connect 87 1 85 0;
#X connect 88 0 89 1;
#X connect 89 0 96 0;
#X connect 90 0 86 0;
#X connect 90 0 91 0;
#X connect 91 0 88 0;
#X connect 92 0 86 1;
#X connect 93 0 106 0;
#X connect 94 0 40 0;
#X connect 95 0 41 0;
#X connect 95 0 42 0;
#X connect 96 0 87 0;
#X connect 103 0 104 0;
#X connect 104 0 105 0;
#X connect 105 0 7 0;
#X connect 106 0 31 0;
#X connect 106 1 32 0;
#X connect 109 0 103 0;
#X restore -258 205 pd wind;
#X obj -259 262 *~;
#X obj -220 261 *~;
#X obj -142 246 hsl 128 15 0 1 0 0 empty empty empty -2 -8 0 10 -262144
-1 -1 1270 1;
#X obj -258 159 line;
#X obj -144 203 *;
#X obj -68 151 / 127;
#X msg -258 139 \$1 500;
#X obj -122 151 / 127;
#X obj -197 162 line;
#X msg -197 141 \$1 1000;
#X obj -258 184 *;
#X obj -145 225 + 0.1;
#X obj -258 32 tabread envScale;
#N canvas 0 0 450 300 (subpatch) 0;
#X array envScale 100 float 3;
#A 0 0 0.192858 0.264286 0.285715 0.285715 0.285715 0.285715 0.278572
0.278572 0.278572 0.285715 0.285715 0.285715 0.285715 0.285715 0.278572
0.278572 0.278572 0.278572 0.278572 0.278572 0.292858 0.296429 0.300001
0.314286 0.335715 0.328572 0.328572 0.328572 0.328572 0.328572 0.342858
0.350001 0.357144 0.364286 0.371429 0.378572 0.385715 0.389287 0.392858
0.392858 0.396429 0.400001 0.400001 0.400001 0.403572 0.407144 0.409525
0.411906 0.414287 0.414287 0.414287 0.414287 0.42381 0.433334 0.442858
0.457144 0.464287 0.47143 0.480953 0.490477 0.500001 0.504763 0.509525
0.514287 0.52143 0.528573 0.535715 0.542858 0.557144 0.560715 0.564287
0.57143 0.582144 0.592858 0.607144 0.628573 0.635716 0.650002 0.664287
0.678573 0.685716 0.707145 0.72143 0.735716 0.771431 0.792859 0.814288
0.850002 0.885717 0.89286 0.89286 0.907145 0.907145 0.921431 0.935717
0.957146 0.99286 1 1;
#X coords 0 1 99 0 200 140 1 0 0;
#X restore -146 -58 graph;
#X obj -258 -61 r celloEnv;
#X obj -122 128 r fcb-12;
#X obj -68 128 r fcb-13;
#X floatatom -209 -10 5 0 0 0 - - -;
#X obj -259 302 throw~ wind-L;
#X obj -172 303 throw~ wind-R;
#X connect 0 0 1 0;
#X connect 0 1 2 0;
#X connect 1 0 19 0;
#X connect 2 0 20 0;
#X connect 3 0 2 1;
#X connect 3 0 1 1;
#X connect 4 0 11 0;
#X connect 5 0 12 0;
#X connect 6 0 5 1;
#X connect 7 0 4 0;
#X connect 8 0 11 1;
#X connect 9 0 5 0;
#X connect 10 0 9 0;
#X connect 11 0 0 0;
#X connect 12 0 3 0;
#X connect 13 0 7 0;
#X connect 13 0 10 0;
#X connect 15 0 13 0;
#X connect 16 0 8 0;
#X connect 17 0 6 0;
#X connect 18 0 13 0;
#X restore -119 -120 pd wind;
#N canvas 65 112 450 300 reset-slicers 0;
#X obj 158 117 bng 30 250 50 0 empty empty empty 17 7 0 10 -4034 -1
-1;
#X obj 102 117 nbx 2 30 0 16 0 0 empty empty empty 0 -8 0 20 -262144
-1 -1 0 256;
#X obj 103 158 f;
#X obj 103 216 s slicer1;
#X obj 169 216 s slicer2;
#X obj 234 216 s slicer3;
#X obj 295 216 s slicer4;
#X obj 158 75 sel 127;
#X msg 103 188 reset;
#X obj 154 167 t b;
#X obj 158 52 r midimix-note27;
#X msg 274 90;
#X obj 310 115 metro;
#X floatatom 352 73 5 0 0 0 - - -;
#X obj 310 65 tgl 15 0 empty empty empty 17 7 0 10 -262144 -1 -1 0
1;
#X connect 0 0 2 0;
#X connect 1 0 2 1;
#X connect 2 0 9 0;
#X connect 7 0 0 0;
#X connect 8 0 3 0;
#X connect 8 0 4 0;
#X connect 8 0 6 0;
#X connect 8 0 5 0;
#X connect 9 0 8 0;
#X connect 10 0 7 0;
#X connect 12 0 0 0;
#X connect 13 0 12 1;
#X connect 14 0 12 0;
#X coords 0 -1 1 1 90 50 1 100 100;
#X restore -119 -99 pd reset-slicers;
#N canvas 913 242 450 300 control 0;
#X obj 7 8 bng 40 250 50 0 empty empty empty 17 7 0 10 -260097 -1 -1
;
#N canvas 935 375 210 277 omoi-settings 0;
#X obj -33 3 hsl 195 50 40 70 0 1 \$0-silencethresholdsend \$0-silencethresholdreceive
silence-threshold 90 25 0 10 -228856 -260097 -1 14600 0;
#X floatatom -8 19 5 0 0 1 dB - -;
#X obj -33 58 hsl 195 50 100 500 0 0 \$0-timeconstantsend \$0-timeconstantreceive
time-constant 115 25 0 10 -228856 -260097 -1 0 0;
#X obj -33 113 hsl 195 50 0 1 0 0 \$0-amplitudecompsend \$0-amplitudecompreceive
amplitude-compensation 63 25 0 10 -228856 -260097 -1 0 0;
#X floatatom -5 130 5 0 0 0 - - -;
#X obj -33 -107 hsl 195 50 3 20 0 0 \$0-attackstepsend \$0-attackstepreceive
attack-step 125 25 0 10 -228856 -260097 -1 0 0;
#X floatatom -6 -90 5 0 0 1 dB - -;
#X obj -33 -52 hsl 195 50 60 90 0 0 \$0-attackthresholdsend \$0-attackthresholdreceive
attack-threshold 100 25 0 10 -228856 -260097 -1 0 0;
#X floatatom -7 -35 5 0 0 1 dB - -;
#X floatatom -7 75 5 0 0 1 ms - -;
#X connect 0 0 1 0;
#X connect 2 0 9 0;
#X connect 3 0 4 0;
#X connect 5 0 6 0;
#X connect 7 0 8 0;
#X restore 170 65 pd omoi-settings;
#N canvas 65 117 639 643 presets 0;
#N canvas 0 22 450 300 (subpatch) 0;
#X array \$0-settingspresets 20 float 3;
#A 0 4.40206 62.5773 77.1649 62.5773 500 0 1 1 -1 0 15.7938 64.1237
85.5155 64.1237 500 0.969072 5 1 0 0;
#X coords 0 500 20 0 200 100 1;
#X restore 225 518 graph;
#X obj 25 13 r \$0-attackstepsend;
#X obj 24 167 r \$0-attackthresholdsend;
#X obj 445 218 s \$0-attackthresholdreceive;
#X obj 25 91 r \$0-silencethresholdsend;
#X obj 444 62 s \$0-attackstepreceive;
#X obj 445 142 s \$0-silencethresholdreceive;
#X obj 25 315 r \$0-timeconstantsend;
#X obj 442 368 s \$0-timeconstantreceive;
#X obj 27 394 r \$0-amplitudecompsend;
#X obj 442 443 s \$0-amplitudecompreceive;
#X obj 28 475 r \$0-rollsettingsend;
#X obj 443 524 s \$0-rollsettingreceive;
#X obj 29 554 r \$0-enable-reverse;
#X obj 444 602 s \$0-enable-reverse-receive;
#X obj 25 38 t f b;
#X obj 25 64 tabwrite \$0-settingspresets;
#X obj 184 41 +;
#X obj 25 115 t f b;
#X obj 25 138 tabwrite \$0-settingspresets;
#X obj 184 115 +;
#X obj 24 189 t f b;
#X obj 24 213 tabwrite \$0-settingspresets;
#X obj 183 190 +;
#X obj 25 341 t f b;
#X obj 25 365 tabwrite \$0-settingspresets;
#X obj 184 342 +;
#X obj 28 501 t f b;
#X obj 28 525 tabwrite \$0-settingspresets;
#X obj 187 502 +;
#X obj 27 417 t f b;
#X obj 27 441 tabwrite \$0-settingspresets;
#X obj 186 418 +;
#X obj 29 579 t f b;
#X obj 29 603 tabwrite \$0-settingspresets;
#X obj 188 580 +;
#X msg 184 19 0;
#X msg 184 93 1;
#X msg 183 168 2;
#X obj 25 264 t f b;
#X obj 25 288 tabwrite \$0-settingspresets;
#X obj 184 265 +;
#X obj 25 237 r \$0-silencethresholdsend;
#X obj 273 173 * 10;
#X floatatom 334 67 5 0 0 0 - - -;
#X obj 444 38 tabread \$0-settingspresets;
#X obj 444 15 + 0;
#X obj 445 117 tabread \$0-settingspresets;
#X obj 445 192 tabread \$0-settingspresets;
#X obj 442 342 tabread \$0-settingspresets;
#X obj 442 418 tabread \$0-settingspresets;
#X obj 443 497 tabread \$0-settingspresets;
#X obj 444 577 tabread \$0-settingspresets;
#X obj 444 273 tabread \$0-settingspresets;
#X obj 444 295 s \$0-silencethresholdreceive;
#X obj 445 94 + 1;
#X obj 445 169 + 2;
#X obj 444 250 + 3;
#X obj 442 319 + 4;
#X obj 442 396 + 5;
#X obj 443 474 + 6;
#X obj 444 554 + 7;
#X msg 184 240 3;
#X msg 184 317 4;
#X msg 186 393 5;
#X msg 187 476 6;
#X msg 188 555 7;
#X obj 307 41 t f f;
#X obj 307 173 * 10;
#X obj 307 14 r \$0-settingspreset;
#X obj 224 73 s slicerattack;
#X obj 217 143 s slicerattackthresh;
#X obj 233 238 s slicertimeconstant;
#X obj 220 285 s slicersilencethres;
#X connect 1 0 15 0;
#X connect 1 0 70 0;
#X connect 2 0 21 0;
#X connect 2 0 71 0;
#X connect 4 0 18 0;
#X connect 7 0 24 0;
#X connect 7 0 72 0;
#X connect 9 0 30 0;
#X connect 11 0 27 0;
#X connect 13 0 33 0;
#X connect 15 0 16 0;
#X connect 15 1 36 0;
#X connect 17 0 16 1;
#X connect 18 0 19 0;
#X connect 18 1 37 0;
#X connect 20 0 19 1;
#X connect 21 0 22 0;
#X connect 21 1 38 0;
#X connect 23 0 22 1;
#X connect 24 0 25 0;
#X connect 24 1 63 0;
#X connect 26 0 25 1;
#X connect 27 0 28 0;
#X connect 27 1 65 0;
#X connect 29 0 28 1;
#X connect 30 0 31 0;
#X connect 30 1 64 0;
#X connect 32 0 31 1;
#X connect 33 0 34 0;
#X connect 33 1 66 0;
#X connect 35 0 34 1;
#X connect 36 0 17 0;
#X connect 37 0 20 0;
#X connect 38 0 23 0;
#X connect 39 0 40 0;
#X connect 39 1 62 0;
#X connect 41 0 40 1;
#X connect 42 0 39 0;
#X connect 42 0 73 0;
#X connect 43 0 17 1;
#X connect 43 0 20 1;
#X connect 43 0 23 1;
#X connect 43 0 41 1;
#X connect 43 0 26 1;
#X connect 43 0 32 1;
#X connect 43 0 29 1;
#X connect 43 0 35 1;
#X connect 45 0 5 0;
#X connect 46 0 45 0;
#X connect 47 0 6 0;
#X connect 48 0 3 0;
#X connect 49 0 8 0;
#X connect 50 0 10 0;
#X connect 51 0 12 0;
#X connect 52 0 14 0;
#X connect 53 0 54 0;
#X connect 55 0 47 0;
#X connect 56 0 48 0;
#X connect 57 0 53 0;
#X connect 58 0 49 0;
#X connect 59 0 50 0;
#X connect 60 0 51 0;
#X connect 61 0 52 0;
#X connect 62 0 41 0;
#X connect 63 0 26 0;
#X connect 64 0 32 0;
#X connect 65 0 29 0;
#X connect 66 0 35 0;
#X connect 67 0 68 0;
#X connect 67 1 44 0;
#X connect 67 1 43 0;
#X connect 68 0 46 0;
#X connect 68 0 55 0;
#X connect 68 0 56 0;
#X connect 68 0 57 0;
#X connect 68 0 58 0;
#X connect 68 0 59 0;
#X connect 68 0 60 0;
#X connect 68 0 61 0;
#X connect 69 0 67 0;
#X restore 170 85 pd presets;
#N canvas 439 246 450 300 midi 0;
#N canvas 379 227 951 507 midi-settings 0;
#X floatatom 101 122 5 0 0 0 - - -;
#X floatatom 148 122 5 0 0 0 - - -;
#X msg 236 114 set \$1;
#X msg 101 73 1;
#X msg 292 104 set \$1;
#X msg 148 72 5;
#X obj 101 24 loadbang;
#X obj 101 218 s midi-mix-ch;
#X obj 148 199 s fcb-ch;
#X text 102 100 MidiMix;
#X text 151 101 FCB;
#X obj 337 138 ctlin;
#X obj 350 208 spigot;
#X obj 385 138 r midi-mix-ch;
#X obj 370 160 ==;
#X obj 663 138 ctlin;
#X obj 676 210 spigot;
#X obj 709 160 ==;
#X obj 724 138 r fcb-ch;
#X floatatom 417 189 5 0 0 0 - - -;
#X obj 230 58 ctlin;
#X floatatom 102 162 5 0 0 2 Value - -;
#X floatatom 138 162 5 0 0 2 Number - -;
#X floatatom 173 162 5 0 0 2 Channel - -;
#X obj 337 262 s;
#X obj 663 252 s;
#X floatatom 405 210 5 0 0 0 - - -;
#X obj 291 219 spigot;
#X msg 350 235 symbol midimix-\$1;
#X msg 678 232 symbol fcb-\$1;
#X obj 663 186 spigot;
#X obj 530 218 spigot;
#X obj 565 148 r midi-mix-ch;
#X obj 550 170 ==;
#X obj 469 299 s;
#X obj 471 229 spigot;
#X obj 517 148 notein;
#X msg 508 279 symbol midimix-note\$1;
#X obj 471 276 f;
#X obj 471 253 t b f;
#X obj 707 275 s fcb;
#X connect 0 0 2 0;
#X connect 0 0 7 0;
#X connect 1 0 4 0;
#X connect 1 0 8 0;
#X connect 2 0 3 0;
#X connect 3 0 0 0;
#X connect 4 0 5 0;
#X connect 5 0 1 0;
#X connect 6 0 3 0;
#X connect 6 0 5 0;
#X connect 11 0 27 0;
#X connect 11 1 12 0;
#X connect 11 1 26 0;
#X connect 11 2 14 0;
#X connect 11 2 19 0;
#X connect 12 0 28 0;
#X connect 13 0 14 1;
#X connect 14 0 12 1;
#X connect 14 0 27 1;
#X connect 15 0 30 0;
#X connect 15 1 16 0;
#X connect 15 2 17 0;
#X connect 16 0 29 0;
#X connect 16 0 40 0;
#X connect 17 0 16 1;
#X connect 17 0 30 1;
#X connect 18 0 17 1;
#X connect 20 0 21 0;
#X connect 20 1 22 0;
#X connect 20 2 23 0;
#X connect 27 0 24 0;
#X connect 28 0 24 1;
#X connect 29 0 25 1;
#X connect 30 0 25 0;
#X connect 31 0 38 1;
#X connect 32 0 33 1;
#X connect 33 0 31 1;
#X connect 33 0 35 1;
#X connect 35 0 39 0;
#X connect 36 0 35 0;
#X connect 36 1 31 0;
#X connect 36 2 33 0;
#X connect 37 0 34 1;
#X connect 38 0 34 0;
#X connect 39 0 38 0;
#X connect 39 1 37 0;
#X coords 0 -1 1 1 113 80 2 100 100;
#X restore 17 14 pd midi-settings;
#X restore 170 105 pd midi;
#X msg 7 63 \; pd-omoi-settings vis 1 \;;
#X msg 7 99 \; pd-midi vis 1 \;;
#X connect 0 0 4 0;
#X connect 0 0 5 0;
#X coords 0 -1 1 1 85 45 2 5 5;
#X restore -117 -28 pd control;
#X text -117 -46 Settings;
