#N struct 2656-template float x float y float q array poswave 2656-array-element
array negwave 2656-array-element;
#N struct 2656-array-element float y;
#N canvas 65 54 1301 714 10;
#X declare -lib zexy;
#X declare -lib bsaylor;
#X declare -path abstractions/;
#X declare -lib iemmatrix;
#X declare -path SliceJockey/abstractions/;
#X declare -lib hexloader;
#X declare -path bin/;
#X declare -lib iem_tab;
#X declare -lib zexy;
#X declare -lib bsaylor;
#X declare -lib zexy;
#X declare -lib bsaylor;
#X declare -lib zexy;
#X declare -lib bsaylor;
#X declare -lib zexy;
#X declare -lib bsaylor;
#X declare -lib zexy;
#X declare -lib bsaylor;
#X declare -lib zexy;
#X declare -lib bsaylor;
#X declare -lib zexy;
#X declare -lib bsaylor;
#X declare -lib zexy;
#X declare -lib bsaylor;
#X declare -lib zexy;
#X declare -lib bsaylor;
#N canvas 320 252 545 300 libs 0;
#X obj -14 -12 declare -lib zexy;
#X obj -14 8 declare -lib bsaylor;
#X obj 198 -11 declare -path abstractions/;
#X obj -14 27 declare -lib iemmatrix;
#X text -12 -39 Libaries;
#X text 199 -36 Paths;
#X obj 198 8 declare -path SliceJockey/abstractions/;
#X obj -14 46 import hexloader;
#X obj 198 29 declare -path bin/;
#X restore 7 -99 pd libs;
#N canvas 65 142 450 300 tables 0;
#N canvas 145 279 450 300 irTables 0;
#X obj 14 14 table ir1-L;
#X obj 88 14 table ir1-R;
#X obj 14 33 table ir2-L;
#X obj 88 33 table ir2-R;
#X obj 14 53 table ir3-L;
#X obj 88 53 table ir3-R;
#X obj 15 72 table ir4-L;
#X obj 89 72 table ir4-R;
#X obj 15 91 table ir5-L;
#X obj 15 110 table ir6-L;
#X obj 15 130 table ir7-L;
#X obj 16 149 table ir8-L;
#X obj 89 91 table ir5-R;
#X obj 89 110 table ir6-R;
#X obj 89 130 table ir7-R;
#X obj 90 149 table ir8-R;
#X obj 165 14 load ../irResponses ir;
#X restore 9 5 pd irTables;
#X text 88 2 <- all Impulse Response Tables here;
#N canvas 169 208 494 334 globalsamples 0;
#X obj 193 -50 load ../samples sample;
#X obj -13 -51 table sample1-L;
#X obj 84 -51 table sample1-R;
#X obj -13 -30 table sample2-L;
#X obj 84 -10 table sample3-R;
#X obj -13 -10 table sample3-L;
#X obj 84 -30 table sample2-R;
#X obj 193 -14 print;
#X obj 330 20 s sample-list;
#X obj 330 -3 prepend add;
#X connect 0 0 7 0;
#X connect 0 0 9 0;
#X connect 9 0 8 0;
#X restore 9 24 pd globalsamples;
#X text 116 23 <-all other samples here;
#X restore 7 -79 pd tables;
#X obj 148 242 dac~ 1 2;
#X obj 221 111 throw~ main-L;
#X obj 306 111 throw~ main-R;
#N canvas 360 322 450 300 input 0;
#X obj -21 -13 inlet~;
#X obj 101 -11 inlet~;
#X obj -21 97 send~ input1;
#X obj 102 17 send~ input2;
#X msg 201 181 /home/morast/Documents/samples/cello.wav;
#X obj 201 204 player~;
#X obj 201 133 r set;
#X obj 201 157 t b;
#X obj -20 35 hip~ 60;
#X floatatom 28 6 5 0 0 0 - - -;
#X connect 0 0 8 0;
#X connect 1 0 3 0;
#X connect 4 0 5 0;
#X connect 5 0 2 0;
#X connect 6 0 7 0;
#X connect 7 0 4 0;
#X connect 8 0 2 0;
#X connect 9 0 8 1;
#X restore 118 15 pd input;
#X obj 119 -9 adc~ 1 2;
#X obj 147 161 catch~ main-L;
#X obj 240 161 catch~ main-R;
#X obj 54 35 receive~ input1;
#X obj 152 35 receive~ input2;
#N canvas 174 182 521 287 inputAnalyzer 0;
#X obj 19 79 inlet~;
#X obj 377 81 inlet~;
#X obj 134 117 pitchTracker;
#X obj 19 139 s celloNote;
#X obj 118 158 s cellodB;
#X obj 88 -33 r offThresh1;
#X obj 61 -74 r AttackThresh1;
#X obj 121 9 r Wait1;
#X obj 130 52 r Smooth1;
#X obj 19 117 envelope_follower;
#X msg 61 -53 attackThresh \$1;
#X msg 88 -10 offThresh \$1;
#X msg 130 74 smooth \$1;
#X msg 120 32 wait \$1;
#X obj 223 119 env~;
#X obj 223 145 s celloEnv;
#X obj 377 118 env~;
#X obj 377 144 s objectEnv;
#X connect 0 0 2 0;
#X connect 0 0 9 0;
#X connect 0 0 14 0;
#X connect 1 0 16 0;
#X connect 5 0 11 0;
#X connect 6 0 10 0;
#X connect 7 0 13 0;
#X connect 8 0 12 0;
#X connect 9 0 3 0;
#X connect 9 1 4 0;
#X connect 10 0 9 1;
#X connect 11 0 9 1;
#X connect 12 0 9 1;
#X connect 13 0 9 1;
#X connect 14 0 15 0;
#X connect 16 0 17 0;
#X restore 55 57 pd inputAnalyzer -;
#X obj 148 202 tb_peakcomp~ -10 8 10 100 0;
#N canvas 706 97 650 686 record 0;
#X obj 15 335 writesf~ 2;
#X msg 210 95 bang;
#X obj 207 143 date GTM;
#X msg 137 -33 umoi;
#X obj 262 144 time GTM;
#X obj 65 61 t a b;
#X obj 65 189 sprintf %s_%i-%i-%i_%i:%i;
#X obj 65 26 sprintf %s%s;
#X msg 65 -34 session/;
#X obj 112 -85 t b b;
#X obj 65 254 sprintf %s%s;
#X msg 135 220 .wav;
#X obj 65 212 t a b;
#X obj 65 282 prepend open;
#X msg 47 -94 start;
#X obj 95 -127 t b b;
#X obj 161 -144 sel 1 0;
#X msg 185 -97 stop;
#X obj 274 -161 inlet;
#X obj 15 -156 inlet~;
#X obj 71 -156 inlet~;
#X connect 1 0 2 0;
#X connect 1 0 4 0;
#X connect 2 0 6 1;
#X connect 2 1 6 2;
#X connect 2 2 6 3;
#X connect 3 0 7 1;
#X connect 4 0 6 4;
#X connect 4 1 6 5;
#X connect 5 0 6 0;
#X connect 5 1 1 0;
#X connect 6 0 12 0;
#X connect 7 0 5 0;
#X connect 8 0 7 0;
#X connect 9 0 8 0;
#X connect 9 1 3 0;
#X connect 10 0 13 0;
#X connect 11 0 10 1;
#X connect 12 0 10 0;
#X connect 12 1 11 0;
#X connect 13 0 0 0;
#X connect 14 0 0 0;
#X connect 15 0 14 0;
#X connect 15 1 9 0;
#X connect 16 0 15 0;
#X connect 16 1 17 0;
#X connect 17 0 0 0;
#X connect 18 0 16 0;
#X connect 19 0 0 0;
#X connect 20 0 0 1;
#X restore 208 242 pd record;
#X obj 259 223 tgl 15 0 empty empty empty 17 7 0 10 -258113 -1 -1 0
1;
#N canvas 546 276 450 300 mididev 0;
#X floatatom 38 90 5 0 0 0 - - -;
#X floatatom 60 120 5 0 0 0 - - -;
#X obj 38 52 notein 0;
#X obj 39 214 s fcb;
#X obj 60 146 / 100;
#X obj 38 182 spigot;
#X obj 248 167 s;
#X obj 248 51 ctlin;
#X obj 261 112 pack;
#X msg 261 144 symbol nano\$2-\$1;
#X text 221 33 Korg Nano Page;
#X obj 275 80 moses 5;
#X floatatom 117 89 5 0 0 0 - - -;
#X obj 117 231 s;
#X obj 129 164 spigot;
#X obj 143 127 == 17;
#X msg 147 208 symbol fcbCC-\$1;
#X obj 116 52 ctlin;
#X text 109 34 FCB Pedals;
#X text 34 32 FCB Buttons;
#N canvas 907 295 450 300 midi-monitor 0;
#X obj 18 11 notein;
#X obj 144 19 ctlin;
#X floatatom 224 70 5 0 0 0 - - -;
#X floatatom 191 69 5 0 0 0 - - -;
#X floatatom 148 70 5 0 0 0 - - -;
#X floatatom 17 75 5 0 0 0 - - -;
#X floatatom 64 74 5 0 0 0 - - -;
#X floatatom 105 75 5 0 0 0 - - -;
#X connect 0 0 5 0;
#X connect 0 1 6 0;
#X connect 0 2 7 0;
#X connect 1 0 4 0;
#X connect 1 1 3 0;
#X connect 1 2 2 0;
#X restore 297 222 pd midi-monitor;
#X connect 0 0 5 0;
#X connect 1 0 4 0;
#X connect 2 0 0 0;
#X connect 2 1 1 0;
#X connect 4 0 5 1;
#X connect 5 0 3 0;
#X connect 7 0 6 0;
#X connect 7 1 8 0;
#X connect 7 2 11 0;
#X connect 8 0 9 0;
#X connect 9 0 6 1;
#X connect 11 1 8 1;
#X connect 12 0 13 0;
#X connect 14 0 16 0;
#X connect 15 0 14 1;
#X connect 16 0 13 1;
#X connect 17 0 12 0;
#X connect 17 1 14 0;
#X connect 17 2 15 0;
#X restore 7 -58 pd mididev;
#N canvas 713 361 375 310 globalticks 0;
#X obj 78 221 s globalticks;
#N canvas 178 184 345 423 generate-ticks 0;
#X obj 32 98 tgl 15 1 empty empty empty 17 7 0 10 -262144 -1 -1 1 1
;
#X obj 32 146 metro;
#N canvas 982 160 208 259 milliseconds 0;
#X obj 19 18 inlet;
#X obj 19 199 outlet;
#X obj 19 46 t b f;
#X obj 19 170 /;
#X msg 69 77 15000;
#X msg 113 77 20000;
#X obj 19 147 f 15000;
#X obj 69 103 t b f;
#X obj 69 43 sel 0 1;
#X text 19 225 1/16 or 1/12 note;
#X obj 69 17 r \$0-timesignature;
#X floatatom 96 135 5 0 0 0 - - -;
#X connect 0 0 2 0;
#X connect 2 0 6 0;
#X connect 2 1 3 1;
#X connect 3 0 1 0;
#X connect 4 0 7 0;
#X connect 5 0 7 0;
#X connect 6 0 3 0;
#X connect 7 0 6 0;
#X connect 7 1 11 0;
#X connect 7 1 6 1;
#X connect 8 0 4 0;
#X connect 8 1 5 0;
#X connect 10 0 8 0;
#X restore 59 97 pd milliseconds;
#X floatatom 76 121 8 0 0 0 - - -;
#X obj 32 193 +;
#X obj 73 146 s ticklength;
#X obj 32 376 outlet;
#X obj 32 170 f 1;
#N canvas 298 510 316 238 ticksort 0;
#X obj 27 60 t f f;
#X obj 27 27 inlet;
#X obj 27 117 pack;
#X text 25 6 ticks;
#X obj 27 88 & 3;
#X obj 27 143 route 0 1 2 3;
#X obj 27 175 outlet;
#X obj 73 175 outlet;
#X obj 122 175 outlet;
#X obj 170 175 outlet;
#X obj 242 175 outlet;
#X text 28 199 first;
#X text 72 199 second;
#X text 121 199 third;
#X text 168 199 fourth;
#X text 240 198 index;
#X connect 0 0 4 0;
#X connect 0 1 2 1;
#X connect 1 0 0 0;
#X connect 2 0 5 0;
#X connect 4 0 2 0;
#X connect 4 0 10 0;
#X connect 5 0 6 0;
#X connect 5 1 7 0;
#X connect 5 2 8 0;
#X connect 5 3 9 0;
#X restore 32 319 pd ticksort;
#N canvas 573 498 515 163 tickdelays 0;
#X obj 21 15 inlet;
#X obj 21 88 pipe;
#X obj 202 125 outlet;
#X obj 106 14 inlet;
#X obj 106 87 pipe;
#X obj 202 15 inlet;
#X obj 202 88 pipe;
#X obj 287 15 inlet;
#X obj 287 88 pipe;
#N canvas 698 484 303 226 sambagroove 0;
#X obj 32 7 r ticklength;
#X obj 181 28 sel 1;
#X msg 181 56 0;
#X obj 32 30 t b f;
#X obj 19 69 *;
#X obj 19 98 spigot;
#X obj 141 28 t b f;
#X obj 19 -17 r \$0-groove;
#X obj 141 -18 r \$0-groovetype;
#X obj 19 164 s \$0-tickdelay0;
#X obj 35 131 s \$0-tickdelay1;
#X obj 181 125 s \$0-tickdelay2;
#X obj 195 94 s \$0-tickdelay3;
#X connect 0 0 3 0;
#X connect 1 0 2 0;
#X connect 2 0 11 0;
#X connect 2 0 12 0;
#X connect 3 0 4 0;
#X connect 3 1 4 1;
#X connect 4 0 5 0;
#X connect 5 0 9 0;
#X connect 5 0 10 0;
#X connect 6 0 4 0;
#X connect 6 1 5 1;
#X connect 7 0 4 0;
#X connect 8 0 1 0;
#X connect 8 0 6 0;
#X restore 385 93 pd sambagroove;
#N canvas 823 242 346 186 tripletgroove 0;
#X obj 37 15 r ticklength;
#X msg 213 65 0;
#X obj 37 38 t b f;
#X obj 24 77 *;
#X obj 24 106 spigot;
#X obj 146 36 t b f;
#X obj 213 36 sel 0;
#X obj 173 65 == 0;
#X obj 24 -10 r \$0-groove;
#X obj 146 -10 r \$0-groovetype;
#X obj 24 153 s \$0-tickdelay1;
#X obj 44 131 s \$0-tickdelay3;
#X obj 213 134 s \$0-tickdelay0;
#X obj 225 101 s \$0-tickdelay2;
#X connect 0 0 2 0;
#X connect 1 0 12 0;
#X connect 1 0 13 0;
#X connect 2 0 3 0;
#X connect 2 1 3 1;
#X connect 3 0 4 0;
#X connect 4 0 10 0;
#X connect 4 0 11 0;
#X connect 5 0 3 0;
#X connect 5 1 7 0;
#X connect 6 0 1 0;
#X connect 7 0 4 1;
#X connect 8 0 3 0;
#X connect 9 0 5 0;
#X connect 9 0 6 0;
#X restore 386 21 pd tripletgroove;
#X floatatom 56 89 5 0 0 0 - - -;
#X floatatom 141 89 5 0 0 0 - - -;
#X floatatom 234 88 5 0 0 0 - - -;
#X floatatom 320 89 5 0 0 0 - - -;
#X obj 42 39 r \$0-tickdelay0;
#X obj 127 61 r \$0-tickdelay1;
#X obj 223 38 r \$0-tickdelay2;
#X obj 308 61 r \$0-tickdelay3;
#X connect 0 0 1 0;
#X connect 1 0 2 0;
#X connect 3 0 4 0;
#X connect 4 0 2 0;
#X connect 5 0 6 0;
#X connect 6 0 2 0;
#X connect 7 0 8 0;
#X connect 8 0 2 0;
#X connect 15 0 1 1;
#X connect 15 0 11 0;
#X connect 16 0 4 1;
#X connect 16 0 12 0;
#X connect 17 0 6 1;
#X connect 17 0 13 0;
#X connect 18 0 8 1;
#X connect 18 0 14 0;
#X restore 32 350 pd tickdelays;
#X obj 64 193 r \$0-set-one;
#X text 119 349 << groove;
#X obj 32 290 tabread \$0-commontime;
#X obj 185 225 symbol \$0-sixquavers;
#X msg 166 250 set \$1;
#X obj 166 202 symbol \$0-commontime;
#X obj 166 146 r \$0-timesignature;
#X obj 32 248 mod 192;
#X obj 59 15 inlet;
#X obj 166 175 sel 0 1;
#X text 68 41 if zero \, set metro off;
#X text 99 16 BPM;
#X obj 32 67 change;
#X obj 32 42 != 0;
#X msg 64 218 0;
#X floatatom 50 219 5 0 0 0 - - -;
#X floatatom 88 220 5 0 0 0 - - -;
#X connect 0 0 1 0;
#X connect 1 0 7 0;
#X connect 2 0 1 1;
#X connect 2 0 3 0;
#X connect 2 0 5 0;
#X connect 4 0 17 0;
#X connect 4 0 25 0;
#X connect 7 0 4 0;
#X connect 8 0 9 0;
#X connect 8 1 9 1;
#X connect 8 2 9 2;
#X connect 8 3 9 3;
#X connect 9 0 6 0;
#X connect 10 0 24 0;
#X connect 12 0 8 0;
#X connect 12 0 26 0;
#X connect 13 0 14 0;
#X connect 14 0 12 0;
#X connect 15 0 14 0;
#X connect 16 0 19 0;
#X connect 17 0 4 1;
#X connect 17 0 12 0;
#X connect 18 0 2 0;
#X connect 18 0 23 0;
#X connect 19 0 15 0;
#X connect 19 1 13 0;
#X connect 19 2 15 0;
#X connect 22 0 0 0;
#X connect 23 0 22 0;
#X connect 24 0 17 0;
#X restore 78 152 pd generate-ticks;
#N canvas 539 155 297 177 tick-tables 0;
#X obj 31 18 loadbang;
#N canvas 65 110 246 266 commontime 0;
#X obj 30 209 table \$0-commontime 256;
#X obj 31 175 tabwrite \$0-commontime;
#X obj 31 142 t f f;
#X obj 31 86 bng 15 250 50 0 empty empty empty 17 7 0 10 -262144 -1
-1;
#X obj 31 53 inlet;
#X obj 31 114 iterate 256;
#X connect 2 0 1 0;
#X connect 2 1 1 1;
#X connect 3 0 5 0;
#X connect 4 0 3 0;
#X connect 5 0 2 0;
#X restore 31 100 pd commontime;
#N canvas 748 33 413 471 sixquavers 0;
#X obj 27 38 inlet;
#X obj 27 66 bng 15 250 50 0 empty empty empty 17 7 0 10 -262144 -1
-1;
#X obj 27 272 tabwrite \$0-sixquavers;
#X obj 27 122 t b f;
#X obj 156 246 +;
#X obj 27 191 unpack;
#X obj 224 243 s \$0-sixquavers;
#X msg 224 215 arrayviewlistnew;
#X obj 171 221 * 12;
#X obj 27 245 +;
#X obj 42 220 * 16;
#X obj 224 272 table \$0-sixquavers 192;
#X msg 27 151 0 0 \, 1 1 \, 2 2 \, 4 3 \, 5 4 \, 6 5 \, 8 6 \, 9 7
\, 10 8 \, 12 9 \, 13 10 \, 14 11;
#X obj 27 364 hradio 15 1 0 3 empty empty empty 0 -8 0 10 -262144 -262144
-1 0;
#X obj 77 364 hradio 15 1 0 3 empty empty empty 0 -8 0 10 -262144 -262144
-1 0;
#X obj 126 364 hradio 15 1 0 3 empty empty empty 0 -8 0 10 -262144
-262144 -1 0;
#X obj 176 364 hradio 15 1 0 3 empty empty empty 0 -8 0 10 -262144
-262144 -1 0;
#X obj 28 391 hradio 15 1 0 1 empty empty empty 0 -8 0 10 -262144 -262144
-1 0;
#X obj 58 391 hradio 15 1 0 1 empty empty empty 0 -8 0 10 -262144 -262144
-1 0;
#X obj 77 391 hradio 15 1 0 1 empty empty empty 0 -8 0 10 -262144 -262144
-1 0;
#X obj 107 391 hradio 15 1 0 1 empty empty empty 0 -8 0 10 -262144
-262144 -1 0;
#X obj 127 391 hradio 15 1 0 1 empty empty empty 0 -8 0 10 -262144
-262144 -1 0;
#X obj 157 391 hradio 15 1 0 1 empty empty empty 0 -8 0 10 -262144
-262144 -1 0;
#X obj 176 391 hradio 15 1 0 1 empty empty empty 0 -8 0 10 -262144
-262144 -1 0;
#X obj 206 391 hradio 15 1 0 1 empty empty empty 0 -8 0 10 -262144
-262144 -1 0;
#X obj 28 417 hradio 15 1 0 1 empty empty empty 0 -8 0 10 -262144 -262144
-1 0;
#X obj 78 417 hradio 15 1 0 1 empty empty empty 0 -8 0 10 -262144 -262144
-1 0;
#X obj 127 416 hradio 15 1 0 1 empty empty empty 0 -8 0 10 -262144
-262144 -1 0;
#X obj 177 416 hradio 15 1 0 1 empty empty empty 0 -8 0 10 -262144
-262144 -1 0;
#X text 26 334 it is 12/16 really:;
#X text 245 361 semiquavers;
#X text 246 388 quavers;
#X text 247 415 beats;
#X obj 27 91 iterate 16;
#X connect 0 0 1 0;
#X connect 1 0 33 0;
#X connect 3 0 12 0;
#X connect 3 1 8 0;
#X connect 3 1 10 0;
#X connect 4 0 2 1;
#X connect 5 0 9 0;
#X connect 5 1 4 0;
#X connect 7 0 6 0;
#X connect 8 0 4 1;
#X connect 9 0 2 0;
#X connect 10 0 9 1;
#X connect 12 0 5 0;
#X connect 33 0 3 0;
#X restore 122 100 pd sixquavers;
#X connect 0 0 1 0;
#X connect 0 0 2 0;
#X restore 263 24 pd tick-tables;
#X obj 45 57 unpack;
#N canvas 0 22 302 213 label 0;
#X obj 37 34 inlet;
#X obj 37 140 s BPM/grooveguireceive;
#X obj 37 65 makefilename %d;
#X msg 37 105 label \$1;
#X text 35 164 xy-object label;
#X connect 0 0 2 0;
#X connect 2 0 3 0;
#X connect 3 0 1 0;
#X restore 89 121 pd label;
#N canvas 65 97 320 210 BPM 0;
#X obj 36 27 inlet;
#X obj 36 152 outlet;
#X obj 36 88 moses 10;
#X msg 36 115 0;
#X text 77 56 max BPM: 235;
#X text 99 88 if lower than 10 \, set to zero;
#X obj 81 119 s beatsperminute;
#X connect 0 0 2 0;
#X connect 2 0 3 0;
#X connect 2 1 1 0;
#X connect 2 1 6 0;
#X connect 3 0 1 0;
#X restore 78 90 pd BPM;
#X obj 45 271 s \$0-groove;
#X text 126 25 from xy field;
#X obj 45 246 * 0.25;
#X floatatom 222 224 5 0 0 0 - - -;
#X obj 45 25 r groove/BPM;
#X connect 1 0 0 0;
#X connect 1 0 9 0;
#X connect 3 0 8 0;
#X connect 3 1 5 0;
#X connect 5 0 1 0;
#X connect 5 0 4 0;
#X connect 8 0 6 0;
#X connect 10 0 3 0;
#X restore 7 -38 pd globalticks;
#X obj 149 138 catch~ main-mono;
#N canvas 667 126 450 300 midimonitor 0;
#X obj 204 166;
#X floatatom 103 102 5 0 0 0 - - -;
#X floatatom 141 102 5 0 0 0 - - -;
#X floatatom 180 102 5 0 0 0 - - -;
#X obj 123 61 ctlin;
#X connect 4 0 1 0;
#X connect 4 1 2 0;
#X connect 4 2 3 0;
#X coords 0 -1 1 1 115 20 2 100 100;
#X restore 7 -280 pd midimonitor;
#N canvas 289 82 650 686 scene1 0;
#N canvas 65 54 1301 714 wind 0;
#X obj 449 132 *~;
#X obj 785 83 +~ 1000;
#X obj 785 63 *~ 1000;
#X msg 824 107 60;
#X obj 297 -150 noise~;
#X obj 744 151 *~;
#N canvas 65 143 175 257 windspeed 0;
#X obj 13 41 +~ 1;
#X obj 12 151 +~;
#X obj 13 64 *~ 0.25;
#X obj 28 129 +~;
#X obj 13 173 clip~ 0 1;
#N canvas 65 110 184 221 squall 0;
#X obj 78 41 noise~;
#X obj 77 108 hip~ 0;
#X obj 78 64 lop~ 3;
#X obj 78 85 lop~ 3;
#X obj 17 112 *~;
#X obj 38 160 *~;
#X obj 16 42 max~ 0.4;
#X obj 16 64 -~ 0.4;
#X obj 16 87 *~ 8;
#X obj 78 129 *~ 20;
#X obj 16 14 inlet~;
#X obj 40 184 outlet~;
#X connect 0 0 2 0;
#X connect 1 0 9 0;
#X connect 2 0 3 0;
#X connect 3 0 1 0;
#X connect 4 0 5 0;
#X connect 5 0 11 0;
#X connect 6 0 7 0;
#X connect 7 0 8 0;
#X connect 8 0 4 0;
#X connect 8 0 4 1;
#X connect 9 0 5 1;
#X connect 10 0 6 0;
#X restore 83 98 pd squall;
#N canvas 65 143 190 244 gust 0;
#X obj 9 15 noise~;
#X obj 8 82 hip~ 0;
#X obj 8 157 *~;
#X obj 76 72 *~;
#X obj 75 49 +~ 0.5;
#X obj 76 96 -~ 0.125;
#X obj 9 59 lop~ 0.5;
#X obj 9 38 lop~ 0.5;
#X obj 9 103 *~ 50;
#X obj 75 9 inlet~;
#X obj 8 182 outlet~;
#X connect 0 0 7 0;
#X connect 1 0 8 0;
#X connect 2 0 10 0;
#X connect 3 0 5 0;
#X connect 4 0 3 0;
#X connect 4 0 3 1;
#X connect 5 0 2 1;
#X connect 6 0 1 0;
#X connect 7 0 6 0;
#X connect 8 0 2 0;
#X connect 9 0 4 0;
#X restore 27 98 pd gust;
#X obj 13 199 outlet~;
#X obj 13 19 osc~ 0.1;
#X connect 0 0 2 0;
#X connect 1 0 4 0;
#X connect 2 0 5 0;
#X connect 2 0 1 0;
#X connect 2 0 6 0;
#X connect 3 0 1 1;
#X connect 4 0 7 0;
#X connect 5 0 3 1;
#X connect 6 0 3 0;
#X connect 8 0 0 0;
#X restore 161 -158 pd windspeed;
#X obj 162 -85 delwrite~ a 3000;
#X obj 745 127 vcf~ 1000 60;
#X obj 760 83 *~;
#X obj 744 172 *~ 2;
#X obj 744 220 throw~ l;
#X obj 808 220 throw~ r;
#X obj 161 -63 catch~ l;
#X obj 225 -63 catch~ r;
#X msg 682 58 60;
#X obj 588 150 *~;
#X obj 589 80 vcf~ 1000 60;
#X obj 605 128 *~;
#X obj 682 38 loadbang;
#X obj 588 220 throw~ l;
#X obj 652 220 throw~ r;
#X obj 628 38 *~ 400;
#X obj 628 58 +~ 600;
#X obj 588 195 fcpan 0.28;
#X obj 744 195 fcpan 0.64;
#X obj 297 -128 s~ white;
#X obj 745 15 r~ white;
#X obj 588 -10 r~ white;
#X obj 588 172 *~ 1.2;
#X obj 604 102 +~ 0.12;
#X obj 873 220 throw~ l;
#X obj 937 220 throw~ r;
#X obj 872 16 r~ white;
#X obj 872 44 max~;
#X obj 872 65 -~;
#X obj 872 87 *~;
#X obj 938 -8 sig~ 1;
#X obj 938 16 -~;
#X obj 873 153 *~;
#X obj 956 -77 +~ 0.3;
#X obj 1003 -29 -~ 0.2;
#X obj 955 -29 *~ 0.4;
#X obj 872 109 hip~ 200;
#X obj 873 131 lop~ 4000;
#X obj 449 235 throw~ l;
#X obj 514 220 throw~ r;
#X obj 449 88 r~ white;
#X obj 527 23 cos~;
#X obj 527 -43 -~ 0.25;
#X obj 527 -65 clip~ 0.25 0.5;
#X obj 527 1 -~ 0.25;
#X obj 527 -21 *~ 2;
#X obj 449 110 bp~ 200 40;
#X obj 449 176 *~;
#X obj 527 111 osc~;
#X obj 527 67 *~ 100;
#X obj 527 89 +~ 20;
#X obj 527 45 lop~ 0.1;
#X obj 317 132 *~;
#X obj 317 238 throw~ l;
#X obj 382 229 throw~ r;
#X obj 317 88 r~ white;
#X obj 395 23 cos~;
#X obj 395 1 -~ 0.25;
#X obj 395 -21 *~ 2;
#X obj 317 176 *~;
#X obj 395 111 osc~;
#X obj 395 -65 clip~ 0.35 0.6;
#X obj 395 -43 -~ 0.35;
#X obj 395 45 lop~ 0.5;
#X obj 317 110 bp~ 400 40;
#X obj 395 67 *~ 200;
#X obj 395 89 +~ 30;
#X obj 317 154 *~ 2;
#X obj 449 154 *~ 2;
#X obj 395 -87 vd~ a 100;
#X obj 527 -106 vd~ a 300;
#X obj 604 11 vd~ a 500;
#X obj 761 36 vd~ a 900;
#X obj 317 198 fcpan 0.91;
#X obj 449 198 fcpan 0.03;
#X obj 160 18 vd~ a 0;
#X obj 177 61 r~ white;
#X obj 183 250 throw~ l;
#X obj 248 250 throw~ r;
#X obj 160 107 *~;
#X obj 183 198 fcpan 0.51;
#X obj 222 125 clip~ 0 0.99;
#X obj 184 153 rzero~;
#X obj 160 40 +~ 0.2;
#X obj 221 103 *~ 0.6;
#X obj 177 82 bp~ 800 1;
#X obj 873 174 *~ 0.8;
#X obj 956 -99 vd~ a 3000;
#X obj 956 -55 lop~ 0.07;
#X obj 184 175 *~ 0.2;
#X text 191 281 buildings;
#X text 402 251 doorways;
#X text 666 251 branches/wires;
#X text 888 250 tree leaves;
#X obj 162 -127 receive~ wind-speed;
#X obj 48 -105 send~ wind-speed;
#X obj 669 -190 hsl 128 15 0 1 0 0 empty empty empty -2 -8 0 10 -262144
-1 -1 0 1;
#X obj 672 -165 sig~;
#X obj 671 -142 lop~ 10;
#X obj 873 195 fcpan 0.4;
#X obj 230 -33 outlet~;
#X obj 161 -33 outlet~;
#X obj 666 -216 inlet;
#X connect 0 0 75 0;
#X connect 1 0 8 1;
#X connect 2 0 1 0;
#X connect 3 0 8 2;
#X connect 4 0 26 0;
#X connect 5 0 10 0;
#X connect 6 0 102 0;
#X connect 8 0 5 0;
#X connect 9 0 5 1;
#X connect 10 0 25 0;
#X connect 13 0 108 0;
#X connect 14 0 107 0;
#X connect 15 0 17 2;
#X connect 16 0 29 0;
#X connect 17 0 16 0;
#X connect 18 0 16 1;
#X connect 19 0 15 0;
#X connect 19 0 3 0;
#X connect 22 0 23 0;
#X connect 23 0 17 1;
#X connect 24 0 20 0;
#X connect 24 1 21 0;
#X connect 25 0 11 0;
#X connect 25 1 12 0;
#X connect 27 0 8 0;
#X connect 28 0 17 0;
#X connect 29 0 24 0;
#X connect 30 0 18 0;
#X connect 30 0 18 1;
#X connect 33 0 34 0;
#X connect 34 0 35 0;
#X connect 35 0 36 0;
#X connect 36 0 43 0;
#X connect 37 0 38 0;
#X connect 38 0 34 1;
#X connect 38 0 35 1;
#X connect 38 0 36 1;
#X connect 39 0 93 0;
#X connect 40 0 95 0;
#X connect 41 0 39 1;
#X connect 42 0 38 1;
#X connect 43 0 44 0;
#X connect 44 0 39 0;
#X connect 47 0 53 0;
#X connect 48 0 58 0;
#X connect 49 0 52 0;
#X connect 50 0 49 0;
#X connect 51 0 48 0;
#X connect 52 0 51 0;
#X connect 53 0 0 0;
#X connect 54 0 81 0;
#X connect 55 0 54 1;
#X connect 56 0 57 0;
#X connect 57 0 55 0;
#X connect 58 0 0 1;
#X connect 58 0 56 0;
#X connect 59 0 74 0;
#X connect 62 0 71 0;
#X connect 63 0 70 0;
#X connect 64 0 63 0;
#X connect 65 0 64 0;
#X connect 66 0 80 0;
#X connect 67 0 66 1;
#X connect 68 0 69 0;
#X connect 69 0 65 0;
#X connect 70 0 59 1;
#X connect 70 0 72 0;
#X connect 71 0 59 0;
#X connect 72 0 73 0;
#X connect 73 0 67 0;
#X connect 74 0 66 0;
#X connect 75 0 54 0;
#X connect 76 0 68 0;
#X connect 77 0 50 0;
#X connect 78 0 22 0;
#X connect 78 0 30 0;
#X connect 79 0 2 0;
#X connect 79 0 9 0;
#X connect 79 0 9 1;
#X connect 80 0 60 0;
#X connect 80 1 61 0;
#X connect 81 0 45 0;
#X connect 81 1 46 0;
#X connect 82 0 90 0;
#X connect 83 0 92 0;
#X connect 86 0 89 0;
#X connect 87 0 84 0;
#X connect 87 1 85 0;
#X connect 88 0 89 1;
#X connect 89 0 96 0;
#X connect 90 0 86 0;
#X connect 90 0 91 0;
#X connect 91 0 88 0;
#X connect 92 0 86 1;
#X connect 93 0 106 0;
#X connect 94 0 40 0;
#X connect 95 0 41 0;
#X connect 95 0 42 0;
#X connect 96 0 87 0;
#X connect 103 0 104 0;
#X connect 104 0 105 0;
#X connect 105 0 7 0;
#X connect 106 0 31 0;
#X connect 106 1 32 0;
#X connect 109 0 103 0;
#X restore -268 35 pd wind;
#X obj -269 72 *~;
#X obj -230 71 *~;
#X obj -148 68 hsl 128 15 0 1 0 0 empty empty empty -2 -8 0 10 -262144
-1 -1 4335 1;
#X obj -268 -71 r objectEnv;
#X obj -268 -51 / 100;
#X obj -268 -11 line;
#X obj -154 13 *;
#X obj -10 -60 r nano5-9;
#X obj -10 -37 / 127;
#X floatatom 1 10 5 0 0 0 - - -;
#X floatatom -99 21 5 0 0 0 - - -;
#X obj -269 112 send~ wind-L;
#X obj -182 113 send~ wind-R;
#X msg -268 -31 \$1 500;
#X obj -151 -30 / 127;
#X obj -151 -53 r nano5-10;
#X obj -207 -8 line;
#X msg -207 -29 \$1 1000;
#X obj -268 14 *;
#X obj -152 42 + 0.1;
#X connect 0 0 1 0;
#X connect 0 1 2 0;
#X connect 1 0 12 0;
#X connect 2 0 13 0;
#X connect 3 0 2 1;
#X connect 3 0 1 1;
#X connect 4 0 5 0;
#X connect 5 0 14 0;
#X connect 5 0 18 0;
#X connect 6 0 19 0;
#X connect 7 0 11 0;
#X connect 7 0 20 0;
#X connect 8 0 9 0;
#X connect 8 0 10 0;
#X connect 9 0 7 1;
#X connect 14 0 6 0;
#X connect 15 0 19 1;
#X connect 16 0 15 0;
#X connect 17 0 7 0;
#X connect 18 0 17 0;
#X connect 19 0 0 0;
#X connect 20 0 3 0;
#X restore 54 84 pd scene1;
#X obj 53 111 throw~ main-L;
#X obj 138 111 throw~ main-R;
#N canvas 706 82 650 686 SliceJockey 0;
#X obj 12 232 receive~ input2;
#X obj 0 536 *~;
#X obj 95 527 *~;
#X obj 203 532 *~;
#X obj 191 444 vsl 15 40 0 1 0 0 empty empty empty 0 -9 0 10 -262144
-1 -1 0 1;
#X obj 110 444 vsl 15 40 0 1 0 0 empty empty empty 0 -9 0 10 -262144
-1 -1 0 1;
#X obj 15 444 vsl 15 40 0 1 0 0 empty empty empty 0 -9 0 10 -262144
-1 -1 0 1;
#X obj 272 509 *~;
#X obj 367 525 *~;
#X obj 445 526 *~;
#X obj 376 444 vsl 15 40 0 1 0 0 empty empty empty 0 -9 0 10 -262144
-1 -1 0 1;
#X obj 281 442 vsl 15 40 0 1 0 0 empty empty empty 0 -9 0 10 -262144
-1 -1 0 1;
#X obj 455 444 vsl 15 40 0 1 0 0 empty empty empty 0 -9 0 10 -262144
-1 -1 0 1;
#X obj 273 231 receive~ input2;
#X obj 455 557 / 127;
#N canvas 182 284 619 300 control 0;
#X obj 489 228 outlet;
#X obj 485 32 r nano6-48;
#X obj 485 56 sel 127;
#X msg 483 108 input \$1;
#X obj 483 81 tgl 15 0 empty empty empty 17 7 0 10 -262144 -1 -1 0
1;
#X msg 558 98 clear;
#X obj 564 34 r nano6-44;
#X msg 630 58 pttrfwd;
#X msg 630 136 pttrbwd;
#X obj 634 12 sel 127;
#X obj 657 112 sel 127;
#X obj 388 110 r groove/BPM;
#X obj 388 133 unpack;
#X msg 421 157 bpm \$1;
#X obj 634 83 r nano6-26;
#X obj 634 -22 r nano6-35;
#X obj 361 57 r slicer3;
#X connect 1 0 2 0;
#X connect 2 0 4 0;
#X connect 3 0 0 0;
#X connect 4 0 3 0;
#X connect 5 0 0 0;
#X connect 6 0 5 0;
#X connect 7 0 0 0;
#X connect 8 0 0 0;
#X connect 9 0 7 0;
#X connect 10 0 8 0;
#X connect 11 0 12 0;
#X connect 12 1 13 0;
#X connect 13 0 0 0;
#X connect 14 0 10 0;
#X connect 15 0 9 0;
#X connect 16 0 0 0;
#X restore 716 237 pd control;
#N canvas 261 157 990 489 nanoKontrol 0;
#X obj 239 -48 pack f f;
#X obj 272 -74 t b f;
#X floatatom 239 -89 5 0 0 0 - - -;
#X floatatom 273 -102 5 0 0 0 - - -;
#X obj 239 -11 s squaver1;
#X obj 20 -47 pack f f;
#X obj 38 -71 t b f;
#X floatatom 20 -164 5 0 0 0 - - -;
#X floatatom 38 -90 5 0 0 0 - - -;
#X obj 20 -13 s beat1;
#X obj 125 -49 pack f f;
#X obj 143 -72 t b f;
#X floatatom 125 -157 5 0 0 0 - - -;
#X floatatom 143 -91 5 0 0 0 - - -;
#X obj 125 -11 s quaver1;
#X obj 596 -47 pack f f;
#X obj 614 -66 t b f;
#X floatatom 596 -88 5 0 0 0 - - -;
#X floatatom 639 -88 5 0 0 0 - - -;
#X obj 378 -31 pack f f;
#X obj 416 -53 t b f;
#X floatatom 378 -75 5 0 0 0 - - -;
#X floatatom 417 -81 5 0 0 0 - - -;
#X obj 458 -46 pack f f;
#X obj 476 -72 t b f;
#X floatatom 458 -113 5 0 0 0 - - -;
#X floatatom 476 -92 5 0 0 0 - - -;
#X obj 378 -10 s beat2;
#X obj 458 -10 s quaver2;
#X obj 596 -15 s squaver2;
#X msg 667 -146 0.7;
#X msg 698 -145 0.9;
#X msg 634 -146 0.8;
#X obj 239 -134 / 127;
#X obj 143 -113 / 127;
#X obj 38 -120 / 127;
#X obj 378 -100 / 127;
#X obj 458 -135 / 127;
#X obj 596 -145 / 127;
#X obj 596 -170 r nano5-14;
#X obj 458 -161 r nano5-13;
#X obj 378 -126 r nano5-12;
#X obj 239 -159 r nano5-11;
#X obj 143 -135 r nano5-10;
#X obj 38 -146 r nano5-9;
#X obj 346 -251 loadbang;
#X msg 346 -217 0.5;
#X connect 0 0 4 0;
#X connect 1 0 0 0;
#X connect 1 1 0 1;
#X connect 2 0 0 0;
#X connect 3 0 1 0;
#X connect 5 0 9 0;
#X connect 6 0 5 0;
#X connect 6 1 5 1;
#X connect 7 0 5 0;
#X connect 8 0 6 0;
#X connect 10 0 14 0;
#X connect 11 0 10 0;
#X connect 11 1 10 1;
#X connect 12 0 10 0;
#X connect 13 0 11 0;
#X connect 15 0 29 0;
#X connect 16 0 15 0;
#X connect 16 1 15 1;
#X connect 17 0 15 0;
#X connect 18 0 16 0;
#X connect 19 0 27 0;
#X connect 20 0 19 0;
#X connect 20 1 19 1;
#X connect 21 0 19 0;
#X connect 22 0 20 0;
#X connect 23 0 28 0;
#X connect 24 0 23 0;
#X connect 24 1 23 1;
#X connect 25 0 23 0;
#X connect 26 0 24 0;
#X connect 30 0 17 0;
#X connect 31 0 17 0;
#X connect 32 0 17 0;
#X connect 33 0 2 0;
#X connect 34 0 13 0;
#X connect 35 0 8 0;
#X connect 36 0 21 0;
#X connect 37 0 25 0;
#X connect 38 0 17 0;
#X connect 39 0 38 0;
#X connect 40 0 37 0;
#X connect 41 0 36 0;
#X connect 42 0 33 0;
#X connect 43 0 34 0;
#X connect 44 0 35 0;
#X connect 45 0 46 0;
#X connect 46 0 7 0;
#X connect 46 0 12 0;
#X connect 46 0 2 0;
#X connect 46 0 21 0;
#X connect 46 0 25 0;
#X connect 46 0 17 0;
#X restore 738 260 pd nanoKontrol;
#X obj 506 230 receive~ input2;
#X obj 506 512 *~;
#X obj 602 535 *~;
#X obj 699 532 *~;
#X obj 611 444 vsl 15 40 0 1 0 0 empty empty empty 0 -9 0 10 -262144
-1 -1 0 1;
#X obj 516 442 vsl 15 40 0 1 0 0 empty empty empty 0 -9 0 10 -262144
-1 -1 0 1;
#X obj 678 443 vsl 15 40 0 1 0 0 empty empty empty 0 -9 0 10 -262144
-1 -1 0 1;
#X obj 94 830 send~ \$0-slice1;
#X obj 34 442 r nano6-0;
#X obj 34 463 / 127;
#X obj 130 463 / 127;
#X obj 130 442 r nano6-1;
#X obj 209 463 / 127;
#X obj 209 442 r nano6-2;
#X obj 304 462 / 127;
#X obj 304 441 r nano6-3;
#X obj 396 463 / 127;
#X obj 396 442 r nano6-4;
#X obj 455 534 r nano6-5;
#X obj 538 465 / 127;
#X obj 538 442 r nano6-6;
#X obj 631 520 / 127;
#X obj 631 497 r nano6-7;
#X obj 715 464 / 127;
#X obj 715 441 r nano6-8;
#X obj 94 588 lop~ 44100;
#X obj 163 558 r nano6-9;
#X obj 295 613 lop~ 44100;
#X obj 570 591 lop~ 44100;
#X obj 375 583 r nano6-12;
#X obj 163 578 mtof;
#X obj 375 605 mtof;
#X obj 644 583 mtof;
#X obj 643 562 r nano6-15;
#N canvas 898 122 450 300 slicer1 0;
#X obj 23 231 outlet;
#X obj 144 125 r groove/BPM;
#X obj 144 148 unpack;
#X msg 177 172 bpm \$1;
#X obj 22 57 sel 127;
#X obj 22 33 r nano6-47;
#X msg 23 110 input \$1;
#X obj 22 86 tgl 15 0 empty empty empty 17 7 0 10 -262144 -1 -1 0 1
;
#X msg 94 101 clear;
#X obj 100 37 r nano6-49;
#X msg 177 19 pttrfwd;
#X msg 175 96 pttrbwd;
#X obj 177 -1 sel 127;
#X obj 175 75 sel 127;
#X obj 175 55 r nano6-20;
#X obj 177 -22 r nano6-29;
#X obj 24 -10 r slicer1;
#X connect 1 0 2 0;
#X connect 2 1 3 0;
#X connect 3 0 0 0;
#X connect 4 0 7 0;
#X connect 5 0 4 0;
#X connect 6 0 0 0;
#X connect 7 0 6 0;
#X connect 8 0 0 0;
#X connect 9 0 8 0;
#X connect 10 0 0 0;
#X connect 11 0 0 0;
#X connect 12 0 10 0;
#X connect 13 0 11 0;
#X connect 14 0 13 0;
#X connect 15 0 12 0;
#X connect 16 0 0 0;
#X restore 184 234 pd slicer1;
#N canvas 554 414 450 300 slicer2 0;
#X obj 291 224 outlet;
#X obj 251 56 sel 127;
#X obj 251 32 r nano6-45;
#X msg 251 104 input \$1;
#X obj 251 77 tgl 15 0 empty empty empty 17 7 0 10 -262144 -1 -1 0
1;
#X msg 330 101 clear;
#X obj 336 37 r nano6-46;
#X msg 410 58 pttrfwd;
#X msg 410 141 pttrbwd;
#X obj 412 8 sel 127;
#X obj 410 114 sel 127;
#X obj 154 135 r groove/BPM;
#X obj 154 158 unpack;
#X msg 187 182 bpm \$1;
#X obj 413 -20 r nano6-32;
#X obj 414 83 r nano6-23;
#X obj 123 46 r slicer2;
#X connect 1 0 4 0;
#X connect 2 0 1 0;
#X connect 3 0 0 0;
#X connect 4 0 3 0;
#X connect 5 0 0 0;
#X connect 6 0 5 0;
#X connect 7 0 0 0;
#X connect 8 0 0 0;
#X connect 9 0 7 0;
#X connect 10 0 8 0;
#X connect 11 0 12 0;
#X connect 12 1 13 0;
#X connect 13 0 0 0;
#X connect 14 0 9 0;
#X connect 15 0 10 0;
#X connect 16 0 0 0;
#X restore 416 230 pd slicer2;
#X obj 14 507 lop~ 10;
#X obj 111 503 lop~ 10;
#X obj 214 499 lop~ 10;
#X obj 286 489 lop~ 10;
#X obj 382 496 lop~ 10;
#X obj 454 497 lop~ 10;
#X obj 519 489 lop~ 10;
#X obj 713 505 lop~ 10;
#X obj 555 518 lop~ 10;
#X obj 299 717 send~ \$0-slice2;
#X obj 589 709 send~ \$0-slice3;
#X obj 11 261 slicer 1 0;
#X msg 773 27 cello1;
#X msg 826 28 cello2;
#X msg 885 27 slow1;
#N canvas 631 182 667 470 dropdown 0;
#X obj 101 101 bng 15 250 50 0 empty empty empty 17 7 0 10 -262144
-1 -1;
#X obj 117 101 bng 15 250 50 0 empty empty empty 17 7 0 10 -262144
-1 -1;
#X obj 133 101 bng 15 250 50 0 empty empty empty 17 7 0 10 -262144
-1 -1;
#X obj 148 101 bng 15 250 50 0 empty empty empty 17 7 0 10 -262144
-1 -1;
#X symbolatom 101 101 10 0 0 0 - - -;
#X obj 101 145 tof/pmenu;
#X obj 165 265 outlet;
#X obj 222 114 prepend add;
#X obj 222 78 inlet;
#X obj 219 254 s slicer1;
#X obj 219 228 prepend pattern;
#X obj 269 79 r pattern-list;
#X obj 165 211 symbol;
#X obj 165 101 bng 15 250 50 0 empty empty empty 17 7 0 10 -262144
-1 -1;
#X obj 424 217 t a b;
#X msg 483 255 set;
#X obj 424 162 prepend add2;
#X msg 424 268 shot1;
#X obj 391 313 symbol;
#X obj 334 251 t b b;
#X obj 424 292 prepend symbol;
#X obj 334 222 r loadbang2;
#X obj 165 42 r slice1-pattern1;
#X connect 0 0 5 0;
#X connect 1 0 5 0;
#X connect 2 0 5 0;
#X connect 3 0 5 0;
#X connect 5 1 4 0;
#X connect 5 1 12 1;
#X connect 5 1 16 0;
#X connect 7 0 5 0;
#X connect 8 0 7 0;
#X connect 10 0 9 0;
#X connect 11 0 5 0;
#X connect 12 0 10 0;
#X connect 12 0 6 0;
#X connect 13 0 12 0;
#X connect 14 0 17 0;
#X connect 14 1 15 0;
#X connect 15 0 17 0;
#X connect 16 0 14 0;
#X connect 17 0 20 0;
#X connect 18 0 5 0;
#X connect 19 0 18 0;
#X connect 19 1 17 0;
#X connect 20 0 18 1;
#X connect 21 0 19 0;
#X connect 22 0 13 0;
#X coords 0 -1 1 1 81 18 2 100 100;
#X restore 15 18 pd dropdown;
#X obj 759 62 prepend add2;
#X msg 759 142 cello1 cello2 slow1 heyhouj heyhouj2 tribal1 tribal2
tribal3 shot1 hex hex2;
#X obj 759 87 t b a b;
#X msg 798 118 clear;
#X obj 759 195 s pattern-list;
#X obj 759 166 prepend add;
#X obj 717 115 r loadbang1;
#N canvas 634 177 667 470 dropdown 0;
#X obj 101 101 bng 15 250 50 0 empty empty empty 17 7 0 10 -262144
-1 -1;
#X obj 117 101 bng 15 250 50 0 empty empty empty 17 7 0 10 -262144
-1 -1;
#X obj 133 101 bng 15 250 50 0 empty empty empty 17 7 0 10 -262144
-1 -1;
#X obj 148 101 bng 15 250 50 0 empty empty empty 17 7 0 10 -262144
-1 -1;
#X symbolatom 101 101 10 0 0 0 - - -;
#X obj 101 145 tof/pmenu;
#X obj 165 265 outlet;
#X obj 222 114 prepend add;
#X obj 222 78 inlet;
#X obj 219 254 s slicer1;
#X obj 219 228 prepend pattern;
#X obj 269 79 r pattern-list;
#X obj 165 211 symbol;
#X obj 165 101 bng 15 250 50 0 empty empty empty 17 7 0 10 -262144
-1 -1;
#X obj 424 217 t a b;
#X msg 483 255 set;
#X obj 424 162 prepend add2;
#X msg 424 268 hex;
#X obj 391 313 symbol;
#X obj 334 251 t b b;
#X obj 424 292 prepend symbol;
#X obj 334 222 r loadbang2;
#X obj 165 42 r slice1-pattern2;
#X connect 0 0 5 0;
#X connect 1 0 5 0;
#X connect 2 0 5 0;
#X connect 3 0 5 0;
#X connect 5 1 4 0;
#X connect 5 1 12 1;
#X connect 5 1 16 0;
#X connect 7 0 5 0;
#X connect 8 0 7 0;
#X connect 10 0 9 0;
#X connect 11 0 5 0;
#X connect 12 0 10 0;
#X connect 12 0 6 0;
#X connect 13 0 12 0;
#X connect 14 0 17 0;
#X connect 14 1 15 0;
#X connect 15 0 17 0;
#X connect 16 0 14 0;
#X connect 17 0 20 0;
#X connect 18 0 5 0;
#X connect 19 0 18 0;
#X connect 19 1 17 0;
#X connect 20 0 18 1;
#X connect 21 0 19 0;
#X connect 22 0 13 0;
#X coords 0 -1 1 1 81 18 2 100 100;
#X restore 15 41 pd dropdown;
#N canvas 634 177 667 470 dropdown 0;
#X obj 101 101 bng 15 250 50 0 empty empty empty 17 7 0 10 -262144
-1 -1;
#X obj 117 101 bng 15 250 50 0 empty empty empty 17 7 0 10 -262144
-1 -1;
#X obj 133 101 bng 15 250 50 0 empty empty empty 17 7 0 10 -262144
-1 -1;
#X obj 148 101 bng 15 250 50 0 empty empty empty 17 7 0 10 -262144
-1 -1;
#X symbolatom 101 101 10 0 0 0 - - -;
#X obj 101 145 tof/pmenu;
#X obj 165 265 outlet;
#X obj 222 114 prepend add;
#X obj 222 78 inlet;
#X obj 219 254 s slicer1;
#X obj 219 228 prepend pattern;
#X obj 269 79 r pattern-list;
#X obj 165 211 symbol;
#X obj 165 101 bng 15 250 50 0 empty empty empty 17 7 0 10 -262144
-1 -1;
#X obj 424 217 t a b;
#X msg 483 255 set;
#X obj 424 162 prepend add2;
#X msg 424 268 hex2;
#X obj 391 313 symbol;
#X obj 334 251 t b b;
#X obj 424 292 prepend symbol;
#X obj 334 222 r loadbang2;
#X obj 165 42 r slice1-pattern3;
#X connect 0 0 5 0;
#X connect 1 0 5 0;
#X connect 2 0 5 0;
#X connect 3 0 5 0;
#X connect 5 1 4 0;
#X connect 5 1 12 1;
#X connect 5 1 16 0;
#X connect 7 0 5 0;
#X connect 8 0 7 0;
#X connect 10 0 9 0;
#X connect 11 0 5 0;
#X connect 12 0 10 0;
#X connect 12 0 6 0;
#X connect 13 0 12 0;
#X connect 14 0 17 0;
#X connect 14 1 15 0;
#X connect 15 0 17 0;
#X connect 16 0 14 0;
#X connect 17 0 20 0;
#X connect 18 0 5 0;
#X connect 19 0 18 0;
#X connect 19 1 17 0;
#X connect 20 0 18 1;
#X connect 21 0 19 0;
#X connect 22 0 13 0;
#X coords 0 -1 1 1 81 18 2 100 100;
#X restore 15 65 pd dropdown;
#N canvas 634 177 667 470 dropdown 0;
#X obj 101 101 bng 15 250 50 0 empty empty empty 17 7 0 10 -262144
-1 -1;
#X obj 117 101 bng 15 250 50 0 empty empty empty 17 7 0 10 -262144
-1 -1;
#X obj 133 101 bng 15 250 50 0 empty empty empty 17 7 0 10 -262144
-1 -1;
#X obj 148 101 bng 15 250 50 0 empty empty empty 17 7 0 10 -262144
-1 -1;
#X symbolatom 101 101 10 0 0 0 - - -;
#X obj 101 145 tof/pmenu;
#X obj 165 265 outlet;
#X obj 222 114 prepend add;
#X obj 222 78 inlet;
#X obj 219 254 s slicer1;
#X obj 219 228 prepend pattern;
#X obj 269 79 r pattern-list;
#X obj 165 211 symbol;
#X obj 165 101 bng 15 250 50 0 empty empty empty 17 7 0 10 -262144
-1 -1;
#X obj 424 217 t a b;
#X msg 483 255 set;
#X obj 424 162 prepend add2;
#X msg 424 268 cello2;
#X obj 391 313 symbol;
#X obj 334 251 t b b;
#X obj 424 292 prepend symbol;
#X obj 334 222 r loadbang2;
#X obj 165 42 r slice1-pattern4;
#X connect 0 0 5 0;
#X connect 1 0 5 0;
#X connect 2 0 5 0;
#X connect 3 0 5 0;
#X connect 5 1 4 0;
#X connect 5 1 12 1;
#X connect 5 1 16 0;
#X connect 7 0 5 0;
#X connect 8 0 7 0;
#X connect 10 0 9 0;
#X connect 11 0 5 0;
#X connect 12 0 10 0;
#X connect 12 0 6 0;
#X connect 13 0 12 0;
#X connect 14 0 17 0;
#X connect 14 1 15 0;
#X connect 15 0 17 0;
#X connect 16 0 14 0;
#X connect 17 0 20 0;
#X connect 18 0 5 0;
#X connect 19 0 18 0;
#X connect 19 1 17 0;
#X connect 20 0 18 1;
#X connect 21 0 19 0;
#X connect 22 0 13 0;
#X coords 0 -1 1 1 81 18 2 100 100;
#X restore 15 89 pd dropdown;
#N canvas 631 182 667 470 dropdown 0;
#X obj 101 101 bng 15 250 50 0 empty empty empty 17 7 0 10 -262144
-1 -1;
#X obj 117 101 bng 15 250 50 0 empty empty empty 17 7 0 10 -262144
-1 -1;
#X obj 133 101 bng 15 250 50 0 empty empty empty 17 7 0 10 -262144
-1 -1;
#X obj 148 101 bng 15 250 50 0 empty empty empty 17 7 0 10 -262144
-1 -1;
#X symbolatom 101 101 10 0 0 0 - - -;
#X obj 101 145 tof/pmenu;
#X obj 165 265 outlet;
#X obj 222 114 prepend add;
#X obj 222 78 inlet;
#X obj 219 254 s slicer1;
#X obj 219 228 prepend pattern;
#X obj 269 79 r pattern-list;
#X obj 165 211 symbol;
#X obj 165 101 bng 15 250 50 0 empty empty empty 17 7 0 10 -262144
-1 -1;
#X obj 424 217 t a b;
#X msg 483 255 set;
#X obj 424 162 prepend add2;
#X msg 424 268 cello2;
#X obj 391 313 symbol;
#X obj 334 251 t b b;
#X obj 424 292 prepend symbol;
#X obj 334 222 r loadbang2;
#X obj 165 42 r slice1-pattern5;
#X connect 0 0 5 0;
#X connect 1 0 5 0;
#X connect 2 0 5 0;
#X connect 3 0 5 0;
#X connect 5 1 4 0;
#X connect 5 1 12 1;
#X connect 5 1 16 0;
#X connect 7 0 5 0;
#X connect 8 0 7 0;
#X connect 10 0 9 0;
#X connect 11 0 5 0;
#X connect 12 0 10 0;
#X connect 12 0 6 0;
#X connect 13 0 12 0;
#X connect 14 0 17 0;
#X connect 14 1 15 0;
#X connect 15 0 17 0;
#X connect 16 0 14 0;
#X connect 17 0 20 0;
#X connect 18 0 5 0;
#X connect 19 0 18 0;
#X connect 19 1 17 0;
#X connect 20 0 18 1;
#X connect 21 0 19 0;
#X connect 22 0 13 0;
#X coords 0 -1 1 1 81 18 2 100 100;
#X restore 15 111 pd dropdown;
#N canvas 631 182 667 470 dropdown 0;
#X obj 101 101 bng 15 250 50 0 empty empty empty 17 7 0 10 -262144
-1 -1;
#X obj 117 101 bng 15 250 50 0 empty empty empty 17 7 0 10 -262144
-1 -1;
#X obj 133 101 bng 15 250 50 0 empty empty empty 17 7 0 10 -262144
-1 -1;
#X obj 148 101 bng 15 250 50 0 empty empty empty 17 7 0 10 -262144
-1 -1;
#X symbolatom 101 101 10 0 0 0 - - -;
#X obj 101 145 tof/pmenu;
#X obj 165 265 outlet;
#X obj 222 114 prepend add;
#X obj 222 78 inlet;
#X obj 219 254 s slicer1;
#X obj 219 228 prepend pattern;
#X obj 269 79 r pattern-list;
#X obj 165 211 symbol;
#X obj 165 101 bng 15 250 50 0 empty empty empty 17 7 0 10 -262144
-1 -1;
#X obj 424 217 t a b;
#X msg 483 255 set;
#X obj 424 162 prepend add2;
#X msg 424 268 cello2;
#X obj 391 313 symbol;
#X obj 334 251 t b b;
#X obj 424 292 prepend symbol;
#X obj 334 222 r loadbang2;
#X obj 165 42 r slice1-pattern6;
#X connect 0 0 5 0;
#X connect 1 0 5 0;
#X connect 2 0 5 0;
#X connect 3 0 5 0;
#X connect 5 1 4 0;
#X connect 5 1 12 1;
#X connect 5 1 16 0;
#X connect 7 0 5 0;
#X connect 8 0 7 0;
#X connect 10 0 9 0;
#X connect 11 0 5 0;
#X connect 12 0 10 0;
#X connect 12 0 6 0;
#X connect 13 0 12 0;
#X connect 14 0 17 0;
#X connect 14 1 15 0;
#X connect 15 0 17 0;
#X connect 16 0 14 0;
#X connect 17 0 20 0;
#X connect 18 0 5 0;
#X connect 19 0 18 0;
#X connect 19 1 17 0;
#X connect 20 0 18 1;
#X connect 21 0 19 0;
#X connect 22 0 13 0;
#X coords 0 -1 1 1 81 18 2 100 100;
#X restore 14 132 pd dropdown;
#N canvas 634 177 667 470 dropdown 0;
#X obj 101 101 bng 15 250 50 0 empty empty empty 17 7 0 10 -262144
-1 -1;
#X obj 117 101 bng 15 250 50 0 empty empty empty 17 7 0 10 -262144
-1 -1;
#X obj 133 101 bng 15 250 50 0 empty empty empty 17 7 0 10 -262144
-1 -1;
#X obj 148 101 bng 15 250 50 0 empty empty empty 17 7 0 10 -262144
-1 -1;
#X symbolatom 101 101 10 0 0 0 - - -;
#X obj 101 145 tof/pmenu;
#X obj 165 265 outlet;
#X obj 222 114 prepend add;
#X obj 222 78 inlet;
#X obj 219 254 s slicer1;
#X obj 219 228 prepend pattern;
#X obj 269 79 r pattern-list;
#X obj 165 211 symbol;
#X obj 165 101 bng 15 250 50 0 empty empty empty 17 7 0 10 -262144
-1 -1;
#X obj 424 217 t a b;
#X msg 483 255 set;
#X obj 424 162 prepend add2;
#X msg 424 268 cello2;
#X obj 391 313 symbol;
#X obj 334 251 t b b;
#X obj 424 292 prepend symbol;
#X obj 334 222 r loadbang2;
#X obj 165 42 r slice1-pattern7;
#X connect 0 0 5 0;
#X connect 1 0 5 0;
#X connect 2 0 5 0;
#X connect 3 0 5 0;
#X connect 5 1 4 0;
#X connect 5 1 12 1;
#X connect 5 1 16 0;
#X connect 7 0 5 0;
#X connect 8 0 7 0;
#X connect 10 0 9 0;
#X connect 11 0 5 0;
#X connect 12 0 10 0;
#X connect 12 0 6 0;
#X connect 13 0 12 0;
#X connect 14 0 17 0;
#X connect 14 1 15 0;
#X connect 15 0 17 0;
#X connect 16 0 14 0;
#X connect 17 0 20 0;
#X connect 18 0 5 0;
#X connect 19 0 18 0;
#X connect 19 1 17 0;
#X connect 20 0 18 1;
#X connect 21 0 19 0;
#X connect 22 0 13 0;
#X coords 0 -1 1 1 81 18 2 100 100;
#X restore 14 154 pd dropdown;
#N canvas 634 177 667 470 dropdown 0;
#X obj 101 101 bng 15 250 50 0 empty empty empty 17 7 0 10 -262144
-1 -1;
#X obj 117 101 bng 15 250 50 0 empty empty empty 17 7 0 10 -262144
-1 -1;
#X obj 133 101 bng 15 250 50 0 empty empty empty 17 7 0 10 -262144
-1 -1;
#X obj 148 101 bng 15 250 50 0 empty empty empty 17 7 0 10 -262144
-1 -1;
#X symbolatom 101 101 10 0 0 0 - - -;
#X obj 101 145 tof/pmenu;
#X obj 165 265 outlet;
#X obj 222 114 prepend add;
#X obj 222 78 inlet;
#X obj 219 254 s slicer1;
#X obj 219 228 prepend pattern;
#X obj 269 79 r pattern-list;
#X obj 165 211 symbol;
#X obj 165 101 bng 15 250 50 0 empty empty empty 17 7 0 10 -262144
-1 -1;
#X obj 424 217 t a b;
#X msg 483 255 set;
#X obj 424 162 prepend add2;
#X msg 424 268 cello2;
#X obj 391 313 symbol;
#X obj 334 251 t b b;
#X obj 424 292 prepend symbol;
#X obj 334 222 r loadbang2;
#X obj 165 42 r slice1-pattern8;
#X connect 0 0 5 0;
#X connect 1 0 5 0;
#X connect 2 0 5 0;
#X connect 3 0 5 0;
#X connect 5 1 4 0;
#X connect 5 1 12 1;
#X connect 5 1 16 0;
#X connect 7 0 5 0;
#X connect 8 0 7 0;
#X connect 10 0 9 0;
#X connect 11 0 5 0;
#X connect 12 0 10 0;
#X connect 12 0 6 0;
#X connect 13 0 12 0;
#X connect 14 0 17 0;
#X connect 14 1 15 0;
#X connect 15 0 17 0;
#X connect 16 0 14 0;
#X connect 17 0 20 0;
#X connect 18 0 5 0;
#X connect 19 0 18 0;
#X connect 19 1 17 0;
#X connect 20 0 18 1;
#X connect 21 0 19 0;
#X connect 22 0 13 0;
#X coords 0 -1 1 1 81 18 2 100 100;
#X restore 14 176 pd dropdown;
#N canvas 634 177 667 470 dropdown 0;
#X obj 101 101 bng 15 250 50 0 empty empty empty 17 7 0 10 -262144
-1 -1;
#X obj 117 101 bng 15 250 50 0 empty empty empty 17 7 0 10 -262144
-1 -1;
#X obj 133 101 bng 15 250 50 0 empty empty empty 17 7 0 10 -262144
-1 -1;
#X obj 148 101 bng 15 250 50 0 empty empty empty 17 7 0 10 -262144
-1 -1;
#X symbolatom 101 101 10 0 0 0 - - -;
#X obj 101 145 tof/pmenu;
#X obj 165 265 outlet;
#X obj 222 114 prepend add;
#X obj 222 78 inlet;
#X obj 219 254 s slicer1;
#X obj 219 228 prepend pattern;
#X obj 269 79 r pattern-list;
#X obj 165 211 symbol;
#X obj 165 101 bng 15 250 50 0 empty empty empty 17 7 0 10 -262144
-1 -1;
#X obj 424 217 t a b;
#X msg 483 255 set;
#X obj 424 162 prepend add2;
#X msg 424 268 cello2;
#X obj 391 313 symbol;
#X obj 334 251 t b b;
#X obj 424 292 prepend symbol;
#X obj 334 222 r loadbang2;
#X obj 165 42 r slice1-pattern9;
#X connect 0 0 5 0;
#X connect 1 0 5 0;
#X connect 2 0 5 0;
#X connect 3 0 5 0;
#X connect 5 1 4 0;
#X connect 5 1 12 1;
#X connect 5 1 16 0;
#X connect 7 0 5 0;
#X connect 8 0 7 0;
#X connect 10 0 9 0;
#X connect 11 0 5 0;
#X connect 12 0 10 0;
#X connect 12 0 6 0;
#X connect 13 0 12 0;
#X connect 14 0 17 0;
#X connect 14 1 15 0;
#X connect 15 0 17 0;
#X connect 16 0 14 0;
#X connect 17 0 20 0;
#X connect 18 0 5 0;
#X connect 19 0 18 0;
#X connect 19 1 17 0;
#X connect 20 0 18 1;
#X connect 21 0 19 0;
#X connect 22 0 13 0;
#X coords 0 -1 1 1 81 18 2 100 100;
#X restore 14 197 pd dropdown;
#N canvas 622 197 667 470 dropdown 0;
#X obj 101 101 bng 15 250 50 0 empty empty empty 17 7 0 10 -262144
-1 -1;
#X obj 117 101 bng 15 250 50 0 empty empty empty 17 7 0 10 -262144
-1 -1;
#X obj 133 101 bng 15 250 50 0 empty empty empty 17 7 0 10 -262144
-1 -1;
#X obj 148 101 bng 15 250 50 0 empty empty empty 17 7 0 10 -262144
-1 -1;
#X symbolatom 101 101 10 0 0 0 - - -;
#X obj 101 145 tof/pmenu;
#X obj 165 265 outlet;
#X obj 222 114 prepend add;
#X obj 222 78 inlet;
#X obj 219 228 prepend pattern;
#X obj 269 79 r pattern-list;
#X obj 165 211 symbol;
#X obj 165 101 bng 15 250 50 0 empty empty empty 17 7 0 10 -262144
-1 -1;
#X obj 424 217 t a b;
#X msg 483 255 set;
#X obj 424 162 prepend add2;
#X msg 424 268 cello2;
#X obj 391 313 symbol;
#X obj 334 251 t b b;
#X obj 424 292 prepend symbol;
#X obj 334 222 r loadbang2;
#X obj 165 42 r slice2-pattern1;
#X obj 219 254 s slicer2;
#X connect 0 0 5 0;
#X connect 1 0 5 0;
#X connect 2 0 5 0;
#X connect 3 0 5 0;
#X connect 5 1 4 0;
#X connect 5 1 11 1;
#X connect 5 1 15 0;
#X connect 7 0 5 0;
#X connect 8 0 7 0;
#X connect 9 0 22 0;
#X connect 10 0 5 0;
#X connect 11 0 9 0;
#X connect 11 0 6 0;
#X connect 12 0 11 0;
#X connect 13 0 16 0;
#X connect 13 1 14 0;
#X connect 14 0 16 0;
#X connect 15 0 13 0;
#X connect 16 0 19 0;
#X connect 17 0 5 0;
#X connect 18 0 17 0;
#X connect 18 1 16 0;
#X connect 19 0 17 1;
#X connect 20 0 18 0;
#X connect 21 0 12 0;
#X coords 0 -1 1 1 81 18 2 100 100;
#X restore 274 18 pd dropdown;
#N canvas 625 192 667 470 dropdown 0;
#X obj 101 101 bng 15 250 50 0 empty empty empty 17 7 0 10 -262144
-1 -1;
#X obj 117 101 bng 15 250 50 0 empty empty empty 17 7 0 10 -262144
-1 -1;
#X obj 133 101 bng 15 250 50 0 empty empty empty 17 7 0 10 -262144
-1 -1;
#X obj 148 101 bng 15 250 50 0 empty empty empty 17 7 0 10 -262144
-1 -1;
#X symbolatom 101 101 10 0 0 0 - - -;
#X obj 101 145 tof/pmenu;
#X obj 165 265 outlet;
#X obj 222 114 prepend add;
#X obj 222 78 inlet;
#X obj 219 228 prepend pattern;
#X obj 269 79 r pattern-list;
#X obj 165 211 symbol;
#X obj 165 101 bng 15 250 50 0 empty empty empty 17 7 0 10 -262144
-1 -1;
#X obj 424 217 t a b;
#X msg 483 255 set;
#X obj 424 162 prepend add2;
#X msg 424 268 cello2;
#X obj 391 313 symbol;
#X obj 334 251 t b b;
#X obj 424 292 prepend symbol;
#X obj 334 222 r loadbang2;
#X obj 165 42 r slice2-pattern2;
#X obj 219 254 s slicer2;
#X connect 0 0 5 0;
#X connect 1 0 5 0;
#X connect 2 0 5 0;
#X connect 3 0 5 0;
#X connect 5 1 4 0;
#X connect 5 1 11 1;
#X connect 5 1 15 0;
#X connect 7 0 5 0;
#X connect 8 0 7 0;
#X connect 9 0 22 0;
#X connect 10 0 5 0;
#X connect 11 0 9 0;
#X connect 11 0 6 0;
#X connect 12 0 11 0;
#X connect 13 0 16 0;
#X connect 13 1 14 0;
#X connect 14 0 16 0;
#X connect 15 0 13 0;
#X connect 16 0 19 0;
#X connect 17 0 5 0;
#X connect 18 0 17 0;
#X connect 18 1 16 0;
#X connect 19 0 17 1;
#X connect 20 0 18 0;
#X connect 21 0 12 0;
#X coords 0 -1 1 1 81 18 2 100 100;
#X restore 274 41 pd dropdown;
#N canvas 628 187 667 470 dropdown 0;
#X obj 101 101 bng 15 250 50 0 empty empty empty 17 7 0 10 -262144
-1 -1;
#X obj 117 101 bng 15 250 50 0 empty empty empty 17 7 0 10 -262144
-1 -1;
#X obj 133 101 bng 15 250 50 0 empty empty empty 17 7 0 10 -262144
-1 -1;
#X obj 148 101 bng 15 250 50 0 empty empty empty 17 7 0 10 -262144
-1 -1;
#X symbolatom 101 101 10 0 0 0 - - -;
#X obj 101 145 tof/pmenu;
#X obj 165 265 outlet;
#X obj 222 114 prepend add;
#X obj 222 78 inlet;
#X obj 219 228 prepend pattern;
#X obj 269 79 r pattern-list;
#X obj 165 211 symbol;
#X obj 165 101 bng 15 250 50 0 empty empty empty 17 7 0 10 -262144
-1 -1;
#X obj 424 217 t a b;
#X msg 483 255 set;
#X obj 424 162 prepend add2;
#X msg 424 268 cello2;
#X obj 391 313 symbol;
#X obj 334 251 t b b;
#X obj 424 292 prepend symbol;
#X obj 334 222 r loadbang2;
#X obj 165 42 r slice2-pattern3;
#X obj 219 254 s slicer2;
#X connect 0 0 5 0;
#X connect 1 0 5 0;
#X connect 2 0 5 0;
#X connect 3 0 5 0;
#X connect 5 1 4 0;
#X connect 5 1 11 1;
#X connect 5 1 15 0;
#X connect 7 0 5 0;
#X connect 8 0 7 0;
#X connect 9 0 22 0;
#X connect 10 0 5 0;
#X connect 11 0 9 0;
#X connect 11 0 6 0;
#X connect 12 0 11 0;
#X connect 13 0 16 0;
#X connect 13 1 14 0;
#X connect 14 0 16 0;
#X connect 15 0 13 0;
#X connect 16 0 19 0;
#X connect 17 0 5 0;
#X connect 18 0 17 0;
#X connect 18 1 16 0;
#X connect 19 0 17 1;
#X connect 20 0 18 0;
#X connect 21 0 12 0;
#X coords 0 -1 1 1 81 18 2 100 100;
#X restore 274 65 pd dropdown;
#N canvas 628 187 667 470 dropdown 0;
#X obj 101 101 bng 15 250 50 0 empty empty empty 17 7 0 10 -262144
-1 -1;
#X obj 117 101 bng 15 250 50 0 empty empty empty 17 7 0 10 -262144
-1 -1;
#X obj 133 101 bng 15 250 50 0 empty empty empty 17 7 0 10 -262144
-1 -1;
#X obj 148 101 bng 15 250 50 0 empty empty empty 17 7 0 10 -262144
-1 -1;
#X symbolatom 101 101 10 0 0 0 - - -;
#X obj 101 145 tof/pmenu;
#X obj 165 265 outlet;
#X obj 222 114 prepend add;
#X obj 222 78 inlet;
#X obj 219 228 prepend pattern;
#X obj 269 79 r pattern-list;
#X obj 165 211 symbol;
#X obj 165 101 bng 15 250 50 0 empty empty empty 17 7 0 10 -262144
-1 -1;
#X obj 424 217 t a b;
#X msg 483 255 set;
#X obj 424 162 prepend add2;
#X msg 424 268 cello2;
#X obj 391 313 symbol;
#X obj 334 251 t b b;
#X obj 424 292 prepend symbol;
#X obj 334 222 r loadbang2;
#X obj 219 254 s slicer2;
#X obj 165 42 r slice2-pattern4;
#X connect 0 0 5 0;
#X connect 1 0 5 0;
#X connect 2 0 5 0;
#X connect 3 0 5 0;
#X connect 5 1 4 0;
#X connect 5 1 11 1;
#X connect 5 1 15 0;
#X connect 7 0 5 0;
#X connect 8 0 7 0;
#X connect 9 0 21 0;
#X connect 10 0 5 0;
#X connect 11 0 9 0;
#X connect 11 0 6 0;
#X connect 12 0 11 0;
#X connect 13 0 16 0;
#X connect 13 1 14 0;
#X connect 14 0 16 0;
#X connect 15 0 13 0;
#X connect 16 0 19 0;
#X connect 17 0 5 0;
#X connect 18 0 17 0;
#X connect 18 1 16 0;
#X connect 19 0 17 1;
#X connect 20 0 18 0;
#X connect 22 0 12 0;
#X coords 0 -1 1 1 81 18 2 100 100;
#X restore 274 89 pd dropdown;
#N canvas 622 197 667 470 dropdown 0;
#X obj 101 101 bng 15 250 50 0 empty empty empty 17 7 0 10 -262144
-1 -1;
#X obj 117 101 bng 15 250 50 0 empty empty empty 17 7 0 10 -262144
-1 -1;
#X obj 133 101 bng 15 250 50 0 empty empty empty 17 7 0 10 -262144
-1 -1;
#X obj 148 101 bng 15 250 50 0 empty empty empty 17 7 0 10 -262144
-1 -1;
#X symbolatom 101 101 10 0 0 0 - - -;
#X obj 101 145 tof/pmenu;
#X obj 165 265 outlet;
#X obj 222 114 prepend add;
#X obj 222 78 inlet;
#X obj 219 228 prepend pattern;
#X obj 269 79 r pattern-list;
#X obj 165 211 symbol;
#X obj 165 101 bng 15 250 50 0 empty empty empty 17 7 0 10 -262144
-1 -1;
#X obj 424 217 t a b;
#X msg 483 255 set;
#X obj 424 162 prepend add2;
#X msg 424 268 cello2;
#X obj 391 313 symbol;
#X obj 334 251 t b b;
#X obj 424 292 prepend symbol;
#X obj 334 222 r loadbang2;
#X obj 165 42 r slice2-pattern5;
#X obj 219 254 s slicer2;
#X connect 0 0 5 0;
#X connect 1 0 5 0;
#X connect 2 0 5 0;
#X connect 3 0 5 0;
#X connect 5 1 4 0;
#X connect 5 1 11 1;
#X connect 5 1 15 0;
#X connect 7 0 5 0;
#X connect 8 0 7 0;
#X connect 9 0 22 0;
#X connect 10 0 5 0;
#X connect 11 0 9 0;
#X connect 11 0 6 0;
#X connect 12 0 11 0;
#X connect 13 0 16 0;
#X connect 13 1 14 0;
#X connect 14 0 16 0;
#X connect 15 0 13 0;
#X connect 16 0 19 0;
#X connect 17 0 5 0;
#X connect 18 0 17 0;
#X connect 18 1 16 0;
#X connect 19 0 17 1;
#X connect 20 0 18 0;
#X connect 21 0 12 0;
#X coords 0 -1 1 1 81 18 2 100 100;
#X restore 274 111 pd dropdown;
#N canvas 628 187 667 470 dropdown 0;
#X obj 101 101 bng 15 250 50 0 empty empty empty 17 7 0 10 -262144
-1 -1;
#X obj 117 101 bng 15 250 50 0 empty empty empty 17 7 0 10 -262144
-1 -1;
#X obj 133 101 bng 15 250 50 0 empty empty empty 17 7 0 10 -262144
-1 -1;
#X obj 148 101 bng 15 250 50 0 empty empty empty 17 7 0 10 -262144
-1 -1;
#X symbolatom 101 101 10 0 0 0 - - -;
#X obj 101 145 tof/pmenu;
#X obj 165 265 outlet;
#X obj 222 114 prepend add;
#X obj 222 78 inlet;
#X obj 219 228 prepend pattern;
#X obj 269 79 r pattern-list;
#X obj 165 211 symbol;
#X obj 165 101 bng 15 250 50 0 empty empty empty 17 7 0 10 -262144
-1 -1;
#X obj 424 217 t a b;
#X msg 483 255 set;
#X obj 424 162 prepend add2;
#X msg 424 268 cello2;
#X obj 391 313 symbol;
#X obj 334 251 t b b;
#X obj 424 292 prepend symbol;
#X obj 334 222 r loadbang2;
#X obj 219 254 s slicer2;
#X obj 165 42 r slice2-pattern6;
#X connect 0 0 5 0;
#X connect 1 0 5 0;
#X connect 2 0 5 0;
#X connect 3 0 5 0;
#X connect 5 1 4 0;
#X connect 5 1 11 1;
#X connect 5 1 15 0;
#X connect 7 0 5 0;
#X connect 8 0 7 0;
#X connect 9 0 21 0;
#X connect 10 0 5 0;
#X connect 11 0 9 0;
#X connect 11 0 6 0;
#X connect 12 0 11 0;
#X connect 13 0 16 0;
#X connect 13 1 14 0;
#X connect 14 0 16 0;
#X connect 15 0 13 0;
#X connect 16 0 19 0;
#X connect 17 0 5 0;
#X connect 18 0 17 0;
#X connect 18 1 16 0;
#X connect 19 0 17 1;
#X connect 20 0 18 0;
#X connect 22 0 12 0;
#X coords 0 -1 1 1 81 18 2 100 100;
#X restore 273 132 pd dropdown;
#N canvas 631 182 667 470 dropdown 0;
#X obj 101 101 bng 15 250 50 0 empty empty empty 17 7 0 10 -262144
-1 -1;
#X obj 117 101 bng 15 250 50 0 empty empty empty 17 7 0 10 -262144
-1 -1;
#X obj 133 101 bng 15 250 50 0 empty empty empty 17 7 0 10 -262144
-1 -1;
#X obj 148 101 bng 15 250 50 0 empty empty empty 17 7 0 10 -262144
-1 -1;
#X symbolatom 101 101 10 0 0 0 - - -;
#X obj 101 145 tof/pmenu;
#X obj 165 265 outlet;
#X obj 222 114 prepend add;
#X obj 222 78 inlet;
#X obj 219 228 prepend pattern;
#X obj 269 79 r pattern-list;
#X obj 165 211 symbol;
#X obj 165 101 bng 15 250 50 0 empty empty empty 17 7 0 10 -262144
-1 -1;
#X obj 424 217 t a b;
#X msg 483 255 set;
#X obj 424 162 prepend add2;
#X msg 424 268 cello2;
#X obj 391 313 symbol;
#X obj 334 251 t b b;
#X obj 424 292 prepend symbol;
#X obj 334 222 r loadbang2;
#X obj 165 42 r slice2-pattern7;
#X obj 219 254 s slicer2;
#X connect 0 0 5 0;
#X connect 1 0 5 0;
#X connect 2 0 5 0;
#X connect 3 0 5 0;
#X connect 5 1 4 0;
#X connect 5 1 11 1;
#X connect 5 1 15 0;
#X connect 7 0 5 0;
#X connect 8 0 7 0;
#X connect 9 0 22 0;
#X connect 10 0 5 0;
#X connect 11 0 9 0;
#X connect 11 0 6 0;
#X connect 12 0 11 0;
#X connect 13 0 16 0;
#X connect 13 1 14 0;
#X connect 14 0 16 0;
#X connect 15 0 13 0;
#X connect 16 0 19 0;
#X connect 17 0 5 0;
#X connect 18 0 17 0;
#X connect 18 1 16 0;
#X connect 19 0 17 1;
#X connect 20 0 18 0;
#X connect 21 0 12 0;
#X coords 0 -1 1 1 81 18 2 100 100;
#X restore 273 154 pd dropdown;
#N canvas 628 187 667 470 dropdown 0;
#X obj 101 101 bng 15 250 50 0 empty empty empty 17 7 0 10 -262144
-1 -1;
#X obj 117 101 bng 15 250 50 0 empty empty empty 17 7 0 10 -262144
-1 -1;
#X obj 133 101 bng 15 250 50 0 empty empty empty 17 7 0 10 -262144
-1 -1;
#X obj 148 101 bng 15 250 50 0 empty empty empty 17 7 0 10 -262144
-1 -1;
#X symbolatom 101 101 10 0 0 0 - - -;
#X obj 101 145 tof/pmenu;
#X obj 165 265 outlet;
#X obj 222 114 prepend add;
#X obj 222 78 inlet;
#X obj 219 228 prepend pattern;
#X obj 269 79 r pattern-list;
#X obj 165 211 symbol;
#X obj 165 101 bng 15 250 50 0 empty empty empty 17 7 0 10 -262144
-1 -1;
#X obj 424 217 t a b;
#X msg 483 255 set;
#X obj 424 162 prepend add2;
#X msg 424 268 cello2;
#X obj 391 313 symbol;
#X obj 334 251 t b b;
#X obj 424 292 prepend symbol;
#X obj 334 222 r loadbang2;
#X obj 165 42 r slice2-pattern8;
#X obj 219 254 s slicer2;
#X connect 0 0 5 0;
#X connect 1 0 5 0;
#X connect 2 0 5 0;
#X connect 3 0 5 0;
#X connect 5 1 4 0;
#X connect 5 1 11 1;
#X connect 5 1 15 0;
#X connect 7 0 5 0;
#X connect 8 0 7 0;
#X connect 9 0 22 0;
#X connect 10 0 5 0;
#X connect 11 0 9 0;
#X connect 11 0 6 0;
#X connect 12 0 11 0;
#X connect 13 0 16 0;
#X connect 13 1 14 0;
#X connect 14 0 16 0;
#X connect 15 0 13 0;
#X connect 16 0 19 0;
#X connect 17 0 5 0;
#X connect 18 0 17 0;
#X connect 18 1 16 0;
#X connect 19 0 17 1;
#X connect 20 0 18 0;
#X connect 21 0 12 0;
#X coords 0 -1 1 1 81 18 2 100 100;
#X restore 273 176 pd dropdown;
#N canvas 631 182 667 470 dropdown 0;
#X obj 101 101 bng 15 250 50 0 empty empty empty 17 7 0 10 -262144
-1 -1;
#X obj 117 101 bng 15 250 50 0 empty empty empty 17 7 0 10 -262144
-1 -1;
#X obj 133 101 bng 15 250 50 0 empty empty empty 17 7 0 10 -262144
-1 -1;
#X obj 148 101 bng 15 250 50 0 empty empty empty 17 7 0 10 -262144
-1 -1;
#X symbolatom 101 101 10 0 0 0 - - -;
#X obj 101 145 tof/pmenu;
#X obj 165 265 outlet;
#X obj 222 114 prepend add;
#X obj 222 78 inlet;
#X obj 219 228 prepend pattern;
#X obj 269 79 r pattern-list;
#X obj 165 211 symbol;
#X obj 165 101 bng 15 250 50 0 empty empty empty 17 7 0 10 -262144
-1 -1;
#X obj 424 217 t a b;
#X msg 483 255 set;
#X obj 424 162 prepend add2;
#X msg 424 268 cello2;
#X obj 391 313 symbol;
#X obj 334 251 t b b;
#X obj 424 292 prepend symbol;
#X obj 334 222 r loadbang2;
#X obj 165 42 r slice2-pattern9;
#X obj 219 254 s slicer2;
#X connect 0 0 5 0;
#X connect 1 0 5 0;
#X connect 2 0 5 0;
#X connect 3 0 5 0;
#X connect 5 1 4 0;
#X connect 5 1 11 1;
#X connect 5 1 15 0;
#X connect 7 0 5 0;
#X connect 8 0 7 0;
#X connect 9 0 22 0;
#X connect 10 0 5 0;
#X connect 11 0 9 0;
#X connect 11 0 6 0;
#X connect 12 0 11 0;
#X connect 13 0 16 0;
#X connect 13 1 14 0;
#X connect 14 0 16 0;
#X connect 15 0 13 0;
#X connect 16 0 19 0;
#X connect 17 0 5 0;
#X connect 18 0 17 0;
#X connect 18 1 16 0;
#X connect 19 0 17 1;
#X connect 20 0 18 0;
#X connect 21 0 12 0;
#X coords 0 -1 1 1 81 18 2 100 100;
#X restore 273 197 pd dropdown;
#N canvas 616 207 667 470 dropdown 0;
#X obj 101 101 bng 15 250 50 0 empty empty empty 17 7 0 10 -262144
-1 -1;
#X obj 117 101 bng 15 250 50 0 empty empty empty 17 7 0 10 -262144
-1 -1;
#X obj 133 101 bng 15 250 50 0 empty empty empty 17 7 0 10 -262144
-1 -1;
#X obj 148 101 bng 15 250 50 0 empty empty empty 17 7 0 10 -262144
-1 -1;
#X symbolatom 101 101 10 0 0 0 - - -;
#X obj 101 145 tof/pmenu;
#X obj 165 265 outlet;
#X obj 222 114 prepend add;
#X obj 222 78 inlet;
#X obj 219 228 prepend pattern;
#X obj 269 79 r pattern-list;
#X obj 165 211 symbol;
#X obj 165 101 bng 15 250 50 0 empty empty empty 17 7 0 10 -262144
-1 -1;
#X obj 424 217 t a b;
#X msg 483 255 set;
#X obj 424 162 prepend add2;
#X msg 424 268 cello2;
#X obj 391 313 symbol;
#X obj 334 251 t b b;
#X obj 424 292 prepend symbol;
#X obj 334 222 r loadbang2;
#X obj 165 42 r slice3-pattern1;
#X obj 219 254 s slicer3;
#X connect 0 0 5 0;
#X connect 1 0 5 0;
#X connect 2 0 5 0;
#X connect 3 0 5 0;
#X connect 5 1 4 0;
#X connect 5 1 11 1;
#X connect 5 1 15 0;
#X connect 7 0 5 0;
#X connect 8 0 7 0;
#X connect 9 0 22 0;
#X connect 10 0 5 0;
#X connect 11 0 9 0;
#X connect 11 0 6 0;
#X connect 12 0 11 0;
#X connect 13 0 16 0;
#X connect 13 1 14 0;
#X connect 14 0 16 0;
#X connect 15 0 13 0;
#X connect 16 0 19 0;
#X connect 17 0 5 0;
#X connect 18 0 17 0;
#X connect 18 1 16 0;
#X connect 19 0 17 1;
#X connect 20 0 18 0;
#X connect 21 0 12 0;
#X coords 0 -1 1 1 81 18 2 100 100;
#X restore 506 19 pd dropdown;
#N canvas 622 197 667 470 dropdown 0;
#X obj 101 101 bng 15 250 50 0 empty empty empty 17 7 0 10 -262144
-1 -1;
#X obj 117 101 bng 15 250 50 0 empty empty empty 17 7 0 10 -262144
-1 -1;
#X obj 133 101 bng 15 250 50 0 empty empty empty 17 7 0 10 -262144
-1 -1;
#X obj 148 101 bng 15 250 50 0 empty empty empty 17 7 0 10 -262144
-1 -1;
#X symbolatom 101 101 10 0 0 0 - - -;
#X obj 101 145 tof/pmenu;
#X obj 165 265 outlet;
#X obj 222 114 prepend add;
#X obj 222 78 inlet;
#X obj 219 228 prepend pattern;
#X obj 269 79 r pattern-list;
#X obj 165 211 symbol;
#X obj 165 101 bng 15 250 50 0 empty empty empty 17 7 0 10 -262144
-1 -1;
#X obj 424 217 t a b;
#X msg 483 255 set;
#X obj 424 162 prepend add2;
#X msg 424 268 cello2;
#X obj 391 313 symbol;
#X obj 334 251 t b b;
#X obj 424 292 prepend symbol;
#X obj 334 222 r loadbang2;
#X obj 165 42 r slice3-pattern2;
#X obj 219 254 s slicer3;
#X connect 0 0 5 0;
#X connect 1 0 5 0;
#X connect 2 0 5 0;
#X connect 3 0 5 0;
#X connect 5 1 4 0;
#X connect 5 1 11 1;
#X connect 5 1 15 0;
#X connect 7 0 5 0;
#X connect 8 0 7 0;
#X connect 9 0 22 0;
#X connect 10 0 5 0;
#X connect 11 0 9 0;
#X connect 11 0 6 0;
#X connect 12 0 11 0;
#X connect 13 0 16 0;
#X connect 13 1 14 0;
#X connect 14 0 16 0;
#X connect 15 0 13 0;
#X connect 16 0 19 0;
#X connect 17 0 5 0;
#X connect 18 0 17 0;
#X connect 18 1 16 0;
#X connect 19 0 17 1;
#X connect 20 0 18 0;
#X connect 21 0 12 0;
#X coords 0 -1 1 1 81 18 2 100 100;
#X restore 506 42 pd dropdown;
#N canvas 625 192 667 470 dropdown 0;
#X obj 101 101 bng 15 250 50 0 empty empty empty 17 7 0 10 -262144
-1 -1;
#X obj 117 101 bng 15 250 50 0 empty empty empty 17 7 0 10 -262144
-1 -1;
#X obj 133 101 bng 15 250 50 0 empty empty empty 17 7 0 10 -262144
-1 -1;
#X obj 148 101 bng 15 250 50 0 empty empty empty 17 7 0 10 -262144
-1 -1;
#X symbolatom 101 101 10 0 0 0 - - -;
#X obj 101 145 tof/pmenu;
#X obj 165 265 outlet;
#X obj 222 114 prepend add;
#X obj 222 78 inlet;
#X obj 219 228 prepend pattern;
#X obj 269 79 r pattern-list;
#X obj 165 211 symbol;
#X obj 165 101 bng 15 250 50 0 empty empty empty 17 7 0 10 -262144
-1 -1;
#X obj 424 217 t a b;
#X msg 483 255 set;
#X obj 424 162 prepend add2;
#X msg 424 268 cello2;
#X obj 391 313 symbol;
#X obj 334 251 t b b;
#X obj 424 292 prepend symbol;
#X obj 334 222 r loadbang2;
#X obj 165 42 r slice3-pattern3;
#X obj 219 254 s slicer3;
#X connect 0 0 5 0;
#X connect 1 0 5 0;
#X connect 2 0 5 0;
#X connect 3 0 5 0;
#X connect 5 1 4 0;
#X connect 5 1 11 1;
#X connect 5 1 15 0;
#X connect 7 0 5 0;
#X connect 8 0 7 0;
#X connect 9 0 22 0;
#X connect 10 0 5 0;
#X connect 11 0 9 0;
#X connect 11 0 6 0;
#X connect 12 0 11 0;
#X connect 13 0 16 0;
#X connect 13 1 14 0;
#X connect 14 0 16 0;
#X connect 15 0 13 0;
#X connect 16 0 19 0;
#X connect 17 0 5 0;
#X connect 18 0 17 0;
#X connect 18 1 16 0;
#X connect 19 0 17 1;
#X connect 20 0 18 0;
#X connect 21 0 12 0;
#X coords 0 -1 1 1 81 18 2 100 100;
#X restore 506 66 pd dropdown;
#N canvas 625 192 667 470 dropdown 0;
#X obj 101 101 bng 15 250 50 0 empty empty empty 17 7 0 10 -262144
-1 -1;
#X obj 117 101 bng 15 250 50 0 empty empty empty 17 7 0 10 -262144
-1 -1;
#X obj 133 101 bng 15 250 50 0 empty empty empty 17 7 0 10 -262144
-1 -1;
#X obj 148 101 bng 15 250 50 0 empty empty empty 17 7 0 10 -262144
-1 -1;
#X symbolatom 101 101 10 0 0 0 - - -;
#X obj 101 145 tof/pmenu;
#X obj 165 265 outlet;
#X obj 222 114 prepend add;
#X obj 222 78 inlet;
#X obj 219 228 prepend pattern;
#X obj 269 79 r pattern-list;
#X obj 165 211 symbol;
#X obj 165 101 bng 15 250 50 0 empty empty empty 17 7 0 10 -262144
-1 -1;
#X obj 424 217 t a b;
#X msg 483 255 set;
#X obj 424 162 prepend add2;
#X msg 424 268 cello2;
#X obj 391 313 symbol;
#X obj 334 251 t b b;
#X obj 424 292 prepend symbol;
#X obj 334 222 r loadbang2;
#X obj 165 42 r slice3-pattern4;
#X obj 219 254 s slicer3;
#X connect 0 0 5 0;
#X connect 1 0 5 0;
#X connect 2 0 5 0;
#X connect 3 0 5 0;
#X connect 5 1 4 0;
#X connect 5 1 11 1;
#X connect 5 1 15 0;
#X connect 7 0 5 0;
#X connect 8 0 7 0;
#X connect 9 0 22 0;
#X connect 10 0 5 0;
#X connect 11 0 9 0;
#X connect 11 0 6 0;
#X connect 12 0 11 0;
#X connect 13 0 16 0;
#X connect 13 1 14 0;
#X connect 14 0 16 0;
#X connect 15 0 13 0;
#X connect 16 0 19 0;
#X connect 17 0 5 0;
#X connect 18 0 17 0;
#X connect 18 1 16 0;
#X connect 19 0 17 1;
#X connect 20 0 18 0;
#X connect 21 0 12 0;
#X coords 0 -1 1 1 81 18 2 100 100;
#X restore 506 90 pd dropdown;
#N canvas 619 202 667 470 dropdown 0;
#X obj 101 101 bng 15 250 50 0 empty empty empty 17 7 0 10 -262144
-1 -1;
#X obj 117 101 bng 15 250 50 0 empty empty empty 17 7 0 10 -262144
-1 -1;
#X obj 133 101 bng 15 250 50 0 empty empty empty 17 7 0 10 -262144
-1 -1;
#X obj 148 101 bng 15 250 50 0 empty empty empty 17 7 0 10 -262144
-1 -1;
#X symbolatom 101 101 10 0 0 0 - - -;
#X obj 101 145 tof/pmenu;
#X obj 165 265 outlet;
#X obj 222 114 prepend add;
#X obj 222 78 inlet;
#X obj 219 228 prepend pattern;
#X obj 269 79 r pattern-list;
#X obj 165 211 symbol;
#X obj 165 101 bng 15 250 50 0 empty empty empty 17 7 0 10 -262144
-1 -1;
#X obj 424 217 t a b;
#X msg 483 255 set;
#X obj 424 162 prepend add2;
#X msg 424 268 cello2;
#X obj 391 313 symbol;
#X obj 334 251 t b b;
#X obj 424 292 prepend symbol;
#X obj 334 222 r loadbang2;
#X obj 165 42 r slice3-pattern5;
#X obj 219 254 s slicer3;
#X connect 0 0 5 0;
#X connect 1 0 5 0;
#X connect 2 0 5 0;
#X connect 3 0 5 0;
#X connect 5 1 4 0;
#X connect 5 1 11 1;
#X connect 5 1 15 0;
#X connect 7 0 5 0;
#X connect 8 0 7 0;
#X connect 9 0 22 0;
#X connect 10 0 5 0;
#X connect 11 0 9 0;
#X connect 11 0 6 0;
#X connect 12 0 11 0;
#X connect 13 0 16 0;
#X connect 13 1 14 0;
#X connect 14 0 16 0;
#X connect 15 0 13 0;
#X connect 16 0 19 0;
#X connect 17 0 5 0;
#X connect 18 0 17 0;
#X connect 18 1 16 0;
#X connect 19 0 17 1;
#X connect 20 0 18 0;
#X connect 21 0 12 0;
#X coords 0 -1 1 1 81 18 2 100 100;
#X restore 506 112 pd dropdown;
#N canvas 625 192 667 470 dropdown 0;
#X obj 101 101 bng 15 250 50 0 empty empty empty 17 7 0 10 -262144
-1 -1;
#X obj 117 101 bng 15 250 50 0 empty empty empty 17 7 0 10 -262144
-1 -1;
#X obj 133 101 bng 15 250 50 0 empty empty empty 17 7 0 10 -262144
-1 -1;
#X obj 148 101 bng 15 250 50 0 empty empty empty 17 7 0 10 -262144
-1 -1;
#X symbolatom 101 101 10 0 0 0 - - -;
#X obj 101 145 tof/pmenu;
#X obj 165 265 outlet;
#X obj 222 114 prepend add;
#X obj 222 78 inlet;
#X obj 219 228 prepend pattern;
#X obj 269 79 r pattern-list;
#X obj 165 211 symbol;
#X obj 165 101 bng 15 250 50 0 empty empty empty 17 7 0 10 -262144
-1 -1;
#X obj 424 217 t a b;
#X msg 483 255 set;
#X obj 424 162 prepend add2;
#X msg 424 268 cello2;
#X obj 391 313 symbol;
#X obj 334 251 t b b;
#X obj 424 292 prepend symbol;
#X obj 334 222 r loadbang2;
#X obj 165 42 r slice3-pattern6;
#X obj 219 254 s slicer3;
#X connect 0 0 5 0;
#X connect 1 0 5 0;
#X connect 2 0 5 0;
#X connect 3 0 5 0;
#X connect 5 1 4 0;
#X connect 5 1 11 1;
#X connect 5 1 15 0;
#X connect 7 0 5 0;
#X connect 8 0 7 0;
#X connect 9 0 22 0;
#X connect 10 0 5 0;
#X connect 11 0 9 0;
#X connect 11 0 6 0;
#X connect 12 0 11 0;
#X connect 13 0 16 0;
#X connect 13 1 14 0;
#X connect 14 0 16 0;
#X connect 15 0 13 0;
#X connect 16 0 19 0;
#X connect 17 0 5 0;
#X connect 18 0 17 0;
#X connect 18 1 16 0;
#X connect 19 0 17 1;
#X connect 20 0 18 0;
#X connect 21 0 12 0;
#X coords 0 -1 1 1 81 18 2 100 100;
#X restore 505 133 pd dropdown;
#N canvas 628 187 667 470 dropdown 0;
#X obj 101 101 bng 15 250 50 0 empty empty empty 17 7 0 10 -262144
-1 -1;
#X obj 117 101 bng 15 250 50 0 empty empty empty 17 7 0 10 -262144
-1 -1;
#X obj 133 101 bng 15 250 50 0 empty empty empty 17 7 0 10 -262144
-1 -1;
#X obj 148 101 bng 15 250 50 0 empty empty empty 17 7 0 10 -262144
-1 -1;
#X symbolatom 101 101 10 0 0 0 - - -;
#X obj 101 145 tof/pmenu;
#X obj 165 265 outlet;
#X obj 222 114 prepend add;
#X obj 222 78 inlet;
#X obj 219 228 prepend pattern;
#X obj 269 79 r pattern-list;
#X obj 165 211 symbol;
#X obj 165 101 bng 15 250 50 0 empty empty empty 17 7 0 10 -262144
-1 -1;
#X obj 424 217 t a b;
#X msg 483 255 set;
#X obj 424 162 prepend add2;
#X msg 424 268 cello2;
#X obj 391 313 symbol;
#X obj 334 251 t b b;
#X obj 424 292 prepend symbol;
#X obj 334 222 r loadbang2;
#X obj 165 42 r slice3-pattern7;
#X obj 219 254 s slicer3;
#X connect 0 0 5 0;
#X connect 1 0 5 0;
#X connect 2 0 5 0;
#X connect 3 0 5 0;
#X connect 5 1 4 0;
#X connect 5 1 11 1;
#X connect 5 1 15 0;
#X connect 7 0 5 0;
#X connect 8 0 7 0;
#X connect 9 0 22 0;
#X connect 10 0 5 0;
#X connect 11 0 9 0;
#X connect 11 0 6 0;
#X connect 12 0 11 0;
#X connect 13 0 16 0;
#X connect 13 1 14 0;
#X connect 14 0 16 0;
#X connect 15 0 13 0;
#X connect 16 0 19 0;
#X connect 17 0 5 0;
#X connect 18 0 17 0;
#X connect 18 1 16 0;
#X connect 19 0 17 1;
#X connect 20 0 18 0;
#X connect 21 0 12 0;
#X coords 0 -1 1 1 81 18 2 100 100;
#X restore 505 155 pd dropdown;
#N canvas 625 192 667 470 dropdown 0;
#X obj 101 101 bng 15 250 50 0 empty empty empty 17 7 0 10 -262144
-1 -1;
#X obj 117 101 bng 15 250 50 0 empty empty empty 17 7 0 10 -262144
-1 -1;
#X obj 133 101 bng 15 250 50 0 empty empty empty 17 7 0 10 -262144
-1 -1;
#X obj 148 101 bng 15 250 50 0 empty empty empty 17 7 0 10 -262144
-1 -1;
#X symbolatom 101 101 10 0 0 0 - - -;
#X obj 101 145 tof/pmenu;
#X obj 165 265 outlet;
#X obj 222 114 prepend add;
#X obj 222 78 inlet;
#X obj 219 228 prepend pattern;
#X obj 269 79 r pattern-list;
#X obj 165 211 symbol;
#X obj 165 101 bng 15 250 50 0 empty empty empty 17 7 0 10 -262144
-1 -1;
#X obj 424 217 t a b;
#X msg 483 255 set;
#X obj 424 162 prepend add2;
#X msg 424 268 cello2;
#X obj 391 313 symbol;
#X obj 334 251 t b b;
#X obj 424 292 prepend symbol;
#X obj 334 222 r loadbang2;
#X obj 165 42 r slice3-pattern8;
#X obj 219 254 s slicer3;
#X connect 0 0 5 0;
#X connect 1 0 5 0;
#X connect 2 0 5 0;
#X connect 3 0 5 0;
#X connect 5 1 4 0;
#X connect 5 1 11 1;
#X connect 5 1 15 0;
#X connect 7 0 5 0;
#X connect 8 0 7 0;
#X connect 9 0 22 0;
#X connect 10 0 5 0;
#X connect 11 0 9 0;
#X connect 11 0 6 0;
#X connect 12 0 11 0;
#X connect 13 0 16 0;
#X connect 13 1 14 0;
#X connect 14 0 16 0;
#X connect 15 0 13 0;
#X connect 16 0 19 0;
#X connect 17 0 5 0;
#X connect 18 0 17 0;
#X connect 18 1 16 0;
#X connect 19 0 17 1;
#X connect 20 0 18 0;
#X connect 21 0 12 0;
#X coords 0 -1 1 1 81 18 2 100 100;
#X restore 505 177 pd dropdown;
#N canvas 625 192 667 470 dropdown 0;
#X obj 101 101 bng 15 250 50 0 empty empty empty 17 7 0 10 -262144
-1 -1;
#X obj 117 101 bng 15 250 50 0 empty empty empty 17 7 0 10 -262144
-1 -1;
#X obj 133 101 bng 15 250 50 0 empty empty empty 17 7 0 10 -262144
-1 -1;
#X obj 148 101 bng 15 250 50 0 empty empty empty 17 7 0 10 -262144
-1 -1;
#X symbolatom 101 101 10 0 0 0 - - -;
#X obj 101 145 tof/pmenu;
#X obj 165 265 outlet;
#X obj 222 114 prepend add;
#X obj 222 78 inlet;
#X obj 219 228 prepend pattern;
#X obj 269 79 r pattern-list;
#X obj 165 211 symbol;
#X obj 165 101 bng 15 250 50 0 empty empty empty 17 7 0 10 -262144
-1 -1;
#X obj 424 217 t a b;
#X msg 483 255 set;
#X obj 424 162 prepend add2;
#X msg 424 268 cello2;
#X obj 391 313 symbol;
#X obj 334 251 t b b;
#X obj 424 292 prepend symbol;
#X obj 334 222 r loadbang2;
#X obj 219 254 s slicer3;
#X obj 165 42 r slice3-pattern9;
#X connect 0 0 5 0;
#X connect 1 0 5 0;
#X connect 2 0 5 0;
#X connect 3 0 5 0;
#X connect 5 1 4 0;
#X connect 5 1 11 1;
#X connect 5 1 15 0;
#X connect 7 0 5 0;
#X connect 8 0 7 0;
#X connect 9 0 21 0;
#X connect 10 0 5 0;
#X connect 11 0 9 0;
#X connect 11 0 6 0;
#X connect 12 0 11 0;
#X connect 13 0 16 0;
#X connect 13 1 14 0;
#X connect 14 0 16 0;
#X connect 15 0 13 0;
#X connect 16 0 19 0;
#X connect 17 0 5 0;
#X connect 18 0 17 0;
#X connect 18 1 16 0;
#X connect 19 0 17 1;
#X connect 20 0 18 0;
#X connect 22 0 12 0;
#X coords 0 -1 1 1 81 18 2 100 100;
#X restore 505 198 pd dropdown;
#X obj 759 -16 r patterns;
#X obj 272 262 slicer 2 0;
#X obj 505 263 slicer 3 4;
#N canvas 880 167 450 300 increment 0;
#X obj 54 72 + 1;
#X obj 14 71 f;
#X obj 87 72 clip 0 9;
#X msg 13 0 -1;
#X msg 64 2 1;
#X obj 13 27 t b f;
#X obj 68 218 s;
#X msg 87 147 symbol slice1-pattern\$1;
#X obj 87 112 + 1;
#X obj 68 175 t b a;
#X obj 13 -52 inlet;
#X obj 64 -52 inlet;
#X obj 186 106 outlet;
#X connect 0 0 2 0;
#X connect 1 0 0 0;
#X connect 2 0 1 1;
#X connect 2 0 8 0;
#X connect 3 0 5 0;
#X connect 4 0 5 0;
#X connect 5 0 1 0;
#X connect 5 1 0 1;
#X connect 7 0 9 0;
#X connect 8 0 7 0;
#X connect 8 0 12 0;
#X connect 9 0 6 0;
#X connect 9 1 6 1;
#X connect 10 0 3 0;
#X connect 11 0 4 0;
#X restore 113 49 pd increment;
#X floatatom 113 80 5 0 0 0 - - -;
#X obj 113 21 bng 15 250 50 0 empty empty empty 17 7 0 10 -262144 -1
-1;
#X obj 182 21 bng 15 250 50 0 empty empty empty 17 7 0 10 -262144 -1
-1;
#N canvas 877 172 450 300 increment 0;
#X obj 54 72 + 1;
#X obj 14 71 f;
#X obj 87 72 clip 0 9;
#X msg 13 0 -1;
#X msg 64 2 1;
#X obj 13 27 t b f;
#X obj 68 218 s;
#X obj 87 112 + 1;
#X obj 68 175 t b a;
#X obj 13 -52 inlet;
#X obj 64 -52 inlet;
#X obj 186 106 outlet;
#X msg 87 147 symbol slice2-pattern\$1;
#X connect 0 0 2 0;
#X connect 1 0 0 0;
#X connect 2 0 1 1;
#X connect 2 0 7 0;
#X connect 3 0 5 0;
#X connect 4 0 5 0;
#X connect 5 0 1 0;
#X connect 5 1 0 1;
#X connect 7 0 12 0;
#X connect 7 0 11 0;
#X connect 8 0 6 0;
#X connect 8 1 6 1;
#X connect 9 0 3 0;
#X connect 10 0 4 0;
#X connect 12 0 8 0;
#X restore 378 48 pd increment;
#X floatatom 378 79 5 0 0 0 - - -;
#X obj 378 20 bng 15 250 50 0 empty empty empty 17 7 0 10 -262144 -1
-1;
#X obj 447 20 bng 15 250 50 0 empty empty empty 17 7 0 10 -262144 -1
-1;
#N canvas 877 172 450 300 increment 0;
#X obj 54 72 + 1;
#X obj 14 71 f;
#X obj 87 72 clip 0 9;
#X msg 13 0 -1;
#X msg 64 2 1;
#X obj 13 27 t b f;
#X obj 68 218 s;
#X obj 87 112 + 1;
#X obj 68 175 t b a;
#X obj 13 -52 inlet;
#X obj 64 -52 inlet;
#X obj 186 106 outlet;
#X msg 87 147 symbol slice3-pattern\$1;
#X connect 0 0 2 0;
#X connect 1 0 0 0;
#X connect 2 0 1 1;
#X connect 2 0 7 0;
#X connect 3 0 5 0;
#X connect 4 0 5 0;
#X connect 5 0 1 0;
#X connect 5 1 0 1;
#X connect 7 0 12 0;
#X connect 7 0 11 0;
#X connect 8 0 6 0;
#X connect 8 1 6 1;
#X connect 9 0 3 0;
#X connect 10 0 4 0;
#X connect 12 0 8 0;
#X restore 607 56 pd increment;
#X floatatom 607 87 5 0 0 0 - - -;
#X obj 607 28 bng 15 250 50 0 empty empty empty 17 7 0 10 -262144 -1
-1;
#X obj 675 28 bng 15 250 50 0 empty empty empty 17 7 0 10 -262144 -1
-1;
#X connect 0 0 64 0;
#X connect 1 0 42 0;
#X connect 2 0 42 0;
#X connect 3 0 42 0;
#X connect 4 0 55 0;
#X connect 5 0 54 0;
#X connect 6 0 53 0;
#X connect 7 0 44 0;
#X connect 8 0 44 0;
#X connect 9 0 44 0;
#X connect 10 0 57 0;
#X connect 11 0 56 0;
#X connect 12 0 58 0;
#X connect 13 0 103 0;
#X connect 14 0 12 0;
#X connect 15 0 104 1;
#X connect 17 0 104 0;
#X connect 18 0 45 0;
#X connect 19 0 45 0;
#X connect 20 0 45 0;
#X connect 21 0 61 0;
#X connect 22 0 59 0;
#X connect 23 0 60 0;
#X connect 25 0 26 0;
#X connect 26 0 6 0;
#X connect 27 0 5 0;
#X connect 28 0 27 0;
#X connect 29 0 4 0;
#X connect 30 0 29 0;
#X connect 31 0 11 0;
#X connect 32 0 31 0;
#X connect 33 0 10 0;
#X connect 34 0 33 0;
#X connect 35 0 14 0;
#X connect 36 0 22 0;
#X connect 37 0 36 0;
#X connect 38 0 21 0;
#X connect 39 0 38 0;
#X connect 40 0 23 0;
#X connect 41 0 40 0;
#X connect 42 0 24 0;
#X connect 43 0 47 0;
#X connect 44 0 62 0;
#X connect 45 0 63 0;
#X connect 46 0 48 0;
#X connect 47 0 42 1;
#X connect 48 0 44 1;
#X connect 49 0 45 1;
#X connect 50 0 49 0;
#X connect 51 0 64 1;
#X connect 52 0 103 1;
#X connect 53 0 1 1;
#X connect 54 0 2 1;
#X connect 55 0 3 1;
#X connect 56 0 7 1;
#X connect 57 0 8 1;
#X connect 58 0 9 1;
#X connect 59 0 18 1;
#X connect 60 0 20 1;
#X connect 61 0 19 1;
#X connect 64 0 1 0;
#X connect 64 1 2 0;
#X connect 64 2 3 0;
#X connect 65 0 69 0;
#X connect 66 0 69 0;
#X connect 67 0 69 0;
#X connect 69 0 71 0;
#X connect 70 0 74 0;
#X connect 71 0 70 0;
#X connect 71 1 70 0;
#X connect 71 2 72 0;
#X connect 72 0 73 0;
#X connect 74 0 73 0;
#X connect 75 0 70 0;
#X connect 102 0 69 0;
#X connect 103 0 7 0;
#X connect 103 1 8 0;
#X connect 103 2 9 0;
#X connect 104 0 18 0;
#X connect 104 1 19 0;
#X connect 104 2 20 0;
#X connect 105 0 106 0;
#X connect 107 0 105 0;
#X connect 108 0 105 1;
#X connect 109 0 110 0;
#X connect 111 0 109 0;
#X connect 112 0 109 1;
#X connect 113 0 114 0;
#X connect 115 0 113 0;
#X connect 116 0 113 1;
#X coords 0 -1 1 1 700 600 2 10 10;
#X restore 992 -374 pd SliceJockey;
#X floatatom 428 -57 5 0 0 0 - - -;
#X obj 428 36 pack;
#X obj 465 5 t b f;
#X floatatom 466 -17 5 0 0 0 - - -;
#X obj 428 59 s groove/BPM;
#N canvas 65 54 1301 714 mixer 0;
#X obj 151 11 c_stchannel Grain;
#X obj 233 11 c_stchannel Slice;
#X obj 189 11 c_stchannel samples;
#X obj 560 11 c_stchannel Reverb;
#X obj 11 11 c_stchannel IN1;
#X obj 49 11 c_stchannel IN2;
#X obj 50 -227 receive~ input2;
#X obj 12 537 throw~ main-L;
#X obj 20 516 throw~ main-R;
#X obj 50 496 throw~ main-L;
#X obj 58 476 throw~ main-R;
#X obj 152 457 throw~ main-L;
#X obj 160 436 throw~ main-R;
#X obj 190 416 throw~ main-L;
#X obj 198 395 throw~ main-R;
#X obj 561 306 throw~ main-L;
#X obj 569 285 throw~ main-R;
#X obj 12 -247 receive~ input1;
#X obj 150 -206 receive~ cello-grainL;
#X obj 166 -185 receive~ cello-grainR;
#X obj 523 11 c_stchannel delay;
#X obj 227 270 c_tobus reverb;
#X obj 560 -97 catch~ L-reverb;
#X obj 576 -78 catch~ R-reverb;
#X obj 523 348 throw~ main-L;
#X obj 532 327 throw~ main-R;
#X obj 231 377 throw~ main-L;
#X obj 242 356 throw~ main-R;
#X obj 560 -43 rev3~ 100 70;
#X obj 522 -39 e_del mus;
#N canvas 682 87 491 338 init 0;
#X obj 116 99 r groove/BPM;
#X obj 116 126 unpack;
#X msg 149 165 bpm \$1;
#X obj 149 200 outlet;
#X msg 201 166 deltime \$1;
#X msg 171 138 120;
#X msg 318 105 dry 1;
#X obj 318 81 loadbang;
#X msg 292 170 feedback 0.5;
#X obj 245 103 r delaintime;
#X msg 420 164 lag \$1;
#X floatatom 422 124 5 0 0 0 - - -;
#X connect 0 0 1 0;
#X connect 1 1 2 0;
#X connect 2 0 3 0;
#X connect 4 0 3 0;
#X connect 5 0 2 0;
#X connect 6 0 3 0;
#X connect 7 0 6 0;
#X connect 7 0 8 0;
#X connect 8 0 3 0;
#X connect 9 0 4 0;
#X connect 10 0 3 0;
#X connect 11 0 10 0;
#X restore 683 -43 pd init;
#X obj 227 235 c_tobus delain;
#X obj 523 -136 catch~ L-delain;
#X obj 538 -117 catch~ R-delain;
#X obj 539 -17 e_del mus;
#X obj 508 226 c_tobus reverb;
#X obj 191 -106 receive~ \$0L-samples;
#X obj 200 -75 receive~ \$0R-samples;
#X obj 131 248 c_tobus delain;
#X obj 288 10 c_stchannel Slice2;
#X obj 335 10 c_stchannel Slice3;
#X obj 316 273 c_tobus reverb;
#X obj 319 234 c_tobus delain;
#X obj 407 273 c_tobus reverb;
#X obj 407 234 c_tobus delain;
#X obj 234 -161 receive~ \$0-slice1;
#X obj 287 -133 receive~ \$0-slice2;
#X obj 335 -92 receive~ \$0-slice3;
#X obj 326 377 throw~ main-L;
#X obj 337 356 throw~ main-R;
#X obj 417 380 throw~ main-L;
#X obj 428 359 throw~ main-R;
#X obj 380 71 r nano6-10;
#X msg 380 109 send \$1;
#X msg 392 189 send \$1;
#X obj 403 135 r nano6-13;
#X obj 448 66 r nano6-16;
#X msg 448 110 send \$1;
#X obj 380 90 / 127;
#X obj 392 170 / 127;
#X obj 449 90 / 127;
#X obj 757 -84 sig~;
#X obj 753 -117 osc~ 0.1;
#X obj 841 -60 *~;
#X floatatom 857 -94 5 0 0 0 - - -;
#X obj 87 10 c_stchannel wind;
#X obj 77 -165 receive~ wind-L;
#X obj 87 -134 receive~ wind-R;
#X obj 69 402 throw~ main-L;
#X obj 77 382 throw~ main-R;
#X obj 121 -81 r nano5-0;
#N canvas 199 82 450 300 vol 0;
#X obj 49 43 inlet;
#X obj 49 65 / 127;
#X obj 49 88 * 100;
#X msg 49 114 vol \$1;
#X obj 49 136 outlet;
#X connect 0 0 1 0;
#X connect 1 0 2 0;
#X connect 2 0 3 0;
#X connect 3 0 4 0;
#X restore 121 -47 pd vol;
#X connect 0 0 11 0;
#X connect 0 1 12 0;
#X connect 1 0 21 0;
#X connect 1 0 26 0;
#X connect 1 1 21 1;
#X connect 1 1 27 0;
#X connect 1 2 31 0;
#X connect 1 3 31 1;
#X connect 2 0 13 0;
#X connect 2 1 14 0;
#X connect 2 2 38 0;
#X connect 2 3 38 1;
#X connect 3 0 15 0;
#X connect 3 1 16 0;
#X connect 4 0 7 0;
#X connect 4 1 8 0;
#X connect 5 0 9 0;
#X connect 5 1 10 0;
#X connect 6 0 5 0;
#X connect 6 0 5 1;
#X connect 17 0 4 0;
#X connect 17 0 4 1;
#X connect 18 0 0 0;
#X connect 19 0 0 1;
#X connect 20 0 35 0;
#X connect 20 0 24 0;
#X connect 20 1 35 1;
#X connect 20 1 25 0;
#X connect 22 0 28 0;
#X connect 23 0 28 1;
#X connect 28 0 3 0;
#X connect 28 1 3 1;
#X connect 29 0 20 0;
#X connect 30 0 29 2;
#X connect 30 0 34 2;
#X connect 32 0 29 0;
#X connect 33 0 34 0;
#X connect 34 0 20 1;
#X connect 36 0 2 0;
#X connect 37 0 2 1;
#X connect 39 0 48 0;
#X connect 39 1 49 0;
#X connect 39 2 42 0;
#X connect 39 2 41 0;
#X connect 39 3 42 1;
#X connect 39 3 41 1;
#X connect 40 0 50 0;
#X connect 40 1 51 0;
#X connect 40 2 44 0;
#X connect 40 2 43 0;
#X connect 40 3 44 1;
#X connect 40 3 43 1;
#X connect 45 0 1 0;
#X connect 45 0 1 1;
#X connect 46 0 39 0;
#X connect 46 0 39 1;
#X connect 47 0 40 0;
#X connect 47 0 40 1;
#X connect 52 0 58 0;
#X connect 53 0 31 2;
#X connect 54 0 42 2;
#X connect 55 0 59 0;
#X connect 56 0 60 0;
#X connect 57 0 44 2;
#X connect 58 0 53 0;
#X connect 59 0 54 0;
#X connect 60 0 57 0;
#X connect 62 0 63 0;
#X connect 63 0 29 1;
#X connect 64 0 63 1;
#X connect 65 0 68 0;
#X connect 65 1 69 0;
#X connect 66 0 65 0;
#X connect 67 0 65 1;
#X connect 70 0 71 0;
#X connect 71 0 65 2;
#X coords 0 -1 1 1 590 300 2 10 10;
#X restore 430 -375 pd mixer;
#N canvas 614 152 450 300 control 0;
#X obj 7 8 bng 40 250 50 0 empty empty empty 17 7 0 10 -260097 -1 -1
;
#N canvas 780 179 323 310 omoi-settings 0;
#X obj 8 -79 hsl 128 25 0 100 0 0 offThresh1 offThresh1 offThresh 4
8 0 10 -262130 -191407 -1 0 1;
#X floatatom 104 -100 5 0 0 0 - AttackThresh1 -;
#X obj 8 -107 hsl 128 25 0 100 0 0 AttackThresh1 AttackThresh1 AttackThresh
4 8 0 10 -262130 -191407 -1 0 1;
#X floatatom 104 -72 5 0 0 0 - offThresh1 -;
#X obj 9 -51 hsl 128 25 0 200 0 0 Wait1 Wait1 Wait 4 8 0 10 -262130
-191407 -1 0 1;
#X floatatom 105 -44 5 0 0 0 - Wait1 -;
#X obj 9 -24 hsl 128 25 0 200 0 0 Smooth1 Smooth1 Smooth 4 8 0 10 -262130
-191407 -1 0 1;
#X floatatom 105 -17 5 0 0 0 - Smooth1 -;
#X floatatom 6 3 5 0 0 0 - celloNote -;
#X floatatom 43 3 5 0 0 0 - cellodB -;
#X obj 9 25 hradio 15 1 0 8 empty beat-o-meter empty 0 -8 0 10 -262144
-1 -1 0;
#X obj 176 -60 r celloNote;
#X obj 176 -39 sel 1;
#X obj 176 -17 f;
#X obj 204 -17 + 1;
#X obj 231 -17 % 8;
#X obj 176 10 s beat-o-meter;
#X connect 11 0 12 0;
#X connect 12 0 13 0;
#X connect 13 0 14 0;
#X connect 13 0 16 0;
#X connect 14 0 15 0;
#X connect 15 0 13 1;
#X restore 137 5 pd omoi-settings;
#X msg 7 63 \; pd-omoi-settings vis 1;
#X connect 0 0 2 0;
#X coords 0 -1 1 1 85 45 2 5 5;
#X restore 107 -337 pd control;
#N canvas 65 54 1301 714 granular 0;
#X obj 341 231 sig~;
#X obj 306 346 *~;
#X obj 411 346 *~;
#X msg 48 -77 pitch \$1;
#X obj 1001 152 prepend buffer;
#X obj 340 252 lop~ 7;
#X obj 939 296 soundfiler;
#X floatatom 342 137 5 0 0 0 - - -;
#X obj 544 63 dbtorms;
#X obj 544 244 vline~;
#X obj 544 181 spigot;
#X msg 544 204 \$1 5;
#X obj 341 204 / 50;
#X obj 342 181 abs;
#X obj 614 244 vline~;
#X obj 545 267 *~;
#X obj 545 330 *~ 1;
#X obj 586 126 sel 0 1;
#X obj 939 97 loadbang;
#X obj 307 389 tb_peakcomp~ -10 8 10 100 0;
#X msg 586 181 0 1000;
#X msg 632 181 1 1000;
#X obj 305 280 s_graincloud cello;
#X obj 342 160 - 80;
#X obj 48 -151 r fcbCC-27;
#X obj 131 -141 r fcbCC-12;
#X obj 820 209 openpanel;
#X obj 48 -124 / 127;
#X obj 48 -102 * 24;
#X obj 1009 296 table cello-grain;
#X msg 820 230 read -resize \$1 cello-grain;
#X msg 939 261 read -resize samples/scene1/newwind.wav cello-grain
;
#X msg 1001 132 cello-grain;
#X obj 2 48 waveform.mmb cello-grain 200 50;
#X obj 1001 172 s cello-graincloud;
#X obj 48 -55 s cello-graincloud;
#X obj 577 102 r celloNote;
#X obj 342 46 r cellodB;
#X obj 5 4 bng 30 250 50 0 cello-grain-open empty Open 4 15 0 10 -4034
-1 -1;
#X obj 820 188 r cello-grain-open;
#X obj 232 252 s cello-grain-pos;
#X obj 214 17 *;
#X obj 939 318 s cello-grain-samp;
#X obj 202 -52 r cello-grain-samp;
#X obj 214 -30 r cello-grain-pos;
#X obj 202 -5 t b f;
#X obj 386 414 send~ cello-grainR;
#X obj 307 434 send~ cello-grainL;
#X floatatom 48 4 5 0 0 1 Pitch - -;
#X floatatom 124 4 5 0 0 1 Size - cello-grainsize;
#X obj 363 -45 * 44.1;
#X obj 363 -70 r cello-grainsize;
#X obj 335 10 +;
#X obj 363 -24 t b f;
#X obj 210 385 u_snapshot~;
#N canvas 275 246 450 300 controls 0;
#X obj -203 -148 r cello-graincloud;
#X obj -174 -122 r cello-grainsize;
#X msg -174 -88 grainsize \$1;
#X obj -203 38 outlet;
#X msg -163 -23 posrnd \$1;
#X obj -163 -57 r cello-grain-posrnd;
#X msg 16 3 grainvoices 1;
#X obj 7 -175 r cello-grain-gap;
#X msg 7 -41 gap \$1;
#X msg -75 3 grainvoices 4;
#X obj 69 -114 bpmtoms;
#X obj 69 -156 r groove/BPM;
#X obj 69 -136 unpack;
#X obj 7 -113 moses;
#X text 123 -131 Maximum is one beat;
#X obj -75 -24 loadbang;
#X obj -64 -105 / 4;
#X obj 7 -88 -;
#X floatatom 80 -80 5 0 0 0 - - -;
#X floatatom 83 -55 5 0 0 0 - - -;
#X floatatom 100 -22 5 0 0 0 - - -;
#X obj 7 -63 clip 0;
#X connect 0 0 3 0;
#X connect 1 0 2 0;
#X connect 1 0 16 0;
#X connect 2 0 3 0;
#X connect 4 0 3 0;
#X connect 5 0 4 0;
#X connect 6 0 3 0;
#X connect 7 0 13 0;
#X connect 8 0 3 0;
#X connect 9 0 3 0;
#X connect 10 0 13 1;
#X connect 10 0 18 0;
#X connect 10 0 21 2;
#X connect 11 0 12 0;
#X connect 12 1 10 0;
#X connect 13 0 17 0;
#X connect 13 0 19 0;
#X connect 15 0 9 0;
#X connect 16 0 17 1;
#X connect 17 0 21 0;
#X connect 21 0 8 0;
#X connect 21 0 20 0;
#X restore 410 256 pd controls;
#X floatatom 47 27 5 0 0 1 Async - cello-grain-posrnd;
#X obj 258 -139 r nano7-0;
#X obj 328 -140 r nano7-1;
#X obj 319 -105 / 127;
#X obj 262 -102 * 6;
#X obj 613 281 sig~ 3;
#X floatatom 124 27 5 0 0 1 Gap - cello-grain-gap;
#X obj 390 -142 r nano7-2;
#X obj 390 -109 * 6;
#X floatatom 706 260 5 0 0 0 - - -;
#X floatatom 232 180 5 0 0 0 - - -;
#X obj 5 99 hsl 195 15 0 1 0 0 empty empty empty -2 -8 0 10 -262144
-1 -1 0 1;
#X obj 342 105 spigot;
#X obj 186 4 tgl 15 0 empty empty empty 17 7 0 10 -262144 -1 -1 0 1
;
#X obj 545 303 *~;
#X obj 609 327 *~;
#X obj 624 304 == 0;
#X connect 0 0 5 0;
#X connect 1 0 19 0;
#X connect 2 0 19 1;
#X connect 3 0 35 0;
#X connect 4 0 34 0;
#X connect 5 0 22 1;
#X connect 6 0 42 0;
#X connect 7 0 23 0;
#X connect 8 0 10 0;
#X connect 9 0 15 0;
#X connect 10 0 11 0;
#X connect 11 0 9 0;
#X connect 12 0 0 0;
#X connect 12 0 67 0;
#X connect 13 0 12 0;
#X connect 14 0 15 1;
#X connect 15 0 70 0;
#X connect 16 0 2 1;
#X connect 16 0 1 1;
#X connect 17 0 20 0;
#X connect 17 1 21 0;
#X connect 18 0 32 0;
#X connect 18 0 31 0;
#X connect 19 0 47 0;
#X connect 19 1 46 0;
#X connect 20 0 9 0;
#X connect 21 0 14 0;
#X connect 22 0 1 0;
#X connect 22 0 54 0;
#X connect 22 1 2 0;
#X connect 23 0 13 0;
#X connect 24 0 27 0;
#X connect 25 0 27 0;
#X connect 26 0 30 0;
#X connect 27 0 28 0;
#X connect 28 0 48 0;
#X connect 30 0 6 0;
#X connect 31 0 6 0;
#X connect 32 0 4 0;
#X connect 36 0 17 0;
#X connect 36 0 10 1;
#X connect 37 0 8 0;
#X connect 37 0 68 0;
#X connect 39 0 26 0;
#X connect 41 0 33 2;
#X connect 41 0 52 0;
#X connect 43 0 45 0;
#X connect 44 0 41 0;
#X connect 45 0 33 0;
#X connect 45 1 41 1;
#X connect 48 0 3 0;
#X connect 50 0 53 0;
#X connect 51 0 50 0;
#X connect 52 0 33 3;
#X connect 53 0 52 0;
#X connect 53 1 52 1;
#X connect 55 0 22 3;
#X connect 57 0 60 0;
#X connect 58 0 59 0;
#X connect 59 0 56 0;
#X connect 60 0 49 0;
#X connect 61 0 71 0;
#X connect 63 0 64 0;
#X connect 64 0 62 0;
#X connect 65 0 61 0;
#X connect 66 0 40 0;
#X connect 66 0 0 0;
#X connect 67 0 66 0;
#X connect 68 0 7 0;
#X connect 69 0 68 1;
#X connect 69 0 72 0;
#X connect 69 0 70 1;
#X connect 70 0 16 0;
#X connect 71 0 16 0;
#X connect 72 0 71 1;
#X coords 0 -1 1 1 205 120 2 0 0;
#X restore 7 -257 pd granular;
#X msg 465 -38 120;
#X obj 465 -59 loadbang;
#X text 52 -338 Settings;
#N canvas 710 324 632 433 follower 0;
#X obj -695 -329 mimikri;
#X obj -741 -391 r celloNote;
#X obj -696 -227 throw~ main-mono;
#X msg -695 -360 60;
#X floatatom -640 -368 5 0 0 0 - - -;
#X msg -602 -357 80;
#X msg -552 -357 90;
#X connect 3 0 0 0;
#X connect 4 0 0 0;
#X connect 5 0 0 0;
#X connect 6 0 0 0;
#X restore 265 -207 pd follower;
#N canvas 797 338 450 300 slice_sel 0;
#N canvas 65 112 353 284 read-cuepoints 0;
#X obj 12 27 inlet;
#X obj 12 245 outlet;
#X text 49 27 slice index number;
#X obj 156 218 pack;
#X obj 183 133 + 1;
#X obj 156 133 f;
#X obj 156 103 t b f;
#X obj 12 57 * 4;
#X text 205 249 cuepoints pair;
#X obj 156 246 outlet;
#X obj 12 86 t f f;
#X obj 12 137 + 2;
#X text 56 246 pitch;
#X obj 177 164 tabread 1-cuepoints;
#X obj 156 192 tabread 1-cuepoints;
#X obj 12 163 tabread 1-cuepoints;
#X connect 0 0 7 0;
#X connect 3 0 9 0;
#X connect 4 0 13 0;
#X connect 5 0 14 0;
#X connect 6 0 5 0;
#X connect 6 1 4 0;
#X connect 6 1 5 1;
#X connect 7 0 10 0;
#X connect 10 0 6 0;
#X connect 10 1 11 0;
#X connect 11 0 15 0;
#X connect 13 0 3 1;
#X connect 14 0 3 0;
#X connect 15 0 1 0;
#X restore 177 22 pd read-cuepoints;
#X obj 103 131 sliceplay~ 1-slices;
#X msg 82 55 1;
#X obj 109 -22 hradio 15 1 0 8 empty empty empty 0 -8 0 10 -262144
-1 -1 0;
#X obj 123 6 t b f;
#X obj 103 159 throw~ main-mono;
#X obj 301 64 print;
#X msg 133 78 interrupt 1;
#X connect 0 1 1 1;
#X connect 0 1 6 0;
#X connect 1 0 5 0;
#X connect 2 0 1 0;
#X connect 3 0 4 0;
#X connect 4 0 2 0;
#X connect 4 1 0 0;
#X connect 7 0 1 0;
#X restore 680 -31 pd slice_sel;
#X msg 271 -122 \; pd-midi-monitor vis 1;
#X obj 271 -141 bng 15 250 50 0 empty empty empty 17 7 0 10 -262144
-1 -1;
#X obj 538 65 s delaintime;
#X obj 745 30 tgl 15 0 empty empty empty 17 7 0 10 -262144 -1 -1 0
1;
#X obj 673 129 send~ \$0L-samples;
#X obj 665 155 send~ \$0R-samples;
#X msg 784 18 stop;
#X msg 541 -31 4;
#X msg 570 -37 8;
#X msg 605 -35 12;
#X msg 616 -4 16;
#X msg 638 -32 11;
#X msg 611 27 32;
#X msg 615 49 64;
#X msg 689 21 15;
#X msg 619 120 15;
#X msg 602 -58 9;
#X msg 664 -7 ../samples/voixmouetes6long.wav;
#X obj 664 52 player~;
#N canvas 835 87 450 300 init 0;
#X obj 7 6 loadbang;
#X obj 7 29 t b b;
#X obj 34 52 s loadbang1;
#X obj 7 86 s loadbang2;
#X connect 0 0 1 0;
#X connect 1 0 3 0;
#X connect 1 1 2 0;
#X restore 7 -120 pd init;
#X obj 831 223 s patterns;
#X msg 831 26 heyhouj;
#X msg 891 28 heyhouj2;
#X msg 914 67 tribal1;
#X msg 913 96 tribal2;
#X msg 914 115 tribal3;
#X msg 915 140 shot1;
#X msg 920 172 hex;
#X msg 923 198 hex2;
#N canvas 685 102 650 686 scene3 0;
#X obj 43 333 outlet~ L;
#X obj 120 333 outlet~ R;
#X obj 165 181 throw~ scene2-Main-L;
#X obj 209 162 throw~ scene2-Main-R;
#X obj 44 239 catch~ scene2-Main-L;
#X obj 120 259 catch~ scene2-Main-R;
#X obj 40 199 catch~ scene2-Main-mono;
#N canvas 67 157 567 417 textfiler 0;
#X obj 25 24 t b b;
#X msg 25 83 rewind;
#X obj 25 197 sprintf %s%s;
#X obj 25 146 t b s;
#X obj 25 121 msgfile;
#X msg 52 64 read samples/scene2/scene2.txt cr;
#X obj 122 -78 inlet;
#X msg 122 28 goto \$1;
#X obj 25 232 outlet;
#X msg 102 122 water.wav;
#X obj 25 -32 loadbang;
#X obj 25 -65 bng 15 250 50 0 empty empty empty 17 7 0 10 -262144 -1
-1;
#X msg 73 -10 this;
#X obj 122 -41 t b f;
#X obj 224 213 folder_list;
#X obj 310 163 readsf~;
#X msg 234 177 bang;
#X msg 347 25 samples/cello.wav;
#X obj 379 105 prepend open;
#X msg 290 110 start;
#X obj 319 211 throw~ scene2-Main-mono;
#X obj 404 162 print;
#X msg 25 173 ../samples/scene2/;
#X connect 0 0 1 0;
#X connect 0 1 5 0;
#X connect 1 0 4 0;
#X connect 2 0 8 0;
#X connect 3 0 22 0;
#X connect 3 1 2 1;
#X connect 4 0 3 0;
#X connect 5 0 4 0;
#X connect 6 0 13 0;
#X connect 7 0 4 0;
#X connect 9 0 3 0;
#X connect 10 0 0 0;
#X connect 11 0 10 0;
#X connect 12 0 4 0;
#X connect 13 0 12 0;
#X connect 13 1 7 0;
#X connect 15 0 20 0;
#X connect 16 0 14 0;
#X connect 17 0 18 0;
#X connect 17 0 8 0;
#X connect 18 0 15 0;
#X connect 18 0 21 0;
#X connect 19 0 15 0;
#X connect 22 0 2 0;
#X restore 165 91 pd textfiler;
#X obj 165 116 player2~;
#X obj 384 71 catch~ scene2-irVerb;
#X obj 385 100 tb_peakcomp~ -10 8 10 100 0;
#X obj 384 125 throw~ scene2-Main-mono;
#N canvas 970 67 1301 714 irVerb 0;
#X obj 83 232 *~ 0.5;
#X obj 82 195 irVerb~ ir1;
#X obj 156 231 *~ 0.5;
#X obj 253 232 *~ 0.5;
#N canvas 249 257 579 421 onset 0;
#X obj 97 188 outlet;
#X obj 97 58 f;
#X obj 97 19 until;
#X obj 123 58 + 1;
#X obj 97 119 == 0;
#X obj 97 144 pack f f;
#X obj 97 85 t f f;
#X msg 97 165 \$2 \$1;
#X obj 97 -36 t b b f;
#X msg 126 -7 0;
#X obj 97 -69 inlet;
#X msg 97 -7 9;
#X text 211 61 Switch on one thing out of 9 at a time;
#X connect 1 0 3 0;
#X connect 1 0 6 0;
#X connect 2 0 1 0;
#X connect 3 0 1 1;
#X connect 4 0 5 0;
#X connect 5 0 7 0;
#X connect 6 0 4 0;
#X connect 6 1 5 1;
#X connect 7 0 0 0;
#X connect 8 0 11 0;
#X connect 8 1 9 0;
#X connect 8 2 4 1;
#X connect 9 0 1 1;
#X connect 10 0 8 0;
#X connect 11 0 2 0;
#X restore 559 128 pd onset;
#X obj 326 231 *~ 0.2;
#X obj 422 231 *~ 0.27;
#X obj 495 231 *~ 0.2;
#X obj 590 231 *~ 1;
#X obj 156 194 irVerb~ ir2;
#X obj 252 195 irVerb~ ir3;
#X obj 326 194 irVerb~ ir4;
#X obj 421 195 irVerb~ ir5;
#X obj 495 194 irVerb~ ir6;
#X obj 591 195 irVerb~ ir7;
#N canvas 498 417 450 300 before 0;
#X obj 99 114 f;
#X floatatom 99 137 5 0 0 0 - - -;
#X floatatom 58 112 5 0 0 0 - - -;
#X obj 95 82 t f f b;
#X obj 95 56 inlet;
#X msg 99 202 element 1 \$1 0;
#X msg 58 171 element 1 \$1 1;
#X obj 58 229 outlet;
#X connect 0 0 1 0;
#X connect 1 0 5 0;
#X connect 2 0 6 0;
#X connect 3 0 2 0;
#X connect 3 1 0 1;
#X connect 3 2 0 0;
#X connect 4 0 3 0;
#X connect 5 0 7 0;
#X connect 6 0 7 0;
#X restore 256 131 pd before;
#X obj 559 91 inlet;
#X obj 81 26 inlet~;
#X obj 257 428 outlet~;
#X obj 256 108 + 1;
#X msg 901 111 arrayviewlistnew;
#X obj 901 137 s scene2-score;
#X msg 766 62 \; scene2-score 0 1 6 1 4 1 2 1 7 2 3 9 4 3 6 7 8 1 2
3 5 7 4;
#X obj 766 137 table scene2-score 22;
#X obj 766 30 loadbang;
#X obj 256 334 mtx_*~ 1 9 .....................;
#X obj 739 193 irVerb~ ir2;
#X obj 663 194 irVerb~ ir5;
#X obj 559 147 route 0 1 2 3 4 5 6 7 8;
#X obj 663 222 *~ 0.27;
#X obj 740 220 *~ 0.5;
#X connect 0 0 25 1;
#X connect 1 0 0 0;
#X connect 2 0 25 2;
#X connect 3 0 25 3;
#X connect 4 0 28 0;
#X connect 5 0 25 4;
#X connect 6 0 25 5;
#X connect 7 0 25 6;
#X connect 8 0 25 7;
#X connect 9 0 2 0;
#X connect 10 0 3 0;
#X connect 11 0 5 0;
#X connect 12 0 6 0;
#X connect 13 0 7 0;
#X connect 14 0 8 0;
#X connect 15 0 25 0;
#X connect 16 0 4 0;
#X connect 16 0 19 0;
#X connect 17 0 1 0;
#X connect 17 0 9 0;
#X connect 17 0 10 0;
#X connect 17 0 11 0;
#X connect 17 0 12 0;
#X connect 17 0 13 0;
#X connect 17 0 14 0;
#X connect 17 0 27 0;
#X connect 17 0 26 0;
#X connect 19 0 15 0;
#X connect 20 0 21 0;
#X connect 24 0 22 0;
#X connect 25 0 18 0;
#X connect 26 0 30 0;
#X connect 27 0 29 0;
#X connect 28 0 1 1;
#X connect 28 1 9 1;
#X connect 28 2 10 1;
#X connect 28 3 11 1;
#X connect 28 4 12 1;
#X connect 28 5 13 1;
#X connect 28 6 14 1;
#X connect 28 7 27 1;
#X connect 28 8 26 1;
#X connect 29 0 25 8;
#X connect 30 0 25 9;
#X restore 35 114 pd irVerb;
#X obj 35 162 throw~ scene2-irVerb;
#X obj 14 46 s scene2-set;
#X obj 165 67 r scene2-set;
#X text 264 87 Soundfileplayback;
#X text 561 75 Limiting of Reverb;
#X obj 86 92 r scene2-set;
#X text 197 207 Output;
#X obj 13 66 receive~ input1;
#X obj 556 22 osc~ 333;
#X obj 165 147 *~;
#X obj 210 140 *~;
#X floatatom 225 117 5 0 0 0 - - -;
#X text 248 99 Sample sart randomize;
#X obj 14 -39 r fcb;
#N canvas 65 229 655 431 score 0;
#X obj 83 -140 f;
#X obj 138 -139 + 1;
#X obj 169 -139 % 8;
#X obj 83 -194 bng 15 250 50 0 empty empty empty 17 7 0 10 -262144
-1 -1;
#X obj 83 -111 + 0;
#X msg 221 -193 0;
#X msg 256 -192 8;
#X msg 309 -192 8;
#X msg 342 -192 4;
#X msg 420 -192 10;
#X obj 127 -175 unpack f f;
#X obj 223 -165 pack;
#X obj 311 -165 pack;
#X obj 392 -163 pack;
#X obj 223 -131 s scene2-reader;
#X obj 107 -250 r scene2-reader;
#X obj 221 -238 bng 15 250 50 0 empty empty empty 17 7 0 10 -262144
-1 -1;
#X obj 317 -243 bng 15 250 50 0 empty empty empty 17 7 0 10 -262144
-1 -1;
#X obj 400 -241 bng 15 250 50 0 empty empty empty 17 7 0 10 -262144
-1 -1;
#X obj 107 -224 t l b;
#X msg 98 -175 0;
#X obj 83 -62 tabread scene2-score;
#X msg 389 -192 12;
#X obj 197 -400 inlet;
#X obj 83 -342 sel 0 1 2;
#X obj 224 -349 change;
#X obj 224 -324 sel 0 1 2;
#X obj 83 -6 outlet;
#X obj 197 -378 t f f;
#X text 284 -353 comment;
#X obj 83 -88 + 0;
#X obj 88 -33 - 1;
#X connect 0 0 1 0;
#X connect 0 0 4 0;
#X connect 1 0 2 0;
#X connect 2 0 0 1;
#X connect 3 0 0 0;
#X connect 4 0 30 0;
#X connect 5 0 11 0;
#X connect 6 0 11 1;
#X connect 7 0 12 0;
#X connect 8 0 12 1;
#X connect 9 0 13 1;
#X connect 10 0 4 1;
#X connect 10 1 2 1;
#X connect 11 0 14 0;
#X connect 12 0 14 0;
#X connect 13 0 14 0;
#X connect 15 0 19 0;
#X connect 16 0 5 0;
#X connect 16 0 6 0;
#X connect 17 0 7 0;
#X connect 17 0 8 0;
#X connect 18 0 22 0;
#X connect 18 0 9 0;
#X connect 19 0 10 0;
#X connect 19 1 20 0;
#X connect 20 0 0 1;
#X connect 21 0 31 0;
#X connect 22 0 13 0;
#X connect 23 0 28 0;
#X connect 24 0 3 0;
#X connect 24 1 3 0;
#X connect 24 2 3 0;
#X connect 25 0 26 0;
#X connect 26 0 16 0;
#X connect 26 1 17 0;
#X connect 26 2 18 0;
#X connect 28 0 24 0;
#X connect 28 1 25 0;
#X connect 30 0 21 0;
#X connect 31 0 27 0;
#X restore 14 5 pd score;
#X obj 248 -38 vsl 15 128 0 1 0 0 empty empty empty 0 -9 0 10 -262144
-1 -1 0 1;
#X obj 315 252 / 127;
#X obj 316 223 r nano6-8;
#X obj 137 296 *~;
#X obj 44 296 *~;
#X obj 297 24 / 127;
#X obj 297 -4 r nano6-7;
#X obj 207 18 tgl 15 0 empty empty empty 17 7 0 10 -262144 -1 -1 0
1;
#X obj 321 288 vsl 15 128 0 1 0 0 empty empty empty 0 -9 0 10 -262144
-1 -1 0 1;
#X floatatom 109 -22 5 0 0 0 - - -;
#X obj 366 268 r nano6-6;
#X obj 56 136 *~;
#X obj 367 291 / 127;
#X obj 121 -83 hradio 15 1 0 8 empty empty empty 0 -8 0 10 -262144
-1 -1 0;
#X floatatom 111 24 5 0 0 0 - - -;
#X obj 175 -27 sel 3;
#X msg 175 -1 stop;
#X connect 4 0 32 0;
#X connect 5 0 31 0;
#X connect 6 0 32 0;
#X connect 6 0 31 0;
#X connect 7 0 8 0;
#X connect 8 0 22 0;
#X connect 8 1 23 0;
#X connect 9 0 10 0;
#X connect 10 0 11 0;
#X connect 12 0 39 0;
#X connect 15 0 7 0;
#X connect 18 0 12 1;
#X connect 20 0 12 0;
#X connect 22 0 2 0;
#X connect 23 0 3 0;
#X connect 24 0 22 1;
#X connect 24 0 23 1;
#X connect 26 0 27 0;
#X connect 26 0 37 0;
#X connect 27 0 14 0;
#X connect 27 0 42 0;
#X connect 28 0 24 0;
#X connect 29 0 32 1;
#X connect 29 0 31 1;
#X connect 29 0 36 0;
#X connect 30 0 29 0;
#X connect 31 0 1 0;
#X connect 32 0 0 0;
#X connect 33 0 28 0;
#X connect 34 0 33 0;
#X connect 35 0 8 2;
#X connect 37 0 43 0;
#X connect 38 0 40 0;
#X connect 39 0 13 0;
#X connect 40 0 39 1;
#X connect 41 0 27 0;
#X connect 43 0 44 0;
#X connect 44 0 8 1;
#X restore 222 83 pd scene3;
#X connect 6 0 5 0;
#X connect 6 1 5 1;
#X connect 7 0 12 0;
#X connect 8 0 12 1;
#X connect 9 0 11 0;
#X connect 10 0 11 1;
#X connect 12 0 2 0;
#X connect 12 0 13 0;
#X connect 12 1 2 1;
#X connect 12 1 13 1;
#X connect 14 0 13 2;
#X connect 17 0 12 0;
#X connect 17 0 12 1;
#X connect 23 0 24 0;
#X connect 24 0 27 0;
#X connect 25 0 24 0;
#X connect 25 1 24 1;
#X connect 26 0 25 0;
#X connect 31 0 26 0;
#X connect 32 0 31 0;
#X connect 37 0 36 0;
#X connect 39 0 54 2;
#X connect 42 0 54 1;
#X connect 43 0 38 0;
#X connect 44 0 38 0;
#X connect 45 0 38 0;
#X connect 46 0 38 0;
#X connect 47 0 38 0;
#X connect 48 0 38 0;
#X connect 49 0 38 0;
#X connect 50 0 38 0;
#X connect 51 0 38 0;
#X connect 52 0 38 0;
#X connect 53 0 54 0;
#X connect 54 0 40 0;
#X connect 54 0 41 0;
#X connect 57 0 56 0;
#X connect 58 0 56 0;
#X connect 59 0 56 0;
#X connect 60 0 56 0;
#X connect 61 0 56 0;
#X connect 62 0 56 0;
#X connect 63 0 56 0;
#X connect 64 0 56 0;
#X connect 65 0 3 0;
#X connect 65 1 4 0;
