#N canvas 61 196 1192 686 10;
#X declare -lib zexy;
#X declare -lib bsaylor;
#X declare -path abstractions/;
#X declare -lib iemmatrix;
#X declare -path SliceJockey/abstractions/;
#X declare -lib hexloader;
#X declare -path bin/;
#X declare -lib zexy;
#X declare -lib bsaylor;
#X declare -lib zexy;
#X declare -lib bsaylor;
#X declare -lib zexy;
#X declare -lib bsaylor;
#X declare -lib zexy;
#X declare -lib bsaylor;
#X declare -lib zexy;
#X declare -lib bsaylor;
#X declare -lib zexy;
#X declare -lib bsaylor;
#X declare -lib zexy;
#X declare -lib bsaylor;
#X declare -lib zexy;
#X declare -lib bsaylor;
#X declare -lib zexy;
#X declare -lib bsaylor;
#N canvas 329 237 545 300 libs 0;
#X obj -14 -12 declare -lib zexy;
#X obj -14 8 declare -lib bsaylor;
#X obj 198 -11 declare -path abstractions/;
#X obj -14 27 declare -lib iemmatrix;
#X text -12 -39 Libaries;
#X text 199 -36 Paths;
#X obj 198 8 declare -path SliceJockey/abstractions/;
#X obj -14 46 import hexloader;
#X obj 198 29 declare -path bin/;
#X restore 54 -5 pd libs;
#N canvas 65 107 450 300 tables 1;
#N canvas 160 254 450 300 irTables 0;
#X obj 14 14 table ir1-L;
#X obj 88 14 table ir1-R;
#X obj 14 33 table ir2-L;
#X obj 88 33 table ir2-R;
#X obj 14 53 table ir3-L;
#X obj 88 53 table ir3-R;
#X obj 15 72 table ir4-L;
#X obj 89 72 table ir4-R;
#X obj 165 14 load ../irResponses ir;
#X obj 15 91 table ir5-L;
#X obj 15 110 table ir6-L;
#X obj 15 130 table ir7-L;
#X obj 16 149 table ir8-L;
#X obj 89 91 table ir5-R;
#X obj 89 110 table ir6-R;
#X obj 89 130 table ir7-R;
#X obj 90 149 table ir8-R;
#X restore 9 5 pd irTables;
#X text 88 2 <- all Impulse Response Tables here;
#X restore 54 15 pd tables;
#N canvas 697 82 650 686 scene2 1;
#X obj 43 333 outlet~ L;
#X obj 120 333 outlet~ R;
#X obj 165 181 throw~ scene2-Main-L;
#X obj 209 162 throw~ scene2-Main-R;
#X obj 44 239 catch~ scene2-Main-L;
#X obj 120 259 catch~ scene2-Main-R;
#X obj 40 199 catch~ scene2-Main-mono;
#N canvas 70 152 567 417 textfiler 1;
#X obj 25 24 t b b;
#X msg 25 83 rewind;
#X obj 25 197 sprintf %s%s;
#X obj 25 146 t b s;
#X obj 25 121 msgfile;
#X msg 52 64 read samples/scene2/scene2.txt cr;
#X obj 122 -78 inlet;
#X msg 122 28 goto \$1;
#X obj 25 232 outlet;
#X msg 102 122 water.wav;
#X obj 25 -32 loadbang;
#X obj 25 -65 bng 15 250 50 0 empty empty empty 17 7 0 10 -262144 -1
-1;
#X msg 73 -10 this;
#X obj 122 -41 t b f;
#X obj 224 213 folder_list;
#X obj 310 163 readsf~;
#X msg 234 177 bang;
#X msg 347 25 samples/cello.wav;
#X obj 379 105 prepend open;
#X msg 290 110 start;
#X obj 319 211 throw~ scene2-Main-mono;
#X obj 404 162 print;
#X msg 25 173 ../samples/scene2/;
#X connect 0 0 1 0;
#X connect 0 1 5 0;
#X connect 1 0 4 0;
#X connect 2 0 8 0;
#X connect 3 0 22 0;
#X connect 3 1 2 1;
#X connect 4 0 3 0;
#X connect 5 0 4 0;
#X connect 6 0 13 0;
#X connect 7 0 4 0;
#X connect 9 0 3 0;
#X connect 10 0 0 0;
#X connect 11 0 10 0;
#X connect 12 0 4 0;
#X connect 13 0 12 0;
#X connect 13 1 7 0;
#X connect 15 0 20 0;
#X connect 16 0 14 0;
#X connect 17 0 18 0;
#X connect 17 0 8 0;
#X connect 18 0 15 0;
#X connect 18 0 21 0;
#X connect 19 0 15 0;
#X connect 22 0 2 0;
#X restore 165 91 pd textfiler;
#X obj 165 116 player2~;
#X obj 384 71 catch~ scene2-irVerb;
#X obj 385 100 tb_peakcomp~ -10 8 10 100 0;
#X obj 384 125 throw~ scene2-Main-mono;
#N canvas 970 67 1301 714 irVerb 0;
#X obj 83 232 *~ 0.5;
#X obj 82 195 irVerb~ ir1;
#X obj 156 231 *~ 0.5;
#X obj 253 232 *~ 0.5;
#N canvas 249 257 579 421 onset 0;
#X obj 97 188 outlet;
#X obj 97 58 f;
#X obj 97 19 until;
#X obj 123 58 + 1;
#X obj 97 119 == 0;
#X obj 97 144 pack f f;
#X obj 97 85 t f f;
#X msg 97 165 \$2 \$1;
#X obj 97 -36 t b b f;
#X msg 126 -7 0;
#X obj 97 -69 inlet;
#X msg 97 -7 9;
#X text 211 61 Switch on one thing out of 9 at a time;
#X connect 1 0 3 0;
#X connect 1 0 6 0;
#X connect 2 0 1 0;
#X connect 3 0 1 1;
#X connect 4 0 5 0;
#X connect 5 0 7 0;
#X connect 6 0 4 0;
#X connect 6 1 5 1;
#X connect 7 0 0 0;
#X connect 8 0 11 0;
#X connect 8 1 9 0;
#X connect 8 2 4 1;
#X connect 9 0 1 1;
#X connect 10 0 8 0;
#X connect 11 0 2 0;
#X restore 559 128 pd onset;
#X obj 326 231 *~ 0.2;
#X obj 422 231 *~ 0.27;
#X obj 495 231 *~ 0.2;
#X obj 590 231 *~ 1;
#X obj 156 194 irVerb~ ir2;
#X obj 252 195 irVerb~ ir3;
#X obj 326 194 irVerb~ ir4;
#X obj 421 195 irVerb~ ir5;
#X obj 495 194 irVerb~ ir6;
#X obj 591 195 irVerb~ ir7;
#N canvas 498 417 450 300 before 0;
#X obj 99 114 f;
#X floatatom 99 137 5 0 0 0 - - -;
#X floatatom 58 112 5 0 0 0 - - -;
#X obj 95 82 t f f b;
#X obj 95 56 inlet;
#X msg 99 202 element 1 \$1 0;
#X msg 58 171 element 1 \$1 1;
#X obj 58 229 outlet;
#X connect 0 0 1 0;
#X connect 1 0 5 0;
#X connect 2 0 6 0;
#X connect 3 0 2 0;
#X connect 3 1 0 1;
#X connect 3 2 0 0;
#X connect 4 0 3 0;
#X connect 5 0 7 0;
#X connect 6 0 7 0;
#X restore 256 131 pd before;
#X obj 559 91 inlet;
#X obj 81 26 inlet~;
#X obj 257 428 outlet~;
#X obj 256 108 + 1;
#X msg 901 111 arrayviewlistnew;
#X obj 901 137 s scene2-score;
#X msg 766 62 \; scene2-score 0 1 6 1 4 1 2 1 7 2 3 9 4 3 6 7 8 1 2
3 5 7 4;
#X obj 766 137 table scene2-score 22;
#X obj 766 30 loadbang;
#X obj 256 334 mtx_*~ 1 9 .....................;
#X obj 739 193 irVerb~ ir2;
#X obj 663 194 irVerb~ ir5;
#X obj 559 147 route 0 1 2 3 4 5 6 7 8;
#X obj 663 222 *~ 0.27;
#X obj 740 220 *~ 0.5;
#X connect 0 0 25 1;
#X connect 1 0 0 0;
#X connect 2 0 25 2;
#X connect 3 0 25 3;
#X connect 4 0 28 0;
#X connect 5 0 25 4;
#X connect 6 0 25 5;
#X connect 7 0 25 6;
#X connect 8 0 25 7;
#X connect 9 0 2 0;
#X connect 10 0 3 0;
#X connect 11 0 5 0;
#X connect 12 0 6 0;
#X connect 13 0 7 0;
#X connect 14 0 8 0;
#X connect 15 0 25 0;
#X connect 16 0 4 0;
#X connect 16 0 19 0;
#X connect 17 0 1 0;
#X connect 17 0 9 0;
#X connect 17 0 10 0;
#X connect 17 0 11 0;
#X connect 17 0 12 0;
#X connect 17 0 13 0;
#X connect 17 0 14 0;
#X connect 17 0 27 0;
#X connect 17 0 26 0;
#X connect 19 0 15 0;
#X connect 20 0 21 0;
#X connect 24 0 22 0;
#X connect 25 0 18 0;
#X connect 26 0 30 0;
#X connect 27 0 29 0;
#X connect 28 0 1 1;
#X connect 28 1 9 1;
#X connect 28 2 10 1;
#X connect 28 3 11 1;
#X connect 28 4 12 1;
#X connect 28 5 13 1;
#X connect 28 6 14 1;
#X connect 28 7 27 1;
#X connect 28 8 26 1;
#X connect 29 0 25 8;
#X connect 30 0 25 9;
#X restore 35 114 pd irVerb;
#X obj 35 162 throw~ scene2-irVerb;
#X obj 14 46 s scene2-set;
#X obj 165 67 r scene2-set;
#X text 264 87 Soundfileplayback;
#X text 561 75 Limiting of Reverb;
#X obj 86 92 r scene2-set;
#X text 197 207 Output;
#X obj 13 66 receive~ input1;
#X obj 556 22 osc~ 333;
#X obj 165 147 *~;
#X obj 210 140 *~;
#X floatatom 225 117 5 0 0 0 - - -;
#X text 248 99 Sample sart randomize;
#X obj 14 -39 r fcb;
#N canvas 0 224 655 431 score 1;
#X obj 83 -140 f;
#X obj 138 -139 + 1;
#X obj 169 -139 % 8;
#X obj 83 -194 bng 15 250 50 0 empty empty empty 17 7 0 10 -262144
-1 -1;
#X obj 83 -111 + 0;
#X msg 221 -193 0;
#X msg 256 -192 8;
#X msg 309 -192 8;
#X msg 342 -192 4;
#X msg 420 -192 10;
#X obj 127 -175 unpack f f;
#X obj 223 -165 pack;
#X obj 311 -165 pack;
#X obj 392 -163 pack;
#X obj 223 -131 s scene2-reader;
#X obj 107 -250 r scene2-reader;
#X obj 221 -238 bng 15 250 50 0 empty empty empty 17 7 0 10 -262144
-1 -1;
#X obj 317 -243 bng 15 250 50 0 empty empty empty 17 7 0 10 -262144
-1 -1;
#X obj 400 -241 bng 15 250 50 0 empty empty empty 17 7 0 10 -262144
-1 -1;
#X obj 107 -224 t l b;
#X msg 98 -175 0;
#X obj 83 -62 tabread scene2-score;
#X msg 389 -192 12;
#X obj 197 -400 inlet;
#X obj 83 -342 sel 0 1 2;
#X obj 224 -349 change;
#X obj 224 -324 sel 0 1 2;
#X obj 83 -6 outlet;
#X obj 197 -378 t f f;
#X text 284 -353 comment;
#X obj 83 -88 + 0;
#X obj 88 -33 - 1;
#X connect 0 0 1 0;
#X connect 0 0 4 0;
#X connect 1 0 2 0;
#X connect 2 0 0 1;
#X connect 3 0 0 0;
#X connect 4 0 30 0;
#X connect 5 0 11 0;
#X connect 6 0 11 1;
#X connect 7 0 12 0;
#X connect 8 0 12 1;
#X connect 9 0 13 1;
#X connect 10 0 4 1;
#X connect 10 1 2 1;
#X connect 11 0 14 0;
#X connect 12 0 14 0;
#X connect 13 0 14 0;
#X connect 15 0 19 0;
#X connect 16 0 5 0;
#X connect 16 0 6 0;
#X connect 17 0 7 0;
#X connect 17 0 8 0;
#X connect 18 0 22 0;
#X connect 18 0 9 0;
#X connect 19 0 10 0;
#X connect 19 1 20 0;
#X connect 20 0 0 1;
#X connect 21 0 31 0;
#X connect 22 0 13 0;
#X connect 23 0 28 0;
#X connect 24 0 3 0;
#X connect 24 1 3 0;
#X connect 24 2 3 0;
#X connect 25 0 26 0;
#X connect 26 0 16 0;
#X connect 26 1 17 0;
#X connect 26 2 18 0;
#X connect 28 0 24 0;
#X connect 28 1 25 0;
#X connect 30 0 21 0;
#X connect 31 0 27 0;
#X restore 14 5 pd score;
#X obj 248 -38 vsl 15 128 0 1 0 0 empty empty empty 0 -9 0 10 -262144
-1 -1 4700 1;
#X obj 315 252 / 127;
#X obj 316 223 r nano6-8;
#X obj 137 296 *~;
#X obj 44 296 *~;
#X obj 297 24 / 127;
#X obj 297 -4 r nano6-7;
#X obj 207 18 tgl 15 0 empty empty empty 17 7 0 10 -262144 -1 -1 1
1;
#X obj 321 288 vsl 15 128 0 1 0 0 empty empty empty 0 -9 0 10 -262144
-1 -1 0 1;
#X floatatom 109 -22 5 0 0 0 - - -;
#X obj 366 268 r nano6-6;
#X obj 56 136 *~;
#X obj 367 291 / 127;
#X obj 121 -83 hradio 15 1 0 8 empty empty empty 0 -8 0 10 -262144
-1 -1 0;
#X floatatom 111 24 5 0 0 0 - - -;
#X obj 175 -27 sel 3;
#X msg 175 -1 stop;
#X connect 4 0 32 0;
#X connect 5 0 31 0;
#X connect 6 0 32 0;
#X connect 6 0 31 0;
#X connect 7 0 8 0;
#X connect 8 0 22 0;
#X connect 8 1 23 0;
#X connect 9 0 10 0;
#X connect 10 0 11 0;
#X connect 12 0 39 0;
#X connect 15 0 7 0;
#X connect 18 0 12 1;
#X connect 20 0 12 0;
#X connect 22 0 2 0;
#X connect 23 0 3 0;
#X connect 24 0 22 1;
#X connect 24 0 23 1;
#X connect 26 0 27 0;
#X connect 26 0 37 0;
#X connect 27 0 14 0;
#X connect 27 0 42 0;
#X connect 28 0 24 0;
#X connect 29 0 32 1;
#X connect 29 0 31 1;
#X connect 29 0 36 0;
#X connect 30 0 29 0;
#X connect 31 0 1 0;
#X connect 32 0 0 0;
#X connect 33 0 28 0;
#X connect 34 0 33 0;
#X connect 35 0 8 2;
#X connect 37 0 43 0;
#X connect 38 0 40 0;
#X connect 39 0 13 0;
#X connect 40 0 39 1;
#X connect 41 0 27 0;
#X connect 43 0 44 0;
#X connect 44 0 8 1;
#X restore 146 120 pd scene2;
#X obj 72 282 dac~ 1 2;
#X obj 145 151 throw~ main-L;
#X obj 230 151 throw~ main-R;
#N canvas 360 322 450 300 input 0;
#X obj -21 -13 inlet~;
#X obj 101 -11 inlet~;
#X obj -21 97 send~ input1;
#X obj 102 17 send~ input2;
#X msg 201 181 /home/morast/Documents/samples/cello.wav;
#X obj 201 204 player~;
#X obj 201 133 r set;
#X obj 201 157 t b;
#X obj -20 35 hip~ 60;
#X floatatom 28 6 5 0 0 0 - - -;
#X connect 0 0 8 0;
#X connect 1 0 3 0;
#X connect 4 0 5 0;
#X connect 5 0 2 0;
#X connect 6 0 7 0;
#X connect 7 0 4 0;
#X connect 8 0 2 0;
#X connect 9 0 8 1;
#X restore 118 15 pd input;
#X obj 119 -9 adc~ 1 2;
#X obj 71 201 catch~ main-L;
#X obj 164 201 catch~ main-R;
#X obj 54 35 receive~ input1;
#X obj 152 35 receive~ input2;
#N canvas 794 230 450 300 inputAnalyzer 1;
#X obj 19 79 inlet~;
#X obj 335 95 inlet~;
#X obj 134 117 pitchTracker;
#X obj 19 117 envelope_follower;
#X obj 19 139 s celloNote;
#X obj 118 158 s cellodB;
#X floatatom 29 194 5 0 0 0 - - -;
#X floatatom 114 193 5 0 0 0 - - -;
#X msg 248 75 offThresh \$1;
#X msg 131 74 attackThresh \$1;
#X floatatom 143 33 5 0 0 0 - - -;
#X floatatom 260 34 5 0 0 0 - - -;
#X msg 366 59 wait \$1;
#X floatatom 372 20 5 0 0 0 - - -;
#X connect 0 0 2 0;
#X connect 0 0 3 0;
#X connect 3 0 4 0;
#X connect 3 0 6 0;
#X connect 3 1 5 0;
#X connect 3 1 7 0;
#X connect 8 0 3 1;
#X connect 9 0 3 1;
#X connect 10 0 9 0;
#X connect 11 0 8 0;
#X connect 12 0 3 1;
#X connect 13 0 12 0;
#X restore 55 57 pd inputAnalyzer -;
#X obj 72 242 tb_peakcomp~ -10 8 10 100 0;
#N canvas 706 97 650 686 record 0;
#X obj 15 335 writesf~ 2;
#X msg 210 95 bang;
#X obj 207 143 date GTM;
#X msg 137 -33 umoi;
#X obj 262 144 time GTM;
#X obj 65 61 t a b;
#X obj 65 189 sprintf %s_%i-%i-%i_%i:%i;
#X obj 65 26 sprintf %s%s;
#X msg 65 -34 session/;
#X obj 112 -85 t b b;
#X obj 65 254 sprintf %s%s;
#X msg 135 220 .wav;
#X obj 65 212 t a b;
#X obj 65 282 prepend open;
#X msg 47 -94 start;
#X obj 95 -127 t b b;
#X obj 161 -144 sel 1 0;
#X msg 185 -97 stop;
#X obj 274 -161 inlet;
#X obj 15 -156 inlet~;
#X obj 71 -156 inlet~;
#X connect 1 0 2 0;
#X connect 1 0 4 0;
#X connect 2 0 6 1;
#X connect 2 1 6 2;
#X connect 2 2 6 3;
#X connect 3 0 7 1;
#X connect 4 0 6 4;
#X connect 4 1 6 5;
#X connect 5 0 6 0;
#X connect 5 1 1 0;
#X connect 6 0 12 0;
#X connect 7 0 5 0;
#X connect 8 0 7 0;
#X connect 9 0 8 0;
#X connect 9 1 3 0;
#X connect 10 0 13 0;
#X connect 11 0 10 1;
#X connect 12 0 10 0;
#X connect 12 1 11 0;
#X connect 13 0 0 0;
#X connect 14 0 0 0;
#X connect 15 0 14 0;
#X connect 15 1 9 0;
#X connect 16 0 15 0;
#X connect 16 1 17 0;
#X connect 17 0 0 0;
#X connect 18 0 16 0;
#X connect 19 0 0 0;
#X connect 20 0 0 1;
#X restore 132 282 pd record;
#X obj 183 263 tgl 15 0 empty empty empty 17 7 0 10 -258113 -1 -1 0
1;
#N canvas 567 241 450 300 mididev 1;
#X floatatom 38 90 5 0 0 0 - - -;
#X floatatom 60 120 5 0 0 0 - - -;
#X obj 38 52 notein 0;
#X obj 39 214 s fcb;
#X obj 60 146 / 100;
#X obj 38 182 spigot;
#X text 38 32 FCB;
#X obj 248 167 s;
#X obj 248 51 ctlin;
#X obj 261 112 pack;
#X msg 261 144 symbol nano\$2-\$1;
#X text 188 29 Korg Nano Page;
#X obj 275 80 moses 5;
#X floatatom 117 89 5 0 0 0 - - -;
#X obj 124 231 s;
#X obj 126 164 spigot;
#X obj 143 127 == 17;
#X msg 147 208 symbol fcbCC-\$1;
#X obj 116 52 ctlin;
#X connect 0 0 5 0;
#X connect 1 0 4 0;
#X connect 2 0 0 0;
#X connect 2 1 1 0;
#X connect 4 0 5 1;
#X connect 5 0 3 0;
#X connect 8 0 7 0;
#X connect 8 1 9 0;
#X connect 8 2 12 0;
#X connect 9 0 10 0;
#X connect 10 0 7 1;
#X connect 12 1 9 1;
#X connect 13 0 14 0;
#X connect 15 0 17 0;
#X connect 16 0 15 1;
#X connect 17 0 14 1;
#X connect 18 0 13 0;
#X connect 18 1 15 0;
#X connect 18 2 16 0;
#X restore 205 1 pd mididev;
#X obj 321 -31 receive~ input2;
#X obj 130 -76 receive~ input2;
#X obj 320 0 SJ2slicycle 1 0;
#N canvas 743 311 375 310 globalticks 0;
#X obj 78 221 s globalticks;
#N canvas 181 179 345 423 generate-ticks 0;
#X obj 32 98 tgl 15 1 empty empty empty 17 7 0 10 -262144 -1 -1 1 1
;
#X obj 32 146 metro;
#N canvas 982 160 208 259 milliseconds 0;
#X obj 19 18 inlet;
#X obj 19 199 outlet;
#X obj 19 46 t b f;
#X obj 19 170 /;
#X msg 69 77 15000;
#X msg 113 77 20000;
#X obj 19 147 f 15000;
#X obj 69 103 t b f;
#X obj 69 43 sel 0 1;
#X text 19 225 1/16 or 1/12 note;
#X obj 69 17 r \$0-timesignature;
#X floatatom 96 135 5 0 0 0 - - -;
#X connect 0 0 2 0;
#X connect 2 0 6 0;
#X connect 2 1 3 1;
#X connect 3 0 1 0;
#X connect 4 0 7 0;
#X connect 5 0 7 0;
#X connect 6 0 3 0;
#X connect 7 0 6 0;
#X connect 7 1 11 0;
#X connect 7 1 6 1;
#X connect 8 0 4 0;
#X connect 8 1 5 0;
#X connect 10 0 8 0;
#X restore 59 97 pd milliseconds;
#X floatatom 76 121 8 0 0 0 - - -;
#X obj 32 193 +;
#X obj 73 146 s ticklength;
#X obj 32 376 outlet;
#X obj 32 170 f 1;
#N canvas 298 510 316 238 ticksort 0;
#X obj 27 60 t f f;
#X obj 27 27 inlet;
#X obj 27 117 pack;
#X text 25 6 ticks;
#X obj 27 88 & 3;
#X obj 27 143 route 0 1 2 3;
#X obj 27 175 outlet;
#X obj 73 175 outlet;
#X obj 122 175 outlet;
#X obj 170 175 outlet;
#X obj 242 175 outlet;
#X text 28 199 first;
#X text 72 199 second;
#X text 121 199 third;
#X text 168 199 fourth;
#X text 240 198 index;
#X connect 0 0 4 0;
#X connect 0 1 2 1;
#X connect 1 0 0 0;
#X connect 2 0 5 0;
#X connect 4 0 2 0;
#X connect 4 0 10 0;
#X connect 5 0 6 0;
#X connect 5 1 7 0;
#X connect 5 2 8 0;
#X connect 5 3 9 0;
#X restore 32 319 pd ticksort;
#N canvas 573 498 515 163 tickdelays 0;
#X obj 21 15 inlet;
#X obj 21 88 pipe;
#X obj 202 125 outlet;
#X obj 106 14 inlet;
#X obj 106 87 pipe;
#X obj 202 15 inlet;
#X obj 202 88 pipe;
#X obj 287 15 inlet;
#X obj 287 88 pipe;
#N canvas 698 484 303 226 sambagroove 0;
#X obj 32 7 r ticklength;
#X obj 181 28 sel 1;
#X msg 181 56 0;
#X obj 32 30 t b f;
#X obj 19 69 *;
#X obj 19 98 spigot;
#X obj 141 28 t b f;
#X obj 19 -17 r \$0-groove;
#X obj 141 -18 r \$0-groovetype;
#X obj 19 164 s \$0-tickdelay0;
#X obj 35 131 s \$0-tickdelay1;
#X obj 181 125 s \$0-tickdelay2;
#X obj 195 94 s \$0-tickdelay3;
#X connect 0 0 3 0;
#X connect 1 0 2 0;
#X connect 2 0 11 0;
#X connect 2 0 12 0;
#X connect 3 0 4 0;
#X connect 3 1 4 1;
#X connect 4 0 5 0;
#X connect 5 0 9 0;
#X connect 5 0 10 0;
#X connect 6 0 4 0;
#X connect 6 1 5 1;
#X connect 7 0 4 0;
#X connect 8 0 1 0;
#X connect 8 0 6 0;
#X restore 385 93 pd sambagroove;
#N canvas 823 242 346 186 tripletgroove 0;
#X obj 37 15 r ticklength;
#X msg 213 65 0;
#X obj 37 38 t b f;
#X obj 24 77 *;
#X obj 24 106 spigot;
#X obj 146 36 t b f;
#X obj 213 36 sel 0;
#X obj 173 65 == 0;
#X obj 24 -10 r \$0-groove;
#X obj 146 -10 r \$0-groovetype;
#X obj 24 153 s \$0-tickdelay1;
#X obj 44 131 s \$0-tickdelay3;
#X obj 213 134 s \$0-tickdelay0;
#X obj 225 101 s \$0-tickdelay2;
#X connect 0 0 2 0;
#X connect 1 0 12 0;
#X connect 1 0 13 0;
#X connect 2 0 3 0;
#X connect 2 1 3 1;
#X connect 3 0 4 0;
#X connect 4 0 10 0;
#X connect 4 0 11 0;
#X connect 5 0 3 0;
#X connect 5 1 7 0;
#X connect 6 0 1 0;
#X connect 7 0 4 1;
#X connect 8 0 3 0;
#X connect 9 0 5 0;
#X connect 9 0 6 0;
#X restore 386 21 pd tripletgroove;
#X floatatom 56 89 5 0 0 0 - - -;
#X floatatom 141 89 5 0 0 0 - - -;
#X floatatom 234 88 5 0 0 0 - - -;
#X floatatom 320 89 5 0 0 0 - - -;
#X obj 42 39 r \$0-tickdelay0;
#X obj 127 61 r \$0-tickdelay1;
#X obj 223 38 r \$0-tickdelay2;
#X obj 308 61 r \$0-tickdelay3;
#X connect 0 0 1 0;
#X connect 1 0 2 0;
#X connect 3 0 4 0;
#X connect 4 0 2 0;
#X connect 5 0 6 0;
#X connect 6 0 2 0;
#X connect 7 0 8 0;
#X connect 8 0 2 0;
#X connect 15 0 1 1;
#X connect 15 0 11 0;
#X connect 16 0 4 1;
#X connect 16 0 12 0;
#X connect 17 0 6 1;
#X connect 17 0 13 0;
#X connect 18 0 8 1;
#X connect 18 0 14 0;
#X restore 32 350 pd tickdelays;
#X obj 64 193 r \$0-set-one;
#X text 119 349 << groove;
#X obj 32 290 tabread \$0-commontime;
#X obj 185 225 symbol \$0-sixquavers;
#X msg 166 250 set \$1;
#X obj 166 202 symbol \$0-commontime;
#X obj 166 146 r \$0-timesignature;
#X obj 32 248 mod 192;
#X obj 59 15 inlet;
#X obj 166 175 sel 0 1;
#X text 68 41 if zero \, set metro off;
#X text 99 16 BPM;
#X obj 32 67 change;
#X obj 32 42 != 0;
#X msg 64 218 0;
#X floatatom 50 219 5 0 0 0 - - -;
#X floatatom 88 220 5 0 0 0 - - -;
#X connect 0 0 1 0;
#X connect 1 0 7 0;
#X connect 2 0 1 1;
#X connect 2 0 3 0;
#X connect 2 0 5 0;
#X connect 4 0 17 0;
#X connect 4 0 25 0;
#X connect 7 0 4 0;
#X connect 8 0 9 0;
#X connect 8 1 9 1;
#X connect 8 2 9 2;
#X connect 8 3 9 3;
#X connect 9 0 6 0;
#X connect 10 0 24 0;
#X connect 12 0 8 0;
#X connect 12 0 26 0;
#X connect 13 0 14 0;
#X connect 14 0 12 0;
#X connect 15 0 14 0;
#X connect 16 0 19 0;
#X connect 17 0 4 1;
#X connect 17 0 12 0;
#X connect 18 0 2 0;
#X connect 18 0 23 0;
#X connect 19 0 15 0;
#X connect 19 1 13 0;
#X connect 19 2 15 0;
#X connect 22 0 0 0;
#X connect 23 0 22 0;
#X connect 24 0 17 0;
#X restore 78 152 pd generate-ticks;
#N canvas 539 155 297 177 tick-tables 0;
#X obj 31 18 loadbang;
#N canvas 65 110 246 266 commontime 0;
#X obj 30 209 table \$0-commontime 256;
#X obj 31 175 tabwrite \$0-commontime;
#X obj 31 142 t f f;
#X obj 31 86 bng 15 250 50 0 empty empty empty 17 7 0 10 -262144 -1
-1;
#X obj 31 53 inlet;
#X obj 31 114 iterate 256;
#X connect 2 0 1 0;
#X connect 2 1 1 1;
#X connect 3 0 5 0;
#X connect 4 0 3 0;
#X connect 5 0 2 0;
#X restore 31 100 pd commontime;
#N canvas 748 33 413 471 sixquavers 0;
#X obj 27 38 inlet;
#X obj 27 66 bng 15 250 50 0 empty empty empty 17 7 0 10 -262144 -1
-1;
#X obj 27 272 tabwrite \$0-sixquavers;
#X obj 27 122 t b f;
#X obj 156 246 +;
#X obj 27 191 unpack;
#X obj 224 243 s \$0-sixquavers;
#X msg 224 215 arrayviewlistnew;
#X obj 171 221 * 12;
#X obj 27 245 +;
#X obj 42 220 * 16;
#X obj 224 272 table \$0-sixquavers 192;
#X msg 27 151 0 0 \, 1 1 \, 2 2 \, 4 3 \, 5 4 \, 6 5 \, 8 6 \, 9 7
\, 10 8 \, 12 9 \, 13 10 \, 14 11;
#X obj 27 364 hradio 15 1 0 3 empty empty empty 0 -8 0 10 -262144 -262144
-1 0;
#X obj 77 364 hradio 15 1 0 3 empty empty empty 0 -8 0 10 -262144 -262144
-1 0;
#X obj 126 364 hradio 15 1 0 3 empty empty empty 0 -8 0 10 -262144
-262144 -1 0;
#X obj 176 364 hradio 15 1 0 3 empty empty empty 0 -8 0 10 -262144
-262144 -1 0;
#X obj 28 391 hradio 15 1 0 1 empty empty empty 0 -8 0 10 -262144 -262144
-1 0;
#X obj 58 391 hradio 15 1 0 1 empty empty empty 0 -8 0 10 -262144 -262144
-1 0;
#X obj 77 391 hradio 15 1 0 1 empty empty empty 0 -8 0 10 -262144 -262144
-1 0;
#X obj 107 391 hradio 15 1 0 1 empty empty empty 0 -8 0 10 -262144
-262144 -1 0;
#X obj 127 391 hradio 15 1 0 1 empty empty empty 0 -8 0 10 -262144
-262144 -1 0;
#X obj 157 391 hradio 15 1 0 1 empty empty empty 0 -8 0 10 -262144
-262144 -1 0;
#X obj 176 391 hradio 15 1 0 1 empty empty empty 0 -8 0 10 -262144
-262144 -1 0;
#X obj 206 391 hradio 15 1 0 1 empty empty empty 0 -8 0 10 -262144
-262144 -1 0;
#X obj 28 417 hradio 15 1 0 1 empty empty empty 0 -8 0 10 -262144 -262144
-1 0;
#X obj 78 417 hradio 15 1 0 1 empty empty empty 0 -8 0 10 -262144 -262144
-1 0;
#X obj 127 416 hradio 15 1 0 1 empty empty empty 0 -8 0 10 -262144
-262144 -1 0;
#X obj 177 416 hradio 15 1 0 1 empty empty empty 0 -8 0 10 -262144
-262144 -1 0;
#X text 26 334 it is 12/16 really:;
#X text 245 361 semiquavers;
#X text 246 388 quavers;
#X text 247 415 beats;
#X obj 27 91 iterate 16;
#X connect 0 0 1 0;
#X connect 1 0 33 0;
#X connect 3 0 12 0;
#X connect 3 1 8 0;
#X connect 3 1 10 0;
#X connect 4 0 2 1;
#X connect 5 0 9 0;
#X connect 5 1 4 0;
#X connect 7 0 6 0;
#X connect 8 0 4 1;
#X connect 9 0 2 0;
#X connect 10 0 9 1;
#X connect 12 0 5 0;
#X connect 33 0 3 0;
#X restore 122 100 pd sixquavers;
#X connect 0 0 1 0;
#X connect 0 0 2 0;
#X restore 263 24 pd tick-tables;
#X obj 45 25 r BPM/groove;
#X obj 45 57 unpack;
#N canvas 0 22 302 213 label 0;
#X obj 37 34 inlet;
#X obj 37 140 s BPM/grooveguireceive;
#X obj 37 65 makefilename %d;
#X msg 37 105 label \$1;
#X text 35 164 xy-object label;
#X connect 0 0 2 0;
#X connect 2 0 3 0;
#X connect 3 0 1 0;
#X restore 89 121 pd label;
#N canvas 65 92 320 210 BPM 0;
#X obj 36 27 inlet;
#X obj 36 56 * 235;
#X obj 36 152 outlet;
#X obj 36 88 moses 10;
#X msg 36 115 0;
#X text 77 56 max BPM: 235;
#X text 99 88 if lower than 10 \, set to zero;
#X obj 81 119 s beatsperminute;
#X connect 0 0 1 0;
#X connect 1 0 3 0;
#X connect 3 0 4 0;
#X connect 3 1 2 0;
#X connect 3 1 7 0;
#X connect 4 0 2 0;
#X restore 78 90 pd BPM;
#X obj 45 271 s \$0-groove;
#X text 126 25 from xy field;
#X obj 45 246 * 0.25;
#X floatatom 222 224 5 0 0 0 - - -;
#X connect 1 0 0 0;
#X connect 1 0 10 0;
#X connect 3 0 4 0;
#X connect 4 0 9 0;
#X connect 4 1 6 0;
#X connect 6 0 1 0;
#X connect 6 0 5 0;
#X connect 9 0 7 0;
#X restore 54 -29 pd globalticks;
#X floatatom 63 -203 5 0 0 0 - - -;
#X obj 67 -132 pack;
#X floatatom 104 -231 5 0 0 0 - - -;
#X obj 81 -166 t b f;
#X obj 67 -109 s BPM/groove;
#X obj 320 247 throw~ main-mono;
#X obj 421 275 throw~ main-mono;
#X obj 523 242 throw~ main-mono;
#X obj 321 193 *~;
#X obj 421 243 *~;
#X obj 523 219 *~;
#X obj 546 168 vsl 15 40 0 1 0 0 empty empty empty 0 -9 0 10 -262144
-1 -1 0 1;
#X obj 461 226 vsl 15 40 0 1 0 0 empty empty empty 0 -9 0 10 -262144
-1 -1 0 1;
#X obj 350 183 vsl 15 40 0 1 0 0 empty empty empty 0 -9 0 10 -262144
-1 -1 0 1;
#X obj -19 176 catch~ main-mono;
#X obj 452 -148 pack f f;
#X obj 508 -168 t b f;
#X floatatom 449 -189 5 0 0 0 - - -;
#X floatatom 509 -196 5 0 0 0 - - -;
#X obj 450 -111 s squaver1;
#X obj 230 -147 pack f f;
#X obj 286 -167 t b f;
#X floatatom 227 -188 5 0 0 0 - - -;
#X floatatom 287 -195 5 0 0 0 - - -;
#X obj 228 -110 s beat1;
#X obj 335 -149 pack f f;
#X obj 391 -169 t b f;
#X floatatom 332 -190 5 0 0 0 - - -;
#X floatatom 392 -197 5 0 0 0 - - -;
#X obj 333 -112 s quaver1;
#X obj 624 263 throw~ main-mono;
#X obj 721 243 throw~ main-mono;
#X obj 818 219 throw~ main-mono;
#X obj 625 209 *~;
#X obj 721 211 *~;
#X obj 818 196 *~;
#X obj 761 194 vsl 15 40 0 1 0 0 empty empty empty 0 -9 0 10 -262144
-1 -1 0 1;
#X obj 662 199 vsl 15 40 0 1 0 0 empty empty empty 0 -9 0 10 -262144
-1 -1 0 1;
#X obj 841 141 vsl 15 40 0 1 0 0 empty empty empty 0 -9 0 10 -262144
-1 -1 0 1;
#X obj 625 -39 receive~ input2;
#X obj 846 -147 pack f f;
#X obj 902 -167 t b f;
#X floatatom 843 -188 5 0 0 0 - - -;
#X floatatom 903 -195 5 0 0 0 - - -;
#X obj 624 -146 pack f f;
#X obj 680 -166 t b f;
#X floatatom 621 -187 5 0 0 0 - - -;
#X floatatom 681 -194 5 0 0 0 - - -;
#X obj 729 -148 pack f f;
#X obj 785 -168 t b f;
#X floatatom 726 -189 5 0 0 0 - - -;
#X floatatom 786 -196 5 0 0 0 - - -;
#X obj 622 -109 s beat2;
#X obj 727 -111 s quaver2;
#X obj 844 -110 s squaver2;
#X msg 853 -241 0.7;
#X msg 893 -241 0.9;
#X msg 815 -244 0.8;
#N canvas 667 126 450 300 midimonitor 0;
#X obj 204 166;
#X floatatom 103 102 5 0 0 0 - - -;
#X floatatom 141 102 5 0 0 0 - - -;
#X floatatom 180 102 5 0 0 0 - - -;
#X obj 123 61 ctlin;
#X connect 4 0 1 0;
#X connect 4 1 2 0;
#X connect 4 2 3 0;
#X coords 0 -1 1 1 115 20 2 100 100;
#X restore 251 -70 pd midimonitor;
#X obj 368 202 / 127;
#X obj 449 203 / 127;
#X obj 539 94 / 127;
#X obj 680 202 / 127;
#X obj 780 199 / 127;
#X obj 864 150 / 127;
#X obj 130 -55 throw~ main-mono;
#X obj 473 -233 / 127;
#X obj 391 -229 / 127;
#X obj 281 -230 / 127;
#X obj 610 -232 / 127;
#X obj 716 -236 / 127;
#X obj 781 -230 / 127;
#X obj 942 121 e_del;
#X obj 941 165 throw~ main-mono;
#X floatatom 984 65 5 0 0 0 - - -;
#X floatatom 935 4 5 0 0 0 - - -;
#X msg 981 19 dry 1;
#X obj 936 78 sig~;
#X obj 1036 -35 * 235;
#X msg 1036 -12 bpm \$1;
#X obj 1033 -88 r BPM/groove;
#X obj 1041 -64 unpack;
#X msg 1095 -12 deltime \$1;
#X floatatom 1002 -141 5 0 0 0 - - -;
#X msg 914 28 0;
#X msg 1119 -183 16;
#X msg 1069 -183 32;
#X msg 991 -181 8;
#X obj 872 -22 catch~ delaySlice;
#X obj 938 243 throw~ delaySlice;
#X obj 929 213 *~;
#X obj 1005 207 / 127;
#N canvas 167 269 769 300 scene1 1;
#N canvas 162 171 650 686 windgenerator 1;
#X obj 52 271 e_del whino;
#X msg 126 -126 dry 1;
#X msg 262 -121 feedback 0;
#X obj 80 216 sig~;
#X floatatom 80 162 5 0 0 0 - - -;
#X obj 82 242 lop~ 0.5;
#X obj 126 -85 s toDel;
#X obj 304 246 r toDel;
#X obj 80 187 * 1000;
#X obj 213 278 e_del whino;
#X obj 241 223 sig~;
#X floatatom 241 169 5 0 0 0 - - -;
#X obj 243 249 lop~ 0.5;
#X obj 241 194 * 1000;
#X obj 137 257 r toDel;
#X obj 513 243 r toDel;
#X obj 422 275 e_del whino;
#X obj 450 220 sig~;
#X floatatom 450 166 5 0 0 0 - - -;
#X obj 452 246 lop~ 0.5;
#X obj 450 191 * 1000;
#X obj 711 237 r toDel;
#X obj 620 269 e_del whino;
#X obj 648 214 sig~;
#X floatatom 648 160 5 0 0 0 - - -;
#X obj 650 240 lop~ 0.5;
#X obj 648 185 * 1000;
#N canvas 515 268 450 300 asyntimer 0;
#X obj 38 114 random 200;
#X obj 9 69 t b b;
#X obj 9 177 del;
#X obj 38 156 + 1000;
#X obj 59 198 spigot;
#X obj 38 135 * 50;
#X obj 8 9 inlet;
#X obj 10 222 outlet;
#X obj 87 12 inlet;
#X obj 124 13 inlet;
#X connect 0 0 5 0;
#X connect 1 0 2 0;
#X connect 1 1 0 0;
#X connect 2 0 7 0;
#X connect 2 0 4 0;
#X connect 3 0 2 1;
#X connect 4 0 1 0;
#X connect 5 0 3 0;
#X connect 6 0 1 0;
#X connect 8 0 5 1;
#X connect 9 0 4 1;
#X restore 136 19 pd asyntimer;
#X floatatom 170 -9 5 0 0 0 - - -;
#X obj 210 -9 tgl 15 0 empty empty empty 17 7 0 10 -262144 -1 -1 1
1;
#X obj 136 -9 bng 15 250 50 0 empty empty empty 17 7 0 10 -262144 -1
-1;
#X obj 136 50 bng 15 250 50 0 empty empty empty 17 7 0 10 -262144 -1
-1;
#N canvas 812 196 480 487 conductor 0;
#X obj 162 40 random 4;
#X obj 162 13 inlet;
#X obj -66 130 inlet~;
#X obj -8 427 outlet~;
#X obj -66 427 outlet~;
#X obj 46 428 outlet~;
#X obj 103 428 outlet~;
#X obj -66 335 mtx_*~ 4 1 .....................;
#N canvas 492 427 450 300 before 0;
#X obj 99 114 f;
#X floatatom 99 137 5 0 0 0 - - -;
#X floatatom 58 112 5 0 0 0 - - -;
#X obj 95 82 t f f b;
#X obj 95 56 inlet;
#X obj 58 229 outlet;
#X msg 58 171 element \$1 1 1;
#X msg 99 202 element \$1 1 0;
#X connect 0 0 1 0;
#X connect 1 0 7 0;
#X connect 2 0 6 0;
#X connect 3 0 2 0;
#X connect 3 1 0 1;
#X connect 3 2 0 0;
#X connect 4 0 3 0;
#X connect 6 0 5 0;
#X connect 7 0 5 0;
#X restore 162 83 pd before;
#X obj 162 60 + 1;
#X connect 0 0 9 0;
#X connect 1 0 0 0;
#X connect 2 0 7 1;
#X connect 7 0 4 0;
#X connect 7 1 3 0;
#X connect 7 2 5 0;
#X connect 7 3 6 0;
#X connect 8 0 7 0;
#X connect 9 0 8 0;
#X restore 67 89 pd conductor;
#X obj 51 346 *~;
#X obj 190 343 *~;
#X obj 410 328 *~;
#X obj 572 332 *~;
#X obj 76 313 receive~ wind1;
#X obj 212 313 receive~ wind2;
#X obj 456 307 receive~ wind3;
#X obj 607 309 receive~ wind4;
#N canvas 721 291 522 421 randomwalks 0;
#N canvas 515 268 450 300 asyntimer 0;
#X obj 38 114 random 200;
#X obj 9 69 t b b;
#X obj 9 177 del;
#X obj 38 156 + 1000;
#X obj 59 198 spigot;
#X obj 38 135 * 50;
#X obj 8 9 inlet;
#X obj 10 222 outlet;
#X obj 87 12 inlet;
#X obj 124 13 inlet;
#X connect 0 0 5 0;
#X connect 1 0 2 0;
#X connect 1 1 0 0;
#X connect 2 0 7 0;
#X connect 2 0 4 0;
#X connect 3 0 2 1;
#X connect 4 0 1 0;
#X connect 5 0 3 0;
#X connect 6 0 1 0;
#X connect 8 0 5 1;
#X connect 9 0 4 1;
#X restore 58 132 pd asyntimer;
#X obj 61 104 bng 15 250 50 0 empty empty empty 17 7 0 10 -262144 -1
-1;
#X msg 126 109 1;
#X floatatom 75 186 5 0 0 0 - - -;
#X floatatom 85 90 5 0 0 0 - - -;
#X obj 61 161 random 127;
#X obj 75 235 vline~;
#X obj 78 259 /~ 127;
#X obj 81 308 send~ wind1;
#X obj 157 306 send~ wind2;
#X obj 336 298 send~ wind4;
#X msg 75 208 \$1 1000;
#N canvas 515 268 450 300 asyntimer 0;
#X obj 38 114 random 200;
#X obj 9 69 t b b;
#X obj 9 177 del;
#X obj 38 156 + 1000;
#X obj 59 198 spigot;
#X obj 38 135 * 50;
#X obj 8 9 inlet;
#X obj 10 222 outlet;
#X obj 87 12 inlet;
#X obj 124 13 inlet;
#X connect 0 0 5 0;
#X connect 1 0 2 0;
#X connect 1 1 0 0;
#X connect 2 0 7 0;
#X connect 2 0 4 0;
#X connect 3 0 2 1;
#X connect 4 0 1 0;
#X connect 5 0 3 0;
#X connect 6 0 1 0;
#X connect 8 0 5 1;
#X connect 9 0 4 1;
#X restore 155 128 pd asyntimer;
#X obj 158 100 bng 15 250 50 0 empty empty empty 17 7 0 10 -262144
-1 -1;
#X msg 223 105 1;
#X floatatom 172 182 5 0 0 0 - - -;
#X floatatom 182 86 5 0 0 0 - - -;
#X obj 158 157 random 127;
#X obj 172 231 vline~;
#X obj 175 255 /~ 127;
#X msg 172 204 \$1 1000;
#N canvas 518 263 450 300 asyntimer 0;
#X obj 38 114 random 200;
#X obj 9 69 t b b;
#X obj 9 177 del;
#X obj 38 156 + 1000;
#X obj 59 198 spigot;
#X obj 38 135 * 50;
#X obj 8 9 inlet;
#X obj 10 222 outlet;
#X obj 87 12 inlet;
#X obj 124 13 inlet;
#X connect 0 0 5 0;
#X connect 1 0 2 0;
#X connect 1 1 0 0;
#X connect 2 0 7 0;
#X connect 2 0 4 0;
#X connect 3 0 2 1;
#X connect 4 0 1 0;
#X connect 5 0 3 0;
#X connect 6 0 1 0;
#X connect 8 0 5 1;
#X connect 9 0 4 1;
#X restore 262 123 pd asyntimer;
#X obj 265 95 bng 15 250 50 0 empty empty empty 17 7 0 10 -262144 -1
-1;
#X msg 330 100 1;
#X floatatom 279 177 5 0 0 0 - - -;
#X floatatom 289 81 5 0 0 0 - - -;
#X obj 265 152 random 127;
#X obj 279 226 vline~;
#X obj 269 252 /~ 127;
#X msg 279 199 \$1 1000;
#X obj 251 299 send~ wind3;
#N canvas 518 263 450 300 asyntimer 0;
#X obj 38 114 random 200;
#X obj 9 69 t b b;
#X obj 9 177 del;
#X obj 38 156 + 1000;
#X obj 59 198 spigot;
#X obj 38 135 * 50;
#X obj 8 9 inlet;
#X obj 10 222 outlet;
#X obj 87 12 inlet;
#X obj 124 13 inlet;
#X connect 0 0 5 0;
#X connect 1 0 2 0;
#X connect 1 1 0 0;
#X connect 2 0 7 0;
#X connect 2 0 4 0;
#X connect 3 0 2 1;
#X connect 4 0 1 0;
#X connect 5 0 3 0;
#X connect 6 0 1 0;
#X connect 8 0 5 1;
#X connect 9 0 4 1;
#X restore 359 121 pd asyntimer;
#X obj 362 93 bng 15 250 50 0 empty empty empty 17 7 0 10 -262144 -1
-1;
#X msg 427 98 1;
#X floatatom 376 175 5 0 0 0 - - -;
#X floatatom 386 79 5 0 0 0 - - -;
#X obj 362 150 random 127;
#X obj 376 224 vline~;
#X obj 379 248 /~ 127;
#X msg 376 197 \$1 1000;
#X obj 144 -42 loadbang;
#X obj 150 -9 t b b b;
#X obj 166 -73 bng 15 250 50 0 empty empty empty 17 7 0 10 -262144
-1 -1;
#X obj 80 284 *~;
#X obj 163 273 *~;
#X obj 253 275 *~;
#X obj 361 274 *~;
#X msg 171 25 15;
#X connect 0 0 5 0;
#X connect 1 0 0 0;
#X connect 2 0 0 2;
#X connect 3 0 11 0;
#X connect 4 0 0 1;
#X connect 5 0 3 0;
#X connect 6 0 7 0;
#X connect 7 0 43 0;
#X connect 7 0 43 1;
#X connect 11 0 6 0;
#X connect 12 0 17 0;
#X connect 13 0 12 0;
#X connect 14 0 12 2;
#X connect 15 0 20 0;
#X connect 16 0 12 1;
#X connect 17 0 15 0;
#X connect 18 0 19 0;
#X connect 19 0 44 0;
#X connect 19 0 44 1;
#X connect 20 0 18 0;
#X connect 21 0 26 0;
#X connect 22 0 21 0;
#X connect 23 0 21 2;
#X connect 24 0 29 0;
#X connect 25 0 21 1;
#X connect 26 0 24 0;
#X connect 27 0 28 0;
#X connect 28 0 45 0;
#X connect 28 0 45 1;
#X connect 29 0 27 0;
#X connect 31 0 36 0;
#X connect 32 0 31 0;
#X connect 33 0 31 2;
#X connect 34 0 39 0;
#X connect 35 0 31 1;
#X connect 36 0 34 0;
#X connect 37 0 38 0;
#X connect 38 0 46 0;
#X connect 38 0 46 1;
#X connect 39 0 37 0;
#X connect 40 0 41 0;
#X connect 41 0 1 0;
#X connect 41 0 13 0;
#X connect 41 0 22 0;
#X connect 41 0 32 0;
#X connect 41 1 47 0;
#X connect 41 2 33 0;
#X connect 41 2 23 0;
#X connect 41 2 14 0;
#X connect 41 2 2 0;
#X connect 42 0 40 0;
#X connect 43 0 8 0;
#X connect 44 0 9 0;
#X connect 45 0 30 0;
#X connect 46 0 10 0;
#X connect 47 0 35 0;
#X connect 47 0 25 0;
#X connect 47 0 16 0;
#X connect 47 0 4 0;
#X restore 709 269 pd randomwalks;
#X obj 39 -110 *~;
#X obj 54 -127 tgl 15 0 empty empty empty 17 7 0 10 -262144 -1 -1 0
127;
#X obj 126 -183 loadbang;
#X obj 286 -78 loadbang;
#X obj 282 -40 t b b b;
#X msg 296 -15 50;
#X msg 257 100 10;
#X msg 362 103 30;
#X msg 316 92 17;
#X msg 403 111 22;
#X obj 39 -84 send~ inlet;
#X obj 68 -33 receive~ inlet;
#X obj 39 -152 inlet~;
#X obj 51 442 outlet~;
#X obj 264 449 outlet~;
#X obj 459 454 outlet~;
#X obj 524 453 outlet~;
#X obj 602 443 outlet~;
#X msg 176 -121 feedback \$1;
#X obj 176 -146 1;
#X floatatom 333 -158 5 0 0 0 - - -;
#X obj 49 -203 r nano6-20;
#X obj 53 -182 sel 127;
#X obj 277 -179 sel 127;
#X obj 273 -200 r nano6-29;
#X obj 217 -174 bng 15 250 50 0 empty empty empty 17 7 0 10 -262144
-1 -1;
#X obj 190 -198 r nano6-30;
#X connect 0 0 33 0;
#X connect 1 0 6 0;
#X connect 2 0 6 0;
#X connect 3 0 5 0;
#X connect 4 0 8 0;
#X connect 5 0 0 1;
#X connect 7 0 9 2;
#X connect 8 0 3 0;
#X connect 9 0 34 0;
#X connect 10 0 12 0;
#X connect 11 0 13 0;
#X connect 12 0 9 1;
#X connect 13 0 10 0;
#X connect 14 0 0 2;
#X connect 15 0 16 2;
#X connect 16 0 35 0;
#X connect 17 0 19 0;
#X connect 18 0 20 0;
#X connect 19 0 16 1;
#X connect 20 0 17 0;
#X connect 21 0 22 2;
#X connect 22 0 36 0;
#X connect 23 0 25 0;
#X connect 24 0 26 0;
#X connect 25 0 22 1;
#X connect 26 0 23 0;
#X connect 27 0 31 0;
#X connect 28 0 27 1;
#X connect 29 0 27 2;
#X connect 30 0 27 0;
#X connect 31 0 32 1;
#X connect 32 0 0 0;
#X connect 32 1 9 0;
#X connect 32 2 16 0;
#X connect 32 3 22 0;
#X connect 33 0 55 0;
#X connect 33 0 56 0;
#X connect 34 0 55 0;
#X connect 34 0 57 0;
#X connect 35 0 55 0;
#X connect 35 0 58 0;
#X connect 36 0 55 0;
#X connect 36 0 59 0;
#X connect 37 0 33 1;
#X connect 38 0 34 1;
#X connect 39 0 35 1;
#X connect 40 0 36 1;
#X connect 42 0 52 0;
#X connect 43 0 42 1;
#X connect 44 0 1 0;
#X connect 44 0 61 0;
#X connect 45 0 46 0;
#X connect 46 0 30 0;
#X connect 46 1 47 0;
#X connect 46 2 29 0;
#X connect 46 2 48 0;
#X connect 46 2 50 0;
#X connect 46 2 49 0;
#X connect 46 2 51 0;
#X connect 47 0 28 0;
#X connect 48 0 4 0;
#X connect 49 0 18 0;
#X connect 50 0 11 0;
#X connect 51 0 24 0;
#X connect 53 0 32 0;
#X connect 54 0 42 0;
#X connect 60 0 6 0;
#X connect 61 0 60 0;
#X connect 63 0 64 0;
#X connect 64 0 43 0;
#X connect 65 0 2 0;
#X connect 66 0 65 0;
#X connect 67 0 61 0;
#X connect 68 0 67 0;
#X restore -198 4 pd windgenerator;
#N canvas 857 226 916 717 filter~ 1;
#X obj -231 -28 inlet~;
#X obj 61 251 outlet~;
#X obj 60 114 bp~ 600 7;
#X floatatom 380 8 5 0 0 0 - - -;
#X obj 127 114 bp~ 1000 7;
#X obj 195 114 bp~ 1200 7;
#X obj 274 113 bp~ 4000 7;
#X floatatom 445 7 5 0 0 0 - - -;
#X floatatom 294 9 5 0 0 0 - - -;
#X floatatom 222 21 5 0 0 0 - - -;
#X obj 61 144 bp~ 600 7;
#X obj 62 176 bp~ 600 7;
#X obj 128 142 bp~ 600 7;
#X obj 129 174 bp~ 600 7;
#X obj 195 143 bp~ 600 7;
#X obj 196 175 bp~ 600 7;
#X obj 275 145 bp~ 600 7;
#X obj 276 177 bp~ 600 7;
#X obj 244 -36 mtof;
#X obj 293 -39 mtof;
#X obj 378 -38 mtof;
#X obj 455 -39 mtof;
#X floatatom 241 -58 5 0 0 0 - - -;
#X floatatom 295 -62 5 0 0 0 - - -;
#X floatatom 379 -64 5 0 0 0 - - -;
#X floatatom 454 -65 5 0 0 0 - - -;
#X floatatom 592 104 5 0 0 0 - - -;
#X floatatom 519 79 5 0 0 0 - - -;
#X floatatom 424 60 5 0 0 0 - - -;
#X floatatom 474 69 5 0 0 0 - - -;
#X floatatom 537 38 5 0 0 0 - - -;
#X obj -173 -31 inlet~;
#X obj -123 -31 inlet~;
#X obj -59 -29 inlet~;
#X obj 64 74 *~;
#X obj 122 78 *~;
#X obj 190 72 *~;
#X obj 256 70 *~;
#X floatatom 370 40 5 0 0 0 - - -;
#X text 39 -50 g d b blat c;
#X obj 532 -7 r nano6-1;
#X obj 523 -39 r nano6-10;
#X obj 231 -8 +;
#X obj 294 -16 +;
#X obj 364 -15 +;
#X obj 434 -17 +;
#X floatatom 505 -122 5 0 0 0 - - -;
#X obj 508 -69 t b f;
#X obj 537 -140 r nano6-9;
#X connect 0 0 34 0;
#X connect 2 0 10 0;
#X connect 3 0 5 1;
#X connect 3 0 14 1;
#X connect 3 0 15 1;
#X connect 4 0 12 0;
#X connect 5 0 14 0;
#X connect 6 0 16 0;
#X connect 7 0 6 1;
#X connect 7 0 16 1;
#X connect 7 0 17 1;
#X connect 8 0 4 1;
#X connect 8 0 12 1;
#X connect 8 0 13 1;
#X connect 9 0 2 1;
#X connect 9 0 10 1;
#X connect 9 0 11 1;
#X connect 10 0 11 0;
#X connect 11 0 1 0;
#X connect 12 0 13 0;
#X connect 13 0 1 0;
#X connect 14 0 15 0;
#X connect 15 0 1 0;
#X connect 16 0 17 0;
#X connect 17 0 1 0;
#X connect 18 0 42 0;
#X connect 19 0 43 0;
#X connect 20 0 44 0;
#X connect 21 0 45 0;
#X connect 22 0 18 0;
#X connect 23 0 19 0;
#X connect 24 0 20 0;
#X connect 25 0 21 0;
#X connect 26 0 6 2;
#X connect 26 0 16 2;
#X connect 26 0 17 2;
#X connect 27 0 5 2;
#X connect 27 0 14 2;
#X connect 27 0 15 2;
#X connect 28 0 4 2;
#X connect 28 0 12 2;
#X connect 28 0 13 2;
#X connect 29 0 2 2;
#X connect 29 0 10 2;
#X connect 29 0 11 2;
#X connect 30 0 26 0;
#X connect 30 0 27 0;
#X connect 30 0 28 0;
#X connect 30 0 29 0;
#X connect 31 0 35 0;
#X connect 32 0 36 0;
#X connect 33 0 37 0;
#X connect 34 0 2 0;
#X connect 35 0 4 0;
#X connect 36 0 5 0;
#X connect 37 0 6 0;
#X connect 38 0 37 1;
#X connect 38 0 36 1;
#X connect 38 0 35 1;
#X connect 38 0 34 1;
#X connect 40 0 30 0;
#X connect 41 0 38 0;
#X connect 42 0 9 0;
#X connect 43 0 8 0;
#X connect 44 0 3 0;
#X connect 45 0 7 0;
#X connect 46 0 47 0;
#X connect 47 0 42 0;
#X connect 47 0 43 0;
#X connect 47 0 44 0;
#X connect 47 0 45 0;
#X connect 47 1 42 1;
#X connect 47 1 43 1;
#X connect 47 1 44 1;
#X connect 47 1 45 1;
#X connect 48 0 46 0;
#X restore -163 44 pd filter~;
#X obj -195 228 outlet~ L;
#X obj -84 228 outlet~ R;
#X obj -195 133 catch~ scene1-mainL;
#X obj -84 153 catch~ scene1-mainR;
#X obj -195 112 catch~ scene1-mono;
#X obj -195 92 throw~ scene1-mono;
#X obj -197 -22 receive~ input2;
#N canvas 868 112 912 683 celloWind 1;
#X obj 136 96 sig~;
#X obj 123 504 *~;
#X obj 191 501 *~;
#X msg 411 210 grainvoices \$1;
#X msg 389 291 pitch \$1;
#X obj 411 188 nbx 3 14 1 32 0 1 empty empty empty 0 -8 0 10 -262144
-1 -1 8 256;
#X obj 136 71 nbx 4 14 0 1 0 1 empty empty empty 0 -8 0 10 -262144
-1 -1 0.547144 256;
#X obj 389 272 nbx 3 14 -100 100 0 1 empty empty empty 0 -8 0 10 -262144
-1 -1 0.188976 256;
#X obj 751 228 prepend buffer;
#X obj 135 117 lop~ 7;
#X floatatom 535 123 5 0 0 0 - - -;
#X obj 393 17 soundfiler;
#X msg 512 209 grainsize \$1;
#X floatatom 143 -49 5 0 0 0 - - -;
#X obj 244 113 dbtorms;
#X obj 244 294 vline~;
#X obj 244 231 spigot;
#X msg 244 254 \$1 5;
#X floatatom 277 325 5 0 0 0 - - -;
#X obj 142 18 / 50;
#X obj 143 -5 abs;
#X floatatom 138 44 5 0 0 0 - - -;
#X obj 314 294 vline~;
#X obj 245 317 *~;
#X obj 245 350 *~ 1;
#X obj 286 176 sel 0 1;
#X text 670 393 Wind comes in too loud at the moment;
#X obj 134 573 outlet~;
#X obj 239 573 outlet~;
#X obj 195 -58 inlet;
#X obj 289 60 inlet;
#X obj 540 55 table windarray;
#X msg 751 182 windarray;
#X msg 393 -18 read -resize samples/scene1/newwind.wav windarray;
#X obj 764 131 loadbang;
#X obj 123 537 tb_peakcomp~ -10 8 10 100 0;
#X obj 428 117 r nano6-11;
#X msg 286 231 0 1000;
#X msg 330 233 1 1000;
#X floatatom 312 115 5 0 0 0 - - -;
#X obj 379 433 u;
#X obj 95 330 s_graincloud cello;
#X obj 143 -26 - 80;
#X obj 361 72 r fcbCC-27;
#X msg 532 21 read -resize \$1 windarray;
#X obj 444 82 r fcbCC-12;
#X obj 511 -82 bng 15 250 50 0 empty empty empty 17 7 0 10 -262144
-1 -1;
#X obj 522 -46 openpanel;
#X obj 369 197 + 0;
#X obj 362 129 / 127;
#X obj 362 151 * 24;
#X connect 0 0 9 0;
#X connect 1 0 35 0;
#X connect 1 0 27 0;
#X connect 2 0 35 1;
#X connect 2 0 28 0;
#X connect 3 0 41 3;
#X connect 4 0 41 3;
#X connect 5 0 3 0;
#X connect 6 0 0 0;
#X connect 7 0 4 0;
#X connect 8 0 41 3;
#X connect 9 0 41 1;
#X connect 10 0 12 0;
#X connect 12 0 41 3;
#X connect 13 0 42 0;
#X connect 14 0 16 0;
#X connect 15 0 23 0;
#X connect 16 0 17 0;
#X connect 17 0 15 0;
#X connect 18 0 24 1;
#X connect 19 0 21 0;
#X connect 20 0 19 0;
#X connect 21 0 6 0;
#X connect 22 0 23 1;
#X connect 23 0 24 0;
#X connect 24 0 2 1;
#X connect 24 0 1 1;
#X connect 25 0 37 0;
#X connect 25 1 38 0;
#X connect 29 0 13 0;
#X connect 29 0 14 0;
#X connect 30 0 25 0;
#X connect 30 0 16 1;
#X connect 30 0 39 0;
#X connect 32 0 8 0;
#X connect 33 0 11 0;
#X connect 34 0 32 0;
#X connect 34 0 33 0;
#X connect 35 0 27 0;
#X connect 35 1 28 0;
#X connect 37 0 15 0;
#X connect 38 0 22 0;
#X connect 41 0 1 0;
#X connect 41 1 2 0;
#X connect 42 0 20 0;
#X connect 43 0 49 0;
#X connect 44 0 11 0;
#X connect 45 0 49 0;
#X connect 46 0 47 0;
#X connect 47 0 44 0;
#X connect 48 0 7 0;
#X connect 49 0 50 0;
#X connect 50 0 48 0;
#X restore 93 40 pd celloWind;
#X obj 162 10 r celloNote;
#X obj 93 10 r cellodB;
#X obj 92 83 throw~ scene1-mainL;
#X obj 161 107 throw~ scene1-mainR;
#X obj -197 44 *~;
#X obj -275 -26 r nano6-0;
#X obj -275 -3 / 127;
#X obj -275 27 *;
#X obj -196 70 hip~;
#X obj -68 25 r nano6-2;
#X obj -68 53 mtof;
#X obj -80 182 *~;
#X obj -192 195 *~;
#X obj 48 140 r nano5-8;
#X obj 47 169 / 127;
#N canvas 758 482 775 357 trigger 1;
#X obj 48 115 player~;
#X obj 279 237 outlet~;
#X obj 48 69 openpanel;
#X msg 73 90 start;
#X obj 121 116 player~;
#X obj 121 70 openpanel;
#X msg 146 91 start;
#X msg 705 97 stop;
#X obj 205 114 player~;
#X obj 205 68 openpanel;
#X msg 230 89 start;
#X obj 278 115 player~;
#X obj 278 69 openpanel;
#X msg 303 90 start;
#X obj 347 116 player~;
#X obj 347 70 openpanel;
#X msg 372 91 start;
#X obj 420 117 player~;
#X obj 420 71 openpanel;
#X msg 445 92 start;
#X obj 504 115 player~;
#X obj 504 69 openpanel;
#X msg 529 90 start;
#X obj 577 116 player~;
#X obj 577 70 openpanel;
#X msg 602 91 start;
#X obj 68 22 r nano5-32;
#X obj 138 22 r nano5-33;
#X obj 210 22 r nano5-34;
#X obj 280 22 r nano5-35;
#X connect 0 0 1 0;
#X connect 2 0 0 0;
#X connect 3 0 0 1;
#X connect 4 0 1 0;
#X connect 5 0 4 0;
#X connect 6 0 4 1;
#X connect 7 0 0 1;
#X connect 7 0 4 1;
#X connect 7 0 8 1;
#X connect 7 0 11 1;
#X connect 7 0 14 1;
#X connect 7 0 17 1;
#X connect 7 0 20 1;
#X connect 7 0 23 1;
#X connect 8 0 1 0;
#X connect 9 0 8 0;
#X connect 10 0 8 1;
#X connect 11 0 1 0;
#X connect 12 0 11 0;
#X connect 13 0 11 1;
#X connect 14 0 1 0;
#X connect 15 0 14 0;
#X connect 16 0 14 1;
#X connect 17 0 1 0;
#X connect 18 0 17 0;
#X connect 19 0 17 1;
#X connect 20 0 1 0;
#X connect 21 0 20 0;
#X connect 22 0 20 1;
#X connect 23 0 1 0;
#X connect 24 0 23 0;
#X connect 25 0 23 1;
#X restore 312 173 pd trigger;
#X connect 0 0 14 0;
#X connect 0 1 1 0;
#X connect 0 2 1 1;
#X connect 0 3 1 2;
#X connect 0 4 1 3;
#X connect 1 0 18 0;
#X connect 4 0 22 0;
#X connect 5 0 21 0;
#X connect 6 0 22 0;
#X connect 6 0 21 0;
#X connect 8 0 0 0;
#X connect 9 0 12 0;
#X connect 9 1 13 0;
#X connect 10 0 9 1;
#X connect 11 0 9 0;
#X connect 14 0 18 0;
#X connect 15 0 16 0;
#X connect 16 0 17 0;
#X connect 16 0 17 1;
#X connect 17 0 14 1;
#X connect 18 0 7 0;
#X connect 19 0 20 0;
#X connect 20 0 18 1;
#X connect 21 0 3 0;
#X connect 22 0 2 0;
#X connect 23 0 24 0;
#X connect 24 0 21 1;
#X connect 24 0 22 1;
#X restore -22 124 pd scene1;
#X obj -23 151 throw~ main-L;
#X obj 62 151 throw~ main-R;
#X obj 1126 69 / 127;
#X msg 1075 100 feedback \$1;
#X obj 368 180 r nano5-0;
#X obj 680 180 r nano5-3;
#X obj 539 72 r nano5-2;
#X obj 449 181 r nano5-1;
#X obj 780 177 r nano5-4;
#X obj 864 127 r nano5-5;
#X obj 986 -213 r nano5-29;
#X obj 1058 -216 r nano5-30;
#X obj 1118 -213 r nano5-31;
#X obj 1120 43 r nano5-7;
#X obj 764 -283 r nano5-14;
#X obj 693 -287 r nano5-13;
#X obj 594 -285 r nano5-12;
#X obj 473 -258 r nano5-11;
#X obj 378 -259 r nano5-10;
#X obj 278 -258 r nano5-9;
#X obj 1005 185 r nano5-6;
#X obj 114 -195 *;
#X obj 153 -233 t b f;
#X msg 181 -266 2;
#X msg 135 -267 0.5;
#X floatatom 147 -162 5 0 0 0 - - -;
#X msg 216 -266 1;
#X obj 71 -324 loadbang;
#X msg 81 -268 0.6;
#X obj 624 -2 SJ2slicycle 2 0;
#N canvas 604 82 619 300 control 0;
#X obj 66 206 outlet;
#X obj 72 97 sel 127;
#X obj 76 124 tgl 15 0 empty empty empty 17 7 0 10 -262144 -1 -1 0
1;
#X obj 142 148 sel 127;
#X obj 142 172 tgl 15 0 empty empty empty 17 7 0 10 -262144 -1 -1 1
1;
#X msg 63 147 input \$1;
#X msg 146 208 output \$1;
#X msg 219 172 1;
#X obj 219 149 sel 127;
#X msg 222 214 clear \$1;
#X obj 87 72 r nano5-20;
#X obj 142 98 r nano5-21;
#X obj 204 122 r nano5-22;
#X obj 294 210 outlet;
#X obj 300 101 sel 127;
#X obj 304 128 tgl 15 0 empty empty empty 17 7 0 10 -262144 -1 -1 1
1;
#X obj 370 152 sel 127;
#X obj 370 176 tgl 15 0 empty empty empty 17 7 0 10 -262144 -1 -1 1
1;
#X msg 291 151 input \$1;
#X msg 374 212 output \$1;
#X msg 447 176 1;
#X obj 447 153 sel 127;
#X msg 450 218 clear \$1;
#X obj 315 76 r nano5-23;
#X obj 370 103 r nano5-24;
#X obj 432 126 r nano5-25;
#X connect 1 0 2 0;
#X connect 2 0 5 0;
#X connect 3 0 4 0;
#X connect 4 0 6 0;
#X connect 5 0 0 0;
#X connect 6 0 0 0;
#X connect 7 0 9 0;
#X connect 8 0 7 0;
#X connect 9 0 0 0;
#X connect 10 0 1 0;
#X connect 11 0 3 0;
#X connect 12 0 8 0;
#X connect 14 0 15 0;
#X connect 15 0 18 0;
#X connect 16 0 17 0;
#X connect 17 0 19 0;
#X connect 18 0 13 0;
#X connect 19 0 13 0;
#X connect 20 0 22 0;
#X connect 21 0 20 0;
#X connect 22 0 13 0;
#X connect 23 0 14 0;
#X connect 24 0 16 0;
#X connect 25 0 21 0;
#X restore 498 -37 pd control;
#X connect 2 0 4 0;
#X connect 2 1 5 0;
#X connect 7 0 6 0;
#X connect 7 1 6 1;
#X connect 8 0 13 0;
#X connect 9 0 13 1;
#X connect 10 0 12 0;
#X connect 11 0 12 1;
#X connect 13 0 3 0;
#X connect 13 0 14 0;
#X connect 13 1 3 1;
#X connect 13 1 14 1;
#X connect 15 0 14 2;
#X connect 17 0 19 0;
#X connect 18 0 86 0;
#X connect 19 0 29 0;
#X connect 19 1 30 0;
#X connect 19 2 31 0;
#X connect 19 2 111 0;
#X connect 21 0 22 0;
#X connect 22 0 25 0;
#X connect 23 0 135 0;
#X connect 24 0 22 0;
#X connect 24 1 22 1;
#X connect 29 0 26 0;
#X connect 30 0 27 0;
#X connect 31 0 28 0;
#X connect 32 0 31 1;
#X connect 33 0 30 1;
#X connect 34 0 29 1;
#X connect 35 0 13 0;
#X connect 35 0 13 1;
#X connect 36 0 40 0;
#X connect 37 0 36 0;
#X connect 37 1 36 1;
#X connect 38 0 36 0;
#X connect 39 0 37 0;
#X connect 41 0 45 0;
#X connect 42 0 41 0;
#X connect 42 1 41 1;
#X connect 43 0 41 0;
#X connect 44 0 42 0;
#X connect 46 0 50 0;
#X connect 47 0 46 0;
#X connect 47 1 46 1;
#X connect 48 0 46 0;
#X connect 49 0 47 0;
#X connect 54 0 51 0;
#X connect 55 0 52 0;
#X connect 56 0 53 0;
#X connect 57 0 55 1;
#X connect 58 0 54 1;
#X connect 59 0 56 1;
#X connect 60 0 143 0;
#X connect 61 0 75 0;
#X connect 62 0 61 0;
#X connect 62 1 61 1;
#X connect 63 0 61 0;
#X connect 64 0 62 0;
#X connect 65 0 73 0;
#X connect 66 0 65 0;
#X connect 66 1 65 1;
#X connect 67 0 65 0;
#X connect 68 0 66 0;
#X connect 69 0 74 0;
#X connect 70 0 69 0;
#X connect 70 1 69 1;
#X connect 71 0 69 0;
#X connect 72 0 70 0;
#X connect 76 0 63 0;
#X connect 77 0 63 0;
#X connect 78 0 63 0;
#X connect 80 0 34 0;
#X connect 81 0 33 0;
#X connect 82 0 32 0;
#X connect 83 0 58 0;
#X connect 84 0 57 0;
#X connect 85 0 59 0;
#X connect 87 0 38 0;
#X connect 88 0 49 0;
#X connect 89 0 44 0;
#X connect 90 0 67 0;
#X connect 91 0 71 0;
#X connect 92 0 63 0;
#X connect 93 0 94 0;
#X connect 95 0 93 2;
#X connect 97 0 93 2;
#X connect 98 0 93 1;
#X connect 99 0 100 0;
#X connect 100 0 93 2;
#X connect 101 0 102 0;
#X connect 102 1 99 0;
#X connect 103 0 93 2;
#X connect 104 0 103 0;
#X connect 105 0 98 0;
#X connect 106 0 104 0;
#X connect 107 0 104 0;
#X connect 108 0 104 0;
#X connect 109 0 93 0;
#X connect 111 0 110 0;
#X connect 112 0 111 1;
#X connect 113 0 114 0;
#X connect 113 1 115 0;
#X connect 116 0 117 0;
#X connect 117 0 93 2;
#X connect 118 0 80 0;
#X connect 119 0 83 0;
#X connect 120 0 82 0;
#X connect 121 0 81 0;
#X connect 122 0 84 0;
#X connect 123 0 85 0;
#X connect 124 0 108 0;
#X connect 125 0 107 0;
#X connect 126 0 106 0;
#X connect 127 0 116 0;
#X connect 128 0 92 0;
#X connect 129 0 91 0;
#X connect 130 0 90 0;
#X connect 131 0 87 0;
#X connect 132 0 88 0;
#X connect 133 0 89 0;
#X connect 134 0 112 0;
#X connect 135 0 24 0;
#X connect 135 0 139 0;
#X connect 136 0 135 0;
#X connect 136 1 135 1;
#X connect 137 0 136 0;
#X connect 138 0 136 0;
#X connect 140 0 136 0;
#X connect 141 0 142 0;
#X connect 141 0 140 0;
#X connect 142 0 23 0;
#X connect 143 0 54 0;
#X connect 143 1 55 0;
#X connect 143 2 56 0;
#X connect 143 2 111 0;
#X connect 144 0 19 1;
#X connect 144 1 143 1;
