#N canvas 436 169 914 551 10;
#X declare -lib zexy;
#X declare -lib bsaylor;
#X declare -path abstractions/;
#X declare -lib iemmatrix;
#X declare -path SliceJockey/abstractions/;
#X declare -lib hexloader;
#X declare -path bin/;
#X declare -lib zexy;
#X declare -lib bsaylor;
#X declare -lib zexy;
#X declare -lib bsaylor;
#X declare -lib zexy;
#X declare -lib bsaylor;
#X declare -lib zexy;
#X declare -lib bsaylor;
#X declare -lib zexy;
#X declare -lib bsaylor;
#X declare -lib zexy;
#X declare -lib bsaylor;
#X declare -lib zexy;
#X declare -lib bsaylor;
#X declare -lib zexy;
#X declare -lib bsaylor;
#X declare -lib zexy;
#X declare -lib bsaylor;
#N canvas 338 222 545 300 libs 0;
#X obj -14 -12 declare -lib zexy;
#X obj -14 8 declare -lib bsaylor;
#X obj 198 -11 declare -path abstractions/;
#X obj -14 27 declare -lib iemmatrix;
#X text -12 -39 Libaries;
#X text 199 -36 Paths;
#X obj 198 8 declare -path SliceJockey/abstractions/;
#X obj -14 46 import hexloader;
#X obj 198 29 declare -path bin/;
#X restore -6 -5 pd libs;
#N canvas 65 87 450 300 tables 0;
#N canvas 160 254 450 300 irTables 0;
#X obj 14 14 table ir1-L;
#X obj 88 14 table ir1-R;
#X obj 14 33 table ir2-L;
#X obj 88 33 table ir2-R;
#X obj 14 53 table ir3-L;
#X obj 88 53 table ir3-R;
#X obj 15 72 table ir4-L;
#X obj 89 72 table ir4-R;
#X obj 165 14 load ../irResponses ir;
#X obj 15 91 table ir5-L;
#X obj 15 110 table ir6-L;
#X obj 15 130 table ir7-L;
#X obj 16 149 table ir8-L;
#X obj 89 91 table ir5-R;
#X obj 89 110 table ir6-R;
#X obj 89 130 table ir7-R;
#X obj 90 149 table ir8-R;
#X restore 9 5 pd irTables;
#X text 88 2 <- all Impulse Response Tables here;
#X restore -6 15 pd tables;
#N canvas 706 97 650 686 scene2 0;
#X obj 43 286 outlet~ L;
#X obj 120 286 outlet~ R;
#X obj 165 181 throw~ scene2-Main-L;
#X obj 209 162 throw~ scene2-Main-R;
#X obj 44 239 catch~ scene2-Main-L;
#X obj 120 259 catch~ scene2-Main-R;
#X obj 43 207 catch~ scene2-Main-mono;
#N canvas 187 166 567 417 textfiler 0;
#X obj 25 24 t b b;
#X msg 25 83 rewind;
#X obj 25 197 sprintf %s%s;
#X obj 25 146 t b s;
#X obj 25 121 msgfile;
#X msg 52 64 read samples/scene2/scene2.txt cr;
#X obj 122 -78 inlet;
#X msg 122 28 goto \$1;
#X obj 25 232 outlet;
#X msg 102 122 water.wav;
#X obj 25 -32 loadbang;
#X obj 25 -65 bng 15 250 50 0 empty empty empty 17 7 0 10 -262144 -1
-1;
#X msg 73 -10 this;
#X obj 122 -41 t b f;
#X obj 224 213 folder_list;
#X obj 310 163 readsf~;
#X msg 234 177 bang;
#X msg 347 25 samples/cello.wav;
#X obj 379 105 prepend open;
#X msg 290 110 start;
#X obj 319 211 throw~ scene2-Main-mono;
#X obj 404 162 print;
#X msg 25 173 ../samples/scene2/;
#X connect 0 0 1 0;
#X connect 0 1 5 0;
#X connect 1 0 4 0;
#X connect 2 0 8 0;
#X connect 3 0 22 0;
#X connect 3 1 2 1;
#X connect 4 0 3 0;
#X connect 5 0 4 0;
#X connect 6 0 13 0;
#X connect 7 0 4 0;
#X connect 9 0 3 0;
#X connect 10 0 0 0;
#X connect 11 0 10 0;
#X connect 12 0 4 0;
#X connect 13 0 12 0;
#X connect 13 1 7 0;
#X connect 15 0 20 0;
#X connect 16 0 14 0;
#X connect 17 0 18 0;
#X connect 17 0 8 0;
#X connect 18 0 15 0;
#X connect 18 0 21 0;
#X connect 19 0 15 0;
#X connect 22 0 2 0;
#X restore 165 91 pd textfiler;
#X obj 165 116 player2~;
#X obj 384 71 catch~ scene2-irVerb;
#X obj 385 100 tb_peakcomp~ -10 8 10 100 0;
#X obj 384 125 throw~ scene2-Main-mono;
#N canvas 65 54 1301 714 irVerb 0;
#X obj 83 232 *~ 0.5;
#X obj 82 195 irVerb~ ir1;
#X obj 156 231 *~ 0.5;
#X obj 253 232 *~ 0.5;
#N canvas 249 257 579 421 onset 0;
#X obj 97 188 outlet;
#X obj 97 58 f;
#X obj 97 19 until;
#X obj 123 58 + 1;
#X obj 97 119 == 0;
#X obj 97 144 pack f f;
#X obj 97 85 t f f;
#X msg 97 165 \$2 \$1;
#X obj 97 -36 t b b f;
#X msg 126 -7 0;
#X obj 97 -69 inlet;
#X msg 97 -7 9;
#X text 211 61 Switch on one thing out of 9 at a time;
#X connect 1 0 3 0;
#X connect 1 0 6 0;
#X connect 2 0 1 0;
#X connect 3 0 1 1;
#X connect 4 0 5 0;
#X connect 5 0 7 0;
#X connect 6 0 4 0;
#X connect 6 1 5 1;
#X connect 7 0 0 0;
#X connect 8 0 11 0;
#X connect 8 1 9 0;
#X connect 8 2 4 1;
#X connect 9 0 1 1;
#X connect 10 0 8 0;
#X connect 11 0 2 0;
#X restore 559 128 pd onset;
#X obj 326 231 *~ 0.2;
#X obj 422 231 *~ 0.27;
#X obj 495 231 *~ 0.2;
#X obj 590 231 *~ 1;
#X obj 156 194 irVerb~ ir2;
#X obj 252 195 irVerb~ ir3;
#X obj 326 194 irVerb~ ir4;
#X obj 421 195 irVerb~ ir5;
#X obj 495 194 irVerb~ ir6;
#X obj 591 195 irVerb~ ir7;
#N canvas 501 412 450 300 before 0;
#X obj 99 114 f;
#X floatatom 99 137 5 0 0 0 - - -;
#X floatatom 58 112 5 0 0 0 - - -;
#X obj 95 82 t f f b;
#X obj 95 56 inlet;
#X msg 99 202 element 1 \$1 0;
#X msg 58 171 element 1 \$1 1;
#X obj 58 229 outlet;
#X connect 0 0 1 0;
#X connect 1 0 5 0;
#X connect 2 0 6 0;
#X connect 3 0 2 0;
#X connect 3 1 0 1;
#X connect 3 2 0 0;
#X connect 4 0 3 0;
#X connect 5 0 7 0;
#X connect 6 0 7 0;
#X restore 256 131 pd before;
#X obj 559 91 inlet;
#X obj 81 26 inlet~;
#X obj 257 428 outlet~;
#X obj 256 108 + 1;
#X msg 901 111 arrayviewlistnew;
#X obj 901 137 s scene2-score;
#X msg 766 62 \; scene2-score 0 1 6 1 4 1 2 1 7 2 3 9 4 3 6 7 8 1 2
3 5 7 4;
#X obj 766 137 table scene2-score 22;
#X obj 766 30 loadbang;
#X obj 256 334 mtx_*~ 1 9 .....................;
#X obj 739 193 irVerb~ ir2;
#X obj 663 194 irVerb~ ir5;
#X obj 559 147 route 0 1 2 3 4 5 6 7 8;
#X obj 663 222 *~ 0.27;
#X obj 740 220 *~ 0.5;
#X connect 0 0 25 1;
#X connect 1 0 0 0;
#X connect 2 0 25 2;
#X connect 3 0 25 3;
#X connect 4 0 28 0;
#X connect 5 0 25 4;
#X connect 6 0 25 5;
#X connect 7 0 25 6;
#X connect 8 0 25 7;
#X connect 9 0 2 0;
#X connect 10 0 3 0;
#X connect 11 0 5 0;
#X connect 12 0 6 0;
#X connect 13 0 7 0;
#X connect 14 0 8 0;
#X connect 15 0 25 0;
#X connect 16 0 4 0;
#X connect 16 0 19 0;
#X connect 17 0 1 0;
#X connect 17 0 9 0;
#X connect 17 0 10 0;
#X connect 17 0 11 0;
#X connect 17 0 12 0;
#X connect 17 0 13 0;
#X connect 17 0 14 0;
#X connect 17 0 27 0;
#X connect 17 0 26 0;
#X connect 19 0 15 0;
#X connect 20 0 21 0;
#X connect 24 0 22 0;
#X connect 25 0 18 0;
#X connect 26 0 30 0;
#X connect 27 0 29 0;
#X connect 28 0 1 1;
#X connect 28 1 9 1;
#X connect 28 2 10 1;
#X connect 28 3 11 1;
#X connect 28 4 12 1;
#X connect 28 5 13 1;
#X connect 28 6 14 1;
#X connect 28 7 27 1;
#X connect 28 8 26 1;
#X connect 29 0 25 8;
#X connect 30 0 25 9;
#X restore 35 114 pd irVerb;
#X obj 35 143 throw~ scene2-irVerb;
#X obj 14 46 s scene2-set;
#X obj 165 67 r scene2-set;
#X text 264 87 Soundfileplayback;
#X text 561 75 Limiting of Reverb;
#X obj 86 92 r scene2-set;
#X text 197 207 Output;
#X obj 13 66 receive~ input1;
#X obj 556 22 osc~ 333;
#X obj 165 147 *~;
#X obj 210 140 *~;
#X floatatom 225 117 5 0 0 0 - - -;
#X text 248 99 Sample sart randomize;
#X obj 14 -39 r fcb;
#N canvas 548 110 655 431 score 0;
#X obj 83 -140 f;
#X obj 138 -139 + 1;
#X obj 169 -139 % 8;
#X obj 83 -194 bng 15 250 50 0 empty empty empty 17 7 0 10 -262144
-1 -1;
#X obj 83 -111 + 0;
#X msg 221 -193 0;
#X msg 256 -192 8;
#X msg 309 -192 8;
#X msg 342 -192 4;
#X msg 420 -192 10;
#X obj 127 -175 unpack f f;
#X obj 223 -165 pack;
#X obj 311 -165 pack;
#X obj 392 -163 pack;
#X obj 223 -131 s scene2-reader;
#X obj 107 -250 r scene2-reader;
#X obj 221 -238 bng 15 250 50 0 empty empty empty 17 7 0 10 -262144
-1 -1;
#X obj 317 -243 bng 15 250 50 0 empty empty empty 17 7 0 10 -262144
-1 -1;
#X obj 400 -241 bng 15 250 50 0 empty empty empty 17 7 0 10 -262144
-1 -1;
#X obj 107 -224 t l b;
#X msg 98 -175 0;
#X obj 83 -62 tabread scene2-score;
#X msg 389 -192 12;
#X obj 197 -400 inlet;
#X obj 83 -342 sel 0 1 2;
#X obj 224 -349 change;
#X obj 224 -324 sel 0 1 2;
#X obj 83 -36 outlet;
#X obj 197 -378 t f f;
#X text 284 -353;
#X connect 0 0 1 0;
#X connect 0 0 4 0;
#X connect 1 0 2 0;
#X connect 2 0 0 1;
#X connect 3 0 0 0;
#X connect 4 0 21 0;
#X connect 5 0 11 0;
#X connect 6 0 11 1;
#X connect 7 0 12 0;
#X connect 8 0 12 1;
#X connect 9 0 13 1;
#X connect 10 0 4 1;
#X connect 10 1 2 1;
#X connect 11 0 14 0;
#X connect 12 0 14 0;
#X connect 13 0 14 0;
#X connect 15 0 19 0;
#X connect 16 0 5 0;
#X connect 16 0 6 0;
#X connect 17 0 7 0;
#X connect 17 0 8 0;
#X connect 18 0 22 0;
#X connect 18 0 9 0;
#X connect 19 0 10 0;
#X connect 19 1 20 0;
#X connect 20 0 0 1;
#X connect 21 0 27 0;
#X connect 22 0 13 0;
#X connect 23 0 28 0;
#X connect 24 0 3 0;
#X connect 24 1 3 0;
#X connect 24 2 3 0;
#X connect 25 0 26 0;
#X connect 26 0 16 0;
#X connect 26 1 17 0;
#X connect 26 2 18 0;
#X connect 28 0 24 0;
#X connect 28 1 25 0;
#X restore 14 5 pd score;
#X obj 248 -38 vsl 15 128 0 1 0 0 empty empty empty 0 -9 0 10 -262144
-1 -1 0 1;
#X connect 4 0 0 0;
#X connect 5 0 1 0;
#X connect 6 0 0 0;
#X connect 6 0 1 0;
#X connect 7 0 8 0;
#X connect 8 0 22 0;
#X connect 8 1 23 0;
#X connect 9 0 10 0;
#X connect 10 0 11 0;
#X connect 12 0 13 0;
#X connect 15 0 7 0;
#X connect 18 0 12 1;
#X connect 20 0 12 0;
#X connect 22 0 2 0;
#X connect 23 0 3 0;
#X connect 24 0 22 1;
#X connect 24 0 23 1;
#X connect 26 0 27 0;
#X connect 27 0 14 0;
#X connect 28 0 24 0;
#X restore -5 86 pd scene2;
#X obj 12 282 dac~ 1 2;
#X obj -6 117 throw~ main-L;
#X obj 79 117 throw~ main-R;
#N canvas 363 317 450 300 input 0;
#X obj -21 -13 inlet~;
#X obj 101 -11 inlet~;
#X obj -21 97 send~ input1;
#X obj 102 17 send~ input2;
#X msg 201 181 /home/morast/Documents/samples/cello.wav;
#X obj 201 204 player~;
#X obj 201 133 r set;
#X obj 201 157 t b;
#X obj -20 35 hip~ 60;
#X floatatom 28 6 5 0 0 0 - - -;
#X connect 0 0 8 0;
#X connect 1 0 3 0;
#X connect 4 0 5 0;
#X connect 5 0 2 0;
#X connect 6 0 7 0;
#X connect 7 0 4 0;
#X connect 8 0 2 0;
#X connect 9 0 8 1;
#X restore 58 15 pd input;
#X obj 59 -9 adc~ 1 2;
#X obj 11 201 catch~ main-L;
#X obj 104 201 catch~ main-R;
#X obj -6 35 receive~ input1;
#X obj 92 35 receive~ input2;
#N canvas 800 220 450 300 inputAnalyzer 0;
#X obj 18 18 inlet~;
#X obj 231 16 inlet~;
#X obj 133 56 pitchTracker;
#X obj 18 56 envelope_follower;
#X connect 0 0 2 0;
#X connect 0 0 3 0;
#X restore -5 57 pd inputAnalyzer -;
#X obj 12 242 tb_peakcomp~ -10 8 10 100 0;
#N canvas 706 97 650 686 record 0;
#X obj 15 335 writesf~ 2;
#X msg 210 95 bang;
#X obj 207 143 date GTM;
#X msg 137 -33 umoi;
#X obj 262 144 time GTM;
#X obj 65 61 t a b;
#X obj 65 189 sprintf %s_%i-%i-%i_%i:%i;
#X obj 65 26 sprintf %s%s;
#X msg 65 -34 session/;
#X obj 112 -85 t b b;
#X obj 65 254 sprintf %s%s;
#X msg 135 220 .wav;
#X obj 65 212 t a b;
#X obj 65 282 prepend open;
#X msg 47 -94 start;
#X obj 95 -127 t b b;
#X obj 161 -144 sel 1 0;
#X msg 185 -97 stop;
#X obj 274 -161 inlet;
#X obj 15 -156 inlet~;
#X obj 71 -156 inlet~;
#X connect 1 0 2 0;
#X connect 1 0 4 0;
#X connect 2 0 6 1;
#X connect 2 1 6 2;
#X connect 2 2 6 3;
#X connect 3 0 7 1;
#X connect 4 0 6 4;
#X connect 4 1 6 5;
#X connect 5 0 6 0;
#X connect 5 1 1 0;
#X connect 6 0 12 0;
#X connect 7 0 5 0;
#X connect 8 0 7 0;
#X connect 9 0 8 0;
#X connect 9 1 3 0;
#X connect 10 0 13 0;
#X connect 11 0 10 1;
#X connect 12 0 10 0;
#X connect 12 1 11 0;
#X connect 13 0 0 0;
#X connect 14 0 0 0;
#X connect 15 0 14 0;
#X connect 15 1 9 0;
#X connect 16 0 15 0;
#X connect 16 1 17 0;
#X connect 17 0 0 0;
#X connect 18 0 16 0;
#X connect 19 0 0 0;
#X connect 20 0 0 1;
#X restore 72 282 pd record;
#X obj 123 263 tgl 15 0 empty empty empty 17 7 0 10 -258113 -1 -1 0
1;
#X obj 223 187 throw~ main-L;
#X obj 311 187 throw~ main-R;
#N canvas 841 188 450 300 mididev 0;
#X floatatom 38 90 5 0 0 0 - - -;
#X floatatom 60 120 5 0 0 0 - - -;
#X obj 38 52 notein 0;
#X obj 39 214 s fcb;
#X obj 60 146 / 100;
#X obj 38 182 spigot;
#X connect 0 0 5 0;
#X connect 1 0 4 0;
#X connect 2 0 0 0;
#X connect 2 1 1 0;
#X connect 4 0 5 1;
#X connect 5 0 3 0;
#X restore 145 1 pd mididev;
#X obj 224 -30 receive~ input2;
#X obj 32 158 receive~ input2;
#X obj 223 1 SJ2slicycle 1 0;
#X obj 417 216 u_snapshot~;
#X obj 499 91 player2~;
#X obj 493 127 throw~ main-L;
#X msg 460 8 /media/morast/MAKERBOOT/R09_0017.WAV;
#X obj 517 167 throw~ main-R;
#X obj 504 304 bng 15 250 50 0 empty empty empty 17 7 0 10 -262144
-1 -1;
#X obj 502 337 s uiko;
#X msg 556 44 stop;
#X floatatom 526 271 5 0 0 0 - - -;
#X msg 623 114 attackThresh \$1;
#X msg 727 115 offThresh \$1;
#X msg 678 188 smooth \$1;
#X obj 521 221 envelope_follower cheo;
#X msg 677 219 wait \$1;
#X floatatom 732 165 5 0 0 0 - - -;
#X floatatom 718 139 5 0 0 0 - - -;
#X floatatom 716 73 5 0 0 0 - - -;
#X floatatom 629 87 5 0 0 0 - - -;
#X floatatom 648 267 5 0 0 0 - - -;
#X obj 582 258 print;
#X obj 529 300 sel 1;
#X connect 2 0 4 0;
#X connect 2 1 5 0;
#X connect 7 0 6 0;
#X connect 7 1 6 1;
#X connect 8 0 13 0;
#X connect 9 0 13 1;
#X connect 10 0 12 0;
#X connect 11 0 12 1;
#X connect 13 0 3 0;
#X connect 13 0 14 0;
#X connect 13 1 3 1;
#X connect 13 1 14 1;
#X connect 15 0 14 2;
#X connect 19 0 21 0;
#X connect 20 0 13 0;
#X connect 20 0 13 1;
#X connect 21 0 16 0;
#X connect 21 1 17 0;
#X connect 21 1 22 0;
#X connect 23 0 34 0;
#X connect 25 0 23 0;
#X connect 27 0 28 0;
#X connect 29 0 23 1;
#X connect 30 0 42 0;
#X connect 31 0 34 1;
#X connect 32 0 34 1;
#X connect 33 0 34 1;
#X connect 34 0 30 0;
#X connect 34 1 40 0;
#X connect 35 0 34 1;
#X connect 36 0 35 0;
#X connect 37 0 33 0;
#X connect 38 0 32 0;
#X connect 39 0 31 0;
#X connect 42 0 27 0;
