#N canvas 65 82 619 652 10;
#X obj 137 75 metro 250;
#X obj 137 52 tgl 15 0 empty empty empty 17 7 0 10 -262144 -1 -1 1
1;
#X floatatom 196 44 5 0 0 0 - - -;
#X obj 138 226 f;
#X obj 162 226 + 1;
#X obj 137 199 bng 15 250 50 0 empty empty empty 17 7 0 10 -262144
-1 -1;
#X obj 138 255 % 16;
#X msg 82 165 8;
#X floatatom 201 226 5 0 0 0 - - -;
#X text 239 223 Mod Number;
#X text -89 239 Split in current and previous numbers;
#N canvas 768 260 450 300 checksum-counter 0;
#X obj 138 134 inlet;
#X obj 208 134 inlet;
#X floatatom 138 213 5 0 0 0 - - -;
#X obj 171 213 f;
#X obj 138 162 t f f b;
#X floatatom 172 244 5 0 0 0 - - -;
#X obj 138 273 -;
#X obj 138 318 < 1;
#X msg 138 400 decrecment;
#X obj 138 345 sel 1 0;
#X msg 217 401 increment;
#N canvas 441 390 450 300 sum 0;
#X obj 52 37 inlet;
#X obj 52 132 +;
#X obj 52 105 f;
#X obj 52 80 t b f;
#X msg 99 64 0;
#X obj 99 38 inlet;
#X obj 52 158 outlet;
#X connect 0 0 3 0;
#X connect 1 0 2 1;
#X connect 1 0 6 0;
#X connect 2 0 1 0;
#X connect 3 0 2 0;
#X connect 3 1 1 1;
#X connect 4 0 2 1;
#X connect 5 0 4 0;
#X restore 81 252 pd sum;
#X floatatom 81 290 5 0 0 0 - - -;
#X text 167 272 Check value for increment or decrement;
#X text 247 306 When value negative;
#X obj 208 197 iterate;
#N canvas 441 390 450 300 sum 0;
#X obj 52 37 inlet;
#X obj 52 132 +;
#X obj 52 105 f;
#X obj 52 80 t b f;
#X msg 99 64 0;
#X obj 99 38 inlet;
#X obj 52 158 outlet;
#X connect 0 0 3 0;
#X connect 1 0 2 1;
#X connect 1 0 6 0;
#X connect 2 0 1 0;
#X connect 3 0 2 0;
#X connect 3 1 1 1;
#X connect 4 0 2 1;
#X connect 5 0 4 0;
#X restore 208 222 pd sum;
#X obj 208 170 t f b;
#X obj 81 325 ==;
#X obj 97 364 t b b;
#X obj 66 390 f;
#X obj 64 428 sel 1 0;
#X msg 64 458 true;
#X msg 101 491 false;
#X obj 138 295 t f f;
#X obj 187 319 > 1;
#X obj 187 345 sel 1;
#X msg 281 359 jump;
#X obj 64 516 print checksum-count;
#X connect 0 0 4 0;
#X connect 1 0 17 0;
#X connect 2 0 6 0;
#X connect 2 0 11 0;
#X connect 3 0 5 0;
#X connect 4 0 2 0;
#X connect 4 1 3 1;
#X connect 4 2 3 0;
#X connect 5 0 6 1;
#X connect 6 0 24 0;
#X connect 7 0 9 0;
#X connect 9 0 8 0;
#X connect 9 0 19 0;
#X connect 9 1 10 0;
#X connect 11 0 12 0;
#X connect 12 0 18 0;
#X connect 15 0 16 0;
#X connect 16 0 18 1;
#X connect 17 0 15 0;
#X connect 17 1 16 1;
#X connect 18 0 20 1;
#X connect 19 0 11 1;
#X connect 19 1 20 0;
#X connect 20 0 21 0;
#X connect 21 0 22 0;
#X connect 21 1 23 0;
#X connect 22 0 28 0;
#X connect 23 0 28 0;
#X connect 24 0 7 0;
#X connect 24 1 25 0;
#X connect 25 0 26 0;
#X connect 26 0 27 0;
#X connect 27 0 28 0;
#X restore 138 305 pd checksum-counter;
#X connect 0 0 5 0;
#X connect 1 0 0 0;
#X connect 2 0 0 1;
#X connect 3 0 4 0;
#X connect 3 0 6 0;
#X connect 4 0 3 1;
#X connect 5 0 3 0;
#X connect 6 0 11 0;
#X connect 7 0 3 0;
#X connect 8 0 6 1;
#X connect 8 0 11 1;
