#N canvas 65 82 450 478 10;
#X obj 77 73 r 0-squaver-out;
#X floatatom 185 249 5 0 0 0 - - -;
#X floatatom 141 246 5 0 0 0 - - -;
#X obj 179 73 r 1-squaver-out;
#X obj 180 121 & 1;
#X obj 179 100 t f f;
#X obj 182 199 f;
#X obj 186 154 sel 0;
#X obj 183 225 >> 1;
#X obj 239 247 tgl 15 0 empty empty empty 17 7 0 10 -262144 -1 -1 0
1;
#X obj 103 345 f;
#X obj 139 312 t b f;
#X obj 111 386 pack f f;
#X obj 112 437 print;
#X obj 114 409 spigot;
#X floatatom 240 377 5 0 0 0 - - -;
#X obj 173 382 tgl 15 0 empty empty empty 17 7 0 10 -262144 -1 -1 0
1;
#X obj 258 277 timer;
#X floatatom 261 309 5 0 0 0 - - -;
#X obj 290 248 t b;
#X obj 320 247 t b;
#X connect 0 0 2 0;
#X connect 1 0 11 0;
#X connect 1 0 20 0;
#X connect 2 0 10 1;
#X connect 2 0 19 0;
#X connect 3 0 5 0;
#X connect 4 0 7 0;
#X connect 5 0 4 0;
#X connect 5 1 6 1;
#X connect 6 0 8 0;
#X connect 7 0 6 0;
#X connect 8 0 1 0;
#X connect 10 0 12 0;
#X connect 11 0 10 0;
#X connect 11 1 12 1;
#X connect 12 0 14 0;
#X connect 14 0 13 0;
#X connect 16 0 14 1;
#X connect 17 0 18 0;
#X connect 19 0 17 0;
#X connect 20 0 17 1;
