#N canvas 715 82 650 686 10;
#X obj -116 -65 adc~;
#X obj 469 532 dac~;
#X obj 31 -69 tgl 15 0 empty empty empty 17 7 0 10 -262144 -1 -1 0
1;
#X obj 16 -49 *~;
#X obj 16 -23 throw~ out;
#X obj 470 498 catch~ out;
#X obj 481 108 dbtorms;
#X floatatom 509 146 5 0 0 0 - - -;
#X floatatom 115 -61 5 0 0 0 - - -;
#X obj 115 -41 s attackThresh;
#X floatatom 205 -60 5 0 0 0 - - -;
#X obj 205 -41 s offThresh;
#N canvas 316 234 450 300 init 0;
#X obj 48 39 loadbang;
#X msg 48 65 \; state 0 \; peakstate 0 \;;
#X connect 0 0 1 0;
#X restore -38 -35 pd init;
#X obj 565 241 vline~;
#X obj 565 158 spigot;
#X msg 565 181 \$1 5;
#X obj 637 103 sel 0;
#X msg 607 208 0 30;
#X obj -116 -35 send~ input;
#X obj -116 -5 receive~ input;
#X floatatom -115 57 5 0 0 0 - - -;
#X obj -115 29 peakamp~ 10;
#X obj -115 130 rmstodb;
#X floatatom -70 65 5 0 0 0 - - -;
#X obj -115 89 pack f f;
#X obj -115 110 line;
#X obj -46 198 s peakdB;
#X obj 481 81 r peakdB;
#X obj 598 67 r peakstate;
#X floatatom 211 74 5 0 0 0 - - -;
#X obj 211 47 r peakstate;
#N canvas 240 200 450 359 noteEvent 0;
#X obj 5 -7 inlet;
#X obj 20 98 r attackThresh;
#X obj 5 118 >;
#X obj 5 140 sel 1;
#X msg 5 163 1;
#X obj 5 77 spigot;
#X obj 148 73 r offThresh;
#X msg 133 149 0;
#X obj 133 52 spigot;
#X obj 69 28 == 0;
#X obj 133 106 <;
#X obj 5 183 change;
#X obj 120 231 outlet peakdB;
#X obj 5 233 outlet noteEvent;
#X obj 184 160 timer;
#X obj 133 129 sel 1 0;
#X obj 218 131 metro 50;
#X msg 221 106 1;
#X floatatom 186 184 5 0 0 0 - - -;
#X obj 288 103 bng 15 250 50 0 empty empty empty 17 7 0 10 -262144
-1 -1;
#X obj 246 203 > 1000;
#X obj 246 226 sel 1;
#X msg 246 247 0;
#X obj 296 165 r wait;
#X floatatom 99 74 5 0 0 0 - - -;
#X floatatom 47 142 5 0 0 0 - - -;
#X floatatom 52 204 5 0 0 0 - - -;
#X connect 0 0 5 0;
#X connect 0 0 8 0;
#X connect 0 0 12 0;
#X connect 1 0 2 1;
#X connect 2 0 3 0;
#X connect 3 0 4 0;
#X connect 4 0 11 0;
#X connect 4 0 13 0;
#X connect 5 0 2 0;
#X connect 5 0 25 0;
#X connect 6 0 10 1;
#X connect 7 0 11 0;
#X connect 8 0 10 0;
#X connect 8 0 24 0;
#X connect 9 0 5 1;
#X connect 10 0 15 0;
#X connect 11 0 9 0;
#X connect 11 0 8 1;
#X connect 11 0 26 0;
#X connect 14 0 18 0;
#X connect 15 0 7 0;
#X connect 15 1 14 0;
#X connect 16 0 14 1;
#X connect 17 0 16 0;
#X connect 18 0 20 0;
#X connect 19 0 14 0;
#X connect 20 0 21 0;
#X connect 21 0 22 0;
#X connect 22 0 13 0;
#X connect 23 0 20 1;
#X restore -115 156 pd noteEvent;
#X obj -115 178 s peakstate;
#X obj 279 -41 s wait;
#X floatatom 279 -60 5 0 0 0 - - -;
#X obj -18 32 vsl 15 128 0 127 0 0 empty empty empty 0 -9 0 10 -262144
-1 -1 6036 1;
#X floatatom -44 264 5 0 0 0 - - -;
#X floatatom -18 165 5 0 0 0 - - -;
#X obj 153 248;
#X connect 0 0 18 0;
#X connect 0 0 3 0;
#X connect 2 0 3 1;
#X connect 3 0 4 0;
#X connect 5 0 1 0;
#X connect 5 0 1 1;
#X connect 6 0 7 0;
#X connect 6 0 14 0;
#X connect 8 0 9 0;
#X connect 10 0 11 0;
#X connect 14 0 15 0;
#X connect 15 0 13 0;
#X connect 16 0 17 0;
#X connect 17 0 13 0;
#X connect 19 0 21 0;
#X connect 20 0 24 0;
#X connect 21 0 20 0;
#X connect 22 0 31 0;
#X connect 22 0 35 0;
#X connect 23 0 24 1;
#X connect 24 0 25 0;
#X connect 25 0 22 0;
#X connect 27 0 6 0;
#X connect 28 0 14 1;
#X connect 28 0 16 0;
#X connect 30 0 29 0;
#X connect 31 0 32 0;
#X connect 31 0 36 0;
#X connect 31 1 26 0;
#X connect 34 0 33 0;
#X connect 35 0 37 0;
