#N canvas 386 90 977 686 10;
#N canvas 761 241 450 300 init 0;
#X obj 48 39 loadbang;
#X obj 48 76 \$0;
#X msg 48 125 \; peakstate 0 \; \$1-smooth 50 \; \$1-attackThresh 60
\; \$1-offThresh 50 \; \$1-wait 50 \;;
#X connect 0 0 1 0;
#X connect 1 0 2 0;
#X restore -24 -73 pd init;
#X obj -115 29 peakamp~ 10;
#X obj -115 130 rmstodb;
#X obj -115 89 pack f f;
#X obj -115 110 line;
#X obj -46 198 s peakdB;
#N canvas 231 215 450 359 noteEvent 0;
#X obj 5 -7 inlet;
#X obj 5 118 >;
#X obj 5 140 sel 1;
#X msg 5 163 1;
#X obj 5 77 spigot;
#X msg 133 149 0;
#X obj 133 52 spigot;
#X obj 69 28 == 0;
#X obj 133 106 <;
#X obj 5 183 change;
#X obj 120 231 outlet peakdB;
#X obj 5 233 outlet noteEvent;
#X obj 184 160 timer;
#X obj 133 129 sel 1 0;
#X obj 218 131 metro 50;
#X msg 221 106 1;
#X floatatom 186 184 5 0 0 0 - - -;
#X obj 288 103 bng 15 250 50 0 empty empty empty 17 7 0 10 -262144
-1 -1;
#X obj 246 203 > 1000;
#X obj 246 226 sel 1;
#X msg 246 247 0;
#X floatatom 99 74 5 0 0 0 - - -;
#X floatatom 47 142 5 0 0 0 - - -;
#X floatatom 52 204 5 0 0 0 - - -;
#X obj 148 73 r \$0-offThresh;
#X obj 20 98 r \$0-attackThresh;
#X obj 296 165 r \$0-wait;
#X connect 0 0 4 0;
#X connect 0 0 6 0;
#X connect 0 0 10 0;
#X connect 1 0 2 0;
#X connect 2 0 3 0;
#X connect 3 0 9 0;
#X connect 3 0 11 0;
#X connect 4 0 1 0;
#X connect 4 0 22 0;
#X connect 5 0 9 0;
#X connect 6 0 8 0;
#X connect 6 0 21 0;
#X connect 7 0 4 1;
#X connect 8 0 13 0;
#X connect 9 0 7 0;
#X connect 9 0 6 1;
#X connect 9 0 23 0;
#X connect 12 0 16 0;
#X connect 13 0 5 0;
#X connect 13 1 12 0;
#X connect 14 0 12 1;
#X connect 15 0 14 0;
#X connect 16 0 18 0;
#X connect 17 0 12 0;
#X connect 18 0 19 0;
#X connect 19 0 20 0;
#X connect 20 0 11 0;
#X connect 24 0 8 1;
#X connect 25 0 1 1;
#X connect 26 0 18 1;
#X restore -115 156 pd noteEvent;
#X obj -115 178 s peakstate;
#X obj 46 -68 inlet;
#X obj -115 -72 inlet~;
#X obj -115 227 outlet;
#X obj -45 227 outlet;
#X obj 46 -46 u_dispatch \$0 \$1 attackThresh;
#X obj 46 -26 u_dispatch \$0 \$1 offThresh;
#X obj 46 -5 u_dispatch \$0 \$1 smooth;
#X obj 46 17 u_dispatch \$0 \$1 wait;
#X obj -70 65 r \$0-smooth;
#X connect 1 0 3 0;
#X connect 2 0 6 0;
#X connect 3 0 4 0;
#X connect 4 0 2 0;
#X connect 6 0 7 0;
#X connect 6 0 10 0;
#X connect 6 1 5 0;
#X connect 6 1 11 0;
#X connect 8 0 12 0;
#X connect 9 0 1 0;
#X connect 12 0 13 0;
#X connect 13 0 14 0;
#X connect 14 0 15 0;
#X connect 16 0 3 1;
