#N canvas 138 151 1275 574 10;
#X obj 428 -148 ggee/getdir;
#X obj 428 -106 shell;
#X obj 428 -200 bng 15 250 50 0 empty empty empty 17 7 0 10 -262144
-1 -1;
#X msg 428 -127 ls \$1/patterns;
#X msg 528 -127 clear;
#X obj 428 -176 t b b;
#X obj 428 -85 prepend add;
#X obj 428 -28 s pattern-list;
#X obj 428 -222 loadbang;
#X obj 488 -221 r update-pattern-list;
#X obj 722 268 writesf~ 2;
#X msg 917 29 bang;
#X obj 914 77 date GTM;
#X msg 844 -99 umoi;
#X obj 969 78 time GTM;
#X obj 772 -5 t a b;
#X obj 772 123 sprintf %s_%i-%i-%i_%i:%i;
#X obj 772 -40 sprintf %s%s;
#X obj 819 -151 t b b;
#X obj 772 188 sprintf %s%s;
#X msg 842 154 .wav;
#X obj 772 146 t a b;
#X obj 772 216 prepend open;
#X msg 754 -160 start;
#X obj 802 -193 t b b;
#X obj 868 -210 sel 1 0;
#X msg 892 -163 stop;
#X obj 981 -227 inlet;
#X obj 315 -108 print directory;
#X obj 316 -80 print shell;
#X obj 722 -222 adc~ 1;
#X obj 778 -222 adc~ 2;
#X obj 913 -250 tgl 15 0 empty empty empty 17 7 0 10 -262144 -1 -1
0 1;
#X msg 772 -100 session/;
#X obj 800 246 print wavrecorder;
#X obj 1085 -244 loadbang;
#X msg 968 -248 1;
#X connect 0 0 3 0;
#X connect 0 0 28 0;
#X connect 1 0 6 0;
#X connect 1 0 29 0;
#X connect 2 0 5 0;
#X connect 3 0 1 0;
#X connect 4 0 7 0;
#X connect 5 0 0 0;
#X connect 5 1 4 0;
#X connect 6 0 7 0;
#X connect 8 0 2 0;
#X connect 9 0 2 0;
#X connect 11 0 12 0;
#X connect 11 0 14 0;
#X connect 12 0 16 1;
#X connect 12 1 16 2;
#X connect 12 2 16 3;
#X connect 13 0 17 1;
#X connect 14 0 16 4;
#X connect 14 1 16 5;
#X connect 15 0 16 0;
#X connect 15 1 11 0;
#X connect 16 0 21 0;
#X connect 17 0 15 0;
#X connect 18 0 33 0;
#X connect 18 1 13 0;
#X connect 19 0 22 0;
#X connect 20 0 19 1;
#X connect 21 0 19 0;
#X connect 21 1 20 0;
#X connect 22 0 10 0;
#X connect 22 0 34 0;
#X connect 23 0 10 0;
#X connect 24 0 23 0;
#X connect 24 1 18 0;
#X connect 25 0 24 0;
#X connect 25 1 26 0;
#X connect 26 0 10 0;
#X connect 27 0 25 0;
#X connect 30 0 10 0;
#X connect 31 0 10 1;
#X connect 32 0 25 0;
#X connect 33 0 17 0;
#X connect 35 0 36 0;
#X connect 36 0 32 0;
