#N canvas 734 191 459 417 10;
#X obj 115 107 catch~ L;
#X obj 113 192 dac~;
#X obj -43 159 s rev;
#X obj 44 121 r rev;
#X obj 114 157 freeverb~;
#X msg -39 -72 roomsize \$1;
#X msg -39 -27 damping \$1;
#X msg -39 17 width \$1;
#X msg -39 61 wet \$1;
#X msg -39 105 dry \$1;
#X obj -27 82 hsl 60 18 0 1 0 1 empty empty dry 2 9 1 12 -225271 -1
-1 0 0;
#X obj -27 38 hsl 60 18 0 1 0 1 empty empty wet 2 9 1 12 -225271 -1
-1 5900 0;
#X obj -27 -6 hsl 60 18 0 1 0 1 empty empty width 2 9 1 12 -262131
-1 -1 300 0;
#X obj -27 -50 hsl 60 18 0 2 0 1 empty empty damping 2 9 1 12 -261689
-1 -1 1100 0;
#X obj -27 -95 hsl 60 18 0.11 1.1 0 1 empty empty roomsize 2 9 1 12
-261689 -1 -1 4400 0;
#X floatatom -57 -91 3 0 0 0 - - -;
#X floatatom -57 -46 3 0 0 0 - - -;
#X floatatom -57 -1 3 0 0 0 - - -;
#X floatatom -57 42 3 0 0 0 - - -;
#X floatatom -57 86 3 0 0 0 - - -;
#X connect 0 0 4 0;
#X connect 0 0 4 1;
#X connect 3 0 4 0;
#X connect 4 0 1 0;
#X connect 4 1 1 1;
#X connect 5 0 2 0;
#X connect 6 0 2 0;
#X connect 7 0 2 0;
#X connect 8 0 2 0;
#X connect 9 0 2 0;
#X connect 10 0 9 0;
#X connect 10 0 19 0;
#X connect 11 0 8 0;
#X connect 11 0 18 0;
#X connect 12 0 7 0;
#X connect 12 0 17 0;
#X connect 13 0 6 0;
#X connect 13 0 16 0;
#X connect 14 0 5 0;
#X connect 14 0 15 0;
