#N canvas 65 82 450 475 10;
#X msg 90 252 input \$1;
#X msg 16 251 man-rec \$1;
#X obj 16 128 f;
#X obj 46 128 + 1;
#X msg 53 104 0;
#X obj 16 40 sel 127;
#X obj 53 81 del 300;
#X obj 90 204 tgl 15 0 empty empty empty 17 7 0 10 -262144 -1 -1 0
2;
#X msg 16 184 1;
#X msg 106 178 0;
#X obj 16 158 sel 1 0;
#X obj 16 -57 notein;
#X floatatom 58 -15 5 0 0 0 - - -;
#X obj 16 10 f;
#X obj 16 -18 sel 3;
#X obj 90 225 clip 0 1;
#X obj 44 208 sel 0;
#X msg 44 224 0;
#X obj 16 280 print midimix-manrec;
#X connect 0 0 18 0;
#X connect 1 0 18 0;
#X connect 2 0 3 0;
#X connect 2 0 10 0;
#X connect 3 0 2 1;
#X connect 4 0 2 1;
#X connect 5 0 2 0;
#X connect 5 0 6 0;
#X connect 6 0 4 0;
#X connect 7 0 15 0;
#X connect 7 0 16 0;
#X connect 8 0 1 0;
#X connect 9 0 7 0;
#X connect 10 0 8 0;
#X connect 10 1 7 0;
#X connect 10 2 9 0;
#X connect 11 0 14 0;
#X connect 11 1 12 0;
#X connect 12 0 13 1;
#X connect 13 0 5 0;
#X connect 14 0 13 0;
#X connect 15 0 0 0;
#X connect 16 0 17 0;
#X connect 17 0 1 0;
