#N canvas 630 196 482 439 10;
#X obj 72 71 f;
#X obj 103 70 + 1;
#X obj 76 40 metro;
#X obj 152 40 u_bpmtoms;
#X floatatom 152 12 5 0 0 0 - - -;
#X floatatom 152 62 5 0 0 0 - - -;
#X obj 78 16 tgl 15 0 empty empty empty 17 7 0 10 -262144 -1 -1 1 1
;
#X floatatom 72 100 5 0 0 0 - - -;
#X obj 152 81 / 4;
#X floatatom 103 179 5 0 0 0 - - -;
#X obj 105 204 sel 0;
#X obj 105 230 f;
#X obj 105 258 >> 1;
#X obj 103 132 t f f;
#X floatatom 105 284 5 0 0 0 - - -;
#X obj 103 153 & 1;
#X msg 269 61 0;
#X floatatom 150 179 5 0 0 0 - - -;
#X obj 152 204 sel 0;
#X obj 152 230 f;
#X obj 150 132 t f f;
#X floatatom 152 281 5 0 0 0 - - -;
#X obj 150 153 & 3;
#X obj 152 258 >> 2;
#X obj 200 134 % 16;
#X obj 152 305 % 16;
#X obj 106 309 % 16;
#X floatatom 204 162 5 0 0 0 - - -;
#X floatatom 157 329 5 0 0 0 - - -;
#X floatatom 106 337 5 0 0 0 - - -;
#X connect 0 0 1 0;
#X connect 0 0 7 0;
#X connect 1 0 0 1;
#X connect 2 0 0 0;
#X connect 3 0 5 0;
#X connect 4 0 3 0;
#X connect 5 0 8 0;
#X connect 6 0 2 0;
#X connect 7 0 13 0;
#X connect 7 0 20 0;
#X connect 7 0 24 0;
#X connect 8 0 2 1;
#X connect 9 0 10 0;
#X connect 10 0 11 0;
#X connect 11 0 12 0;
#X connect 12 0 14 0;
#X connect 13 0 15 0;
#X connect 13 1 11 1;
#X connect 14 0 26 0;
#X connect 15 0 9 0;
#X connect 16 0 0 0;
#X connect 17 0 18 0;
#X connect 18 0 19 0;
#X connect 19 0 23 0;
#X connect 20 0 22 0;
#X connect 20 1 19 1;
#X connect 21 0 25 0;
#X connect 22 0 17 0;
#X connect 23 0 21 0;
#X connect 24 0 27 0;
#X connect 25 0 28 0;
#X connect 26 0 29 0;
