#N canvas 585 168 611 300 10;
#X obj 116 171 rev3~ 50 50;
#X obj 92 83 catch~ L;
#X obj 150 83 catch~ R;
#X obj 256 173 u_snapshot~;
#X obj 118 227 dac~ 1 2;
#X floatatom 168 123 5 0 0 0 - - -;
#X floatatom 220 123 5 0 0 0 - - -;
#X floatatom 264 126 5 0 0 0 - - -;
#X floatatom 305 125 5 0 0 0 - - -;
#X msg 261 71 40;
#X msg 300 70 58;
#X msg 348 68 70;
#X msg 390 65 90;
#X connect 0 0 4 0;
#X connect 0 1 4 1;
#X connect 1 0 0 0;
#X connect 2 0 0 1;
#X connect 5 0 0 2;
#X connect 6 0 0 3;
#X connect 7 0 0 4;
#X connect 8 0 0 5;
#X connect 9 0 6 0;
#X connect 10 0 6 0;
#X connect 11 0 6 0;
#X connect 12 0 6 0;
