#N canvas 0 0 952 1006 10;
#X obj 476 213 / 44100;
#X obj 476 192 r \$0-samples;
#N canvas 129 125 952 1006 samplevoice 1;
#X floatatom 54 72 7 0 0 0 - - -;
#X obj 54 13 r \$0-samples;
#X obj 137 27 / 12;
#X obj 137 93 pow 2;
#X obj 137 47 t b f;
#X msg 137 70 2;
#X obj 137 -18 inlet;
#X obj 51 289 outlet~;
#X obj 53 183 vline~;
#X obj 54 138 f;
#X obj 8 60 inlet;
#X obj 54 43 / 44.1;
#X obj 92 127 *;
#X obj 137 112 t b f;
#X obj 53 216 *~;
#X msg 53 161 0 0 \, 1 \$1 1;
#X obj 137 5 * -1;
#X obj 213 95 inlet;
#X obj 52 250 tabread4~ \$1;
#X obj 144 260 arraysize \$1;
#X obj 144 184 loadbang;
#X obj 9 94 t b b;
#X obj 144 286 s \$0-samples;
#X obj 214 159 prepend set;
#X obj 213 197 t b a;
#X obj 307 147 prepend symbol;
#X connect 0 0 12 0;
#X connect 1 0 11 0;
#X connect 1 0 14 1;
#X connect 2 0 4 0;
#X connect 3 0 13 0;
#X connect 4 0 5 0;
#X connect 4 1 3 1;
#X connect 5 0 3 0;
#X connect 6 0 16 0;
#X connect 8 0 14 0;
#X connect 9 0 15 0;
#X connect 10 0 21 0;
#X connect 11 0 0 0;
#X connect 12 0 9 1;
#X connect 13 0 12 0;
#X connect 13 1 12 1;
#X connect 14 0 18 0;
#X connect 15 0 8 0;
#X connect 16 0 2 0;
#X connect 17 0 23 0;
#X connect 17 0 25 0;
#X connect 18 0 7 0;
#X connect 19 0 22 0;
#X connect 20 0 19 0;
#X connect 21 0 9 0;
#X connect 21 1 20 0;
#X connect 23 0 18 0;
#X connect 24 0 19 0;
#X connect 24 1 19 1;
#X connect 25 0 24 0;
#X restore 237 242 pd samplevoice;
#X floatatom 277 214 5 -48 48 0 - - -;
#X floatatom 958 175 5 0 2 0 - - -;
#X obj 376 149 inlet;
#X obj 238 272 outlet~;
#X obj 237 217 bng 15 250 50 0 empty empty empty 17 7 0 10 -262144
-1 -1;
#X obj 237 153 inlet;
#X obj 277 150 inlet;
#X obj 476 237 outlet;
#X obj 314 150 loadbang;
#X obj 378 237 s \$0-samples;
#X obj 376 207 unpack s f;
#X obj 449 144;
#X obj 376 178 route set;
#X connect 0 0 10 0;
#X connect 1 0 0 0;
#X connect 2 0 6 0;
#X connect 3 0 2 1;
#X connect 5 0 15 0;
#X connect 7 0 2 0;
#X connect 8 0 7 0;
#X connect 9 0 3 0;
#X connect 11 0 3 0;
#X connect 13 0 2 2;
#X connect 13 1 12 0;
#X connect 15 0 2 2;
#X connect 15 1 13 0;
