#N canvas 114 217 707 498 10;
#X floatatom -232 17 5 0 0 2 Number_of_Notes #0-noteCountR #0-noteCount
;
#N canvas 0 0 450 300 (subpatch) 0;
#X array \$0-set-array 8 float 2;
#X coords 0 12 8 0 200 140 1 0 0;
#X restore -127 15 graph;
#N canvas 715 82 650 686 guts 1;
#X obj 109 69 \$0;
#X obj 88 91 pack;
#X obj 88 20 r \$0-noteCount;
#X obj 88 47 t f b;
#X msg 88 113 \; \$2-set-array resize \$1 \;;
#X obj 403 76 r \$0-note;
#X obj 280 98 tabwrite \$0-set-array;
#X obj 294 10 r \$0-pitch;
#X obj 363 50 ftom;
#X obj 363 10 r \$0-frequency;
#X msg 88 151 \; \$2-noteR number \$1 \;;
#X obj 274 148 savepanel;
#X obj 562 84 openpanel;
#X obj 319 189 \$0;
#X obj 274 168 t a b;
#X obj 274 213 pack s f;
#X obj 607 129 \$0;
#X obj 562 108 t a b;
#X obj 562 153 pack s f;
#X obj 274 124 r \$0-save;
#X obj 562 59 r \$0-open;
#N canvas 819 445 450 300 play 0;
#X obj 60 200 dac~ 1 2;
#X obj 59 126 osc~;
#X obj 59 86 mtof;
#X obj 142 -18 r \$0-play;
#X msg 142 29 1;
#X msg 190 30 0;
#X obj 142 97 f;
#X obj 186 99 + 1;
#X obj 142 4 t b b;
#X obj 170 157 >=;
#X obj 185 132 r \$0-noteCount;
#X obj 198 189 sel 1;
#X msg 198 213 0;
#X obj 59 160 *~;
#X obj 59 55 + 60;
#X obj 8 12 tabread \$0-set-array;
#X obj 274 5 r \$0-stop;
#X obj 142 61 metro 500;
#X msg 349 69 \; pd dsp 1;
#X obj 349 45 loadbang;
#X connect 1 0 13 0;
#X connect 2 0 1 0;
#X connect 3 0 8 0;
#X connect 4 0 13 1;
#X connect 4 0 17 0;
#X connect 5 0 6 1;
#X connect 6 0 7 0;
#X connect 6 0 9 0;
#X connect 6 0 15 0;
#X connect 7 0 6 1;
#X connect 8 0 4 0;
#X connect 8 1 5 0;
#X connect 9 0 11 0;
#X connect 10 0 9 1;
#X connect 11 0 12 0;
#X connect 12 0 13 1;
#X connect 12 0 17 0;
#X connect 13 0 0 0;
#X connect 13 0 0 1;
#X connect 14 0 2 0;
#X connect 15 0 14 0;
#X connect 16 0 5 0;
#X connect 16 0 12 0;
#X connect 17 0 6 0;
#X connect 19 0 18 0;
#X restore 87 189 pd play;
#X msg 763 436 \; \$2-set-array resize \$1 \;;
#X obj 784 391 \$0;
#X obj 763 413 pack;
#X obj 763 369 t f b;
#X obj 655 406 s \$0-noteCountR;
#X floatatom 655 353 5 0 0 0 - - -;
#X obj 616 299 msgfile;
#X msg 616 239 read \$1 cr;
#X msg 451 242 \; \$2-set-array read \$1 \;;
#X msg 274 245 \; \$2-set-array write \$1 \;;
#X msg 682 269 end \, skip -1 \, where;
#X obj 655 326 + 1;
#X obj 589 204 t b a;
#X obj 562 183 t a a;
#X obj 159 285 r \$0-note;
#X obj 159 311 tabread \$0-set-array;
#X obj 159 339 s \$0-pitchIn;
#X obj 279 67 f;
#X obj 238 10 r \$0-set;
#X connect 0 0 1 1;
#X connect 1 0 4 0;
#X connect 1 0 10 0;
#X connect 2 0 3 0;
#X connect 3 0 1 0;
#X connect 3 1 0 0;
#X connect 5 0 6 1;
#X connect 7 0 39 1;
#X connect 8 0 39 1;
#X connect 9 0 8 0;
#X connect 11 0 14 0;
#X connect 12 0 17 0;
#X connect 13 0 15 1;
#X connect 14 0 15 0;
#X connect 14 1 13 0;
#X connect 15 0 31 0;
#X connect 16 0 18 1;
#X connect 17 0 18 0;
#X connect 17 1 16 0;
#X connect 18 0 35 0;
#X connect 19 0 11 0;
#X connect 20 0 12 0;
#X connect 23 0 24 1;
#X connect 24 0 22 0;
#X connect 25 0 24 0;
#X connect 25 1 23 0;
#X connect 27 0 26 0;
#X connect 27 0 25 0;
#X connect 28 1 33 0;
#X connect 29 0 28 0;
#X connect 32 0 28 0;
#X connect 33 0 27 0;
#X connect 34 0 32 0;
#X connect 34 1 29 0;
#X connect 35 0 30 0;
#X connect 35 1 34 0;
#X connect 36 0 37 0;
#X connect 37 0 38 0;
#X connect 39 0 6 0;
#X connect 40 0 39 0;
#X restore -232 120 pd guts;
#X obj -128 162 hradio 15 1 0 8 \$0-note \$0-noteR empty 0 -8 0 10
-262144 -1 -1 0;
#X floatatom -128 183 5 0 0 0 - #0-pitchIn #0-pitch;
#X obj -230 40 bng 30 250 50 0 \$0-save empty Save 4 15 0 10 -262144
-1 -1;
#X obj -191 40 bng 30 250 50 0 \$0-open empty Open 4 15 0 10 -262144
-1 -1;
#X obj -232 81 bng 30 250 50 0 \$0-play empty Play 4 15 0 10 -262144
-1 -1;
#X obj -190 81 bng 30 250 50 0 \$0-stop empty Stop 4 15 0 10 -262144
-1 -1;
#X obj -5 184 bng 15 250 50 0 \$0-set empty empty 17 7 0 10 -262144
-1 -1;
