#N canvas 65 82 450 300 10;
#X floatatom 172 121 5 0 0 0 - - -;
#X floatatom 237 123 5 0 0 0 - - -;
#X floatatom 299 124 5 0 0 0 - - -;
#X obj 181 74 notein;
#X connect 3 0 0 0;
#X connect 3 1 1 0;
#X connect 3 2 2 0;
