#N canvas 837 251 450 300 10;
#N canvas 907 400 450 300 load 1;
#X obj 112 34 openpanel;
#X obj 157 79 \$0;
#X obj 112 58 t a b;
#X obj 112 103 pack s f;
#X msg 313 386 \; \$2-set-array resize \$1 \;;
#X obj 334 341 \$0;
#X obj 313 363 pack;
#X obj 313 319 t f b;
#X obj 205 356 s \$0-noteCountR;
#X floatatom 205 303 5 0 0 0 - - -;
#X obj 166 249 msgfile;
#X msg 166 189 read \$1 cr;
#X msg 1 192 \; \$2-set-array read \$1 \;;
#X msg 232 219 end \, skip -1 \, where;
#X obj 205 276 + 1;
#X obj 139 154 t b a;
#X obj 112 133 t a a;
#X obj 112 13 inlet;
#X connect 0 0 2 0;
#X connect 1 0 3 1;
#X connect 2 0 3 0;
#X connect 2 1 1 0;
#X connect 3 0 16 0;
#X connect 5 0 6 1;
#X connect 6 0 4 0;
#X connect 7 0 6 0;
#X connect 7 1 5 0;
#X connect 9 0 8 0;
#X connect 9 0 7 0;
#X connect 10 1 14 0;
#X connect 11 0 10 0;
#X connect 13 0 10 0;
#X connect 14 0 9 0;
#X connect 15 0 13 0;
#X connect 15 1 11 0;
#X connect 16 0 12 0;
#X connect 16 1 15 0;
#X connect 17 0 0 0;
#X restore 35 55 pd load;
#X obj 35 27 bng 15 250 50 0 empty empty empty 17 7 0 10 -262144 -1
-1;
#N canvas 0 0 450 300 (subpatch) 0;
#X array \$0-set-array 7 float 3;
#A 0 0 2 4 5 7 8 10;
#X coords 0 12 7 0 200 140 1 0 0;
#X restore 127 53 graph;
#N canvas 525 251 450 300 tonegrid 1;
#X obj 108 100 until;
#X obj 108 130 f;
#X obj 136 130 + 1;
#X msg 150 67 0;
#X msg 108 66 128;
#X obj 108 45 t b b;
#X obj 108 22 bng 15 250 50 0 empty empty empty 17 7 0 10 -262144 -1
-1;
#X obj 150 156 r \$0-noteCountR;
#X obj 135 186 % 8;
#X obj 108 156 t f f;
#X obj 135 210 tabread \$0-set-array;
#X floatatom 135 242 5 0 0 0 - - -;
#X obj 259 68 keyboard;
#X connect 0 0 1 0;
#X connect 1 0 2 0;
#X connect 1 0 9 0;
#X connect 2 0 1 1;
#X connect 3 0 1 1;
#X connect 4 0 0 0;
#X connect 5 0 4 0;
#X connect 5 1 3 0;
#X connect 6 0 5 0;
#X connect 7 0 8 1;
#X connect 8 0 10 0;
#X connect 9 1 8 0;
#X connect 10 0 11 0;
#X restore 34 212 pd tonegrid;
#X connect 1 0 0 0;
