#N canvas 428 146 1187 1006 10;
#X obj 261 50 prepend load;
#X msg 160 50 save;
#X obj 160 163 list prepend;
#X msg 229 140 \$1;
#X floatatom 279 149 5 0 0 0 - - -;
#X obj 261 29 r \$1-fromGlobal-presets;
#X obj 160 75 u_staterecall \$1;
#X obj 229 113 r \$1-presetnumber;
#X obj 160 267 s \$1-toGlobal-presets;
#X obj 160 27 r \$1-savepreset;
#X connect 0 0 6 0;
#X connect 1 0 6 0;
#X connect 2 0 8 0;
#X connect 3 0 2 1;
#X connect 5 0 0 0;
#X connect 6 0 2 0;
#X connect 7 0 3 0;
#X connect 7 0 4 0;
#X connect 9 0 1 0;
