#N canvas 310 109 973 625 10;
#X obj 42 261 e_del whino;
#X obj 771 327 dac~;
#X msg 154 -109 dry 1;
#X msg 286 -108 feedback 0;
#X obj 70 206 sig~;
#X floatatom 70 152 5 0 0 0 - - -;
#X obj 72 232 lop~ 0.5;
#X obj 30 -142 adc~ 1;
#X obj 154 -68 s toDel;
#X obj 294 236 r toDel;
#X obj 70 177 * 1000;
#X obj 203 268 e_del whino;
#X obj 231 213 sig~;
#X floatatom 231 159 5 0 0 0 - - -;
#X obj 233 239 lop~ 0.5;
#X obj 231 184 * 1000;
#X obj 127 247 r toDel;
#X obj 503 233 r toDel;
#X obj 412 265 e_del whino;
#X obj 440 210 sig~;
#X floatatom 440 156 5 0 0 0 - - -;
#X obj 442 236 lop~ 0.5;
#X obj 440 181 * 1000;
#X obj 701 227 r toDel;
#X obj 610 259 e_del whino;
#X obj 638 204 sig~;
#X floatatom 638 150 5 0 0 0 - - -;
#X obj 640 230 lop~ 0.5;
#X obj 638 175 * 1000;
#N canvas 518 263 450 300 asyntimer 0;
#X obj 38 114 random 200;
#X obj 9 69 t b b;
#X obj 9 177 del;
#X obj 38 156 + 1000;
#X obj 59 198 spigot;
#X obj 38 135 * 50;
#X obj 8 9 inlet;
#X obj 10 222 outlet;
#X obj 87 12 inlet;
#X obj 124 13 inlet;
#X connect 0 0 5 0;
#X connect 1 0 2 0;
#X connect 1 1 0 0;
#X connect 2 0 7 0;
#X connect 2 0 4 0;
#X connect 3 0 2 1;
#X connect 4 0 1 0;
#X connect 5 0 3 0;
#X connect 6 0 1 0;
#X connect 8 0 5 1;
#X connect 9 0 4 1;
#X restore 126 9 pd asyntimer;
#X floatatom 160 -19 5 0 0 0 - - -;
#X obj 200 -19 tgl 15 0 empty empty empty 17 7 0 10 -262144 -1 -1 1
1;
#X obj 126 -19 bng 15 250 50 0 empty empty empty 17 7 0 10 -262144
-1 -1;
#X obj 126 40 bng 15 250 50 0 empty empty empty 17 7 0 10 -262144 -1
-1;
#N canvas 885 235 480 487 conductor 0;
#X obj 85 46 random 4;
#X obj 89 104 f;
#X floatatom 89 127 5 0 0 0 - - -;
#X floatatom 48 102 5 0 0 0 - - -;
#X obj 85 72 t f f b;
#X obj 85 19 inlet;
#X obj -66 130 inlet~;
#X obj -8 427 outlet~;
#X obj -66 427 outlet~;
#X obj 46 428 outlet~;
#X obj 103 428 outlet~;
#X obj -66 317 matrix~ 1 4 1;
#X msg 4 201 connect 0 \$1;
#X msg 89 201 disconnect 0 \$1;
#X connect 0 0 4 0;
#X connect 1 0 2 0;
#X connect 2 0 13 0;
#X connect 3 0 12 0;
#X connect 4 0 3 0;
#X connect 4 1 1 1;
#X connect 4 2 1 0;
#X connect 5 0 0 0;
#X connect 6 0 11 0;
#X connect 11 0 8 0;
#X connect 11 1 7 0;
#X connect 11 2 9 0;
#X connect 11 3 10 0;
#X connect 12 0 11 0;
#X connect 13 0 11 0;
#X restore 57 79 pd conductor;
#X obj 42 381 send~ del;
#X obj 483 -37 receive~ del;
#X obj 483 100 throw~ out;
#X obj 770 277 catch~ out;
#N canvas 848 315 450 300 FFtease 0;
#X obj 184 217 outlet;
#X msg 184 177 overlap \$1;
#X msg 171 132 2;
#X msg 212 131 4;
#X msg 245 130 8;
#X msg 307 175 winfac \$1;
#X msg 292 130 1;
#X msg 333 129 2;
#X msg 365 128 4;
#X msg 46 185 fftinfo;
#X msg 112 165 mute \$1;
#X obj 112 130 tgl 15 0 empty empty empty 0 -6 0 8 -262144 -1 -1 0
1;
#X connect 1 0 0 0;
#X connect 2 0 1 0;
#X connect 3 0 1 0;
#X connect 4 0 1 0;
#X connect 5 0 0 0;
#X connect 6 0 5 0;
#X connect 7 0 5 0;
#X connect 8 0 5 0;
#X connect 9 0 0 0;
#X connect 10 0 0 0;
#X connect 11 0 10 0;
#X restore 662 -7 pd FFtease;
#N canvas 65 97 470 320 threshblock 0;
#X obj 197 47 inlet;
#X obj 234 68 inlet;
#X obj 161 29 inlet~;
#X obj 161 111 outlet~;
#X obj 161 87 thresher~ 4;
#X obj 276 87 block~ 256;
#X obj 313 47 inlet;
#X connect 0 0 4 1;
#X connect 1 0 4 2;
#X connect 2 0 4 0;
#X connect 4 0 3 0;
#X connect 6 0 4 0;
#X restore 503 22 pd threshblock;
#X obj 594 -7 nbx 5 14 -1e+37 1e+37 0 0 empty damp empty 0 -6 0 10
-262144 -1 -1 0 256;
#X obj 533 -7 nbx 5 14 -1e+37 1e+37 0 0 empty thresh empty 0 -6 0 10
-262144 -1 -1 0 256;
#X floatatom 598 37 5 0 0 0 - - -;
#X floatatom 630 -52 5 0 0 0 - - -;
#X obj 639 -28 * 0.1;
#X floatatom 562 -55 5 0 0 0 - - -;
#X obj 571 -31 * 0.1;
#X obj 506 72 hip~ 10;
#X msg 559 -91 9.96;
#X msg 632 -89 0.09;
#X obj 506 53 *~ 10;
#X obj 41 336 *~;
#X obj 180 333 *~;
#X obj 400 318 *~;
#X obj 562 322 *~;
#X obj 66 303 receive~ wind1;
#X obj 202 303 receive~ wind2;
#X obj 446 297 receive~ wind3;
#X obj 597 299 receive~ wind4;
#N canvas 742 256 522 421 randomwalks 0;
#N canvas 518 263 450 300 asyntimer 0;
#X obj 38 114 random 200;
#X obj 9 69 t b b;
#X obj 9 177 del;
#X obj 38 156 + 1000;
#X obj 59 198 spigot;
#X obj 38 135 * 50;
#X obj 8 9 inlet;
#X obj 10 222 outlet;
#X obj 87 12 inlet;
#X obj 124 13 inlet;
#X connect 0 0 5 0;
#X connect 1 0 2 0;
#X connect 1 1 0 0;
#X connect 2 0 7 0;
#X connect 2 0 4 0;
#X connect 3 0 2 1;
#X connect 4 0 1 0;
#X connect 5 0 3 0;
#X connect 6 0 1 0;
#X connect 8 0 5 1;
#X connect 9 0 4 1;
#X restore 58 132 pd asyntimer;
#X obj 61 104 bng 15 250 50 0 empty empty empty 17 7 0 10 -262144 -1
-1;
#X msg 126 109 1;
#X floatatom 75 186 5 0 0 0 - - -;
#X floatatom 85 90 5 0 0 0 - - -;
#X obj 61 161 random 127;
#X obj 75 235 vline~;
#X obj 78 259 /~ 127;
#X obj 81 308 send~ wind1;
#X obj 156 290 send~ wind2;
#X obj 336 298 send~ wind4;
#X msg 75 208 \$1 1000;
#N canvas 518 263 450 300 asyntimer 0;
#X obj 38 114 random 200;
#X obj 9 69 t b b;
#X obj 9 177 del;
#X obj 38 156 + 1000;
#X obj 59 198 spigot;
#X obj 38 135 * 50;
#X obj 8 9 inlet;
#X obj 10 222 outlet;
#X obj 87 12 inlet;
#X obj 124 13 inlet;
#X connect 0 0 5 0;
#X connect 1 0 2 0;
#X connect 1 1 0 0;
#X connect 2 0 7 0;
#X connect 2 0 4 0;
#X connect 3 0 2 1;
#X connect 4 0 1 0;
#X connect 5 0 3 0;
#X connect 6 0 1 0;
#X connect 8 0 5 1;
#X connect 9 0 4 1;
#X restore 155 128 pd asyntimer;
#X obj 158 100 bng 15 250 50 0 empty empty empty 17 7 0 10 -262144
-1 -1;
#X msg 223 105 1;
#X floatatom 172 182 5 0 0 0 - - -;
#X floatatom 182 86 5 0 0 0 - - -;
#X obj 158 157 random 127;
#X obj 172 231 vline~;
#X obj 175 255 /~ 127;
#X msg 172 204 \$1 1000;
#N canvas 518 263 450 300 asyntimer 0;
#X obj 38 114 random 200;
#X obj 9 69 t b b;
#X obj 9 177 del;
#X obj 38 156 + 1000;
#X obj 59 198 spigot;
#X obj 38 135 * 50;
#X obj 8 9 inlet;
#X obj 10 222 outlet;
#X obj 87 12 inlet;
#X obj 124 13 inlet;
#X connect 0 0 5 0;
#X connect 1 0 2 0;
#X connect 1 1 0 0;
#X connect 2 0 7 0;
#X connect 2 0 4 0;
#X connect 3 0 2 1;
#X connect 4 0 1 0;
#X connect 5 0 3 0;
#X connect 6 0 1 0;
#X connect 8 0 5 1;
#X connect 9 0 4 1;
#X restore 262 123 pd asyntimer;
#X obj 265 95 bng 15 250 50 0 empty empty empty 17 7 0 10 -262144 -1
-1;
#X msg 330 100 1;
#X floatatom 279 177 5 0 0 0 - - -;
#X floatatom 289 81 5 0 0 0 - - -;
#X obj 265 152 random 127;
#X obj 279 226 vline~;
#X obj 282 250 /~ 127;
#X msg 279 199 \$1 1000;
#X obj 251 299 send~ wind3;
#N canvas 518 263 450 300 asyntimer 0;
#X obj 38 114 random 200;
#X obj 9 69 t b b;
#X obj 9 177 del;
#X obj 38 156 + 1000;
#X obj 59 198 spigot;
#X obj 38 135 * 50;
#X obj 8 9 inlet;
#X obj 10 222 outlet;
#X obj 87 12 inlet;
#X obj 124 13 inlet;
#X connect 0 0 5 0;
#X connect 1 0 2 0;
#X connect 1 1 0 0;
#X connect 2 0 7 0;
#X connect 2 0 4 0;
#X connect 3 0 2 1;
#X connect 4 0 1 0;
#X connect 5 0 3 0;
#X connect 6 0 1 0;
#X connect 8 0 5 1;
#X connect 9 0 4 1;
#X restore 359 121 pd asyntimer;
#X obj 362 93 bng 15 250 50 0 empty empty empty 17 7 0 10 -262144 -1
-1;
#X msg 427 98 1;
#X floatatom 376 175 5 0 0 0 - - -;
#X floatatom 386 79 5 0 0 0 - - -;
#X obj 362 150 random 127;
#X obj 376 224 vline~;
#X obj 379 248 /~ 127;
#X msg 376 197 \$1 1000;
#X obj 144 -42 loadbang;
#X obj 150 -9 t b b b;
#X msg 170 25 5;
#X obj 166 -73 bng 15 250 50 0 empty empty empty 17 7 0 10 -262144
-1 -1;
#X connect 0 0 5 0;
#X connect 1 0 0 0;
#X connect 2 0 0 2;
#X connect 3 0 11 0;
#X connect 4 0 0 1;
#X connect 5 0 3 0;
#X connect 6 0 7 0;
#X connect 7 0 8 0;
#X connect 11 0 6 0;
#X connect 12 0 17 0;
#X connect 13 0 12 0;
#X connect 14 0 12 2;
#X connect 15 0 20 0;
#X connect 16 0 12 1;
#X connect 17 0 15 0;
#X connect 18 0 19 0;
#X connect 19 0 9 0;
#X connect 20 0 18 0;
#X connect 21 0 26 0;
#X connect 22 0 21 0;
#X connect 23 0 21 2;
#X connect 24 0 29 0;
#X connect 25 0 21 1;
#X connect 26 0 24 0;
#X connect 27 0 28 0;
#X connect 28 0 30 0;
#X connect 29 0 27 0;
#X connect 31 0 36 0;
#X connect 32 0 31 0;
#X connect 33 0 31 2;
#X connect 34 0 39 0;
#X connect 35 0 31 1;
#X connect 36 0 34 0;
#X connect 37 0 38 0;
#X connect 38 0 10 0;
#X connect 39 0 37 0;
#X connect 40 0 41 0;
#X connect 41 0 1 0;
#X connect 41 0 13 0;
#X connect 41 0 22 0;
#X connect 41 0 32 0;
#X connect 41 1 42 0;
#X connect 41 2 33 0;
#X connect 41 2 23 0;
#X connect 41 2 14 0;
#X connect 41 2 2 0;
#X connect 42 0 35 0;
#X connect 42 0 25 0;
#X connect 42 0 16 0;
#X connect 42 0 4 0;
#X connect 43 0 40 0;
#X restore 769 83 pd randomwalks;
#X obj 207 472 send~ filter;
#X obj 844 272 receive~ filter;
#X floatatom 277 382 5 0 0 0 - - -;
#X floatatom 232 334 5 0 0 0 - - -;
#X obj 29 -120 *~;
#X obj 76 -140 tgl 15 0 empty empty empty 17 7 0 10 -262144 -1 -1 0
1;
#X floatatom 354 418 5 0 0 0 - - -;
#X obj 819 210 receive~ del;
#X obj 155 -134 loadbang;
#X obj 276 -88 loadbang;
#X obj 272 -50 t b b b;
#X msg 286 -25 50;
#X msg 247 90 10;
#X msg 352 93 30;
#X msg 306 82 17;
#X msg 393 101 22;
#X obj 206 385 bp~ 700 5;
#X obj 208 426 bp~ 700 5;
#X obj 207 451 *~ 0;
#X obj 29 -94 send~ inlet;
#X obj 58 -43 receive~ inlet;
#X obj 771 171 receive~ inlet;
#X msg 204 -105 feedback 1;
#X obj 480 -92 adc~ 2;
#X floatatom 100 -138 5 0 0 0 - - -;
#X obj 840 238 *~ 1;
#X floatatom 884 165 5 0 0 0 - - -;
#X connect 0 0 52 0;
#X connect 0 0 77 0;
#X connect 2 0 8 0;
#X connect 3 0 8 0;
#X connect 4 0 6 0;
#X connect 5 0 10 0;
#X connect 6 0 0 1;
#X connect 7 0 65 0;
#X connect 9 0 11 2;
#X connect 10 0 4 0;
#X connect 11 0 53 0;
#X connect 11 0 77 0;
#X connect 12 0 14 0;
#X connect 13 0 15 0;
#X connect 14 0 11 1;
#X connect 15 0 12 0;
#X connect 16 0 0 2;
#X connect 17 0 18 2;
#X connect 18 0 54 0;
#X connect 18 0 77 0;
#X connect 19 0 21 0;
#X connect 20 0 22 0;
#X connect 21 0 18 1;
#X connect 22 0 19 0;
#X connect 23 0 24 2;
#X connect 24 0 55 0;
#X connect 24 0 77 0;
#X connect 25 0 27 0;
#X connect 26 0 28 0;
#X connect 27 0 24 1;
#X connect 28 0 25 0;
#X connect 29 0 33 0;
#X connect 30 0 29 1;
#X connect 31 0 29 2;
#X connect 32 0 29 0;
#X connect 33 0 34 1;
#X connect 34 0 0 0;
#X connect 34 1 11 0;
#X connect 34 2 18 0;
#X connect 34 3 24 0;
#X connect 36 0 40 0;
#X connect 38 0 1 0;
#X connect 38 0 1 1;
#X connect 39 0 40 3;
#X connect 40 0 51 0;
#X connect 41 0 40 2;
#X connect 42 0 40 1;
#X connect 43 0 51 1;
#X connect 44 0 45 0;
#X connect 45 0 40 1;
#X connect 46 0 47 0;
#X connect 47 0 40 2;
#X connect 48 0 37 0;
#X connect 49 0 46 0;
#X connect 50 0 44 0;
#X connect 51 0 48 0;
#X connect 52 0 35 0;
#X connect 53 0 35 0;
#X connect 54 0 35 0;
#X connect 55 0 35 0;
#X connect 56 0 52 1;
#X connect 57 0 53 1;
#X connect 58 0 54 1;
#X connect 59 0 55 1;
#X connect 62 0 1 0;
#X connect 62 0 1 1;
#X connect 63 0 77 2;
#X connect 63 0 78 2;
#X connect 64 0 77 1;
#X connect 64 0 78 1;
#X connect 65 0 80 0;
#X connect 66 0 65 1;
#X connect 67 0 79 1;
#X connect 68 0 86 0;
#X connect 69 0 2 0;
#X connect 69 0 83 0;
#X connect 70 0 71 0;
#X connect 71 0 32 0;
#X connect 71 1 72 0;
#X connect 71 2 31 0;
#X connect 71 2 73 0;
#X connect 71 2 75 0;
#X connect 71 2 74 0;
#X connect 71 2 76 0;
#X connect 72 0 30 0;
#X connect 73 0 5 0;
#X connect 74 0 20 0;
#X connect 75 0 13 0;
#X connect 76 0 26 0;
#X connect 77 0 78 0;
#X connect 78 0 79 0;
#X connect 79 0 61 0;
#X connect 81 0 34 0;
#X connect 83 0 8 0;
#X connect 85 0 65 1;
#X connect 86 0 1 0;
#X connect 86 0 1 1;
#X connect 87 0 86 1;
